%TF.GenerationSoftware,KiCad,Pcbnew,7.0.5*%
%TF.CreationDate,2024-03-28T22:27:53-05:00*%
%TF.ProjectId,LEDSphere,4c454453-7068-4657-9265-2e6b69636164,rev?*%
%TF.SameCoordinates,Original*%
%TF.FileFunction,Paste,Top*%
%TF.FilePolarity,Positive*%
%FSLAX46Y46*%
G04 Gerber Fmt 4.6, Leading zero omitted, Abs format (unit mm)*
G04 Created by KiCad (PCBNEW 7.0.5) date 2024-03-28 22:27:53*
%MOMM*%
%LPD*%
G01*
G04 APERTURE LIST*
G04 Aperture macros list*
%AMRoundRect*
0 Rectangle with rounded corners*
0 $1 Rounding radius*
0 $2 $3 $4 $5 $6 $7 $8 $9 X,Y pos of 4 corners*
0 Add a 4 corners polygon primitive as box body*
4,1,4,$2,$3,$4,$5,$6,$7,$8,$9,$2,$3,0*
0 Add four circle primitives for the rounded corners*
1,1,$1+$1,$2,$3*
1,1,$1+$1,$4,$5*
1,1,$1+$1,$6,$7*
1,1,$1+$1,$8,$9*
0 Add four rect primitives between the rounded corners*
20,1,$1+$1,$2,$3,$4,$5,0*
20,1,$1+$1,$4,$5,$6,$7,0*
20,1,$1+$1,$6,$7,$8,$9,0*
20,1,$1+$1,$8,$9,$2,$3,0*%
G04 Aperture macros list end*
%ADD10C,0.010000*%
%ADD11C,0.100000*%
%ADD12RoundRect,0.008100X-0.126900X0.451900X-0.126900X-0.451900X0.126900X-0.451900X0.126900X0.451900X0*%
%ADD13R,1.000000X0.300000*%
%ADD14R,0.300000X1.000000*%
%ADD15R,1.090000X0.610000*%
%ADD16R,3.550000X0.850000*%
%ADD17R,2.650000X0.850000*%
%ADD18R,0.800000X0.400000*%
%ADD19R,0.400000X0.800000*%
%ADD20R,1.450000X1.450000*%
%ADD21R,0.700000X0.700000*%
%ADD22R,0.410000X0.280000*%
%ADD23R,0.280000X0.410000*%
%ADD24R,0.475000X0.300000*%
%ADD25R,1.150000X0.300000*%
%ADD26RoundRect,0.135000X0.185000X-0.135000X0.185000X0.135000X-0.185000X0.135000X-0.185000X-0.135000X0*%
%ADD27RoundRect,0.135000X0.135000X0.185000X-0.135000X0.185000X-0.135000X-0.185000X0.135000X-0.185000X0*%
%ADD28RoundRect,0.135000X-0.185000X0.135000X-0.185000X-0.135000X0.185000X-0.135000X0.185000X0.135000X0*%
%ADD29RoundRect,0.140000X-0.170000X0.140000X-0.170000X-0.140000X0.170000X-0.140000X0.170000X0.140000X0*%
%ADD30RoundRect,0.500000X0.326506X-0.627211X0.627211X0.326506X-0.326506X0.627211X-0.627211X-0.326506X0*%
%ADD31RoundRect,0.225000X-0.250000X0.225000X-0.250000X-0.225000X0.250000X-0.225000X0.250000X0.225000X0*%
%ADD32RoundRect,0.140000X-0.140000X-0.170000X0.140000X-0.170000X0.140000X0.170000X-0.140000X0.170000X0*%
%ADD33R,0.300000X0.850000*%
%ADD34R,2.250000X1.700000*%
%ADD35RoundRect,0.140000X0.170000X-0.140000X0.170000X0.140000X-0.170000X0.140000X-0.170000X-0.140000X0*%
%ADD36RoundRect,0.140000X0.140000X0.170000X-0.140000X0.170000X-0.140000X-0.170000X0.140000X-0.170000X0*%
%ADD37RoundRect,0.225000X0.225000X0.250000X-0.225000X0.250000X-0.225000X-0.250000X0.225000X-0.250000X0*%
%ADD38RoundRect,0.135000X-0.135000X-0.185000X0.135000X-0.185000X0.135000X0.185000X-0.135000X0.185000X0*%
%ADD39RoundRect,0.225000X0.250000X-0.225000X0.250000X0.225000X-0.250000X0.225000X-0.250000X-0.225000X0*%
%ADD40R,0.900000X0.800000*%
%ADD41RoundRect,0.147500X0.147500X0.172500X-0.147500X0.172500X-0.147500X-0.172500X0.147500X-0.172500X0*%
%ADD42R,1.750000X1.100000*%
%ADD43R,0.750000X0.300000*%
%ADD44R,0.900000X1.300000*%
%ADD45R,0.610000X1.090000*%
%ADD46R,1.000000X3.500000*%
%ADD47R,1.500000X3.400000*%
%ADD48R,0.980000X3.400000*%
%ADD49R,0.900000X1.000000*%
%ADD50R,0.450000X1.050000*%
%ADD51R,0.850000X0.300000*%
%ADD52R,1.250000X1.250000*%
%ADD53RoundRect,0.250000X0.300000X0.300000X-0.300000X0.300000X-0.300000X-0.300000X0.300000X-0.300000X0*%
G04 APERTURE END LIST*
%TO.C,U200*%
D10*
X134495000Y-101550000D02*
X133075000Y-101550000D01*
X133075000Y-100610000D01*
X134495000Y-100610000D01*
X134495000Y-101550000D01*
G36*
X134495000Y-101550000D02*
G01*
X133075000Y-101550000D01*
X133075000Y-100610000D01*
X134495000Y-100610000D01*
X134495000Y-101550000D01*
G37*
D11*
%TO.C,IC2*%
X141205000Y-102370000D02*
X140455000Y-102370000D01*
X140455000Y-102370000D02*
X140455000Y-101620000D01*
X140455000Y-101620000D02*
X141205000Y-101620000D01*
X141205000Y-101620000D02*
X141205000Y-102370000D01*
G36*
X141205000Y-102370000D02*
G01*
X140455000Y-102370000D01*
X140455000Y-101620000D01*
X141205000Y-101620000D01*
X141205000Y-102370000D01*
G37*
X141205000Y-101370000D02*
X140455000Y-101370000D01*
X140455000Y-101370000D02*
X140455000Y-100620000D01*
X140455000Y-100620000D02*
X141205000Y-100620000D01*
X141205000Y-100620000D02*
X141205000Y-101370000D01*
G36*
X141205000Y-101370000D02*
G01*
X140455000Y-101370000D01*
X140455000Y-100620000D01*
X141205000Y-100620000D01*
X141205000Y-101370000D01*
G37*
X141205000Y-100370000D02*
X140455000Y-100370000D01*
X140455000Y-100370000D02*
X140455000Y-99620000D01*
X140455000Y-99620000D02*
X141205000Y-99620000D01*
X141205000Y-99620000D02*
X141205000Y-100370000D01*
G36*
X141205000Y-100370000D02*
G01*
X140455000Y-100370000D01*
X140455000Y-99620000D01*
X141205000Y-99620000D01*
X141205000Y-100370000D01*
G37*
X140205000Y-102370000D02*
X139455000Y-102370000D01*
X139455000Y-102370000D02*
X139455000Y-101620000D01*
X139455000Y-101620000D02*
X140205000Y-101620000D01*
X140205000Y-101620000D02*
X140205000Y-102370000D01*
G36*
X140205000Y-102370000D02*
G01*
X139455000Y-102370000D01*
X139455000Y-101620000D01*
X140205000Y-101620000D01*
X140205000Y-102370000D01*
G37*
X140205000Y-101370000D02*
X139455000Y-101370000D01*
X139455000Y-101370000D02*
X139455000Y-100620000D01*
X139455000Y-100620000D02*
X140205000Y-100620000D01*
X140205000Y-100620000D02*
X140205000Y-101370000D01*
G36*
X140205000Y-101370000D02*
G01*
X139455000Y-101370000D01*
X139455000Y-100620000D01*
X140205000Y-100620000D01*
X140205000Y-101370000D01*
G37*
X140205000Y-100370000D02*
X139455000Y-100370000D01*
X139455000Y-100370000D02*
X139455000Y-99620000D01*
X139455000Y-99620000D02*
X140205000Y-99620000D01*
X140205000Y-99620000D02*
X140205000Y-100370000D01*
G36*
X140205000Y-100370000D02*
G01*
X139455000Y-100370000D01*
X139455000Y-99620000D01*
X140205000Y-99620000D01*
X140205000Y-100370000D01*
G37*
X139205000Y-102370000D02*
X138455000Y-102370000D01*
X138455000Y-102370000D02*
X138455000Y-101620000D01*
X138455000Y-101620000D02*
X139205000Y-101620000D01*
X139205000Y-101620000D02*
X139205000Y-102370000D01*
G36*
X139205000Y-102370000D02*
G01*
X138455000Y-102370000D01*
X138455000Y-101620000D01*
X139205000Y-101620000D01*
X139205000Y-102370000D01*
G37*
X139205000Y-101370000D02*
X138455000Y-101370000D01*
X138455000Y-101370000D02*
X138455000Y-100620000D01*
X138455000Y-100620000D02*
X139205000Y-100620000D01*
X139205000Y-100620000D02*
X139205000Y-101370000D01*
G36*
X139205000Y-101370000D02*
G01*
X138455000Y-101370000D01*
X138455000Y-100620000D01*
X139205000Y-100620000D01*
X139205000Y-101370000D01*
G37*
X139205000Y-100370000D02*
X138455000Y-100370000D01*
X138455000Y-100370000D02*
X138455000Y-99620000D01*
X138455000Y-99620000D02*
X139205000Y-99620000D01*
X139205000Y-99620000D02*
X139205000Y-100370000D01*
G36*
X139205000Y-100370000D02*
G01*
X138455000Y-100370000D01*
X138455000Y-99620000D01*
X139205000Y-99620000D01*
X139205000Y-100370000D01*
G37*
%TD*%
D12*
%TO.C,U200*%
X134760000Y-99690000D03*
X134110000Y-99690000D03*
X133460000Y-99690000D03*
X132810000Y-99690000D03*
X132810000Y-102470000D03*
X133460000Y-102470000D03*
X134110000Y-102470000D03*
X134760000Y-102470000D03*
%TD*%
D13*
%TO.C,IC2*%
X142200000Y-102490000D03*
X142200000Y-101990000D03*
X142200000Y-101490000D03*
X142200000Y-100990000D03*
X142200000Y-100490000D03*
X142200000Y-99990000D03*
X142200000Y-99490000D03*
D14*
X141350000Y-98640000D03*
X140850000Y-98640000D03*
X140350000Y-98640000D03*
X139850000Y-98640000D03*
X139350000Y-98640000D03*
X138850000Y-98640000D03*
X138350000Y-98640000D03*
D13*
X137500000Y-99490000D03*
X137500000Y-99990000D03*
X137500000Y-100490000D03*
X137500000Y-100990000D03*
X137500000Y-101490000D03*
X137500000Y-101990000D03*
X137500000Y-102490000D03*
D14*
X138350000Y-103340000D03*
X138850000Y-103340000D03*
X139350000Y-103340000D03*
X139850000Y-103340000D03*
X140350000Y-103340000D03*
X140850000Y-103340000D03*
X141350000Y-103340000D03*
%TD*%
D15*
%TO.C,Q100*%
X137275000Y-88185000D03*
X137275000Y-86355000D03*
X135135000Y-87270000D03*
%TD*%
D16*
%TO.C,J101*%
X174260000Y-90470000D03*
X174260000Y-88970000D03*
X174260000Y-87470000D03*
D17*
X170360000Y-87470000D03*
X170360000Y-88970000D03*
X170360000Y-90470000D03*
%TD*%
D16*
%TO.C,J100*%
X125650000Y-87470000D03*
X125650000Y-88970000D03*
X125650000Y-90470000D03*
D17*
X129550000Y-90470000D03*
X129550000Y-88970000D03*
X129550000Y-87470000D03*
%TD*%
D18*
%TO.C,IC1*%
X144200000Y-78390000D03*
X144200000Y-79190000D03*
X144200000Y-79990000D03*
X144200000Y-80790000D03*
X144200000Y-81590000D03*
X144200000Y-82390000D03*
X144200000Y-83190000D03*
X144200000Y-83990000D03*
X144200000Y-84790000D03*
X144200000Y-85590000D03*
X144200000Y-86390000D03*
D19*
X145300000Y-87290000D03*
X146100000Y-87290000D03*
X146900000Y-87290000D03*
X147700000Y-87290000D03*
X148500000Y-87290000D03*
X149300000Y-87290000D03*
X150100000Y-87290000D03*
X150900000Y-87290000D03*
X151700000Y-87290000D03*
X152500000Y-87290000D03*
X153300000Y-87290000D03*
X154100000Y-87290000D03*
X154900000Y-87290000D03*
D18*
X156000000Y-86390000D03*
X156000000Y-85590000D03*
X156000000Y-84790000D03*
X156000000Y-83990000D03*
X156000000Y-83190000D03*
X156000000Y-82390000D03*
X156000000Y-81590000D03*
X156000000Y-80790000D03*
X156000000Y-79990000D03*
X156000000Y-79190000D03*
X156000000Y-78390000D03*
D19*
X154900000Y-77490000D03*
X154100000Y-77490000D03*
X153300000Y-77490000D03*
X152500000Y-77490000D03*
X151700000Y-77490000D03*
X150900000Y-77490000D03*
X150100000Y-77490000D03*
X149300000Y-77490000D03*
X148500000Y-77490000D03*
X147700000Y-77490000D03*
X146900000Y-77490000D03*
X146100000Y-77490000D03*
X145300000Y-77490000D03*
D20*
X150100000Y-82390000D03*
X152075000Y-80415000D03*
X150100000Y-80415000D03*
X148125000Y-80415000D03*
X148125000Y-82390000D03*
X148125000Y-84365000D03*
X150100000Y-84365000D03*
X152075000Y-84365000D03*
X152075000Y-82390000D03*
D21*
X144150000Y-77440000D03*
X144150000Y-87340000D03*
X156050000Y-87340000D03*
X156050000Y-77440000D03*
%TD*%
D22*
%TO.C,U1*%
X161719830Y-86230000D03*
X161719830Y-85730000D03*
X161719830Y-85230000D03*
X161719830Y-84730000D03*
D23*
X161154830Y-84665000D03*
X160654830Y-84665000D03*
D22*
X160089830Y-84730000D03*
X160089830Y-85230000D03*
X160089830Y-85730000D03*
X160089830Y-86230000D03*
D23*
X160654830Y-86295000D03*
X161154830Y-86295000D03*
%TD*%
D24*
%TO.C,IC3*%
X165522830Y-87050000D03*
X165522830Y-87550000D03*
X165522830Y-88050000D03*
X163846830Y-88050000D03*
X163846830Y-87550000D03*
X163846830Y-87050000D03*
%TD*%
D25*
%TO.C,J200*%
X145180000Y-103490000D03*
X145180000Y-101990000D03*
X145180000Y-101490000D03*
X145180000Y-100990000D03*
X145180000Y-100490000D03*
X145180000Y-99990000D03*
X145180000Y-99490000D03*
X145180000Y-97990000D03*
X148150000Y-97990000D03*
X148150000Y-99490000D03*
X148150000Y-99990000D03*
X148150000Y-100490000D03*
X148150000Y-100990000D03*
X148150000Y-101490000D03*
X148150000Y-101990000D03*
X148150000Y-103490000D03*
%TD*%
D26*
%TO.C,R7*%
X132935000Y-95120000D03*
X132935000Y-94100000D03*
%TD*%
D27*
%TO.C,R201*%
X151900000Y-103437500D03*
X150880000Y-103437500D03*
%TD*%
D28*
%TO.C,R8*%
X162700000Y-87080000D03*
X162700000Y-88100000D03*
%TD*%
D29*
%TO.C,C12*%
X168510000Y-97960000D03*
X168510000Y-98920000D03*
%TD*%
D30*
%TO.C,LS1*%
X169800118Y-110422038D03*
X174010000Y-97070000D03*
%TD*%
D31*
%TO.C,C207*%
X134050000Y-112080000D03*
X134050000Y-113630000D03*
%TD*%
D32*
%TO.C,C200*%
X150890000Y-99472500D03*
X151850000Y-99472500D03*
%TD*%
D27*
%TO.C,R209*%
X167400000Y-116550000D03*
X166380000Y-116550000D03*
%TD*%
D33*
%TO.C,IC200*%
X156350000Y-103790000D03*
X155850000Y-103790000D03*
X155350000Y-103790000D03*
X154850000Y-103790000D03*
X154350000Y-103790000D03*
X154350000Y-106690000D03*
X154850000Y-106690000D03*
X155350000Y-106690000D03*
X155850000Y-106690000D03*
X156350000Y-106690000D03*
D34*
X155350000Y-105240000D03*
%TD*%
D35*
%TO.C,C213*%
X165483332Y-119040000D03*
X165483332Y-118080000D03*
%TD*%
D29*
%TO.C,C209*%
X164200000Y-114280000D03*
X164200000Y-115240000D03*
%TD*%
D36*
%TO.C,C3*%
X154010000Y-98150000D03*
X153050000Y-98150000D03*
%TD*%
D33*
%TO.C,IC202*%
X139280000Y-112235000D03*
X138780000Y-112235000D03*
X138280000Y-112235000D03*
X137780000Y-112235000D03*
X137280000Y-112235000D03*
X137280000Y-115135000D03*
X137780000Y-115135000D03*
X138280000Y-115135000D03*
X138780000Y-115135000D03*
X139280000Y-115135000D03*
D34*
X138280000Y-113685000D03*
%TD*%
D37*
%TO.C,C1*%
X141625000Y-82250000D03*
X140075000Y-82250000D03*
%TD*%
D31*
%TO.C,C206*%
X132460000Y-112080000D03*
X132460000Y-113630000D03*
%TD*%
D27*
%TO.C,R204*%
X148450000Y-93920000D03*
X147430000Y-93920000D03*
%TD*%
D38*
%TO.C,R213*%
X138640000Y-116720000D03*
X139660000Y-116720000D03*
%TD*%
%TO.C,R2*%
X138880000Y-97180000D03*
X139900000Y-97180000D03*
%TD*%
D29*
%TO.C,C8*%
X166700000Y-87040000D03*
X166700000Y-88000000D03*
%TD*%
D26*
%TO.C,R6*%
X167100000Y-95880000D03*
X167100000Y-94860000D03*
%TD*%
D27*
%TO.C,R3*%
X142690000Y-96030000D03*
X141670000Y-96030000D03*
%TD*%
D15*
%TO.C,Q1*%
X135115000Y-93635000D03*
X135115000Y-95465000D03*
X137255000Y-94550000D03*
%TD*%
D39*
%TO.C,C205*%
X140930000Y-115090000D03*
X140930000Y-113540000D03*
%TD*%
D36*
%TO.C,C6*%
X139870000Y-94870000D03*
X138910000Y-94870000D03*
%TD*%
D40*
%TO.C,Q200*%
X157090000Y-112170000D03*
X157090000Y-110270000D03*
X154990000Y-111220000D03*
%TD*%
D26*
%TO.C,R211*%
X152790000Y-115010000D03*
X152790000Y-113990000D03*
%TD*%
D28*
%TO.C,R5*%
X132955000Y-90580000D03*
X132955000Y-91600000D03*
%TD*%
D36*
%TO.C,C9*%
X160370000Y-83480000D03*
X161330000Y-83480000D03*
%TD*%
D41*
%TO.C,D201*%
X154035000Y-100827500D03*
X153065000Y-100827500D03*
%TD*%
D29*
%TO.C,C204*%
X147630000Y-112080000D03*
X147630000Y-113040000D03*
%TD*%
%TO.C,C202*%
X136150000Y-99400000D03*
X136150000Y-100360000D03*
%TD*%
D35*
%TO.C,C5*%
X141710000Y-87790000D03*
X141710000Y-86830000D03*
%TD*%
D26*
%TO.C,R216*%
X154490000Y-115010000D03*
X154490000Y-113990000D03*
%TD*%
D31*
%TO.C,C212*%
X157930000Y-114275000D03*
X157930000Y-115825000D03*
%TD*%
D42*
%TO.C,R212*%
X151450000Y-109660000D03*
X151450000Y-108260000D03*
X148700000Y-108260000D03*
X148700000Y-109660000D03*
%TD*%
D36*
%TO.C,C7*%
X139870000Y-96030000D03*
X138910000Y-96030000D03*
%TD*%
D38*
%TO.C,R9*%
X165150000Y-85690000D03*
X164130000Y-85690000D03*
%TD*%
D43*
%TO.C,IC201*%
X165810000Y-113730000D03*
X165810000Y-114230000D03*
X165810000Y-114730000D03*
X165810000Y-115230000D03*
X167810000Y-115230000D03*
X167810000Y-114730000D03*
X167810000Y-114230000D03*
X167810000Y-113730000D03*
D44*
X166810000Y-114480000D03*
%TD*%
D38*
%TO.C,R4*%
X141670000Y-94890000D03*
X142690000Y-94890000D03*
%TD*%
D29*
%TO.C,C10*%
X158930000Y-85870000D03*
X158930000Y-84910000D03*
%TD*%
D45*
%TO.C,Q201*%
X160395000Y-115590000D03*
X162225000Y-115590000D03*
X161310000Y-113450000D03*
%TD*%
D38*
%TO.C,R206*%
X150880000Y-104710000D03*
X151900000Y-104710000D03*
%TD*%
D26*
%TO.C,R101*%
X138960000Y-87820000D03*
X138960000Y-86800000D03*
%TD*%
%TO.C,R215*%
X166930000Y-119070000D03*
X166930000Y-118050000D03*
%TD*%
D36*
%TO.C,C210*%
X135880000Y-115140000D03*
X134920000Y-115140000D03*
%TD*%
D15*
%TO.C,Q2*%
X135135000Y-90055000D03*
X135135000Y-91885000D03*
X137275000Y-90970000D03*
%TD*%
D26*
%TO.C,R217*%
X156190000Y-115010000D03*
X156190000Y-113990000D03*
%TD*%
D27*
%TO.C,R210*%
X136580000Y-109630000D03*
X135560000Y-109630000D03*
%TD*%
D46*
%TO.C,J201*%
X163160000Y-108698000D03*
X161160000Y-108698000D03*
D47*
X165510000Y-103148000D03*
X158810000Y-103148000D03*
%TD*%
D31*
%TO.C,C208*%
X135670000Y-112080000D03*
X135670000Y-113630000D03*
%TD*%
D36*
%TO.C,C2*%
X141880000Y-80800000D03*
X140920000Y-80800000D03*
%TD*%
D41*
%TO.C,D202*%
X154035000Y-99472500D03*
X153065000Y-99472500D03*
%TD*%
D27*
%TO.C,R200*%
X151900000Y-100892500D03*
X150880000Y-100892500D03*
%TD*%
%TO.C,R203*%
X145790000Y-93920000D03*
X144770000Y-93920000D03*
%TD*%
D48*
%TO.C,L200*%
X141765000Y-109405000D03*
X139395000Y-109405000D03*
%TD*%
D26*
%TO.C,R1*%
X140340000Y-87820000D03*
X140340000Y-86800000D03*
%TD*%
%TO.C,R208*%
X142700000Y-105980000D03*
X142700000Y-104960000D03*
%TD*%
D36*
%TO.C,C4*%
X142660000Y-97180000D03*
X141700000Y-97180000D03*
%TD*%
D49*
%TO.C,SW1*%
X151530000Y-96050000D03*
X151530000Y-94450000D03*
X155630000Y-96050000D03*
X155630000Y-94450000D03*
%TD*%
D26*
%TO.C,R214*%
X164036666Y-119070000D03*
X164036666Y-118050000D03*
%TD*%
D29*
%TO.C,C211*%
X162590000Y-118080000D03*
X162590000Y-119040000D03*
%TD*%
D27*
%TO.C,R202*%
X151900000Y-102165000D03*
X150880000Y-102165000D03*
%TD*%
D50*
%TO.C,IC203*%
X150885000Y-112075000D03*
X150235000Y-112075000D03*
X149585000Y-112075000D03*
X148935000Y-112075000D03*
X148935000Y-114725000D03*
X149585000Y-114725000D03*
X150235000Y-114725000D03*
X150885000Y-114725000D03*
%TD*%
D35*
%TO.C,C201*%
X136150000Y-102350000D03*
X136150000Y-101390000D03*
%TD*%
D28*
%TO.C,R102*%
X133010000Y-85660000D03*
X133010000Y-86680000D03*
%TD*%
D38*
%TO.C,R205*%
X150880000Y-105982500D03*
X151900000Y-105982500D03*
%TD*%
D31*
%TO.C,C11*%
X167090000Y-97355000D03*
X167090000Y-98905000D03*
%TD*%
D51*
%TO.C,IC4*%
X168680000Y-94430000D03*
X168680000Y-94930000D03*
X168680000Y-95430000D03*
X168680000Y-95930000D03*
D33*
X169380000Y-96630000D03*
X169880000Y-96630000D03*
X170380000Y-96630000D03*
X170880000Y-96630000D03*
D51*
X171580000Y-95930000D03*
X171580000Y-95430000D03*
X171580000Y-94930000D03*
X171580000Y-94430000D03*
D33*
X170880000Y-93730000D03*
X170380000Y-93730000D03*
X169880000Y-93730000D03*
X169380000Y-93730000D03*
D52*
X170130000Y-95180000D03*
%TD*%
D32*
%TO.C,C203*%
X156140000Y-108270000D03*
X157100000Y-108270000D03*
%TD*%
D41*
%TO.C,D200*%
X154035000Y-102182500D03*
X153065000Y-102182500D03*
%TD*%
D28*
%TO.C,R100*%
X133000000Y-87820000D03*
X133000000Y-88840000D03*
%TD*%
D27*
%TO.C,R207*%
X151880000Y-98160000D03*
X150860000Y-98160000D03*
%TD*%
D53*
%TO.C,D203*%
X160800000Y-118670000D03*
X158000000Y-118670000D03*
%TD*%
M02*
