M48
; DRILL file {KiCad 7.0.5} date Thu Mar 28 22:27:47 2024
; FORMAT={-:-/ absolute / metric / decimal}
; #@! TF.CreationDate,2024-03-28T22:27:47-05:00
; #@! TF.GenerationSoftware,Kicad,Pcbnew,7.0.5
; #@! TF.FileFunction,MixedPlating,1,4
FMAT,2
METRIC
; #@! TA.AperFunction,Plated,PTH,ViaDrill
T1C0.300
; #@! TA.AperFunction,Plated,PTH,ComponentDrill
T2C1.150
; #@! TA.AperFunction,NonPlated,NPTH,ComponentDrill
T3C0.710
%
G90
G05
T1
X121.61Y-85.85
X121.73Y-88.48
X121.85Y-90.06
X121.85Y-91.0
X121.88Y-87.47
X122.96Y-87.57
X123.03Y-90.08
X123.03Y-91.14
X123.1Y-88.58
X124.94Y-95.93
X128.172Y-104.168
X129.073Y-113.57
X130.185Y-95.92
X131.455Y-87.845
X131.89Y-96.79
X132.35Y-110.94
X132.49Y-97.32
X132.5Y-109.17
X132.98Y-92.52
X133.0Y-84.78
X133.03Y-100.7
X133.03Y-101.45
X133.335Y-122.03
X133.35Y-110.6
X133.78Y-100.7
X133.78Y-101.45
X133.861Y-95.532
X133.9Y-109.18
X134.16Y-110.96
X134.53Y-100.7
X135.05Y-97.23
X135.56Y-108.76
X135.653Y-104.823
X135.79Y-96.92
X136.67Y-113.57
X137.25Y-109.71
X137.25Y-111.39
X137.4Y-103.61
X137.45Y-95.85
X137.49Y-84.32
X137.51Y-113.31
X137.51Y-114.06
X137.75Y-110.53
X137.77Y-116.37
X137.82Y-79.83
X138.26Y-113.31
X138.26Y-114.06
X138.62Y-83.2
X139.01Y-113.31
X139.01Y-114.06
X139.609Y-88.317
X139.95Y-113.57
X139.955Y-121.895
X140.115Y-100.99
X140.37Y-112.17
X140.67Y-116.784
X140.948Y-96.708
X141.18Y-112.16
X141.98Y-103.1
X142.02Y-93.89
X142.04Y-103.92
X142.475Y-98.444
X142.67Y-88.25
X142.86Y-103.93
X143.75Y-104.92
X144.24Y-91.84
X144.69Y-95.28
X145.32Y-89.684
X145.69Y-79.83
X145.82Y-84.37
X146.147Y-100.477
X146.32Y-86.05
X146.34Y-112.5
X146.38Y-98.444
X146.9Y-87.86
X147.14Y-86.16
X147.2Y-69.59
X148.455Y-122.025
X149.13Y-100.99
X149.59Y-117.35
X149.84Y-113.39
X149.88Y-100.39
X150.07Y-104.72
X150.1Y-85.87
X150.6Y-96.61
X152.065Y-89.684
X152.4Y-124.17
X152.64Y-78.79
X152.653Y-112.94
X153.33Y-85.9
X153.4Y-83.52
X153.44Y-105.43
X153.46Y-104.35
X153.62Y-114.494
X153.78Y-103.39
X153.86Y-112.42
X154.22Y-107.59
X154.368Y-86.471
X154.565Y-84.334
X154.58Y-104.85
X154.58Y-105.6
X154.86Y-100.344
X154.98Y-81.585
X155.33Y-104.85
X155.33Y-105.6
X155.35Y-114.22
X155.53Y-89.75
X156.08Y-104.85
X156.08Y-105.6
X156.955Y-122.025
X156.98Y-104.88
X157.21Y-100.51
X157.29Y-103.87
X157.37Y-88.25
X157.44Y-105.99
X157.52Y-97.313
X157.68Y-95.85
X158.423Y-86.327
X158.516Y-84.04
X159.305Y-83.5
X159.835Y-78.955
X161.153Y-104.803
X161.17Y-105.67
X161.542Y-88.478
X162.576Y-116.88
X162.693Y-83.937
X163.06Y-86.23
X163.15Y-120.22
X164.11Y-122.03
X164.651Y-97.534
X165.54Y-116.794
X165.689Y-96.774
X165.95Y-97.67
X166.95Y-86.19
X167.1Y-93.33
X167.1Y-100.344
X167.51Y-91.91
X167.58Y-88.36
X167.923Y-104.88
X168.105Y-112.315
X168.43Y-115.89
X168.8Y-113.7
X170.13Y-95.21
X170.43Y-92.39
X172.02Y-113.71
X172.07Y-88.294
X176.37Y-88.97
X176.67Y-89.82
X177.0Y-87.48
X177.11Y-88.28
X177.11Y-90.82
X177.58Y-89.87
X178.07Y-87.47
X178.29Y-88.38
X181.02Y-88.96
T2
X145.235Y-96.74
X145.235Y-104.74
X148.095Y-96.74
X148.095Y-104.74
T3
X146.665Y-96.74
X146.665Y-104.74
T0
M30
