%TF.GenerationSoftware,KiCad,Pcbnew,7.0.5*%
%TF.CreationDate,2024-03-28T22:27:53-05:00*%
%TF.ProjectId,LEDSphere,4c454453-7068-4657-9265-2e6b69636164,rev?*%
%TF.SameCoordinates,Original*%
%TF.FileFunction,Copper,L2,Inr*%
%TF.FilePolarity,Positive*%
%FSLAX46Y46*%
G04 Gerber Fmt 4.6, Leading zero omitted, Abs format (unit mm)*
G04 Created by KiCad (PCBNEW 7.0.5) date 2024-03-28 22:27:53*
%MOMM*%
%LPD*%
G01*
G04 APERTURE LIST*
%TA.AperFunction,ComponentPad*%
%ADD10C,1.600000*%
%TD*%
%TA.AperFunction,ViaPad*%
%ADD11C,0.450000*%
%TD*%
G04 APERTURE END LIST*
D10*
%TO.N,unconnected-(J200-MH5-PadMH1)*%
%TO.C,J200*%
X145235000Y-104740000D03*
%TO.N,unconnected-(J200-MH6-PadMH2)*%
X145235000Y-96740000D03*
%TO.N,unconnected-(J200-PadMH3)*%
X148095000Y-104740000D03*
%TO.N,unconnected-(J200-PadMH4)*%
X148095000Y-96740000D03*
%TD*%
D11*
%TO.N,+3V3*%
X131890000Y-96790000D03*
X164650543Y-97534500D03*
X140670000Y-116784500D03*
X135560000Y-108760000D03*
X162693200Y-83936800D03*
X161541800Y-88478200D03*
X135050000Y-97230000D03*
X135790000Y-96920000D03*
X158516400Y-84040000D03*
X166950000Y-86190000D03*
X165540000Y-116794500D03*
X132490000Y-97320000D03*
X137490000Y-84320000D03*
X146340000Y-112500000D03*
X153620000Y-114494500D03*
X165689500Y-96774500D03*
X138620000Y-83200000D03*
X165950000Y-97670000D03*
%TO.N,+5V*%
X178070000Y-87470000D03*
X178290000Y-88380000D03*
X132500000Y-109170000D03*
X133000000Y-84780000D03*
X121880000Y-87470000D03*
X177000000Y-87480000D03*
X133350000Y-110600000D03*
X177110000Y-88280000D03*
X134160000Y-110960000D03*
X137770000Y-116370000D03*
X123100000Y-88580000D03*
X121730000Y-88480000D03*
X137750000Y-110530000D03*
X132350000Y-110940000D03*
X122960000Y-87570000D03*
X133900000Y-109180000D03*
%TO.N,VBUS*%
X144690000Y-95280000D03*
X146380000Y-98444500D03*
X157210000Y-100510000D03*
X149880000Y-100390000D03*
X142475000Y-98444500D03*
%TO.N,FAST_OFF*%
X155350000Y-114220000D03*
X155530000Y-89750000D03*
%TO.N,Net-(D203-K)*%
X163150000Y-120220000D03*
X157520244Y-97313143D03*
%TO.N,Net-(D202-K)*%
X154860000Y-100344500D03*
X154220497Y-107589503D03*
%TO.N,SDA*%
X168800000Y-113700000D03*
X152400000Y-124170000D03*
X172020000Y-113710000D03*
X149590000Y-117350000D03*
%TO.N,AMP_LRCLK*%
X170430000Y-92390000D03*
X146320000Y-86050000D03*
%TO.N,AMP_BCLK*%
X147140000Y-86160000D03*
X167510000Y-91910000D03*
%TO.N,AMP_DIN*%
X167100000Y-93330000D03*
X150100000Y-85870000D03*
%TO.N,FUEL_ALERT*%
X153330000Y-85900000D03*
X168430000Y-115890000D03*
%TO.N,POWER_ALERT*%
X153860000Y-112420000D03*
X154367950Y-86470972D03*
%TO.N,BOOST_PG*%
X137250000Y-111390000D03*
X137250000Y-109710000D03*
X152065000Y-89684500D03*
%TO.N,VBUS_SENSE*%
X144240000Y-91840000D03*
X145320000Y-89684500D03*
%TO.N,TXD*%
X142040000Y-103920000D03*
X153400000Y-83520000D03*
%TO.N,RXD*%
X154980000Y-81585500D03*
X142860000Y-103930000D03*
%TO.N,D-*%
X149130000Y-100990000D03*
X146146800Y-100476800D03*
%TO.N,RTS*%
X137400000Y-103610000D03*
X132980000Y-92520000D03*
%TO.N,DTR*%
X141980000Y-103100000D03*
X133861249Y-95532032D03*
%TO.N,SERIAL_OUT*%
X181020000Y-88960000D03*
X176370000Y-88970000D03*
%TO.N,DOUT_5V*%
X121610000Y-85850000D03*
%TO.N,GND*%
X133780000Y-101450000D03*
X138260000Y-114060000D03*
X142020000Y-93890000D03*
X156080000Y-104850000D03*
X157440000Y-105990000D03*
X164110000Y-122030000D03*
X121850000Y-91000000D03*
X172070000Y-88294500D03*
X134530000Y-100700000D03*
X149840000Y-113390000D03*
X137450000Y-95850000D03*
X133030000Y-100700000D03*
X155330000Y-104850000D03*
X156980000Y-104880000D03*
X159305500Y-83500000D03*
X161153500Y-104803500D03*
X162575500Y-116880000D03*
X152653500Y-112940000D03*
X123030000Y-90080000D03*
X167100000Y-100344500D03*
X150070000Y-104720000D03*
X154580000Y-105600000D03*
X148455000Y-122025000D03*
X139010000Y-114060000D03*
X142670000Y-88250000D03*
X177580000Y-89870000D03*
X124940000Y-95930000D03*
X138260000Y-113310000D03*
X135653500Y-104823500D03*
X153440000Y-105430000D03*
X139950000Y-113570000D03*
X147200000Y-69590000D03*
X139608756Y-88316660D03*
X157290000Y-103870000D03*
X140948200Y-96708200D03*
X121850000Y-90060000D03*
X139955000Y-121895000D03*
X137510000Y-113310000D03*
X176670000Y-89820000D03*
X143750000Y-104920000D03*
X161170000Y-105670000D03*
X133030000Y-101450000D03*
X170130000Y-95210000D03*
X157680000Y-95850000D03*
X146900000Y-87860000D03*
X133335000Y-122030000D03*
X155330000Y-105600000D03*
X141180000Y-112160000D03*
X154580000Y-104850000D03*
X140115000Y-100990000D03*
X137820000Y-79830000D03*
X128171750Y-104168250D03*
X139010000Y-113310000D03*
X177110000Y-90820000D03*
X145820500Y-84370000D03*
X130185000Y-95920000D03*
X133780000Y-100700000D03*
X145690000Y-79830000D03*
X136670000Y-113570000D03*
X131455000Y-87845000D03*
X157370000Y-88250000D03*
X168105000Y-112315000D03*
X154565247Y-84333756D03*
X156955000Y-122025000D03*
X159835000Y-78955000D03*
X150600000Y-96610000D03*
X140370000Y-112170000D03*
X153460000Y-104350000D03*
X163060000Y-86229500D03*
X137510000Y-114060000D03*
X153780000Y-103390000D03*
X167923500Y-104880000D03*
X158423051Y-86326949D03*
X123030000Y-91140000D03*
X156080000Y-105600000D03*
X167580000Y-88360000D03*
X129073500Y-113570000D03*
X152640000Y-78790500D03*
%TD*%
%TA.AperFunction,Conductor*%
%TO.N,GND*%
G36*
X150245080Y-60096450D02*
G01*
X150270424Y-60101837D01*
X150384723Y-60138975D01*
X150408395Y-60149514D01*
X150520940Y-60214493D01*
X150526376Y-60218022D01*
X150562261Y-60244094D01*
X150562262Y-60244094D01*
X184609464Y-84980834D01*
X184612662Y-84983157D01*
X184617704Y-84987240D01*
X184689367Y-85051769D01*
X184714282Y-85074203D01*
X184731627Y-85093467D01*
X184802261Y-85190690D01*
X184815222Y-85213139D01*
X184864101Y-85322924D01*
X184872111Y-85347577D01*
X184897097Y-85465121D01*
X184899807Y-85490902D01*
X184899808Y-85611075D01*
X184897099Y-85636853D01*
X184870089Y-85763946D01*
X184868408Y-85770221D01*
X184242965Y-87695137D01*
X171862305Y-125798891D01*
X171851868Y-125831012D01*
X171848603Y-125841057D01*
X171846277Y-125847117D01*
X171793420Y-125965829D01*
X171780457Y-125988279D01*
X171709828Y-126085486D01*
X171692481Y-126104751D01*
X171603180Y-126185152D01*
X171582206Y-126200389D01*
X171478141Y-126260464D01*
X171454458Y-126271007D01*
X171340179Y-126308132D01*
X171314821Y-126313521D01*
X171185004Y-126327157D01*
X171178519Y-126327496D01*
X171124794Y-126327493D01*
X171124744Y-126327497D01*
X129046127Y-126327497D01*
X129039649Y-126327157D01*
X128982023Y-126321099D01*
X128910408Y-126313569D01*
X128885053Y-126308179D01*
X128770768Y-126271042D01*
X128747088Y-126260498D01*
X128643019Y-126200412D01*
X128622049Y-126185176D01*
X128532746Y-126104764D01*
X128515405Y-126085504D01*
X128444771Y-125988281D01*
X128431811Y-125965832D01*
X128378830Y-125846830D01*
X128376503Y-125840767D01*
X128362898Y-125798893D01*
X128362896Y-125798891D01*
X128358363Y-125784938D01*
X128358360Y-125784931D01*
X127833637Y-124170000D01*
X151919610Y-124170000D01*
X151939068Y-124305337D01*
X151939070Y-124305345D01*
X151995867Y-124429714D01*
X151995872Y-124429721D01*
X152085409Y-124533053D01*
X152085413Y-124533057D01*
X152145979Y-124571979D01*
X152200439Y-124606978D01*
X152266035Y-124626238D01*
X152331632Y-124645500D01*
X152331633Y-124645500D01*
X152468367Y-124645500D01*
X152599561Y-124606978D01*
X152714589Y-124533055D01*
X152804130Y-124429718D01*
X152860931Y-124305342D01*
X152880390Y-124170000D01*
X152860931Y-124034658D01*
X152848677Y-124007827D01*
X152804132Y-123910285D01*
X152804127Y-123910278D01*
X152714590Y-123806946D01*
X152714586Y-123806942D01*
X152599559Y-123733021D01*
X152468368Y-123694500D01*
X152468367Y-123694500D01*
X152331633Y-123694500D01*
X152331632Y-123694500D01*
X152200440Y-123733021D01*
X152085413Y-123806942D01*
X152085409Y-123806946D01*
X151995872Y-123910278D01*
X151995867Y-123910285D01*
X151939070Y-124034654D01*
X151939068Y-124034662D01*
X151919610Y-124170000D01*
X127833637Y-124170000D01*
X126550204Y-120219999D01*
X162669610Y-120219999D01*
X162689068Y-120355337D01*
X162689070Y-120355345D01*
X162745867Y-120479714D01*
X162745872Y-120479721D01*
X162835409Y-120583053D01*
X162835413Y-120583057D01*
X162895979Y-120621979D01*
X162950439Y-120656978D01*
X163016035Y-120676238D01*
X163081632Y-120695500D01*
X163081633Y-120695500D01*
X163218367Y-120695500D01*
X163349561Y-120656978D01*
X163464589Y-120583055D01*
X163554130Y-120479718D01*
X163610931Y-120355342D01*
X163630390Y-120220000D01*
X163610931Y-120084658D01*
X163598677Y-120057827D01*
X163554132Y-119960285D01*
X163554127Y-119960278D01*
X163464590Y-119856946D01*
X163464586Y-119856942D01*
X163349559Y-119783021D01*
X163218368Y-119744500D01*
X163218367Y-119744500D01*
X163081633Y-119744500D01*
X163081632Y-119744500D01*
X162950440Y-119783021D01*
X162835413Y-119856942D01*
X162835409Y-119856946D01*
X162745872Y-119960278D01*
X162745867Y-119960285D01*
X162689070Y-120084654D01*
X162689068Y-120084662D01*
X162669610Y-120219999D01*
X126550204Y-120219999D01*
X125617684Y-117349999D01*
X149109610Y-117349999D01*
X149129068Y-117485337D01*
X149129070Y-117485345D01*
X149185867Y-117609714D01*
X149185872Y-117609721D01*
X149275409Y-117713053D01*
X149275413Y-117713057D01*
X149335979Y-117751979D01*
X149390439Y-117786978D01*
X149456035Y-117806238D01*
X149521632Y-117825500D01*
X149521633Y-117825500D01*
X149658367Y-117825500D01*
X149789561Y-117786978D01*
X149904589Y-117713055D01*
X149994130Y-117609718D01*
X150050931Y-117485342D01*
X150070390Y-117350000D01*
X150050931Y-117214658D01*
X150020285Y-117147553D01*
X149994132Y-117090285D01*
X149994127Y-117090278D01*
X149904590Y-116986946D01*
X149904586Y-116986942D01*
X149789559Y-116913021D01*
X149658368Y-116874500D01*
X149658367Y-116874500D01*
X149521633Y-116874500D01*
X149521632Y-116874500D01*
X149390440Y-116913021D01*
X149275413Y-116986942D01*
X149275409Y-116986946D01*
X149185872Y-117090278D01*
X149185867Y-117090285D01*
X149129070Y-117214654D01*
X149129068Y-117214662D01*
X149109610Y-117349999D01*
X125617684Y-117349999D01*
X125299263Y-116369999D01*
X137289610Y-116369999D01*
X137309068Y-116505337D01*
X137309070Y-116505345D01*
X137365867Y-116629714D01*
X137365872Y-116629721D01*
X137455409Y-116733053D01*
X137455413Y-116733057D01*
X137515979Y-116771979D01*
X137570439Y-116806978D01*
X137636036Y-116826238D01*
X137701632Y-116845500D01*
X137701633Y-116845500D01*
X137838367Y-116845500D01*
X137969561Y-116806978D01*
X138004538Y-116784500D01*
X140189610Y-116784500D01*
X140209068Y-116919837D01*
X140209070Y-116919845D01*
X140265867Y-117044214D01*
X140265872Y-117044221D01*
X140355409Y-117147553D01*
X140355413Y-117147557D01*
X140415979Y-117186479D01*
X140470439Y-117221478D01*
X140504496Y-117231478D01*
X140601632Y-117260000D01*
X140601633Y-117260000D01*
X140738367Y-117260000D01*
X140869561Y-117221478D01*
X140984589Y-117147555D01*
X141074130Y-117044218D01*
X141130931Y-116919842D01*
X141148952Y-116794500D01*
X165059610Y-116794500D01*
X165079068Y-116929837D01*
X165079070Y-116929845D01*
X165135867Y-117054214D01*
X165135872Y-117054221D01*
X165225409Y-117157553D01*
X165225413Y-117157557D01*
X165285979Y-117196479D01*
X165340439Y-117231478D01*
X165406035Y-117250738D01*
X165471632Y-117270000D01*
X165471633Y-117270000D01*
X165608367Y-117270000D01*
X165739561Y-117231478D01*
X165854589Y-117157555D01*
X165944130Y-117054218D01*
X166000931Y-116929842D01*
X166020390Y-116794500D01*
X166000931Y-116659158D01*
X165987484Y-116629714D01*
X165944132Y-116534785D01*
X165944127Y-116534778D01*
X165854590Y-116431446D01*
X165854586Y-116431442D01*
X165739559Y-116357521D01*
X165608368Y-116319000D01*
X165608367Y-116319000D01*
X165471633Y-116319000D01*
X165471632Y-116319000D01*
X165340440Y-116357521D01*
X165225413Y-116431442D01*
X165225409Y-116431446D01*
X165135872Y-116534778D01*
X165135867Y-116534785D01*
X165079070Y-116659154D01*
X165079068Y-116659162D01*
X165059610Y-116794500D01*
X141148952Y-116794500D01*
X141150390Y-116784500D01*
X141130931Y-116649158D01*
X141118677Y-116622327D01*
X141074132Y-116524785D01*
X141074127Y-116524778D01*
X140984590Y-116421446D01*
X140984586Y-116421442D01*
X140893736Y-116363058D01*
X140869561Y-116347522D01*
X140869560Y-116347521D01*
X140869559Y-116347521D01*
X140738368Y-116309000D01*
X140738367Y-116309000D01*
X140601633Y-116309000D01*
X140601632Y-116309000D01*
X140470440Y-116347521D01*
X140355413Y-116421442D01*
X140355409Y-116421446D01*
X140265872Y-116524778D01*
X140265867Y-116524785D01*
X140209070Y-116649154D01*
X140209068Y-116649162D01*
X140189610Y-116784500D01*
X138004538Y-116784500D01*
X138084589Y-116733055D01*
X138174130Y-116629718D01*
X138230931Y-116505342D01*
X138250390Y-116370000D01*
X138230931Y-116234658D01*
X138218677Y-116207827D01*
X138174132Y-116110285D01*
X138174127Y-116110278D01*
X138084590Y-116006946D01*
X138084586Y-116006942D01*
X137969559Y-115933021D01*
X137838368Y-115894500D01*
X137838367Y-115894500D01*
X137701633Y-115894500D01*
X137701632Y-115894500D01*
X137570440Y-115933021D01*
X137455413Y-116006942D01*
X137455409Y-116006946D01*
X137365872Y-116110278D01*
X137365867Y-116110285D01*
X137309070Y-116234654D01*
X137309068Y-116234662D01*
X137289610Y-116369999D01*
X125299263Y-116369999D01*
X125143302Y-115889999D01*
X167949610Y-115889999D01*
X167969068Y-116025337D01*
X167969070Y-116025345D01*
X168025867Y-116149714D01*
X168025872Y-116149721D01*
X168115409Y-116253053D01*
X168115413Y-116253057D01*
X168175979Y-116291979D01*
X168230439Y-116326978D01*
X168296035Y-116346238D01*
X168361632Y-116365500D01*
X168361633Y-116365500D01*
X168498367Y-116365500D01*
X168629561Y-116326978D01*
X168744589Y-116253055D01*
X168834130Y-116149718D01*
X168890931Y-116025342D01*
X168910390Y-115890000D01*
X168890931Y-115754658D01*
X168878677Y-115727827D01*
X168834132Y-115630285D01*
X168834127Y-115630278D01*
X168744590Y-115526946D01*
X168744586Y-115526942D01*
X168629559Y-115453021D01*
X168498368Y-115414500D01*
X168498367Y-115414500D01*
X168361633Y-115414500D01*
X168361632Y-115414500D01*
X168230440Y-115453021D01*
X168115413Y-115526942D01*
X168115409Y-115526946D01*
X168025872Y-115630278D01*
X168025867Y-115630285D01*
X167969070Y-115754654D01*
X167969068Y-115754662D01*
X167949610Y-115889999D01*
X125143302Y-115889999D01*
X124689876Y-114494499D01*
X153139610Y-114494499D01*
X153159068Y-114629837D01*
X153159070Y-114629845D01*
X153215867Y-114754214D01*
X153215872Y-114754221D01*
X153305409Y-114857553D01*
X153305413Y-114857557D01*
X153365979Y-114896479D01*
X153420439Y-114931478D01*
X153486035Y-114950738D01*
X153551632Y-114970000D01*
X153551633Y-114970000D01*
X153688367Y-114970000D01*
X153819561Y-114931478D01*
X153934589Y-114857555D01*
X154024130Y-114754218D01*
X154080931Y-114629842D01*
X154100390Y-114494500D01*
X154080931Y-114359158D01*
X154068677Y-114332327D01*
X154024132Y-114234785D01*
X154024127Y-114234778D01*
X154011321Y-114219999D01*
X154869610Y-114219999D01*
X154889068Y-114355337D01*
X154889070Y-114355345D01*
X154945867Y-114479714D01*
X154945872Y-114479721D01*
X155035409Y-114583053D01*
X155035413Y-114583057D01*
X155095979Y-114621979D01*
X155150439Y-114656978D01*
X155216035Y-114676238D01*
X155281632Y-114695500D01*
X155281633Y-114695500D01*
X155418367Y-114695500D01*
X155549561Y-114656978D01*
X155664589Y-114583055D01*
X155754130Y-114479718D01*
X155810931Y-114355342D01*
X155830390Y-114220000D01*
X155810931Y-114084658D01*
X155758441Y-113969721D01*
X155754132Y-113960285D01*
X155754127Y-113960278D01*
X155664590Y-113856946D01*
X155664586Y-113856942D01*
X155549559Y-113783021D01*
X155418368Y-113744500D01*
X155418367Y-113744500D01*
X155281633Y-113744500D01*
X155281632Y-113744500D01*
X155150440Y-113783021D01*
X155035413Y-113856942D01*
X155035409Y-113856946D01*
X154945872Y-113960278D01*
X154945867Y-113960285D01*
X154889070Y-114084654D01*
X154889068Y-114084662D01*
X154869610Y-114219999D01*
X154011321Y-114219999D01*
X153934590Y-114131446D01*
X153934586Y-114131442D01*
X153843728Y-114073053D01*
X153819561Y-114057522D01*
X153819560Y-114057521D01*
X153819559Y-114057521D01*
X153688368Y-114019000D01*
X153688367Y-114019000D01*
X153551633Y-114019000D01*
X153551632Y-114019000D01*
X153420440Y-114057521D01*
X153305413Y-114131442D01*
X153305409Y-114131446D01*
X153215872Y-114234778D01*
X153215867Y-114234785D01*
X153159070Y-114359154D01*
X153159068Y-114359162D01*
X153139610Y-114494499D01*
X124689876Y-114494499D01*
X124431728Y-113700000D01*
X168319610Y-113700000D01*
X168339068Y-113835337D01*
X168339070Y-113835345D01*
X168395867Y-113959714D01*
X168395872Y-113959721D01*
X168485409Y-114063053D01*
X168485413Y-114063057D01*
X168545979Y-114101979D01*
X168600439Y-114136978D01*
X168634496Y-114146978D01*
X168731632Y-114175500D01*
X168731633Y-114175500D01*
X168868367Y-114175500D01*
X168999561Y-114136978D01*
X169114589Y-114063055D01*
X169204130Y-113959718D01*
X169260931Y-113835342D01*
X169278952Y-113710000D01*
X171539610Y-113710000D01*
X171559068Y-113845337D01*
X171559070Y-113845345D01*
X171615867Y-113969714D01*
X171615872Y-113969721D01*
X171705409Y-114073053D01*
X171705413Y-114073057D01*
X171765979Y-114111979D01*
X171820439Y-114146978D01*
X171886035Y-114166238D01*
X171951632Y-114185500D01*
X171951633Y-114185500D01*
X172088367Y-114185500D01*
X172219561Y-114146978D01*
X172334589Y-114073055D01*
X172424130Y-113969718D01*
X172480931Y-113845342D01*
X172500390Y-113710000D01*
X172480931Y-113574658D01*
X172468677Y-113547827D01*
X172424132Y-113450285D01*
X172424127Y-113450278D01*
X172334590Y-113346946D01*
X172334586Y-113346942D01*
X172219559Y-113273021D01*
X172088368Y-113234500D01*
X172088367Y-113234500D01*
X171951633Y-113234500D01*
X171951632Y-113234500D01*
X171820440Y-113273021D01*
X171705413Y-113346942D01*
X171705409Y-113346946D01*
X171615872Y-113450278D01*
X171615867Y-113450285D01*
X171559070Y-113574654D01*
X171559068Y-113574662D01*
X171539610Y-113710000D01*
X169278952Y-113710000D01*
X169280390Y-113700000D01*
X169260931Y-113564658D01*
X169248677Y-113537827D01*
X169204132Y-113440285D01*
X169204127Y-113440278D01*
X169114590Y-113336946D01*
X169114586Y-113336942D01*
X169023736Y-113278558D01*
X168999561Y-113263022D01*
X168999560Y-113263021D01*
X168999559Y-113263021D01*
X168868368Y-113224500D01*
X168868367Y-113224500D01*
X168731633Y-113224500D01*
X168731632Y-113224500D01*
X168600440Y-113263021D01*
X168485413Y-113336942D01*
X168485409Y-113336946D01*
X168395872Y-113440278D01*
X168395867Y-113440285D01*
X168339070Y-113564654D01*
X168339068Y-113564662D01*
X168319610Y-113700000D01*
X124431728Y-113700000D01*
X124041824Y-112499999D01*
X145859610Y-112499999D01*
X145879068Y-112635337D01*
X145879070Y-112635345D01*
X145935867Y-112759714D01*
X145935872Y-112759721D01*
X146025409Y-112863053D01*
X146025413Y-112863057D01*
X146075897Y-112895500D01*
X146140439Y-112936978D01*
X146206035Y-112956238D01*
X146271632Y-112975500D01*
X146271633Y-112975500D01*
X146408367Y-112975500D01*
X146539561Y-112936978D01*
X146654589Y-112863055D01*
X146744130Y-112759718D01*
X146800931Y-112635342D01*
X146820390Y-112500000D01*
X146808888Y-112420000D01*
X153379610Y-112420000D01*
X153399068Y-112555337D01*
X153399070Y-112555345D01*
X153455867Y-112679714D01*
X153455872Y-112679721D01*
X153545409Y-112783053D01*
X153545413Y-112783057D01*
X153605979Y-112821979D01*
X153660439Y-112856978D01*
X153726035Y-112876238D01*
X153791632Y-112895500D01*
X153791633Y-112895500D01*
X153928367Y-112895500D01*
X154059561Y-112856978D01*
X154174589Y-112783055D01*
X154264130Y-112679718D01*
X154320931Y-112555342D01*
X154340390Y-112420000D01*
X154320931Y-112284658D01*
X154308677Y-112257827D01*
X154264132Y-112160285D01*
X154264127Y-112160278D01*
X154174590Y-112056946D01*
X154174586Y-112056942D01*
X154059559Y-111983021D01*
X153928368Y-111944500D01*
X153928367Y-111944500D01*
X153791633Y-111944500D01*
X153791632Y-111944500D01*
X153660440Y-111983021D01*
X153545413Y-112056942D01*
X153545409Y-112056946D01*
X153455872Y-112160278D01*
X153455867Y-112160285D01*
X153399070Y-112284654D01*
X153399068Y-112284662D01*
X153379610Y-112420000D01*
X146808888Y-112420000D01*
X146800931Y-112364658D01*
X146764394Y-112284654D01*
X146744132Y-112240285D01*
X146744127Y-112240278D01*
X146654590Y-112136946D01*
X146654586Y-112136942D01*
X146539559Y-112063021D01*
X146408368Y-112024500D01*
X146408367Y-112024500D01*
X146271633Y-112024500D01*
X146271632Y-112024500D01*
X146140440Y-112063021D01*
X146025413Y-112136942D01*
X146025409Y-112136946D01*
X145935872Y-112240278D01*
X145935867Y-112240285D01*
X145879070Y-112364654D01*
X145879068Y-112364662D01*
X145859610Y-112499999D01*
X124041824Y-112499999D01*
X123534950Y-110940000D01*
X131869610Y-110940000D01*
X131872925Y-110963055D01*
X131889068Y-111075337D01*
X131889070Y-111075345D01*
X131945867Y-111199714D01*
X131945872Y-111199721D01*
X132035409Y-111303053D01*
X132035413Y-111303057D01*
X132066535Y-111323057D01*
X132150439Y-111376978D01*
X132194788Y-111390000D01*
X132281632Y-111415500D01*
X132281633Y-111415500D01*
X132418367Y-111415500D01*
X132549561Y-111376978D01*
X132664589Y-111303055D01*
X132754130Y-111199718D01*
X132810931Y-111075342D01*
X132818083Y-111025597D01*
X132847108Y-110962043D01*
X132905886Y-110924268D01*
X132975755Y-110924268D01*
X133028126Y-110957923D01*
X133028711Y-110957249D01*
X133033404Y-110961316D01*
X133034532Y-110962040D01*
X133034534Y-110962042D01*
X133034534Y-110962043D01*
X133035409Y-110963053D01*
X133035413Y-110963057D01*
X133095979Y-111001979D01*
X133150439Y-111036978D01*
X133188988Y-111048297D01*
X133281632Y-111075500D01*
X133281633Y-111075500D01*
X133418367Y-111075500D01*
X133549561Y-111036978D01*
X133549561Y-111036977D01*
X133554795Y-111035441D01*
X133624665Y-111035441D01*
X133683443Y-111073215D01*
X133702524Y-111102907D01*
X133755867Y-111219714D01*
X133755872Y-111219721D01*
X133845409Y-111323053D01*
X133845413Y-111323057D01*
X133905979Y-111361979D01*
X133960439Y-111396978D01*
X134023519Y-111415500D01*
X134091632Y-111435500D01*
X134091633Y-111435500D01*
X134228367Y-111435500D01*
X134359561Y-111396978D01*
X134370419Y-111390000D01*
X136769610Y-111390000D01*
X136789068Y-111525337D01*
X136789070Y-111525345D01*
X136845867Y-111649714D01*
X136845872Y-111649721D01*
X136935409Y-111753053D01*
X136935413Y-111753057D01*
X136995979Y-111791979D01*
X137050439Y-111826978D01*
X137116036Y-111846238D01*
X137181632Y-111865500D01*
X137181633Y-111865500D01*
X137318367Y-111865500D01*
X137449561Y-111826978D01*
X137564589Y-111753055D01*
X137654130Y-111649718D01*
X137710931Y-111525342D01*
X137730390Y-111390000D01*
X137710931Y-111254658D01*
X137677296Y-111181009D01*
X137667354Y-111111852D01*
X137696379Y-111048297D01*
X137755158Y-111010523D01*
X137790092Y-111005500D01*
X137818367Y-111005500D01*
X137949561Y-110966978D01*
X138064589Y-110893055D01*
X138154130Y-110789718D01*
X138210931Y-110665342D01*
X138230390Y-110530000D01*
X138210931Y-110394658D01*
X138180100Y-110327147D01*
X138154132Y-110270285D01*
X138154127Y-110270278D01*
X138064590Y-110166946D01*
X138064586Y-110166942D01*
X137949559Y-110093021D01*
X137818368Y-110054500D01*
X137818367Y-110054500D01*
X137808359Y-110054500D01*
X137741320Y-110034815D01*
X137695565Y-109982011D01*
X137685621Y-109912853D01*
X137695562Y-109878994D01*
X137710931Y-109845342D01*
X137730390Y-109710000D01*
X137710931Y-109574658D01*
X137691932Y-109533057D01*
X137654132Y-109450285D01*
X137654127Y-109450278D01*
X137564590Y-109346946D01*
X137564586Y-109346942D01*
X137449559Y-109273021D01*
X137318368Y-109234500D01*
X137318367Y-109234500D01*
X137181633Y-109234500D01*
X137181632Y-109234500D01*
X137050440Y-109273021D01*
X136935413Y-109346942D01*
X136935409Y-109346946D01*
X136845872Y-109450278D01*
X136845867Y-109450285D01*
X136789070Y-109574654D01*
X136789068Y-109574662D01*
X136769610Y-109709999D01*
X136789068Y-109845337D01*
X136789070Y-109845345D01*
X136845867Y-109969714D01*
X136845872Y-109969721D01*
X136935409Y-110073053D01*
X136935413Y-110073057D01*
X136995979Y-110111979D01*
X137050439Y-110146978D01*
X137105080Y-110163022D01*
X137181632Y-110185500D01*
X137191641Y-110185500D01*
X137258680Y-110205185D01*
X137304435Y-110257989D01*
X137314379Y-110327147D01*
X137304437Y-110361005D01*
X137290526Y-110391466D01*
X137289068Y-110394660D01*
X137289068Y-110394662D01*
X137269610Y-110529999D01*
X137289068Y-110665337D01*
X137289068Y-110665339D01*
X137289068Y-110665340D01*
X137289069Y-110665342D01*
X137305024Y-110700278D01*
X137322703Y-110738989D01*
X137332646Y-110808148D01*
X137303621Y-110871703D01*
X137244842Y-110909477D01*
X137209908Y-110914500D01*
X137181632Y-110914500D01*
X137050440Y-110953021D01*
X136935413Y-111026942D01*
X136935409Y-111026946D01*
X136845872Y-111130278D01*
X136845867Y-111130285D01*
X136789070Y-111254654D01*
X136789068Y-111254662D01*
X136769610Y-111390000D01*
X134370419Y-111390000D01*
X134474589Y-111323055D01*
X134564130Y-111219718D01*
X134620931Y-111095342D01*
X134640390Y-110960000D01*
X134620931Y-110824658D01*
X134581807Y-110738989D01*
X134564132Y-110700285D01*
X134564127Y-110700278D01*
X134474590Y-110596946D01*
X134474586Y-110596942D01*
X134370419Y-110530000D01*
X134359561Y-110523022D01*
X134359560Y-110523021D01*
X134359559Y-110523021D01*
X134228368Y-110484500D01*
X134228367Y-110484500D01*
X134091633Y-110484500D01*
X134091630Y-110484500D01*
X133955203Y-110524558D01*
X133885333Y-110524558D01*
X133826556Y-110486783D01*
X133807479Y-110457101D01*
X133754130Y-110340282D01*
X133693475Y-110270282D01*
X133664590Y-110236946D01*
X133664586Y-110236942D01*
X133555665Y-110166945D01*
X133549561Y-110163022D01*
X133549560Y-110163021D01*
X133549559Y-110163021D01*
X133418368Y-110124500D01*
X133418367Y-110124500D01*
X133281633Y-110124500D01*
X133281632Y-110124500D01*
X133150440Y-110163021D01*
X133035413Y-110236942D01*
X133035409Y-110236946D01*
X132945872Y-110340278D01*
X132945867Y-110340285D01*
X132889070Y-110464654D01*
X132889068Y-110464661D01*
X132881916Y-110514403D01*
X132852890Y-110577958D01*
X132794111Y-110615732D01*
X132724241Y-110615731D01*
X132671874Y-110582075D01*
X132671289Y-110582751D01*
X132666588Y-110578677D01*
X132665464Y-110577955D01*
X132664589Y-110576945D01*
X132664586Y-110576942D01*
X132549559Y-110503021D01*
X132418368Y-110464500D01*
X132418367Y-110464500D01*
X132281633Y-110464500D01*
X132281632Y-110464500D01*
X132150440Y-110503021D01*
X132035413Y-110576942D01*
X132035409Y-110576946D01*
X131945872Y-110680278D01*
X131945867Y-110680285D01*
X131889070Y-110804654D01*
X131889068Y-110804662D01*
X131876359Y-110893057D01*
X131869610Y-110940000D01*
X123534950Y-110940000D01*
X122959842Y-109169999D01*
X132019610Y-109169999D01*
X132039068Y-109305337D01*
X132039070Y-109305345D01*
X132095867Y-109429714D01*
X132095872Y-109429721D01*
X132185409Y-109533053D01*
X132185413Y-109533057D01*
X132245979Y-109571979D01*
X132300439Y-109606978D01*
X132334496Y-109616978D01*
X132431632Y-109645500D01*
X132431633Y-109645500D01*
X132568367Y-109645500D01*
X132699561Y-109606978D01*
X132814589Y-109533055D01*
X132904130Y-109429718D01*
X132960931Y-109305342D01*
X132978952Y-109180000D01*
X133419610Y-109180000D01*
X133439068Y-109315337D01*
X133439070Y-109315345D01*
X133495867Y-109439714D01*
X133495872Y-109439721D01*
X133585409Y-109543053D01*
X133585413Y-109543057D01*
X133634587Y-109574658D01*
X133700439Y-109616978D01*
X133766035Y-109636238D01*
X133831632Y-109655500D01*
X133831633Y-109655500D01*
X133968367Y-109655500D01*
X134099561Y-109616978D01*
X134214589Y-109543055D01*
X134304130Y-109439718D01*
X134360931Y-109315342D01*
X134380390Y-109180000D01*
X134360931Y-109044658D01*
X134348677Y-109017827D01*
X134304132Y-108920285D01*
X134304127Y-108920278D01*
X134214590Y-108816946D01*
X134214586Y-108816942D01*
X134125978Y-108759999D01*
X135079610Y-108759999D01*
X135099068Y-108895337D01*
X135099070Y-108895345D01*
X135155867Y-109019714D01*
X135155872Y-109019721D01*
X135245409Y-109123053D01*
X135245413Y-109123057D01*
X135305979Y-109161979D01*
X135360439Y-109196978D01*
X135426035Y-109216238D01*
X135491632Y-109235500D01*
X135491633Y-109235500D01*
X135628367Y-109235500D01*
X135759561Y-109196978D01*
X135874589Y-109123055D01*
X135964130Y-109019718D01*
X136020931Y-108895342D01*
X136040390Y-108760000D01*
X136020931Y-108624658D01*
X136008677Y-108597827D01*
X135964132Y-108500285D01*
X135964127Y-108500278D01*
X135874590Y-108396946D01*
X135874586Y-108396942D01*
X135759559Y-108323021D01*
X135628368Y-108284500D01*
X135628367Y-108284500D01*
X135491633Y-108284500D01*
X135491632Y-108284500D01*
X135360440Y-108323021D01*
X135245413Y-108396942D01*
X135245409Y-108396946D01*
X135155872Y-108500278D01*
X135155867Y-108500285D01*
X135099070Y-108624654D01*
X135099068Y-108624662D01*
X135079610Y-108759999D01*
X134125978Y-108759999D01*
X134099559Y-108743021D01*
X133968368Y-108704500D01*
X133968367Y-108704500D01*
X133831633Y-108704500D01*
X133831632Y-108704500D01*
X133700440Y-108743021D01*
X133585413Y-108816942D01*
X133585409Y-108816946D01*
X133495872Y-108920278D01*
X133495867Y-108920285D01*
X133439070Y-109044654D01*
X133439068Y-109044662D01*
X133419610Y-109180000D01*
X132978952Y-109180000D01*
X132980390Y-109170000D01*
X132960931Y-109034658D01*
X132948677Y-109007827D01*
X132904132Y-108910285D01*
X132904127Y-108910278D01*
X132814590Y-108806946D01*
X132814586Y-108806942D01*
X132723736Y-108748558D01*
X132699561Y-108733022D01*
X132699560Y-108733021D01*
X132699559Y-108733021D01*
X132568368Y-108694500D01*
X132568367Y-108694500D01*
X132431633Y-108694500D01*
X132431632Y-108694500D01*
X132300440Y-108733021D01*
X132185413Y-108806942D01*
X132185409Y-108806946D01*
X132095872Y-108910278D01*
X132095867Y-108910285D01*
X132039070Y-109034654D01*
X132039068Y-109034662D01*
X132019610Y-109169999D01*
X122959842Y-109169999D01*
X122446308Y-107589503D01*
X153740107Y-107589503D01*
X153759565Y-107724840D01*
X153759567Y-107724848D01*
X153816364Y-107849217D01*
X153816369Y-107849224D01*
X153905906Y-107952556D01*
X153905910Y-107952560D01*
X153966476Y-107991482D01*
X154020936Y-108026481D01*
X154086532Y-108045741D01*
X154152129Y-108065003D01*
X154152130Y-108065003D01*
X154288864Y-108065003D01*
X154420058Y-108026481D01*
X154535086Y-107952558D01*
X154624627Y-107849221D01*
X154681428Y-107724845D01*
X154700887Y-107589503D01*
X154681428Y-107454161D01*
X154669174Y-107427330D01*
X154624629Y-107329788D01*
X154624624Y-107329781D01*
X154535087Y-107226449D01*
X154535083Y-107226445D01*
X154420056Y-107152524D01*
X154288865Y-107114003D01*
X154288864Y-107114003D01*
X154152130Y-107114003D01*
X154152129Y-107114003D01*
X154020937Y-107152524D01*
X153905910Y-107226445D01*
X153905906Y-107226449D01*
X153816369Y-107329781D01*
X153816364Y-107329788D01*
X153759567Y-107454157D01*
X153759565Y-107454165D01*
X153740107Y-107589503D01*
X122446308Y-107589503D01*
X121520448Y-104740000D01*
X144179417Y-104740000D01*
X144199699Y-104945932D01*
X144199700Y-104945934D01*
X144259768Y-105143954D01*
X144357315Y-105326450D01*
X144364367Y-105335043D01*
X144488589Y-105486410D01*
X144585209Y-105565702D01*
X144648550Y-105617685D01*
X144831046Y-105715232D01*
X145029066Y-105775300D01*
X145029065Y-105775300D01*
X145047529Y-105777118D01*
X145235000Y-105795583D01*
X145440934Y-105775300D01*
X145638954Y-105715232D01*
X145821450Y-105617685D01*
X145981410Y-105486410D01*
X146112685Y-105326450D01*
X146133913Y-105286734D01*
X146182874Y-105236891D01*
X146251012Y-105221430D01*
X146303008Y-105236526D01*
X146438841Y-105311201D01*
X146438845Y-105311203D01*
X146588002Y-105349500D01*
X146588006Y-105349500D01*
X146703342Y-105349500D01*
X146703344Y-105349500D01*
X146703349Y-105349499D01*
X146703353Y-105349499D01*
X146714632Y-105348073D01*
X146817781Y-105335043D01*
X146960962Y-105278354D01*
X147011941Y-105241315D01*
X147077748Y-105217834D01*
X147145802Y-105233659D01*
X147194184Y-105283176D01*
X147217315Y-105326450D01*
X147224367Y-105335043D01*
X147348589Y-105486410D01*
X147445209Y-105565702D01*
X147508550Y-105617685D01*
X147691046Y-105715232D01*
X147889066Y-105775300D01*
X147889065Y-105775300D01*
X147907529Y-105777118D01*
X148095000Y-105795583D01*
X148300934Y-105775300D01*
X148498954Y-105715232D01*
X148681450Y-105617685D01*
X148841410Y-105486410D01*
X148972685Y-105326450D01*
X149070232Y-105143954D01*
X149130300Y-104945934D01*
X149150583Y-104740000D01*
X149130300Y-104534066D01*
X149070232Y-104336046D01*
X148972685Y-104153550D01*
X148916838Y-104085500D01*
X148841410Y-103993589D01*
X148690474Y-103869721D01*
X148681450Y-103862315D01*
X148498954Y-103764768D01*
X148300934Y-103704700D01*
X148300932Y-103704699D01*
X148300934Y-103704699D01*
X148095000Y-103684417D01*
X147889067Y-103704699D01*
X147691043Y-103764769D01*
X147580898Y-103823643D01*
X147508550Y-103862315D01*
X147508548Y-103862316D01*
X147508547Y-103862317D01*
X147348589Y-103993589D01*
X147217316Y-104153547D01*
X147196085Y-104193267D01*
X147147121Y-104243110D01*
X147078983Y-104258569D01*
X147026991Y-104243473D01*
X146891158Y-104168798D01*
X146891148Y-104168795D01*
X146742001Y-104130500D01*
X146741998Y-104130500D01*
X146626656Y-104130500D01*
X146626646Y-104130500D01*
X146522622Y-104143642D01*
X146512219Y-104144957D01*
X146490513Y-104153551D01*
X146369036Y-104201646D01*
X146318056Y-104238685D01*
X146252249Y-104262164D01*
X146184196Y-104246338D01*
X146135814Y-104196820D01*
X146112686Y-104153551D01*
X146112684Y-104153549D01*
X146112682Y-104153547D01*
X146056838Y-104085500D01*
X145981410Y-103993589D01*
X145830474Y-103869721D01*
X145821450Y-103862315D01*
X145638954Y-103764768D01*
X145440934Y-103704700D01*
X145440932Y-103704699D01*
X145440934Y-103704699D01*
X145235000Y-103684417D01*
X145029067Y-103704699D01*
X144831043Y-103764769D01*
X144720898Y-103823643D01*
X144648550Y-103862315D01*
X144648548Y-103862316D01*
X144648547Y-103862317D01*
X144488589Y-103993589D01*
X144364367Y-104144957D01*
X144357315Y-104153550D01*
X144349165Y-104168798D01*
X144259769Y-104336043D01*
X144199699Y-104534067D01*
X144179417Y-104740000D01*
X121520448Y-104740000D01*
X121153289Y-103610000D01*
X136919610Y-103610000D01*
X136939068Y-103745337D01*
X136939070Y-103745345D01*
X136995867Y-103869714D01*
X136995872Y-103869721D01*
X137085409Y-103973053D01*
X137085413Y-103973057D01*
X137145979Y-104011979D01*
X137200439Y-104046978D01*
X137262964Y-104065337D01*
X137331632Y-104085500D01*
X137331633Y-104085500D01*
X137468367Y-104085500D01*
X137599561Y-104046978D01*
X137714589Y-103973055D01*
X137804130Y-103869718D01*
X137860931Y-103745342D01*
X137880390Y-103610000D01*
X137860931Y-103474658D01*
X137824175Y-103394174D01*
X137804132Y-103350285D01*
X137804127Y-103350278D01*
X137714590Y-103246946D01*
X137714586Y-103246942D01*
X137599559Y-103173021D01*
X137468368Y-103134500D01*
X137468367Y-103134500D01*
X137331633Y-103134500D01*
X137331632Y-103134500D01*
X137200440Y-103173021D01*
X137085413Y-103246942D01*
X137085409Y-103246946D01*
X136995872Y-103350278D01*
X136995867Y-103350285D01*
X136939070Y-103474654D01*
X136939068Y-103474662D01*
X136919610Y-103610000D01*
X121153289Y-103610000D01*
X120987580Y-103100000D01*
X141499610Y-103100000D01*
X141519068Y-103235337D01*
X141519070Y-103235345D01*
X141575867Y-103359714D01*
X141575872Y-103359722D01*
X141665726Y-103463419D01*
X141694751Y-103526974D01*
X141684807Y-103596133D01*
X141665728Y-103625821D01*
X141635872Y-103660277D01*
X141635867Y-103660285D01*
X141579070Y-103784654D01*
X141579068Y-103784662D01*
X141559610Y-103920000D01*
X141579068Y-104055337D01*
X141579070Y-104055345D01*
X141635867Y-104179714D01*
X141635872Y-104179721D01*
X141725409Y-104283053D01*
X141725413Y-104283057D01*
X141785979Y-104321979D01*
X141840439Y-104356978D01*
X141874496Y-104366978D01*
X141971632Y-104395500D01*
X141971633Y-104395500D01*
X142108367Y-104395500D01*
X142239561Y-104356978D01*
X142354589Y-104283055D01*
X142354591Y-104283052D01*
X142361289Y-104277249D01*
X142362875Y-104279079D01*
X142410713Y-104248325D01*
X142480583Y-104248314D01*
X142539367Y-104286080D01*
X142545411Y-104293055D01*
X142545413Y-104293056D01*
X142545413Y-104293057D01*
X142605979Y-104331979D01*
X142660439Y-104366978D01*
X142726035Y-104386238D01*
X142791632Y-104405500D01*
X142791633Y-104405500D01*
X142928367Y-104405500D01*
X143059561Y-104366978D01*
X143174589Y-104293055D01*
X143264130Y-104189718D01*
X143320931Y-104065342D01*
X143340390Y-103930000D01*
X143320931Y-103794658D01*
X143307281Y-103764768D01*
X143264132Y-103670285D01*
X143264127Y-103670278D01*
X143174590Y-103566946D01*
X143174586Y-103566942D01*
X143059559Y-103493021D01*
X142928368Y-103454500D01*
X142928367Y-103454500D01*
X142791633Y-103454500D01*
X142791632Y-103454500D01*
X142660440Y-103493021D01*
X142545413Y-103566942D01*
X142538711Y-103572751D01*
X142537129Y-103570925D01*
X142489235Y-103601688D01*
X142419365Y-103601669D01*
X142360617Y-103563902D01*
X142354271Y-103556578D01*
X142325248Y-103493021D01*
X142335193Y-103423863D01*
X142354274Y-103394174D01*
X142384127Y-103359722D01*
X142384128Y-103359720D01*
X142384130Y-103359718D01*
X142440931Y-103235342D01*
X142460390Y-103100000D01*
X142440931Y-102964658D01*
X142428677Y-102937827D01*
X142384132Y-102840285D01*
X142384127Y-102840278D01*
X142294590Y-102736946D01*
X142294586Y-102736942D01*
X142179559Y-102663021D01*
X142048368Y-102624500D01*
X142048367Y-102624500D01*
X141911633Y-102624500D01*
X141911632Y-102624500D01*
X141780440Y-102663021D01*
X141665413Y-102736942D01*
X141665409Y-102736946D01*
X141575872Y-102840278D01*
X141575867Y-102840285D01*
X141519070Y-102964654D01*
X141519068Y-102964662D01*
X141499610Y-103100000D01*
X120987580Y-103100000D01*
X120301999Y-100989999D01*
X148649610Y-100989999D01*
X148669068Y-101125337D01*
X148669070Y-101125345D01*
X148725867Y-101249714D01*
X148725872Y-101249721D01*
X148815409Y-101353053D01*
X148815413Y-101353057D01*
X148875979Y-101391979D01*
X148930439Y-101426978D01*
X148996036Y-101446238D01*
X149061632Y-101465500D01*
X149061633Y-101465500D01*
X149198367Y-101465500D01*
X149329561Y-101426978D01*
X149444589Y-101353055D01*
X149534130Y-101249718D01*
X149590931Y-101125342D01*
X149610390Y-100990000D01*
X149610290Y-100989305D01*
X149610390Y-100988610D01*
X149610390Y-100981131D01*
X149611465Y-100981131D01*
X149620230Y-100920147D01*
X149665983Y-100867341D01*
X149733022Y-100847654D01*
X149767962Y-100852677D01*
X149811632Y-100865500D01*
X149811633Y-100865500D01*
X149948367Y-100865500D01*
X150079561Y-100826978D01*
X150194589Y-100753055D01*
X150284130Y-100649718D01*
X150286129Y-100645342D01*
X150301289Y-100612145D01*
X150340931Y-100525342D01*
X150360390Y-100390000D01*
X150353848Y-100344499D01*
X154379610Y-100344499D01*
X154399068Y-100479837D01*
X154399070Y-100479845D01*
X154455867Y-100604214D01*
X154455872Y-100604221D01*
X154545409Y-100707553D01*
X154545413Y-100707557D01*
X154605979Y-100746479D01*
X154660439Y-100781478D01*
X154726035Y-100800739D01*
X154791632Y-100820000D01*
X154791633Y-100820000D01*
X154928367Y-100820000D01*
X155059561Y-100781478D01*
X155174589Y-100707555D01*
X155264130Y-100604218D01*
X155307158Y-100510000D01*
X156729610Y-100510000D01*
X156732823Y-100532345D01*
X156749068Y-100645337D01*
X156749070Y-100645345D01*
X156805867Y-100769714D01*
X156805872Y-100769721D01*
X156895409Y-100873053D01*
X156895413Y-100873057D01*
X156955979Y-100911979D01*
X157010439Y-100946978D01*
X157076036Y-100966238D01*
X157141632Y-100985500D01*
X157141633Y-100985500D01*
X157278367Y-100985500D01*
X157409561Y-100946978D01*
X157524589Y-100873055D01*
X157614130Y-100769718D01*
X157670931Y-100645342D01*
X157690390Y-100510000D01*
X157670931Y-100374658D01*
X157655767Y-100341454D01*
X157614132Y-100250285D01*
X157614127Y-100250278D01*
X157524590Y-100146946D01*
X157524586Y-100146942D01*
X157409559Y-100073021D01*
X157278368Y-100034500D01*
X157278367Y-100034500D01*
X157141633Y-100034500D01*
X157141632Y-100034500D01*
X157010440Y-100073021D01*
X156895413Y-100146942D01*
X156895409Y-100146946D01*
X156805872Y-100250278D01*
X156805867Y-100250285D01*
X156749070Y-100374654D01*
X156749068Y-100374662D01*
X156729610Y-100509999D01*
X156729610Y-100510000D01*
X155307158Y-100510000D01*
X155320931Y-100479842D01*
X155340390Y-100344500D01*
X155320931Y-100209158D01*
X155284911Y-100130285D01*
X155264132Y-100084785D01*
X155264127Y-100084778D01*
X155174590Y-99981446D01*
X155174586Y-99981442D01*
X155059559Y-99907521D01*
X154928368Y-99869000D01*
X154928367Y-99869000D01*
X154791633Y-99869000D01*
X154791632Y-99869000D01*
X154660440Y-99907521D01*
X154545413Y-99981442D01*
X154545409Y-99981446D01*
X154455872Y-100084778D01*
X154455867Y-100084785D01*
X154399070Y-100209154D01*
X154399068Y-100209162D01*
X154379610Y-100344499D01*
X150353848Y-100344499D01*
X150340931Y-100254658D01*
X150323772Y-100217085D01*
X150284132Y-100130285D01*
X150284127Y-100130278D01*
X150194590Y-100026946D01*
X150194586Y-100026942D01*
X150079559Y-99953021D01*
X149948368Y-99914500D01*
X149948367Y-99914500D01*
X149811633Y-99914500D01*
X149811632Y-99914500D01*
X149680440Y-99953021D01*
X149565413Y-100026942D01*
X149565409Y-100026946D01*
X149475872Y-100130278D01*
X149475867Y-100130285D01*
X149419070Y-100254654D01*
X149419068Y-100254662D01*
X149399610Y-100390000D01*
X149399610Y-100390001D01*
X149399711Y-100390704D01*
X149399610Y-100391406D01*
X149399610Y-100398869D01*
X149398537Y-100398869D01*
X149389764Y-100459862D01*
X149344007Y-100512664D01*
X149276966Y-100532345D01*
X149242038Y-100527322D01*
X149198370Y-100514500D01*
X149198367Y-100514500D01*
X149061633Y-100514500D01*
X149061632Y-100514500D01*
X148930440Y-100553021D01*
X148815413Y-100626942D01*
X148815409Y-100626946D01*
X148725872Y-100730278D01*
X148725867Y-100730285D01*
X148669070Y-100854654D01*
X148669068Y-100854662D01*
X148649610Y-100989999D01*
X120301999Y-100989999D01*
X120135251Y-100476800D01*
X145666410Y-100476800D01*
X145685868Y-100612137D01*
X145685870Y-100612145D01*
X145742667Y-100736514D01*
X145742672Y-100736521D01*
X145832209Y-100839853D01*
X145832213Y-100839857D01*
X145883869Y-100873053D01*
X145947239Y-100913778D01*
X146012835Y-100933038D01*
X146078432Y-100952300D01*
X146078433Y-100952300D01*
X146215167Y-100952300D01*
X146346361Y-100913778D01*
X146461389Y-100839855D01*
X146550930Y-100736518D01*
X146607731Y-100612142D01*
X146627190Y-100476800D01*
X146607731Y-100341458D01*
X146595477Y-100314627D01*
X146550932Y-100217085D01*
X146550927Y-100217078D01*
X146461390Y-100113746D01*
X146461386Y-100113742D01*
X146346359Y-100039821D01*
X146215168Y-100001300D01*
X146215167Y-100001300D01*
X146078433Y-100001300D01*
X146078432Y-100001300D01*
X145947240Y-100039821D01*
X145832213Y-100113742D01*
X145832209Y-100113746D01*
X145742672Y-100217078D01*
X145742667Y-100217085D01*
X145685870Y-100341454D01*
X145685868Y-100341462D01*
X145666410Y-100476800D01*
X120135251Y-100476800D01*
X119474916Y-98444499D01*
X141994610Y-98444499D01*
X142014068Y-98579837D01*
X142014070Y-98579845D01*
X142070867Y-98704214D01*
X142070872Y-98704221D01*
X142160409Y-98807553D01*
X142160413Y-98807557D01*
X142220979Y-98846479D01*
X142275439Y-98881478D01*
X142341036Y-98900738D01*
X142406632Y-98920000D01*
X142406633Y-98920000D01*
X142543367Y-98920000D01*
X142674561Y-98881478D01*
X142789589Y-98807555D01*
X142879130Y-98704218D01*
X142935931Y-98579842D01*
X142955390Y-98444500D01*
X142955390Y-98444499D01*
X145899610Y-98444499D01*
X145919068Y-98579837D01*
X145919070Y-98579845D01*
X145975867Y-98704214D01*
X145975872Y-98704221D01*
X146065409Y-98807553D01*
X146065413Y-98807557D01*
X146125979Y-98846479D01*
X146180439Y-98881478D01*
X146246035Y-98900739D01*
X146311632Y-98920000D01*
X146311633Y-98920000D01*
X146448367Y-98920000D01*
X146579561Y-98881478D01*
X146694589Y-98807555D01*
X146784130Y-98704218D01*
X146840931Y-98579842D01*
X146860390Y-98444500D01*
X146840931Y-98309158D01*
X146828677Y-98282327D01*
X146784132Y-98184785D01*
X146784127Y-98184778D01*
X146694590Y-98081446D01*
X146694586Y-98081442D01*
X146579559Y-98007521D01*
X146448368Y-97969000D01*
X146448367Y-97969000D01*
X146311633Y-97969000D01*
X146311632Y-97969000D01*
X146180440Y-98007521D01*
X146065413Y-98081442D01*
X146065409Y-98081446D01*
X145975872Y-98184778D01*
X145975867Y-98184785D01*
X145919070Y-98309154D01*
X145919068Y-98309162D01*
X145899610Y-98444499D01*
X142955390Y-98444499D01*
X142935931Y-98309158D01*
X142923677Y-98282327D01*
X142879132Y-98184785D01*
X142879127Y-98184778D01*
X142789590Y-98081446D01*
X142789586Y-98081442D01*
X142674559Y-98007521D01*
X142543368Y-97969000D01*
X142543367Y-97969000D01*
X142406633Y-97969000D01*
X142406632Y-97969000D01*
X142275440Y-98007521D01*
X142160413Y-98081442D01*
X142160409Y-98081446D01*
X142070872Y-98184778D01*
X142070867Y-98184785D01*
X142014070Y-98309154D01*
X142014068Y-98309162D01*
X141994610Y-98444499D01*
X119474916Y-98444499D01*
X118937336Y-96790000D01*
X131409610Y-96790000D01*
X131414616Y-96824815D01*
X131429068Y-96925337D01*
X131429070Y-96925345D01*
X131485867Y-97049714D01*
X131485872Y-97049721D01*
X131575409Y-97153053D01*
X131575413Y-97153057D01*
X131624587Y-97184658D01*
X131690439Y-97226978D01*
X131756036Y-97246238D01*
X131821632Y-97265500D01*
X131894327Y-97265500D01*
X131961366Y-97285185D01*
X132007121Y-97337989D01*
X132017065Y-97371853D01*
X132029068Y-97455337D01*
X132029070Y-97455345D01*
X132085867Y-97579714D01*
X132085872Y-97579721D01*
X132175409Y-97683053D01*
X132175413Y-97683057D01*
X132225477Y-97715230D01*
X132290439Y-97756978D01*
X132352838Y-97775300D01*
X132421632Y-97795500D01*
X132421633Y-97795500D01*
X132558367Y-97795500D01*
X132689561Y-97756978D01*
X132804589Y-97683055D01*
X132894130Y-97579718D01*
X132950931Y-97455342D01*
X132970390Y-97320000D01*
X132957450Y-97230000D01*
X134569610Y-97230000D01*
X134589068Y-97365337D01*
X134589070Y-97365345D01*
X134645867Y-97489714D01*
X134645872Y-97489721D01*
X134735409Y-97593053D01*
X134735413Y-97593057D01*
X134795979Y-97631979D01*
X134850439Y-97666978D01*
X134905192Y-97683055D01*
X134981632Y-97705500D01*
X134981633Y-97705500D01*
X135118367Y-97705500D01*
X135249561Y-97666978D01*
X135364589Y-97593055D01*
X135454130Y-97489718D01*
X135469829Y-97455342D01*
X135479065Y-97435119D01*
X135524819Y-97382315D01*
X135591859Y-97362630D01*
X135626794Y-97367653D01*
X135721632Y-97395500D01*
X135721633Y-97395500D01*
X135858367Y-97395500D01*
X135989561Y-97356978D01*
X136104589Y-97283055D01*
X136194130Y-97179718D01*
X136195006Y-97177801D01*
X136232974Y-97094662D01*
X136250931Y-97055342D01*
X136270390Y-96920000D01*
X136250931Y-96784658D01*
X136230536Y-96739999D01*
X144179417Y-96739999D01*
X144199699Y-96945932D01*
X144226479Y-97034214D01*
X144259768Y-97143954D01*
X144357315Y-97326450D01*
X144364367Y-97335043D01*
X144488589Y-97486410D01*
X144585209Y-97565702D01*
X144648550Y-97617685D01*
X144831046Y-97715232D01*
X145029066Y-97775300D01*
X145029065Y-97775300D01*
X145049347Y-97777297D01*
X145235000Y-97795583D01*
X145440934Y-97775300D01*
X145638954Y-97715232D01*
X145821450Y-97617685D01*
X145981410Y-97486410D01*
X146112685Y-97326450D01*
X146133913Y-97286734D01*
X146182874Y-97236891D01*
X146251012Y-97221430D01*
X146303008Y-97236526D01*
X146438841Y-97311201D01*
X146438845Y-97311203D01*
X146588002Y-97349500D01*
X146588006Y-97349500D01*
X146703342Y-97349500D01*
X146703344Y-97349500D01*
X146703349Y-97349499D01*
X146703353Y-97349499D01*
X146714632Y-97348073D01*
X146817781Y-97335043D01*
X146960962Y-97278354D01*
X147011941Y-97241315D01*
X147077748Y-97217834D01*
X147145802Y-97233659D01*
X147194184Y-97283176D01*
X147217315Y-97326450D01*
X147224367Y-97335043D01*
X147348589Y-97486410D01*
X147445209Y-97565702D01*
X147508550Y-97617685D01*
X147691046Y-97715232D01*
X147889066Y-97775300D01*
X147889065Y-97775300D01*
X147907529Y-97777118D01*
X148095000Y-97795583D01*
X148300934Y-97775300D01*
X148498954Y-97715232D01*
X148681450Y-97617685D01*
X148841410Y-97486410D01*
X148972685Y-97326450D01*
X148979798Y-97313142D01*
X157039854Y-97313142D01*
X157059312Y-97448480D01*
X157059314Y-97448488D01*
X157116111Y-97572857D01*
X157116116Y-97572864D01*
X157205653Y-97676196D01*
X157205657Y-97676200D01*
X157251250Y-97705500D01*
X157320683Y-97750121D01*
X157344036Y-97756978D01*
X157451876Y-97788643D01*
X157451877Y-97788643D01*
X157588611Y-97788643D01*
X157719805Y-97750121D01*
X157834833Y-97676198D01*
X157924374Y-97572861D01*
X157941893Y-97534500D01*
X164170153Y-97534500D01*
X164189611Y-97669837D01*
X164189613Y-97669845D01*
X164246410Y-97794214D01*
X164246415Y-97794221D01*
X164335952Y-97897553D01*
X164335956Y-97897557D01*
X164385995Y-97929714D01*
X164450982Y-97971478D01*
X164516579Y-97990739D01*
X164582175Y-98010000D01*
X164582176Y-98010000D01*
X164718910Y-98010000D01*
X164850104Y-97971478D01*
X164965132Y-97897555D01*
X165054673Y-97794218D01*
X165111474Y-97669842D01*
X165130933Y-97534500D01*
X165111474Y-97399158D01*
X165083539Y-97337989D01*
X165054675Y-97274785D01*
X165054670Y-97274778D01*
X164965133Y-97171446D01*
X164965129Y-97171442D01*
X164850102Y-97097521D01*
X164718911Y-97059000D01*
X164718910Y-97059000D01*
X164582176Y-97059000D01*
X164582175Y-97059000D01*
X164450983Y-97097521D01*
X164335956Y-97171442D01*
X164335952Y-97171446D01*
X164246415Y-97274778D01*
X164246410Y-97274785D01*
X164189613Y-97399154D01*
X164189611Y-97399162D01*
X164170153Y-97534500D01*
X157941893Y-97534500D01*
X157981175Y-97448485D01*
X158000634Y-97313143D01*
X157981175Y-97177801D01*
X157965718Y-97143956D01*
X157924376Y-97053428D01*
X157924371Y-97053421D01*
X157834834Y-96950089D01*
X157834830Y-96950085D01*
X157719803Y-96876164D01*
X157588612Y-96837643D01*
X157588611Y-96837643D01*
X157451877Y-96837643D01*
X157451876Y-96837643D01*
X157320684Y-96876164D01*
X157205657Y-96950085D01*
X157205653Y-96950089D01*
X157116116Y-97053421D01*
X157116111Y-97053428D01*
X157059314Y-97177797D01*
X157059312Y-97177805D01*
X157039854Y-97313142D01*
X148979798Y-97313142D01*
X149070232Y-97143954D01*
X149130300Y-96945934D01*
X149147185Y-96774500D01*
X165209110Y-96774500D01*
X165210571Y-96784662D01*
X165228568Y-96909837D01*
X165228570Y-96909845D01*
X165285367Y-97034214D01*
X165285372Y-97034221D01*
X165374909Y-97137553D01*
X165374913Y-97137557D01*
X165489940Y-97211479D01*
X165498011Y-97215165D01*
X165497082Y-97217196D01*
X165545486Y-97248295D01*
X165574519Y-97311847D01*
X165564584Y-97381007D01*
X165550596Y-97402777D01*
X165550665Y-97402821D01*
X165545867Y-97410285D01*
X165489070Y-97534654D01*
X165489068Y-97534662D01*
X165470044Y-97666978D01*
X165469610Y-97670000D01*
X165471487Y-97683053D01*
X165489068Y-97805337D01*
X165489070Y-97805345D01*
X165545867Y-97929714D01*
X165545872Y-97929721D01*
X165635409Y-98033053D01*
X165635413Y-98033057D01*
X165695979Y-98071979D01*
X165750439Y-98106978D01*
X165816035Y-98126238D01*
X165881632Y-98145500D01*
X165881633Y-98145500D01*
X166018367Y-98145500D01*
X166149561Y-98106978D01*
X166264589Y-98033055D01*
X166354130Y-97929718D01*
X166410931Y-97805342D01*
X166430390Y-97670000D01*
X166410931Y-97534658D01*
X166390409Y-97489721D01*
X166354132Y-97410285D01*
X166354127Y-97410278D01*
X166264590Y-97306946D01*
X166264586Y-97306942D01*
X166149559Y-97233020D01*
X166141489Y-97229335D01*
X166142415Y-97227305D01*
X166094003Y-97196193D01*
X166064978Y-97132637D01*
X166074922Y-97063478D01*
X166088903Y-97041722D01*
X166088835Y-97041679D01*
X166093627Y-97034220D01*
X166093630Y-97034218D01*
X166150431Y-96909842D01*
X166169890Y-96774500D01*
X166150431Y-96639158D01*
X166112886Y-96556946D01*
X166093632Y-96514785D01*
X166093627Y-96514778D01*
X166004090Y-96411446D01*
X166004086Y-96411442D01*
X165889059Y-96337521D01*
X165757868Y-96299000D01*
X165757867Y-96299000D01*
X165621133Y-96299000D01*
X165621132Y-96299000D01*
X165489940Y-96337521D01*
X165374913Y-96411442D01*
X165374909Y-96411446D01*
X165285372Y-96514778D01*
X165285367Y-96514785D01*
X165228570Y-96639154D01*
X165228568Y-96639162D01*
X165210090Y-96767686D01*
X165209110Y-96774500D01*
X149147185Y-96774500D01*
X149150583Y-96740000D01*
X149130300Y-96534066D01*
X149070232Y-96336046D01*
X148972685Y-96153550D01*
X148920702Y-96090209D01*
X148841410Y-95993589D01*
X148681452Y-95862317D01*
X148681453Y-95862317D01*
X148681450Y-95862315D01*
X148498954Y-95764768D01*
X148300934Y-95704700D01*
X148300932Y-95704699D01*
X148300934Y-95704699D01*
X148113463Y-95686235D01*
X148095000Y-95684417D01*
X148094999Y-95684417D01*
X147889067Y-95704699D01*
X147691043Y-95764769D01*
X147580898Y-95823643D01*
X147508550Y-95862315D01*
X147508548Y-95862316D01*
X147508547Y-95862317D01*
X147348589Y-95993589D01*
X147217316Y-96153547D01*
X147196085Y-96193267D01*
X147147121Y-96243110D01*
X147078983Y-96258569D01*
X147026991Y-96243473D01*
X146891158Y-96168798D01*
X146891148Y-96168795D01*
X146742001Y-96130500D01*
X146741998Y-96130500D01*
X146626656Y-96130500D01*
X146626646Y-96130500D01*
X146522622Y-96143642D01*
X146512219Y-96144957D01*
X146490513Y-96153551D01*
X146369036Y-96201646D01*
X146318056Y-96238685D01*
X146252249Y-96262164D01*
X146184196Y-96246338D01*
X146135814Y-96196820D01*
X146112686Y-96153551D01*
X146112684Y-96153549D01*
X146112682Y-96153547D01*
X146089143Y-96124864D01*
X145981410Y-95993589D01*
X145821452Y-95862317D01*
X145821453Y-95862317D01*
X145821450Y-95862315D01*
X145638954Y-95764768D01*
X145440934Y-95704700D01*
X145440932Y-95704699D01*
X145440934Y-95704699D01*
X145253463Y-95686235D01*
X145235000Y-95684417D01*
X145234999Y-95684417D01*
X145234988Y-95684417D01*
X145232762Y-95684636D01*
X145231608Y-95684417D01*
X145228908Y-95684417D01*
X145228908Y-95683904D01*
X145164118Y-95671609D01*
X145113413Y-95623538D01*
X145096747Y-95555686D01*
X145107828Y-95509723D01*
X145150931Y-95415342D01*
X145170390Y-95280000D01*
X145150931Y-95144658D01*
X145138677Y-95117827D01*
X145094132Y-95020285D01*
X145094127Y-95020278D01*
X145004590Y-94916946D01*
X145004586Y-94916942D01*
X144889559Y-94843021D01*
X144758368Y-94804500D01*
X144758367Y-94804500D01*
X144621633Y-94804500D01*
X144621632Y-94804500D01*
X144490440Y-94843021D01*
X144375413Y-94916942D01*
X144375409Y-94916946D01*
X144285872Y-95020278D01*
X144285867Y-95020285D01*
X144229070Y-95144654D01*
X144229068Y-95144662D01*
X144209610Y-95280000D01*
X144229068Y-95415337D01*
X144229070Y-95415345D01*
X144285867Y-95539714D01*
X144285872Y-95539721D01*
X144375409Y-95643053D01*
X144375413Y-95643057D01*
X144413257Y-95667377D01*
X144490439Y-95716978D01*
X144512313Y-95723400D01*
X144571091Y-95761174D01*
X144600117Y-95824729D01*
X144590174Y-95893888D01*
X144556044Y-95938231D01*
X144488590Y-95993589D01*
X144364367Y-96144957D01*
X144357315Y-96153550D01*
X144349165Y-96168798D01*
X144259769Y-96336043D01*
X144199699Y-96534067D01*
X144179417Y-96739999D01*
X136230536Y-96739999D01*
X136219066Y-96714883D01*
X136194132Y-96660285D01*
X136194127Y-96660278D01*
X136104590Y-96556946D01*
X136104586Y-96556942D01*
X135989559Y-96483021D01*
X135858368Y-96444500D01*
X135858367Y-96444500D01*
X135721633Y-96444500D01*
X135721632Y-96444500D01*
X135590440Y-96483021D01*
X135475413Y-96556942D01*
X135475409Y-96556946D01*
X135385872Y-96660278D01*
X135385868Y-96660284D01*
X135360933Y-96714883D01*
X135315178Y-96767686D01*
X135248138Y-96787369D01*
X135213206Y-96782346D01*
X135118369Y-96754500D01*
X135118367Y-96754500D01*
X134981633Y-96754500D01*
X134981632Y-96754500D01*
X134850440Y-96793021D01*
X134735413Y-96866942D01*
X134735409Y-96866946D01*
X134645872Y-96970278D01*
X134645867Y-96970285D01*
X134589070Y-97094654D01*
X134589068Y-97094662D01*
X134569610Y-97230000D01*
X132957450Y-97230000D01*
X132950931Y-97184658D01*
X132909831Y-97094662D01*
X132894132Y-97060285D01*
X132894127Y-97060278D01*
X132804590Y-96956946D01*
X132804586Y-96956942D01*
X132689559Y-96883021D01*
X132558368Y-96844500D01*
X132558367Y-96844500D01*
X132485673Y-96844500D01*
X132418634Y-96824815D01*
X132372879Y-96772011D01*
X132362935Y-96738147D01*
X132351740Y-96660285D01*
X132350931Y-96654658D01*
X132338677Y-96627827D01*
X132294132Y-96530285D01*
X132294127Y-96530278D01*
X132204590Y-96426946D01*
X132204586Y-96426942D01*
X132089559Y-96353021D01*
X131958368Y-96314500D01*
X131958367Y-96314500D01*
X131821633Y-96314500D01*
X131821632Y-96314500D01*
X131690440Y-96353021D01*
X131575413Y-96426942D01*
X131575409Y-96426946D01*
X131485872Y-96530278D01*
X131485867Y-96530285D01*
X131429070Y-96654654D01*
X131429068Y-96654662D01*
X131410378Y-96784658D01*
X131409610Y-96790000D01*
X118937336Y-96790000D01*
X118528597Y-95532032D01*
X133380859Y-95532032D01*
X133400317Y-95667369D01*
X133400319Y-95667377D01*
X133457116Y-95791746D01*
X133457121Y-95791753D01*
X133546658Y-95895085D01*
X133546662Y-95895089D01*
X133607228Y-95934011D01*
X133661688Y-95969010D01*
X133727284Y-95988270D01*
X133792881Y-96007532D01*
X133792882Y-96007532D01*
X133929616Y-96007532D01*
X134060810Y-95969010D01*
X134175838Y-95895087D01*
X134265379Y-95791750D01*
X134322180Y-95667374D01*
X134341639Y-95532032D01*
X134322180Y-95396690D01*
X134309926Y-95369859D01*
X134265381Y-95272317D01*
X134265376Y-95272310D01*
X134175839Y-95168978D01*
X134175835Y-95168974D01*
X134060808Y-95095053D01*
X133929617Y-95056532D01*
X133929616Y-95056532D01*
X133792882Y-95056532D01*
X133792881Y-95056532D01*
X133661689Y-95095053D01*
X133546662Y-95168974D01*
X133546658Y-95168978D01*
X133457121Y-95272310D01*
X133457116Y-95272317D01*
X133400319Y-95396686D01*
X133400317Y-95396694D01*
X133380859Y-95532032D01*
X118528597Y-95532032D01*
X117813114Y-93330000D01*
X166619610Y-93330000D01*
X166639068Y-93465337D01*
X166639070Y-93465345D01*
X166695867Y-93589714D01*
X166695872Y-93589721D01*
X166785409Y-93693053D01*
X166785413Y-93693057D01*
X166845979Y-93731979D01*
X166900439Y-93766978D01*
X166966035Y-93786238D01*
X167031632Y-93805500D01*
X167031633Y-93805500D01*
X167168367Y-93805500D01*
X167299561Y-93766978D01*
X167414589Y-93693055D01*
X167504130Y-93589718D01*
X167560931Y-93465342D01*
X167580390Y-93330000D01*
X167560931Y-93194658D01*
X167548677Y-93167827D01*
X167504132Y-93070285D01*
X167504127Y-93070278D01*
X167414590Y-92966946D01*
X167414586Y-92966942D01*
X167299559Y-92893021D01*
X167168368Y-92854500D01*
X167168367Y-92854500D01*
X167031633Y-92854500D01*
X167031632Y-92854500D01*
X166900440Y-92893021D01*
X166785413Y-92966942D01*
X166785409Y-92966946D01*
X166695872Y-93070278D01*
X166695867Y-93070285D01*
X166639070Y-93194654D01*
X166639068Y-93194662D01*
X166619610Y-93330000D01*
X117813114Y-93330000D01*
X117549929Y-92520000D01*
X132499610Y-92520000D01*
X132506194Y-92565794D01*
X132519068Y-92655337D01*
X132519070Y-92655345D01*
X132575867Y-92779714D01*
X132575872Y-92779721D01*
X132665409Y-92883053D01*
X132665413Y-92883057D01*
X132725979Y-92921979D01*
X132780439Y-92956978D01*
X132814384Y-92966945D01*
X132911632Y-92995500D01*
X132911633Y-92995500D01*
X133048367Y-92995500D01*
X133179561Y-92956978D01*
X133294589Y-92883055D01*
X133384130Y-92779718D01*
X133440931Y-92655342D01*
X133460390Y-92520000D01*
X133441699Y-92389999D01*
X169949610Y-92389999D01*
X169969068Y-92525337D01*
X169969070Y-92525345D01*
X170025867Y-92649714D01*
X170025872Y-92649721D01*
X170115409Y-92753053D01*
X170115413Y-92753057D01*
X170175979Y-92791979D01*
X170230439Y-92826978D01*
X170296035Y-92846238D01*
X170361632Y-92865500D01*
X170361633Y-92865500D01*
X170498367Y-92865500D01*
X170629561Y-92826978D01*
X170744589Y-92753055D01*
X170834130Y-92649718D01*
X170890931Y-92525342D01*
X170910390Y-92390000D01*
X170890931Y-92254658D01*
X170878677Y-92227827D01*
X170834132Y-92130285D01*
X170834127Y-92130278D01*
X170744590Y-92026946D01*
X170744586Y-92026942D01*
X170629559Y-91953021D01*
X170498368Y-91914500D01*
X170498367Y-91914500D01*
X170361633Y-91914500D01*
X170361632Y-91914500D01*
X170230440Y-91953021D01*
X170115413Y-92026942D01*
X170115409Y-92026946D01*
X170025872Y-92130278D01*
X170025867Y-92130285D01*
X169969070Y-92254654D01*
X169969068Y-92254662D01*
X169949610Y-92389999D01*
X133441699Y-92389999D01*
X133440931Y-92384658D01*
X133423723Y-92346978D01*
X133384132Y-92260285D01*
X133384127Y-92260278D01*
X133294590Y-92156946D01*
X133294586Y-92156942D01*
X133179559Y-92083021D01*
X133048368Y-92044500D01*
X133048367Y-92044500D01*
X132911633Y-92044500D01*
X132911632Y-92044500D01*
X132780440Y-92083021D01*
X132665413Y-92156942D01*
X132665409Y-92156946D01*
X132575872Y-92260278D01*
X132575867Y-92260285D01*
X132519070Y-92384654D01*
X132519069Y-92384658D01*
X132499610Y-92520000D01*
X117549929Y-92520000D01*
X117328984Y-91840000D01*
X143759610Y-91840000D01*
X143779068Y-91975337D01*
X143779070Y-91975345D01*
X143835867Y-92099714D01*
X143835872Y-92099721D01*
X143925409Y-92203053D01*
X143925413Y-92203057D01*
X143985979Y-92241979D01*
X144040439Y-92276978D01*
X144106035Y-92296238D01*
X144171632Y-92315500D01*
X144171633Y-92315500D01*
X144308367Y-92315500D01*
X144439561Y-92276978D01*
X144554589Y-92203055D01*
X144644130Y-92099718D01*
X144700931Y-91975342D01*
X144710326Y-91909999D01*
X167029610Y-91909999D01*
X167049068Y-92045337D01*
X167049070Y-92045345D01*
X167105867Y-92169714D01*
X167105872Y-92169721D01*
X167195409Y-92273053D01*
X167195413Y-92273057D01*
X167255979Y-92311979D01*
X167310439Y-92346978D01*
X167376035Y-92366238D01*
X167441632Y-92385500D01*
X167441633Y-92385500D01*
X167578367Y-92385500D01*
X167709561Y-92346978D01*
X167824589Y-92273055D01*
X167914130Y-92169718D01*
X167970931Y-92045342D01*
X167990390Y-91910000D01*
X167970931Y-91774658D01*
X167938961Y-91704654D01*
X167914132Y-91650285D01*
X167914127Y-91650278D01*
X167824590Y-91546946D01*
X167824586Y-91546942D01*
X167715665Y-91476945D01*
X167709561Y-91473022D01*
X167709560Y-91473021D01*
X167709559Y-91473021D01*
X167578368Y-91434500D01*
X167578367Y-91434500D01*
X167441633Y-91434500D01*
X167441632Y-91434500D01*
X167310440Y-91473021D01*
X167195413Y-91546942D01*
X167195409Y-91546946D01*
X167105872Y-91650278D01*
X167105867Y-91650285D01*
X167049070Y-91774654D01*
X167049068Y-91774662D01*
X167029610Y-91909999D01*
X144710326Y-91909999D01*
X144720390Y-91840000D01*
X144700931Y-91704658D01*
X144676096Y-91650278D01*
X144644132Y-91580285D01*
X144644127Y-91580278D01*
X144554590Y-91476946D01*
X144554586Y-91476942D01*
X144439559Y-91403021D01*
X144308368Y-91364500D01*
X144308367Y-91364500D01*
X144171633Y-91364500D01*
X144171632Y-91364500D01*
X144040440Y-91403021D01*
X143925413Y-91476942D01*
X143925409Y-91476946D01*
X143835872Y-91580278D01*
X143835867Y-91580285D01*
X143779070Y-91704654D01*
X143779068Y-91704662D01*
X143759610Y-91840000D01*
X117328984Y-91840000D01*
X116628620Y-89684500D01*
X144839610Y-89684500D01*
X144859068Y-89819837D01*
X144859070Y-89819845D01*
X144915867Y-89944214D01*
X144915872Y-89944221D01*
X145005409Y-90047553D01*
X145005413Y-90047557D01*
X145065979Y-90086479D01*
X145120439Y-90121478D01*
X145186036Y-90140739D01*
X145251632Y-90160000D01*
X145251633Y-90160000D01*
X145388367Y-90160000D01*
X145519561Y-90121478D01*
X145634589Y-90047555D01*
X145724130Y-89944218D01*
X145780931Y-89819842D01*
X145800390Y-89684500D01*
X151584610Y-89684500D01*
X151604068Y-89819837D01*
X151604070Y-89819845D01*
X151660867Y-89944214D01*
X151660872Y-89944221D01*
X151750409Y-90047553D01*
X151750413Y-90047557D01*
X151810979Y-90086479D01*
X151865439Y-90121478D01*
X151931036Y-90140739D01*
X151996632Y-90160000D01*
X151996633Y-90160000D01*
X152133367Y-90160000D01*
X152264561Y-90121478D01*
X152379589Y-90047555D01*
X152469130Y-89944218D01*
X152525931Y-89819842D01*
X152535973Y-89749999D01*
X155049610Y-89749999D01*
X155069068Y-89885337D01*
X155069070Y-89885345D01*
X155125867Y-90009714D01*
X155125872Y-90009721D01*
X155215409Y-90113053D01*
X155215413Y-90113057D01*
X155275979Y-90151979D01*
X155330439Y-90186978D01*
X155396036Y-90206238D01*
X155461632Y-90225500D01*
X155461633Y-90225500D01*
X155598367Y-90225500D01*
X155729561Y-90186978D01*
X155844589Y-90113055D01*
X155934130Y-90009718D01*
X155990931Y-89885342D01*
X156010390Y-89750000D01*
X155990931Y-89614658D01*
X155961016Y-89549154D01*
X155934132Y-89490285D01*
X155934127Y-89490278D01*
X155844590Y-89386946D01*
X155844586Y-89386942D01*
X155742669Y-89321446D01*
X155729561Y-89313022D01*
X155729560Y-89313021D01*
X155729559Y-89313021D01*
X155598368Y-89274500D01*
X155598367Y-89274500D01*
X155461633Y-89274500D01*
X155461632Y-89274500D01*
X155330440Y-89313021D01*
X155215413Y-89386942D01*
X155215409Y-89386946D01*
X155125872Y-89490278D01*
X155125867Y-89490285D01*
X155069070Y-89614654D01*
X155069068Y-89614662D01*
X155049610Y-89749999D01*
X152535973Y-89749999D01*
X152545390Y-89684500D01*
X152525931Y-89549158D01*
X152513677Y-89522327D01*
X152469132Y-89424785D01*
X152469127Y-89424778D01*
X152379590Y-89321446D01*
X152379586Y-89321442D01*
X152264559Y-89247521D01*
X152133368Y-89209000D01*
X152133367Y-89209000D01*
X151996633Y-89209000D01*
X151996632Y-89209000D01*
X151865440Y-89247521D01*
X151750413Y-89321442D01*
X151750409Y-89321446D01*
X151660872Y-89424778D01*
X151660867Y-89424785D01*
X151604070Y-89549154D01*
X151604068Y-89549162D01*
X151584610Y-89684500D01*
X145800390Y-89684500D01*
X145780931Y-89549158D01*
X145768677Y-89522327D01*
X145724132Y-89424785D01*
X145724127Y-89424778D01*
X145634590Y-89321446D01*
X145634586Y-89321442D01*
X145519559Y-89247521D01*
X145388368Y-89209000D01*
X145388367Y-89209000D01*
X145251633Y-89209000D01*
X145251632Y-89209000D01*
X145120440Y-89247521D01*
X145005413Y-89321442D01*
X145005409Y-89321446D01*
X144915872Y-89424778D01*
X144915867Y-89424785D01*
X144859070Y-89549154D01*
X144859068Y-89549162D01*
X144839610Y-89684500D01*
X116628620Y-89684500D01*
X116237254Y-88480000D01*
X121249610Y-88480000D01*
X121269068Y-88615337D01*
X121269070Y-88615345D01*
X121325867Y-88739714D01*
X121325872Y-88739721D01*
X121415409Y-88843053D01*
X121415413Y-88843057D01*
X121470410Y-88878400D01*
X121530439Y-88916978D01*
X121596036Y-88936238D01*
X121661632Y-88955500D01*
X121661633Y-88955500D01*
X121798367Y-88955500D01*
X121929561Y-88916978D01*
X122044589Y-88843055D01*
X122134130Y-88739718D01*
X122190931Y-88615342D01*
X122210390Y-88480000D01*
X122190931Y-88344658D01*
X122161403Y-88280001D01*
X122134132Y-88220285D01*
X122134127Y-88220278D01*
X122094968Y-88175086D01*
X122044589Y-88116945D01*
X122044583Y-88116941D01*
X122043792Y-88116255D01*
X122043220Y-88115365D01*
X122038781Y-88110242D01*
X122039517Y-88109603D01*
X122006020Y-88057475D01*
X122006023Y-87987605D01*
X122043800Y-87928829D01*
X122073491Y-87909749D01*
X122079551Y-87906980D01*
X122079561Y-87906978D01*
X122194589Y-87833055D01*
X122264555Y-87752309D01*
X122284127Y-87729722D01*
X122284127Y-87729720D01*
X122284130Y-87729718D01*
X122284367Y-87729198D01*
X122284740Y-87728766D01*
X122288924Y-87722258D01*
X122289859Y-87722858D01*
X122330114Y-87676392D01*
X122397152Y-87656700D01*
X122464193Y-87676377D01*
X122509954Y-87729176D01*
X122509959Y-87729188D01*
X122555869Y-87829716D01*
X122555872Y-87829721D01*
X122645409Y-87933053D01*
X122645413Y-87933057D01*
X122767899Y-88011772D01*
X122767130Y-88012968D01*
X122812772Y-88052524D01*
X122832451Y-88119565D01*
X122812761Y-88186603D01*
X122789659Y-88213263D01*
X122785412Y-88216942D01*
X122695872Y-88320278D01*
X122695867Y-88320285D01*
X122639070Y-88444654D01*
X122639068Y-88444662D01*
X122625401Y-88539721D01*
X122619610Y-88580000D01*
X122623484Y-88606942D01*
X122639068Y-88715337D01*
X122639070Y-88715345D01*
X122695867Y-88839714D01*
X122695872Y-88839721D01*
X122785409Y-88943053D01*
X122785413Y-88943057D01*
X122845979Y-88981979D01*
X122900439Y-89016978D01*
X122966035Y-89036238D01*
X123031632Y-89055500D01*
X123031633Y-89055500D01*
X123168367Y-89055500D01*
X123299561Y-89016978D01*
X123372661Y-88970000D01*
X175889610Y-88970000D01*
X175909068Y-89105337D01*
X175909070Y-89105345D01*
X175965867Y-89229714D01*
X175965872Y-89229721D01*
X176055409Y-89333053D01*
X176055413Y-89333057D01*
X176115979Y-89371979D01*
X176170439Y-89406978D01*
X176231060Y-89424778D01*
X176301632Y-89445500D01*
X176301633Y-89445500D01*
X176438367Y-89445500D01*
X176569561Y-89406978D01*
X176684589Y-89333055D01*
X176774130Y-89229718D01*
X176830931Y-89105342D01*
X176850390Y-88970000D01*
X176848952Y-88960000D01*
X180539610Y-88960000D01*
X180559068Y-89095337D01*
X180559070Y-89095345D01*
X180615867Y-89219714D01*
X180615872Y-89219721D01*
X180705409Y-89323053D01*
X180705413Y-89323057D01*
X180765979Y-89361979D01*
X180820439Y-89396978D01*
X180854496Y-89406978D01*
X180951632Y-89435500D01*
X180951633Y-89435500D01*
X181088367Y-89435500D01*
X181219561Y-89396978D01*
X181334589Y-89323055D01*
X181424130Y-89219718D01*
X181480931Y-89095342D01*
X181500390Y-88960000D01*
X181480931Y-88824658D01*
X181468677Y-88797827D01*
X181424132Y-88700285D01*
X181424127Y-88700278D01*
X181334590Y-88596946D01*
X181334586Y-88596942D01*
X181243736Y-88538558D01*
X181219561Y-88523022D01*
X181219560Y-88523021D01*
X181219559Y-88523021D01*
X181088368Y-88484500D01*
X181088367Y-88484500D01*
X180951633Y-88484500D01*
X180951632Y-88484500D01*
X180820440Y-88523021D01*
X180705413Y-88596942D01*
X180705409Y-88596946D01*
X180615872Y-88700278D01*
X180615867Y-88700285D01*
X180559070Y-88824654D01*
X180559068Y-88824662D01*
X180539610Y-88960000D01*
X176848952Y-88960000D01*
X176837220Y-88878399D01*
X176847164Y-88809241D01*
X176892919Y-88756437D01*
X176959958Y-88736753D01*
X176994893Y-88741776D01*
X177041632Y-88755500D01*
X177041633Y-88755500D01*
X177178367Y-88755500D01*
X177309561Y-88716978D01*
X177424589Y-88643055D01*
X177514130Y-88539718D01*
X177517189Y-88533021D01*
X177528513Y-88508223D01*
X177570931Y-88415342D01*
X177570932Y-88415334D01*
X177573431Y-88406827D01*
X177576303Y-88407670D01*
X177599089Y-88357762D01*
X177649466Y-88325379D01*
X177613451Y-88302219D01*
X177584450Y-88238691D01*
X177570931Y-88144658D01*
X177524516Y-88043023D01*
X177514132Y-88020285D01*
X177514127Y-88020278D01*
X177424589Y-87916945D01*
X177418902Y-87912017D01*
X177381129Y-87853238D01*
X177381131Y-87783368D01*
X177400492Y-87747922D01*
X177399335Y-87747179D01*
X177404127Y-87739721D01*
X177404130Y-87739718D01*
X177424490Y-87695135D01*
X177470243Y-87642334D01*
X177537282Y-87622649D01*
X177604322Y-87642333D01*
X177650077Y-87695137D01*
X177665869Y-87729716D01*
X177665872Y-87729721D01*
X177755409Y-87833053D01*
X177755413Y-87833057D01*
X177847946Y-87892523D01*
X177870434Y-87906975D01*
X177877899Y-87911772D01*
X177875990Y-87914741D01*
X177916034Y-87949424D01*
X177935733Y-88016459D01*
X177916063Y-88083503D01*
X177905448Y-88097687D01*
X177885870Y-88120282D01*
X177885867Y-88120285D01*
X177829070Y-88244654D01*
X177826569Y-88253173D01*
X177823703Y-88252331D01*
X177800877Y-88302274D01*
X177750520Y-88334615D01*
X177786515Y-88357742D01*
X177815547Y-88421295D01*
X177815549Y-88421308D01*
X177829068Y-88515337D01*
X177829070Y-88515345D01*
X177885867Y-88639714D01*
X177885872Y-88639721D01*
X177975409Y-88743053D01*
X177975413Y-88743057D01*
X178035979Y-88781979D01*
X178090439Y-88816978D01*
X178150638Y-88834654D01*
X178221632Y-88855500D01*
X178221633Y-88855500D01*
X178358367Y-88855500D01*
X178489561Y-88816978D01*
X178604589Y-88743055D01*
X178694130Y-88639718D01*
X178750931Y-88515342D01*
X178770390Y-88380000D01*
X178750931Y-88244658D01*
X178705265Y-88144663D01*
X178694132Y-88120285D01*
X178694127Y-88120278D01*
X178604590Y-88016946D01*
X178604586Y-88016942D01*
X178482101Y-87938228D01*
X178484004Y-87935266D01*
X178443931Y-87900521D01*
X178424266Y-87833476D01*
X178443971Y-87766442D01*
X178454547Y-87752317D01*
X178474130Y-87729718D01*
X178530931Y-87605342D01*
X178550390Y-87470000D01*
X178530931Y-87334658D01*
X178494489Y-87254861D01*
X178474132Y-87210285D01*
X178474127Y-87210278D01*
X178384590Y-87106946D01*
X178384586Y-87106942D01*
X178293736Y-87048558D01*
X178269561Y-87033022D01*
X178269560Y-87033021D01*
X178269559Y-87033021D01*
X178138368Y-86994500D01*
X178138367Y-86994500D01*
X178001633Y-86994500D01*
X178001632Y-86994500D01*
X177870440Y-87033021D01*
X177755413Y-87106942D01*
X177755409Y-87106946D01*
X177665872Y-87210278D01*
X177665870Y-87210281D01*
X177645510Y-87254863D01*
X177599754Y-87307666D01*
X177532714Y-87327350D01*
X177465675Y-87307664D01*
X177419922Y-87254862D01*
X177404130Y-87220282D01*
X177395464Y-87210281D01*
X177314590Y-87116946D01*
X177314586Y-87116942D01*
X177199559Y-87043021D01*
X177068368Y-87004500D01*
X177068367Y-87004500D01*
X176931633Y-87004500D01*
X176931632Y-87004500D01*
X176800440Y-87043021D01*
X176685413Y-87116942D01*
X176685409Y-87116946D01*
X176595872Y-87220278D01*
X176595867Y-87220285D01*
X176539070Y-87344654D01*
X176539068Y-87344662D01*
X176519610Y-87479999D01*
X176539068Y-87615337D01*
X176539070Y-87615345D01*
X176595867Y-87739714D01*
X176595872Y-87739721D01*
X176685409Y-87843053D01*
X176691097Y-87847982D01*
X176728870Y-87906761D01*
X176728868Y-87976630D01*
X176709511Y-88012079D01*
X176710665Y-88012821D01*
X176705867Y-88020285D01*
X176649070Y-88144654D01*
X176649068Y-88144662D01*
X176629610Y-88280000D01*
X176629610Y-88280001D01*
X176642779Y-88371600D01*
X176632835Y-88440759D01*
X176587079Y-88493562D01*
X176520040Y-88513246D01*
X176485107Y-88508223D01*
X176438370Y-88494500D01*
X176438367Y-88494500D01*
X176301633Y-88494500D01*
X176301632Y-88494500D01*
X176170440Y-88533021D01*
X176055413Y-88606942D01*
X176055409Y-88606946D01*
X175965872Y-88710278D01*
X175965867Y-88710285D01*
X175909070Y-88834654D01*
X175909068Y-88834662D01*
X175889610Y-88970000D01*
X123372661Y-88970000D01*
X123414589Y-88943055D01*
X123504130Y-88839718D01*
X123560931Y-88715342D01*
X123580390Y-88580000D01*
X123565754Y-88478200D01*
X161061410Y-88478200D01*
X161080868Y-88613537D01*
X161080870Y-88613545D01*
X161137667Y-88737914D01*
X161137672Y-88737921D01*
X161227209Y-88841253D01*
X161227213Y-88841257D01*
X161287779Y-88880179D01*
X161342239Y-88915178D01*
X161407835Y-88934438D01*
X161473432Y-88953700D01*
X161473433Y-88953700D01*
X161610167Y-88953700D01*
X161741361Y-88915178D01*
X161856389Y-88841255D01*
X161945930Y-88737918D01*
X162002731Y-88613542D01*
X162022190Y-88478200D01*
X162002731Y-88342858D01*
X161961773Y-88253173D01*
X161945932Y-88218485D01*
X161945927Y-88218478D01*
X161856390Y-88115146D01*
X161856386Y-88115142D01*
X161758947Y-88052524D01*
X161741361Y-88041222D01*
X161741360Y-88041221D01*
X161741359Y-88041221D01*
X161610168Y-88002700D01*
X161610167Y-88002700D01*
X161473433Y-88002700D01*
X161473432Y-88002700D01*
X161342240Y-88041221D01*
X161227213Y-88115142D01*
X161227209Y-88115146D01*
X161137672Y-88218478D01*
X161137667Y-88218485D01*
X161080870Y-88342854D01*
X161080868Y-88342862D01*
X161061410Y-88478200D01*
X123565754Y-88478200D01*
X123560931Y-88444658D01*
X123543654Y-88406827D01*
X123504132Y-88320285D01*
X123504127Y-88320278D01*
X123414590Y-88216946D01*
X123414586Y-88216942D01*
X123292101Y-88138228D01*
X123292869Y-88137032D01*
X123247223Y-88097469D01*
X123227548Y-88030426D01*
X123247242Y-87963390D01*
X123270349Y-87936728D01*
X123274578Y-87933061D01*
X123274589Y-87933055D01*
X123364130Y-87829718D01*
X123420931Y-87705342D01*
X123440390Y-87570000D01*
X123420931Y-87434658D01*
X123397476Y-87383299D01*
X123364132Y-87310285D01*
X123364127Y-87310278D01*
X123274590Y-87206946D01*
X123274586Y-87206942D01*
X123159559Y-87133021D01*
X123028368Y-87094500D01*
X123028367Y-87094500D01*
X122891633Y-87094500D01*
X122891632Y-87094500D01*
X122760440Y-87133021D01*
X122645413Y-87206942D01*
X122645409Y-87206946D01*
X122555872Y-87310278D01*
X122555869Y-87310283D01*
X122555627Y-87310814D01*
X122555244Y-87311254D01*
X122551076Y-87317742D01*
X122550143Y-87317142D01*
X122509870Y-87363617D01*
X122442830Y-87383299D01*
X122375791Y-87363612D01*
X122330040Y-87310810D01*
X122284132Y-87210285D01*
X122284127Y-87210278D01*
X122194590Y-87106946D01*
X122194586Y-87106942D01*
X122103736Y-87048558D01*
X122079561Y-87033022D01*
X122079560Y-87033021D01*
X122079559Y-87033021D01*
X121948368Y-86994500D01*
X121948367Y-86994500D01*
X121811633Y-86994500D01*
X121811632Y-86994500D01*
X121680440Y-87033021D01*
X121565413Y-87106942D01*
X121565409Y-87106946D01*
X121475872Y-87210278D01*
X121475867Y-87210285D01*
X121419070Y-87334654D01*
X121419068Y-87334662D01*
X121399610Y-87470000D01*
X121419068Y-87605337D01*
X121419070Y-87605345D01*
X121475867Y-87729714D01*
X121475872Y-87729721D01*
X121565410Y-87833054D01*
X121566206Y-87833744D01*
X121566774Y-87834628D01*
X121571219Y-87839758D01*
X121570481Y-87840397D01*
X121603978Y-87892523D01*
X121603976Y-87962393D01*
X121566200Y-88021169D01*
X121536518Y-88040246D01*
X121530436Y-88043023D01*
X121415413Y-88116942D01*
X121415409Y-88116946D01*
X121325872Y-88220278D01*
X121325867Y-88220285D01*
X121269070Y-88344654D01*
X121269068Y-88344662D01*
X121249610Y-88480000D01*
X116237254Y-88480000D01*
X115382715Y-85850000D01*
X121129610Y-85850000D01*
X121149068Y-85985337D01*
X121149070Y-85985345D01*
X121205867Y-86109714D01*
X121205872Y-86109721D01*
X121295409Y-86213053D01*
X121295413Y-86213057D01*
X121326535Y-86233057D01*
X121410439Y-86286978D01*
X121476036Y-86306238D01*
X121541632Y-86325500D01*
X121541633Y-86325500D01*
X121678367Y-86325500D01*
X121809561Y-86286978D01*
X121924589Y-86213055D01*
X122014130Y-86109718D01*
X122014953Y-86107917D01*
X122041403Y-86049999D01*
X145839610Y-86049999D01*
X145859068Y-86185337D01*
X145859070Y-86185345D01*
X145915867Y-86309714D01*
X145915872Y-86309721D01*
X146005409Y-86413053D01*
X146005413Y-86413057D01*
X146062465Y-86449721D01*
X146120439Y-86486978D01*
X146186035Y-86506238D01*
X146251632Y-86525500D01*
X146251633Y-86525500D01*
X146388367Y-86525500D01*
X146519561Y-86486978D01*
X146605548Y-86431717D01*
X146672584Y-86412035D01*
X146739624Y-86431720D01*
X146766296Y-86454832D01*
X146825411Y-86523055D01*
X146825413Y-86523057D01*
X146885979Y-86561979D01*
X146940439Y-86596978D01*
X146972235Y-86606314D01*
X147071632Y-86635500D01*
X147071633Y-86635500D01*
X147208367Y-86635500D01*
X147339561Y-86596978D01*
X147454589Y-86523055D01*
X147499719Y-86470972D01*
X153887560Y-86470972D01*
X153907018Y-86606309D01*
X153907020Y-86606317D01*
X153963817Y-86730686D01*
X153963822Y-86730693D01*
X154053359Y-86834025D01*
X154053363Y-86834029D01*
X154113929Y-86872951D01*
X154168389Y-86907950D01*
X154233985Y-86927211D01*
X154299582Y-86946472D01*
X154299583Y-86946472D01*
X154436317Y-86946472D01*
X154567511Y-86907950D01*
X154682539Y-86834027D01*
X154772080Y-86730690D01*
X154828881Y-86606314D01*
X154848340Y-86470972D01*
X154828881Y-86335630D01*
X154795736Y-86263053D01*
X154772082Y-86211257D01*
X154772077Y-86211250D01*
X154753664Y-86190000D01*
X166469610Y-86190000D01*
X166472925Y-86213055D01*
X166489068Y-86325337D01*
X166489070Y-86325345D01*
X166545867Y-86449714D01*
X166545872Y-86449721D01*
X166635409Y-86553053D01*
X166635413Y-86553057D01*
X166695979Y-86591979D01*
X166750439Y-86626978D01*
X166816035Y-86646238D01*
X166881632Y-86665500D01*
X166881633Y-86665500D01*
X167018367Y-86665500D01*
X167149561Y-86626978D01*
X167264589Y-86553055D01*
X167354130Y-86449718D01*
X167362350Y-86431720D01*
X167370873Y-86413057D01*
X167410931Y-86325342D01*
X167430390Y-86190000D01*
X167410931Y-86054658D01*
X167397229Y-86024654D01*
X167354132Y-85930285D01*
X167354127Y-85930278D01*
X167264590Y-85826946D01*
X167264586Y-85826942D01*
X167149559Y-85753021D01*
X167018368Y-85714500D01*
X167018367Y-85714500D01*
X166881633Y-85714500D01*
X166881632Y-85714500D01*
X166750440Y-85753021D01*
X166635413Y-85826942D01*
X166635409Y-85826946D01*
X166545872Y-85930278D01*
X166545867Y-85930285D01*
X166489070Y-86054654D01*
X166489068Y-86054662D01*
X166474522Y-86155837D01*
X166469610Y-86190000D01*
X154753664Y-86190000D01*
X154682540Y-86107918D01*
X154682536Y-86107914D01*
X154591686Y-86049530D01*
X154567511Y-86033994D01*
X154567510Y-86033993D01*
X154567509Y-86033993D01*
X154436318Y-85995472D01*
X154436317Y-85995472D01*
X154299583Y-85995472D01*
X154299582Y-85995472D01*
X154168390Y-86033993D01*
X154053363Y-86107914D01*
X154053358Y-86107919D01*
X153993187Y-86177360D01*
X153934409Y-86215134D01*
X153902016Y-86215134D01*
X153921212Y-86257166D01*
X153911270Y-86326321D01*
X153907021Y-86335626D01*
X153907019Y-86335631D01*
X153907018Y-86335634D01*
X153887560Y-86470972D01*
X147499719Y-86470972D01*
X147544130Y-86419718D01*
X147600931Y-86295342D01*
X147620390Y-86160000D01*
X147600931Y-86024658D01*
X147557829Y-85930278D01*
X147544132Y-85900285D01*
X147544127Y-85900278D01*
X147517891Y-85870000D01*
X149619610Y-85870000D01*
X149639068Y-86005337D01*
X149639070Y-86005345D01*
X149695867Y-86129714D01*
X149695872Y-86129721D01*
X149785409Y-86233053D01*
X149785413Y-86233057D01*
X149845979Y-86271979D01*
X149900439Y-86306978D01*
X149962964Y-86325337D01*
X150031632Y-86345500D01*
X150031633Y-86345500D01*
X150168367Y-86345500D01*
X150299561Y-86306978D01*
X150414589Y-86233055D01*
X150504130Y-86129718D01*
X150560931Y-86005342D01*
X150576077Y-85900000D01*
X152849610Y-85900000D01*
X152851718Y-85914662D01*
X152869068Y-86035337D01*
X152869070Y-86035345D01*
X152925867Y-86159714D01*
X152925872Y-86159721D01*
X153015409Y-86263053D01*
X153015413Y-86263057D01*
X153052636Y-86286978D01*
X153130439Y-86336978D01*
X153196036Y-86356238D01*
X153261632Y-86375500D01*
X153261633Y-86375500D01*
X153398367Y-86375500D01*
X153529561Y-86336978D01*
X153644589Y-86263055D01*
X153704761Y-86193611D01*
X153763538Y-86155837D01*
X153795933Y-86155837D01*
X153776737Y-86113803D01*
X153786680Y-86044649D01*
X153790931Y-86035342D01*
X153810390Y-85900000D01*
X153790931Y-85764658D01*
X153771916Y-85723021D01*
X153734132Y-85640285D01*
X153734127Y-85640278D01*
X153644590Y-85536946D01*
X153644586Y-85536942D01*
X153552665Y-85477870D01*
X153529561Y-85463022D01*
X153529560Y-85463021D01*
X153529559Y-85463021D01*
X153398368Y-85424500D01*
X153398367Y-85424500D01*
X153261633Y-85424500D01*
X153261632Y-85424500D01*
X153130440Y-85463021D01*
X153015413Y-85536942D01*
X153015409Y-85536946D01*
X152925872Y-85640278D01*
X152925867Y-85640285D01*
X152869070Y-85764654D01*
X152869068Y-85764662D01*
X152853923Y-85869999D01*
X152849610Y-85900000D01*
X150576077Y-85900000D01*
X150580390Y-85870000D01*
X150560931Y-85734658D01*
X150539140Y-85686942D01*
X150504132Y-85610285D01*
X150504127Y-85610278D01*
X150414590Y-85506946D01*
X150414586Y-85506942D01*
X150299559Y-85433021D01*
X150168368Y-85394500D01*
X150168367Y-85394500D01*
X150031633Y-85394500D01*
X150031632Y-85394500D01*
X149900440Y-85433021D01*
X149785413Y-85506942D01*
X149785409Y-85506946D01*
X149695872Y-85610278D01*
X149695867Y-85610285D01*
X149639070Y-85734654D01*
X149639068Y-85734662D01*
X149619610Y-85870000D01*
X147517891Y-85870000D01*
X147454590Y-85796946D01*
X147454586Y-85796942D01*
X147339559Y-85723021D01*
X147208368Y-85684500D01*
X147208367Y-85684500D01*
X147071633Y-85684500D01*
X147071632Y-85684500D01*
X146940443Y-85723020D01*
X146940440Y-85723021D01*
X146940439Y-85723022D01*
X146875651Y-85764658D01*
X146854453Y-85778281D01*
X146787413Y-85797964D01*
X146720374Y-85778278D01*
X146693705Y-85755170D01*
X146634589Y-85686945D01*
X146634585Y-85686942D01*
X146634586Y-85686942D01*
X146519559Y-85613021D01*
X146388368Y-85574500D01*
X146388367Y-85574500D01*
X146251633Y-85574500D01*
X146251632Y-85574500D01*
X146120440Y-85613021D01*
X146005413Y-85686942D01*
X146005409Y-85686946D01*
X145915872Y-85790278D01*
X145915867Y-85790285D01*
X145859070Y-85914654D01*
X145859068Y-85914662D01*
X145839610Y-86049999D01*
X122041403Y-86049999D01*
X122048095Y-86035345D01*
X122070931Y-85985342D01*
X122090390Y-85850000D01*
X122070931Y-85714658D01*
X122036966Y-85640285D01*
X122014132Y-85590285D01*
X122014127Y-85590278D01*
X121924590Y-85486946D01*
X121924586Y-85486942D01*
X121809559Y-85413021D01*
X121678368Y-85374500D01*
X121678367Y-85374500D01*
X121541633Y-85374500D01*
X121541632Y-85374500D01*
X121410440Y-85413021D01*
X121295413Y-85486942D01*
X121295409Y-85486946D01*
X121205872Y-85590278D01*
X121205867Y-85590285D01*
X121149070Y-85714654D01*
X121149068Y-85714662D01*
X121129610Y-85850000D01*
X115382715Y-85850000D01*
X115356793Y-85770221D01*
X115355119Y-85763973D01*
X115328103Y-85636853D01*
X115325395Y-85611076D01*
X115325395Y-85590278D01*
X115325396Y-85490895D01*
X115328105Y-85465130D01*
X115353092Y-85347575D01*
X115361102Y-85322925D01*
X115409985Y-85213132D01*
X115422937Y-85190698D01*
X115493578Y-85093467D01*
X115510919Y-85074208D01*
X115549219Y-85039721D01*
X115607528Y-84987217D01*
X115612559Y-84983144D01*
X115613476Y-84982478D01*
X115892164Y-84779999D01*
X132519610Y-84779999D01*
X132539068Y-84915337D01*
X132539070Y-84915345D01*
X132595867Y-85039714D01*
X132595872Y-85039721D01*
X132685409Y-85143053D01*
X132685413Y-85143057D01*
X132745979Y-85181979D01*
X132800439Y-85216978D01*
X132866035Y-85236238D01*
X132931632Y-85255500D01*
X132931633Y-85255500D01*
X133068367Y-85255500D01*
X133199561Y-85216978D01*
X133314589Y-85143055D01*
X133404130Y-85039718D01*
X133460931Y-84915342D01*
X133480390Y-84780000D01*
X133460931Y-84644658D01*
X133431272Y-84579714D01*
X133404132Y-84520285D01*
X133404127Y-84520278D01*
X133314590Y-84416946D01*
X133314586Y-84416942D01*
X133199559Y-84343021D01*
X133121156Y-84320000D01*
X137009610Y-84320000D01*
X137029068Y-84455337D01*
X137029070Y-84455345D01*
X137085867Y-84579714D01*
X137085872Y-84579721D01*
X137175409Y-84683053D01*
X137175413Y-84683057D01*
X137235979Y-84721979D01*
X137290439Y-84756978D01*
X137356036Y-84776238D01*
X137421632Y-84795500D01*
X137421633Y-84795500D01*
X137558367Y-84795500D01*
X137689561Y-84756978D01*
X137804589Y-84683055D01*
X137894130Y-84579718D01*
X137950931Y-84455342D01*
X137970390Y-84320000D01*
X137950931Y-84184658D01*
X137899548Y-84072145D01*
X137894132Y-84060285D01*
X137894127Y-84060278D01*
X137876555Y-84039999D01*
X158036010Y-84039999D01*
X158055468Y-84175337D01*
X158055470Y-84175345D01*
X158112267Y-84299714D01*
X158112272Y-84299721D01*
X158201809Y-84403053D01*
X158201813Y-84403057D01*
X158262379Y-84441979D01*
X158316839Y-84476978D01*
X158382435Y-84496238D01*
X158448032Y-84515500D01*
X158448033Y-84515500D01*
X158584767Y-84515500D01*
X158715961Y-84476978D01*
X158830989Y-84403055D01*
X158920530Y-84299718D01*
X158977331Y-84175342D01*
X158996790Y-84040000D01*
X158981952Y-83936800D01*
X162212810Y-83936800D01*
X162232268Y-84072137D01*
X162232270Y-84072145D01*
X162289067Y-84196514D01*
X162289072Y-84196521D01*
X162378609Y-84299853D01*
X162378613Y-84299857D01*
X162439179Y-84338779D01*
X162493639Y-84373778D01*
X162559236Y-84393038D01*
X162624832Y-84412300D01*
X162624833Y-84412300D01*
X162761567Y-84412300D01*
X162892761Y-84373778D01*
X163007789Y-84299855D01*
X163097330Y-84196518D01*
X163102745Y-84184662D01*
X163109583Y-84169687D01*
X163154131Y-84072142D01*
X163173590Y-83936800D01*
X163154131Y-83801458D01*
X163141877Y-83774627D01*
X163097332Y-83677085D01*
X163097327Y-83677078D01*
X163007790Y-83573746D01*
X163007786Y-83573742D01*
X162892759Y-83499821D01*
X162761568Y-83461300D01*
X162761567Y-83461300D01*
X162624833Y-83461300D01*
X162624832Y-83461300D01*
X162493640Y-83499821D01*
X162378613Y-83573742D01*
X162378609Y-83573746D01*
X162289072Y-83677078D01*
X162289067Y-83677085D01*
X162232270Y-83801454D01*
X162232268Y-83801462D01*
X162212810Y-83936800D01*
X158981952Y-83936800D01*
X158977331Y-83904658D01*
X158930199Y-83801454D01*
X158920532Y-83780285D01*
X158920527Y-83780278D01*
X158830990Y-83676946D01*
X158830986Y-83676942D01*
X158715959Y-83603021D01*
X158584768Y-83564500D01*
X158584767Y-83564500D01*
X158448033Y-83564500D01*
X158448032Y-83564500D01*
X158316840Y-83603021D01*
X158201813Y-83676942D01*
X158201809Y-83676946D01*
X158112272Y-83780278D01*
X158112267Y-83780285D01*
X158055470Y-83904654D01*
X158055468Y-83904662D01*
X158036010Y-84039999D01*
X137876555Y-84039999D01*
X137804590Y-83956946D01*
X137804586Y-83956942D01*
X137689559Y-83883021D01*
X137558368Y-83844500D01*
X137558367Y-83844500D01*
X137421633Y-83844500D01*
X137421632Y-83844500D01*
X137290440Y-83883021D01*
X137175413Y-83956942D01*
X137175409Y-83956946D01*
X137085872Y-84060278D01*
X137085867Y-84060285D01*
X137029070Y-84184654D01*
X137029068Y-84184662D01*
X137009610Y-84320000D01*
X133121156Y-84320000D01*
X133068368Y-84304500D01*
X133068367Y-84304500D01*
X132931633Y-84304500D01*
X132931632Y-84304500D01*
X132800440Y-84343021D01*
X132685413Y-84416942D01*
X132685409Y-84416946D01*
X132595872Y-84520278D01*
X132595867Y-84520285D01*
X132539070Y-84644654D01*
X132539068Y-84644662D01*
X132519610Y-84779999D01*
X115892164Y-84779999D01*
X118066846Y-83200000D01*
X138139610Y-83200000D01*
X138159068Y-83335337D01*
X138159070Y-83335345D01*
X138215867Y-83459714D01*
X138215872Y-83459721D01*
X138305409Y-83563053D01*
X138305413Y-83563057D01*
X138365979Y-83601979D01*
X138420439Y-83636978D01*
X138482964Y-83655337D01*
X138551632Y-83675500D01*
X138551633Y-83675500D01*
X138688367Y-83675500D01*
X138819561Y-83636978D01*
X138934589Y-83563055D01*
X138971896Y-83520000D01*
X152919610Y-83520000D01*
X152939068Y-83655337D01*
X152939070Y-83655345D01*
X152995867Y-83779714D01*
X152995872Y-83779721D01*
X153085409Y-83883053D01*
X153085413Y-83883057D01*
X153145979Y-83921979D01*
X153200439Y-83956978D01*
X153266035Y-83976238D01*
X153331632Y-83995500D01*
X153331633Y-83995500D01*
X153468367Y-83995500D01*
X153599561Y-83956978D01*
X153714589Y-83883055D01*
X153804130Y-83779718D01*
X153860931Y-83655342D01*
X153880390Y-83520000D01*
X153860931Y-83384658D01*
X153848677Y-83357827D01*
X153804132Y-83260285D01*
X153804127Y-83260278D01*
X153714590Y-83156946D01*
X153714586Y-83156942D01*
X153599559Y-83083021D01*
X153468368Y-83044500D01*
X153468367Y-83044500D01*
X153331633Y-83044500D01*
X153331632Y-83044500D01*
X153200440Y-83083021D01*
X153085413Y-83156942D01*
X153085409Y-83156946D01*
X152995872Y-83260278D01*
X152995867Y-83260285D01*
X152939070Y-83384654D01*
X152939068Y-83384662D01*
X152919610Y-83520000D01*
X138971896Y-83520000D01*
X139024130Y-83459718D01*
X139080931Y-83335342D01*
X139100390Y-83200000D01*
X139080931Y-83064658D01*
X139068677Y-83037827D01*
X139024132Y-82940285D01*
X139024127Y-82940278D01*
X138934590Y-82836946D01*
X138934586Y-82836942D01*
X138819559Y-82763021D01*
X138688368Y-82724500D01*
X138688367Y-82724500D01*
X138551633Y-82724500D01*
X138551632Y-82724500D01*
X138420440Y-82763021D01*
X138305413Y-82836942D01*
X138305409Y-82836946D01*
X138215872Y-82940278D01*
X138215867Y-82940285D01*
X138159070Y-83064654D01*
X138159068Y-83064662D01*
X138139610Y-83200000D01*
X118066846Y-83200000D01*
X120289016Y-81585499D01*
X154499610Y-81585499D01*
X154519068Y-81720837D01*
X154519070Y-81720845D01*
X154575867Y-81845214D01*
X154575872Y-81845221D01*
X154665409Y-81948553D01*
X154665413Y-81948557D01*
X154725979Y-81987479D01*
X154780439Y-82022478D01*
X154846036Y-82041739D01*
X154911632Y-82061000D01*
X154911633Y-82061000D01*
X155048367Y-82061000D01*
X155179561Y-82022478D01*
X155294589Y-81948555D01*
X155384130Y-81845218D01*
X155440931Y-81720842D01*
X155460390Y-81585500D01*
X155440931Y-81450158D01*
X155428677Y-81423327D01*
X155384132Y-81325785D01*
X155384127Y-81325778D01*
X155294590Y-81222446D01*
X155294586Y-81222442D01*
X155179559Y-81148521D01*
X155048368Y-81110000D01*
X155048367Y-81110000D01*
X154911633Y-81110000D01*
X154911632Y-81110000D01*
X154780440Y-81148521D01*
X154665413Y-81222442D01*
X154665409Y-81222446D01*
X154575872Y-81325778D01*
X154575867Y-81325785D01*
X154519070Y-81450154D01*
X154519068Y-81450162D01*
X154499610Y-81585499D01*
X120289016Y-81585499D01*
X149662940Y-60244094D01*
X149662941Y-60244094D01*
X149698829Y-60218019D01*
X149704241Y-60214504D01*
X149816809Y-60149513D01*
X149840475Y-60138976D01*
X149954779Y-60101837D01*
X149980119Y-60096450D01*
X150099643Y-60083888D01*
X150125559Y-60083888D01*
X150245080Y-60096450D01*
G37*
%TD.AperFunction*%
%TD*%
M02*
