%TF.GenerationSoftware,KiCad,Pcbnew,7.0.5*%
%TF.CreationDate,2024-03-28T22:27:53-05:00*%
%TF.ProjectId,LEDSphere,4c454453-7068-4657-9265-2e6b69636164,rev?*%
%TF.SameCoordinates,Original*%
%TF.FileFunction,AssemblyDrawing,Bot*%
%FSLAX46Y46*%
G04 Gerber Fmt 4.6, Leading zero omitted, Abs format (unit mm)*
G04 Created by KiCad (PCBNEW 7.0.5) date 2024-03-28 22:27:53*
%MOMM*%
%LPD*%
G01*
G04 APERTURE LIST*
%ADD10C,0.150000*%
%ADD11C,0.100000*%
%ADD12C,0.300000*%
G04 APERTURE END LIST*
D10*
%TO.C,U131*%
X158441904Y-124633866D02*
X158394285Y-124586247D01*
X158394285Y-124586247D02*
X158299047Y-124538628D01*
X158299047Y-124538628D02*
X158108571Y-124633866D01*
X158108571Y-124633866D02*
X158013333Y-124586247D01*
X158013333Y-124586247D02*
X157965714Y-124538628D01*
X160044285Y-122204819D02*
X160044285Y-123014342D01*
X160044285Y-123014342D02*
X159996666Y-123109580D01*
X159996666Y-123109580D02*
X159949047Y-123157200D01*
X159949047Y-123157200D02*
X159853809Y-123204819D01*
X159853809Y-123204819D02*
X159663333Y-123204819D01*
X159663333Y-123204819D02*
X159568095Y-123157200D01*
X159568095Y-123157200D02*
X159520476Y-123109580D01*
X159520476Y-123109580D02*
X159472857Y-123014342D01*
X159472857Y-123014342D02*
X159472857Y-122204819D01*
X158472857Y-123204819D02*
X159044285Y-123204819D01*
X158758571Y-123204819D02*
X158758571Y-122204819D01*
X158758571Y-122204819D02*
X158853809Y-122347676D01*
X158853809Y-122347676D02*
X158949047Y-122442914D01*
X158949047Y-122442914D02*
X159044285Y-122490533D01*
X158139523Y-122204819D02*
X157520476Y-122204819D01*
X157520476Y-122204819D02*
X157853809Y-122585771D01*
X157853809Y-122585771D02*
X157710952Y-122585771D01*
X157710952Y-122585771D02*
X157615714Y-122633390D01*
X157615714Y-122633390D02*
X157568095Y-122681009D01*
X157568095Y-122681009D02*
X157520476Y-122776247D01*
X157520476Y-122776247D02*
X157520476Y-123014342D01*
X157520476Y-123014342D02*
X157568095Y-123109580D01*
X157568095Y-123109580D02*
X157615714Y-123157200D01*
X157615714Y-123157200D02*
X157710952Y-123204819D01*
X157710952Y-123204819D02*
X157996666Y-123204819D01*
X157996666Y-123204819D02*
X158091904Y-123157200D01*
X158091904Y-123157200D02*
X158139523Y-123109580D01*
X156568095Y-123204819D02*
X157139523Y-123204819D01*
X156853809Y-123204819D02*
X156853809Y-122204819D01*
X156853809Y-122204819D02*
X156949047Y-122347676D01*
X156949047Y-122347676D02*
X157044285Y-122442914D01*
X157044285Y-122442914D02*
X157139523Y-122490533D01*
D11*
X160626115Y-117121466D02*
X159864211Y-117121466D01*
X160245163Y-117502419D02*
X160245163Y-116740514D01*
X157326115Y-121301466D02*
X156564211Y-121301466D01*
D10*
%TO.C,U134*%
X132941904Y-124633866D02*
X132894285Y-124586247D01*
X132894285Y-124586247D02*
X132799047Y-124538628D01*
X132799047Y-124538628D02*
X132608571Y-124633866D01*
X132608571Y-124633866D02*
X132513333Y-124586247D01*
X132513333Y-124586247D02*
X132465714Y-124538628D01*
X134544285Y-122204819D02*
X134544285Y-123014342D01*
X134544285Y-123014342D02*
X134496666Y-123109580D01*
X134496666Y-123109580D02*
X134449047Y-123157200D01*
X134449047Y-123157200D02*
X134353809Y-123204819D01*
X134353809Y-123204819D02*
X134163333Y-123204819D01*
X134163333Y-123204819D02*
X134068095Y-123157200D01*
X134068095Y-123157200D02*
X134020476Y-123109580D01*
X134020476Y-123109580D02*
X133972857Y-123014342D01*
X133972857Y-123014342D02*
X133972857Y-122204819D01*
X132972857Y-123204819D02*
X133544285Y-123204819D01*
X133258571Y-123204819D02*
X133258571Y-122204819D01*
X133258571Y-122204819D02*
X133353809Y-122347676D01*
X133353809Y-122347676D02*
X133449047Y-122442914D01*
X133449047Y-122442914D02*
X133544285Y-122490533D01*
X132639523Y-122204819D02*
X132020476Y-122204819D01*
X132020476Y-122204819D02*
X132353809Y-122585771D01*
X132353809Y-122585771D02*
X132210952Y-122585771D01*
X132210952Y-122585771D02*
X132115714Y-122633390D01*
X132115714Y-122633390D02*
X132068095Y-122681009D01*
X132068095Y-122681009D02*
X132020476Y-122776247D01*
X132020476Y-122776247D02*
X132020476Y-123014342D01*
X132020476Y-123014342D02*
X132068095Y-123109580D01*
X132068095Y-123109580D02*
X132115714Y-123157200D01*
X132115714Y-123157200D02*
X132210952Y-123204819D01*
X132210952Y-123204819D02*
X132496666Y-123204819D01*
X132496666Y-123204819D02*
X132591904Y-123157200D01*
X132591904Y-123157200D02*
X132639523Y-123109580D01*
X131163333Y-122538152D02*
X131163333Y-123204819D01*
X131401428Y-122157200D02*
X131639523Y-122871485D01*
X131639523Y-122871485D02*
X131020476Y-122871485D01*
D11*
X131826115Y-121301466D02*
X131064211Y-121301466D01*
X135126115Y-117121466D02*
X134364211Y-117121466D01*
X134745163Y-117502419D02*
X134745163Y-116740514D01*
D10*
%TO.C,U116*%
X158441904Y-99133866D02*
X158394285Y-99086247D01*
X158394285Y-99086247D02*
X158299047Y-99038628D01*
X158299047Y-99038628D02*
X158108571Y-99133866D01*
X158108571Y-99133866D02*
X158013333Y-99086247D01*
X158013333Y-99086247D02*
X157965714Y-99038628D01*
D11*
X160626115Y-91621466D02*
X159864211Y-91621466D01*
X160245163Y-92002419D02*
X160245163Y-91240514D01*
D10*
X160044285Y-96704819D02*
X160044285Y-97514342D01*
X160044285Y-97514342D02*
X159996666Y-97609580D01*
X159996666Y-97609580D02*
X159949047Y-97657200D01*
X159949047Y-97657200D02*
X159853809Y-97704819D01*
X159853809Y-97704819D02*
X159663333Y-97704819D01*
X159663333Y-97704819D02*
X159568095Y-97657200D01*
X159568095Y-97657200D02*
X159520476Y-97609580D01*
X159520476Y-97609580D02*
X159472857Y-97514342D01*
X159472857Y-97514342D02*
X159472857Y-96704819D01*
X158472857Y-97704819D02*
X159044285Y-97704819D01*
X158758571Y-97704819D02*
X158758571Y-96704819D01*
X158758571Y-96704819D02*
X158853809Y-96847676D01*
X158853809Y-96847676D02*
X158949047Y-96942914D01*
X158949047Y-96942914D02*
X159044285Y-96990533D01*
X157520476Y-97704819D02*
X158091904Y-97704819D01*
X157806190Y-97704819D02*
X157806190Y-96704819D01*
X157806190Y-96704819D02*
X157901428Y-96847676D01*
X157901428Y-96847676D02*
X157996666Y-96942914D01*
X157996666Y-96942914D02*
X158091904Y-96990533D01*
X156663333Y-96704819D02*
X156853809Y-96704819D01*
X156853809Y-96704819D02*
X156949047Y-96752438D01*
X156949047Y-96752438D02*
X156996666Y-96800057D01*
X156996666Y-96800057D02*
X157091904Y-96942914D01*
X157091904Y-96942914D02*
X157139523Y-97133390D01*
X157139523Y-97133390D02*
X157139523Y-97514342D01*
X157139523Y-97514342D02*
X157091904Y-97609580D01*
X157091904Y-97609580D02*
X157044285Y-97657200D01*
X157044285Y-97657200D02*
X156949047Y-97704819D01*
X156949047Y-97704819D02*
X156758571Y-97704819D01*
X156758571Y-97704819D02*
X156663333Y-97657200D01*
X156663333Y-97657200D02*
X156615714Y-97609580D01*
X156615714Y-97609580D02*
X156568095Y-97514342D01*
X156568095Y-97514342D02*
X156568095Y-97276247D01*
X156568095Y-97276247D02*
X156615714Y-97181009D01*
X156615714Y-97181009D02*
X156663333Y-97133390D01*
X156663333Y-97133390D02*
X156758571Y-97085771D01*
X156758571Y-97085771D02*
X156949047Y-97085771D01*
X156949047Y-97085771D02*
X157044285Y-97133390D01*
X157044285Y-97133390D02*
X157091904Y-97181009D01*
X157091904Y-97181009D02*
X157139523Y-97276247D01*
D11*
X157326115Y-95801466D02*
X156564211Y-95801466D01*
D10*
%TO.C,U103*%
X154126904Y-82133866D02*
X154079285Y-82086247D01*
X154079285Y-82086247D02*
X153984047Y-82038628D01*
X153984047Y-82038628D02*
X153793571Y-82133866D01*
X153793571Y-82133866D02*
X153698333Y-82086247D01*
X153698333Y-82086247D02*
X153650714Y-82038628D01*
D11*
X156311115Y-74621466D02*
X155549211Y-74621466D01*
X155930163Y-75002419D02*
X155930163Y-74240514D01*
X153011115Y-78801466D02*
X152249211Y-78801466D01*
D10*
X155729285Y-79704819D02*
X155729285Y-80514342D01*
X155729285Y-80514342D02*
X155681666Y-80609580D01*
X155681666Y-80609580D02*
X155634047Y-80657200D01*
X155634047Y-80657200D02*
X155538809Y-80704819D01*
X155538809Y-80704819D02*
X155348333Y-80704819D01*
X155348333Y-80704819D02*
X155253095Y-80657200D01*
X155253095Y-80657200D02*
X155205476Y-80609580D01*
X155205476Y-80609580D02*
X155157857Y-80514342D01*
X155157857Y-80514342D02*
X155157857Y-79704819D01*
X154157857Y-80704819D02*
X154729285Y-80704819D01*
X154443571Y-80704819D02*
X154443571Y-79704819D01*
X154443571Y-79704819D02*
X154538809Y-79847676D01*
X154538809Y-79847676D02*
X154634047Y-79942914D01*
X154634047Y-79942914D02*
X154729285Y-79990533D01*
X153538809Y-79704819D02*
X153443571Y-79704819D01*
X153443571Y-79704819D02*
X153348333Y-79752438D01*
X153348333Y-79752438D02*
X153300714Y-79800057D01*
X153300714Y-79800057D02*
X153253095Y-79895295D01*
X153253095Y-79895295D02*
X153205476Y-80085771D01*
X153205476Y-80085771D02*
X153205476Y-80323866D01*
X153205476Y-80323866D02*
X153253095Y-80514342D01*
X153253095Y-80514342D02*
X153300714Y-80609580D01*
X153300714Y-80609580D02*
X153348333Y-80657200D01*
X153348333Y-80657200D02*
X153443571Y-80704819D01*
X153443571Y-80704819D02*
X153538809Y-80704819D01*
X153538809Y-80704819D02*
X153634047Y-80657200D01*
X153634047Y-80657200D02*
X153681666Y-80609580D01*
X153681666Y-80609580D02*
X153729285Y-80514342D01*
X153729285Y-80514342D02*
X153776904Y-80323866D01*
X153776904Y-80323866D02*
X153776904Y-80085771D01*
X153776904Y-80085771D02*
X153729285Y-79895295D01*
X153729285Y-79895295D02*
X153681666Y-79800057D01*
X153681666Y-79800057D02*
X153634047Y-79752438D01*
X153634047Y-79752438D02*
X153538809Y-79704819D01*
X152872142Y-79704819D02*
X152253095Y-79704819D01*
X152253095Y-79704819D02*
X152586428Y-80085771D01*
X152586428Y-80085771D02*
X152443571Y-80085771D01*
X152443571Y-80085771D02*
X152348333Y-80133390D01*
X152348333Y-80133390D02*
X152300714Y-80181009D01*
X152300714Y-80181009D02*
X152253095Y-80276247D01*
X152253095Y-80276247D02*
X152253095Y-80514342D01*
X152253095Y-80514342D02*
X152300714Y-80609580D01*
X152300714Y-80609580D02*
X152348333Y-80657200D01*
X152348333Y-80657200D02*
X152443571Y-80704819D01*
X152443571Y-80704819D02*
X152729285Y-80704819D01*
X152729285Y-80704819D02*
X152824523Y-80657200D01*
X152824523Y-80657200D02*
X152872142Y-80609580D01*
%TO.C,U129*%
X162640404Y-116133866D02*
X162592785Y-116086247D01*
X162592785Y-116086247D02*
X162497547Y-116038628D01*
X162497547Y-116038628D02*
X162307071Y-116133866D01*
X162307071Y-116133866D02*
X162211833Y-116086247D01*
X162211833Y-116086247D02*
X162164214Y-116038628D01*
X164242785Y-113704819D02*
X164242785Y-114514342D01*
X164242785Y-114514342D02*
X164195166Y-114609580D01*
X164195166Y-114609580D02*
X164147547Y-114657200D01*
X164147547Y-114657200D02*
X164052309Y-114704819D01*
X164052309Y-114704819D02*
X163861833Y-114704819D01*
X163861833Y-114704819D02*
X163766595Y-114657200D01*
X163766595Y-114657200D02*
X163718976Y-114609580D01*
X163718976Y-114609580D02*
X163671357Y-114514342D01*
X163671357Y-114514342D02*
X163671357Y-113704819D01*
X162671357Y-114704819D02*
X163242785Y-114704819D01*
X162957071Y-114704819D02*
X162957071Y-113704819D01*
X162957071Y-113704819D02*
X163052309Y-113847676D01*
X163052309Y-113847676D02*
X163147547Y-113942914D01*
X163147547Y-113942914D02*
X163242785Y-113990533D01*
X162290404Y-113800057D02*
X162242785Y-113752438D01*
X162242785Y-113752438D02*
X162147547Y-113704819D01*
X162147547Y-113704819D02*
X161909452Y-113704819D01*
X161909452Y-113704819D02*
X161814214Y-113752438D01*
X161814214Y-113752438D02*
X161766595Y-113800057D01*
X161766595Y-113800057D02*
X161718976Y-113895295D01*
X161718976Y-113895295D02*
X161718976Y-113990533D01*
X161718976Y-113990533D02*
X161766595Y-114133390D01*
X161766595Y-114133390D02*
X162338023Y-114704819D01*
X162338023Y-114704819D02*
X161718976Y-114704819D01*
X161242785Y-114704819D02*
X161052309Y-114704819D01*
X161052309Y-114704819D02*
X160957071Y-114657200D01*
X160957071Y-114657200D02*
X160909452Y-114609580D01*
X160909452Y-114609580D02*
X160814214Y-114466723D01*
X160814214Y-114466723D02*
X160766595Y-114276247D01*
X160766595Y-114276247D02*
X160766595Y-113895295D01*
X160766595Y-113895295D02*
X160814214Y-113800057D01*
X160814214Y-113800057D02*
X160861833Y-113752438D01*
X160861833Y-113752438D02*
X160957071Y-113704819D01*
X160957071Y-113704819D02*
X161147547Y-113704819D01*
X161147547Y-113704819D02*
X161242785Y-113752438D01*
X161242785Y-113752438D02*
X161290404Y-113800057D01*
X161290404Y-113800057D02*
X161338023Y-113895295D01*
X161338023Y-113895295D02*
X161338023Y-114133390D01*
X161338023Y-114133390D02*
X161290404Y-114228628D01*
X161290404Y-114228628D02*
X161242785Y-114276247D01*
X161242785Y-114276247D02*
X161147547Y-114323866D01*
X161147547Y-114323866D02*
X160957071Y-114323866D01*
X160957071Y-114323866D02*
X160861833Y-114276247D01*
X160861833Y-114276247D02*
X160814214Y-114228628D01*
X160814214Y-114228628D02*
X160766595Y-114133390D01*
D11*
X161524615Y-112801466D02*
X160762711Y-112801466D01*
X164824615Y-108621466D02*
X164062711Y-108621466D01*
X164443663Y-109002419D02*
X164443663Y-108240514D01*
D10*
%TO.C,U132*%
X149941904Y-124633866D02*
X149894285Y-124586247D01*
X149894285Y-124586247D02*
X149799047Y-124538628D01*
X149799047Y-124538628D02*
X149608571Y-124633866D01*
X149608571Y-124633866D02*
X149513333Y-124586247D01*
X149513333Y-124586247D02*
X149465714Y-124538628D01*
X151544285Y-122204819D02*
X151544285Y-123014342D01*
X151544285Y-123014342D02*
X151496666Y-123109580D01*
X151496666Y-123109580D02*
X151449047Y-123157200D01*
X151449047Y-123157200D02*
X151353809Y-123204819D01*
X151353809Y-123204819D02*
X151163333Y-123204819D01*
X151163333Y-123204819D02*
X151068095Y-123157200D01*
X151068095Y-123157200D02*
X151020476Y-123109580D01*
X151020476Y-123109580D02*
X150972857Y-123014342D01*
X150972857Y-123014342D02*
X150972857Y-122204819D01*
X149972857Y-123204819D02*
X150544285Y-123204819D01*
X150258571Y-123204819D02*
X150258571Y-122204819D01*
X150258571Y-122204819D02*
X150353809Y-122347676D01*
X150353809Y-122347676D02*
X150449047Y-122442914D01*
X150449047Y-122442914D02*
X150544285Y-122490533D01*
X149639523Y-122204819D02*
X149020476Y-122204819D01*
X149020476Y-122204819D02*
X149353809Y-122585771D01*
X149353809Y-122585771D02*
X149210952Y-122585771D01*
X149210952Y-122585771D02*
X149115714Y-122633390D01*
X149115714Y-122633390D02*
X149068095Y-122681009D01*
X149068095Y-122681009D02*
X149020476Y-122776247D01*
X149020476Y-122776247D02*
X149020476Y-123014342D01*
X149020476Y-123014342D02*
X149068095Y-123109580D01*
X149068095Y-123109580D02*
X149115714Y-123157200D01*
X149115714Y-123157200D02*
X149210952Y-123204819D01*
X149210952Y-123204819D02*
X149496666Y-123204819D01*
X149496666Y-123204819D02*
X149591904Y-123157200D01*
X149591904Y-123157200D02*
X149639523Y-123109580D01*
X148639523Y-122300057D02*
X148591904Y-122252438D01*
X148591904Y-122252438D02*
X148496666Y-122204819D01*
X148496666Y-122204819D02*
X148258571Y-122204819D01*
X148258571Y-122204819D02*
X148163333Y-122252438D01*
X148163333Y-122252438D02*
X148115714Y-122300057D01*
X148115714Y-122300057D02*
X148068095Y-122395295D01*
X148068095Y-122395295D02*
X148068095Y-122490533D01*
X148068095Y-122490533D02*
X148115714Y-122633390D01*
X148115714Y-122633390D02*
X148687142Y-123204819D01*
X148687142Y-123204819D02*
X148068095Y-123204819D01*
D11*
X152126115Y-117121466D02*
X151364211Y-117121466D01*
X151745163Y-117502419D02*
X151745163Y-116740514D01*
X148826115Y-121301466D02*
X148064211Y-121301466D01*
D10*
%TO.C,U125*%
X128640404Y-116133866D02*
X128592785Y-116086247D01*
X128592785Y-116086247D02*
X128497547Y-116038628D01*
X128497547Y-116038628D02*
X128307071Y-116133866D01*
X128307071Y-116133866D02*
X128211833Y-116086247D01*
X128211833Y-116086247D02*
X128164214Y-116038628D01*
D11*
X130824615Y-108621466D02*
X130062711Y-108621466D01*
X130443663Y-109002419D02*
X130443663Y-108240514D01*
X127524615Y-112801466D02*
X126762711Y-112801466D01*
D10*
X130242785Y-113704819D02*
X130242785Y-114514342D01*
X130242785Y-114514342D02*
X130195166Y-114609580D01*
X130195166Y-114609580D02*
X130147547Y-114657200D01*
X130147547Y-114657200D02*
X130052309Y-114704819D01*
X130052309Y-114704819D02*
X129861833Y-114704819D01*
X129861833Y-114704819D02*
X129766595Y-114657200D01*
X129766595Y-114657200D02*
X129718976Y-114609580D01*
X129718976Y-114609580D02*
X129671357Y-114514342D01*
X129671357Y-114514342D02*
X129671357Y-113704819D01*
X128671357Y-114704819D02*
X129242785Y-114704819D01*
X128957071Y-114704819D02*
X128957071Y-113704819D01*
X128957071Y-113704819D02*
X129052309Y-113847676D01*
X129052309Y-113847676D02*
X129147547Y-113942914D01*
X129147547Y-113942914D02*
X129242785Y-113990533D01*
X128290404Y-113800057D02*
X128242785Y-113752438D01*
X128242785Y-113752438D02*
X128147547Y-113704819D01*
X128147547Y-113704819D02*
X127909452Y-113704819D01*
X127909452Y-113704819D02*
X127814214Y-113752438D01*
X127814214Y-113752438D02*
X127766595Y-113800057D01*
X127766595Y-113800057D02*
X127718976Y-113895295D01*
X127718976Y-113895295D02*
X127718976Y-113990533D01*
X127718976Y-113990533D02*
X127766595Y-114133390D01*
X127766595Y-114133390D02*
X128338023Y-114704819D01*
X128338023Y-114704819D02*
X127718976Y-114704819D01*
X126814214Y-113704819D02*
X127290404Y-113704819D01*
X127290404Y-113704819D02*
X127338023Y-114181009D01*
X127338023Y-114181009D02*
X127290404Y-114133390D01*
X127290404Y-114133390D02*
X127195166Y-114085771D01*
X127195166Y-114085771D02*
X126957071Y-114085771D01*
X126957071Y-114085771D02*
X126861833Y-114133390D01*
X126861833Y-114133390D02*
X126814214Y-114181009D01*
X126814214Y-114181009D02*
X126766595Y-114276247D01*
X126766595Y-114276247D02*
X126766595Y-114514342D01*
X126766595Y-114514342D02*
X126814214Y-114609580D01*
X126814214Y-114609580D02*
X126861833Y-114657200D01*
X126861833Y-114657200D02*
X126957071Y-114704819D01*
X126957071Y-114704819D02*
X127195166Y-114704819D01*
X127195166Y-114704819D02*
X127290404Y-114657200D01*
X127290404Y-114657200D02*
X127338023Y-114609580D01*
%TO.C,U113*%
X132941904Y-99133866D02*
X132894285Y-99086247D01*
X132894285Y-99086247D02*
X132799047Y-99038628D01*
X132799047Y-99038628D02*
X132608571Y-99133866D01*
X132608571Y-99133866D02*
X132513333Y-99086247D01*
X132513333Y-99086247D02*
X132465714Y-99038628D01*
D11*
X131826115Y-95801466D02*
X131064211Y-95801466D01*
X135126115Y-91621466D02*
X134364211Y-91621466D01*
X134745163Y-92002419D02*
X134745163Y-91240514D01*
D10*
X134544285Y-96704819D02*
X134544285Y-97514342D01*
X134544285Y-97514342D02*
X134496666Y-97609580D01*
X134496666Y-97609580D02*
X134449047Y-97657200D01*
X134449047Y-97657200D02*
X134353809Y-97704819D01*
X134353809Y-97704819D02*
X134163333Y-97704819D01*
X134163333Y-97704819D02*
X134068095Y-97657200D01*
X134068095Y-97657200D02*
X134020476Y-97609580D01*
X134020476Y-97609580D02*
X133972857Y-97514342D01*
X133972857Y-97514342D02*
X133972857Y-96704819D01*
X132972857Y-97704819D02*
X133544285Y-97704819D01*
X133258571Y-97704819D02*
X133258571Y-96704819D01*
X133258571Y-96704819D02*
X133353809Y-96847676D01*
X133353809Y-96847676D02*
X133449047Y-96942914D01*
X133449047Y-96942914D02*
X133544285Y-96990533D01*
X132020476Y-97704819D02*
X132591904Y-97704819D01*
X132306190Y-97704819D02*
X132306190Y-96704819D01*
X132306190Y-96704819D02*
X132401428Y-96847676D01*
X132401428Y-96847676D02*
X132496666Y-96942914D01*
X132496666Y-96942914D02*
X132591904Y-96990533D01*
X131687142Y-96704819D02*
X131068095Y-96704819D01*
X131068095Y-96704819D02*
X131401428Y-97085771D01*
X131401428Y-97085771D02*
X131258571Y-97085771D01*
X131258571Y-97085771D02*
X131163333Y-97133390D01*
X131163333Y-97133390D02*
X131115714Y-97181009D01*
X131115714Y-97181009D02*
X131068095Y-97276247D01*
X131068095Y-97276247D02*
X131068095Y-97514342D01*
X131068095Y-97514342D02*
X131115714Y-97609580D01*
X131115714Y-97609580D02*
X131163333Y-97657200D01*
X131163333Y-97657200D02*
X131258571Y-97704819D01*
X131258571Y-97704819D02*
X131544285Y-97704819D01*
X131544285Y-97704819D02*
X131639523Y-97657200D01*
X131639523Y-97657200D02*
X131687142Y-97609580D01*
%TO.C,U105*%
X124441904Y-90633866D02*
X124394285Y-90586247D01*
X124394285Y-90586247D02*
X124299047Y-90538628D01*
X124299047Y-90538628D02*
X124108571Y-90633866D01*
X124108571Y-90633866D02*
X124013333Y-90586247D01*
X124013333Y-90586247D02*
X123965714Y-90538628D01*
X126044285Y-88204819D02*
X126044285Y-89014342D01*
X126044285Y-89014342D02*
X125996666Y-89109580D01*
X125996666Y-89109580D02*
X125949047Y-89157200D01*
X125949047Y-89157200D02*
X125853809Y-89204819D01*
X125853809Y-89204819D02*
X125663333Y-89204819D01*
X125663333Y-89204819D02*
X125568095Y-89157200D01*
X125568095Y-89157200D02*
X125520476Y-89109580D01*
X125520476Y-89109580D02*
X125472857Y-89014342D01*
X125472857Y-89014342D02*
X125472857Y-88204819D01*
X124472857Y-89204819D02*
X125044285Y-89204819D01*
X124758571Y-89204819D02*
X124758571Y-88204819D01*
X124758571Y-88204819D02*
X124853809Y-88347676D01*
X124853809Y-88347676D02*
X124949047Y-88442914D01*
X124949047Y-88442914D02*
X125044285Y-88490533D01*
X123853809Y-88204819D02*
X123758571Y-88204819D01*
X123758571Y-88204819D02*
X123663333Y-88252438D01*
X123663333Y-88252438D02*
X123615714Y-88300057D01*
X123615714Y-88300057D02*
X123568095Y-88395295D01*
X123568095Y-88395295D02*
X123520476Y-88585771D01*
X123520476Y-88585771D02*
X123520476Y-88823866D01*
X123520476Y-88823866D02*
X123568095Y-89014342D01*
X123568095Y-89014342D02*
X123615714Y-89109580D01*
X123615714Y-89109580D02*
X123663333Y-89157200D01*
X123663333Y-89157200D02*
X123758571Y-89204819D01*
X123758571Y-89204819D02*
X123853809Y-89204819D01*
X123853809Y-89204819D02*
X123949047Y-89157200D01*
X123949047Y-89157200D02*
X123996666Y-89109580D01*
X123996666Y-89109580D02*
X124044285Y-89014342D01*
X124044285Y-89014342D02*
X124091904Y-88823866D01*
X124091904Y-88823866D02*
X124091904Y-88585771D01*
X124091904Y-88585771D02*
X124044285Y-88395295D01*
X124044285Y-88395295D02*
X123996666Y-88300057D01*
X123996666Y-88300057D02*
X123949047Y-88252438D01*
X123949047Y-88252438D02*
X123853809Y-88204819D01*
X122615714Y-88204819D02*
X123091904Y-88204819D01*
X123091904Y-88204819D02*
X123139523Y-88681009D01*
X123139523Y-88681009D02*
X123091904Y-88633390D01*
X123091904Y-88633390D02*
X122996666Y-88585771D01*
X122996666Y-88585771D02*
X122758571Y-88585771D01*
X122758571Y-88585771D02*
X122663333Y-88633390D01*
X122663333Y-88633390D02*
X122615714Y-88681009D01*
X122615714Y-88681009D02*
X122568095Y-88776247D01*
X122568095Y-88776247D02*
X122568095Y-89014342D01*
X122568095Y-89014342D02*
X122615714Y-89109580D01*
X122615714Y-89109580D02*
X122663333Y-89157200D01*
X122663333Y-89157200D02*
X122758571Y-89204819D01*
X122758571Y-89204819D02*
X122996666Y-89204819D01*
X122996666Y-89204819D02*
X123091904Y-89157200D01*
X123091904Y-89157200D02*
X123139523Y-89109580D01*
D11*
X123326115Y-87301466D02*
X122564211Y-87301466D01*
X126626115Y-83121466D02*
X125864211Y-83121466D01*
X126245163Y-83502419D02*
X126245163Y-82740514D01*
D10*
%TO.C,U108*%
X158441904Y-90633866D02*
X158394285Y-90586247D01*
X158394285Y-90586247D02*
X158299047Y-90538628D01*
X158299047Y-90538628D02*
X158108571Y-90633866D01*
X158108571Y-90633866D02*
X158013333Y-90586247D01*
X158013333Y-90586247D02*
X157965714Y-90538628D01*
D11*
X160626115Y-83121466D02*
X159864211Y-83121466D01*
X160245163Y-83502419D02*
X160245163Y-82740514D01*
D10*
X160044285Y-88204819D02*
X160044285Y-89014342D01*
X160044285Y-89014342D02*
X159996666Y-89109580D01*
X159996666Y-89109580D02*
X159949047Y-89157200D01*
X159949047Y-89157200D02*
X159853809Y-89204819D01*
X159853809Y-89204819D02*
X159663333Y-89204819D01*
X159663333Y-89204819D02*
X159568095Y-89157200D01*
X159568095Y-89157200D02*
X159520476Y-89109580D01*
X159520476Y-89109580D02*
X159472857Y-89014342D01*
X159472857Y-89014342D02*
X159472857Y-88204819D01*
X158472857Y-89204819D02*
X159044285Y-89204819D01*
X158758571Y-89204819D02*
X158758571Y-88204819D01*
X158758571Y-88204819D02*
X158853809Y-88347676D01*
X158853809Y-88347676D02*
X158949047Y-88442914D01*
X158949047Y-88442914D02*
X159044285Y-88490533D01*
X157853809Y-88204819D02*
X157758571Y-88204819D01*
X157758571Y-88204819D02*
X157663333Y-88252438D01*
X157663333Y-88252438D02*
X157615714Y-88300057D01*
X157615714Y-88300057D02*
X157568095Y-88395295D01*
X157568095Y-88395295D02*
X157520476Y-88585771D01*
X157520476Y-88585771D02*
X157520476Y-88823866D01*
X157520476Y-88823866D02*
X157568095Y-89014342D01*
X157568095Y-89014342D02*
X157615714Y-89109580D01*
X157615714Y-89109580D02*
X157663333Y-89157200D01*
X157663333Y-89157200D02*
X157758571Y-89204819D01*
X157758571Y-89204819D02*
X157853809Y-89204819D01*
X157853809Y-89204819D02*
X157949047Y-89157200D01*
X157949047Y-89157200D02*
X157996666Y-89109580D01*
X157996666Y-89109580D02*
X158044285Y-89014342D01*
X158044285Y-89014342D02*
X158091904Y-88823866D01*
X158091904Y-88823866D02*
X158091904Y-88585771D01*
X158091904Y-88585771D02*
X158044285Y-88395295D01*
X158044285Y-88395295D02*
X157996666Y-88300057D01*
X157996666Y-88300057D02*
X157949047Y-88252438D01*
X157949047Y-88252438D02*
X157853809Y-88204819D01*
X156949047Y-88633390D02*
X157044285Y-88585771D01*
X157044285Y-88585771D02*
X157091904Y-88538152D01*
X157091904Y-88538152D02*
X157139523Y-88442914D01*
X157139523Y-88442914D02*
X157139523Y-88395295D01*
X157139523Y-88395295D02*
X157091904Y-88300057D01*
X157091904Y-88300057D02*
X157044285Y-88252438D01*
X157044285Y-88252438D02*
X156949047Y-88204819D01*
X156949047Y-88204819D02*
X156758571Y-88204819D01*
X156758571Y-88204819D02*
X156663333Y-88252438D01*
X156663333Y-88252438D02*
X156615714Y-88300057D01*
X156615714Y-88300057D02*
X156568095Y-88395295D01*
X156568095Y-88395295D02*
X156568095Y-88442914D01*
X156568095Y-88442914D02*
X156615714Y-88538152D01*
X156615714Y-88538152D02*
X156663333Y-88585771D01*
X156663333Y-88585771D02*
X156758571Y-88633390D01*
X156758571Y-88633390D02*
X156949047Y-88633390D01*
X156949047Y-88633390D02*
X157044285Y-88681009D01*
X157044285Y-88681009D02*
X157091904Y-88728628D01*
X157091904Y-88728628D02*
X157139523Y-88823866D01*
X157139523Y-88823866D02*
X157139523Y-89014342D01*
X157139523Y-89014342D02*
X157091904Y-89109580D01*
X157091904Y-89109580D02*
X157044285Y-89157200D01*
X157044285Y-89157200D02*
X156949047Y-89204819D01*
X156949047Y-89204819D02*
X156758571Y-89204819D01*
X156758571Y-89204819D02*
X156663333Y-89157200D01*
X156663333Y-89157200D02*
X156615714Y-89109580D01*
X156615714Y-89109580D02*
X156568095Y-89014342D01*
X156568095Y-89014342D02*
X156568095Y-88823866D01*
X156568095Y-88823866D02*
X156615714Y-88728628D01*
X156615714Y-88728628D02*
X156663333Y-88681009D01*
X156663333Y-88681009D02*
X156758571Y-88633390D01*
D11*
X157326115Y-87301466D02*
X156564211Y-87301466D01*
D10*
%TO.C,U109*%
X149941904Y-90633866D02*
X149894285Y-90586247D01*
X149894285Y-90586247D02*
X149799047Y-90538628D01*
X149799047Y-90538628D02*
X149608571Y-90633866D01*
X149608571Y-90633866D02*
X149513333Y-90586247D01*
X149513333Y-90586247D02*
X149465714Y-90538628D01*
D11*
X152126115Y-83121466D02*
X151364211Y-83121466D01*
X151745163Y-83502419D02*
X151745163Y-82740514D01*
X148826115Y-87301466D02*
X148064211Y-87301466D01*
D10*
X151544285Y-88204819D02*
X151544285Y-89014342D01*
X151544285Y-89014342D02*
X151496666Y-89109580D01*
X151496666Y-89109580D02*
X151449047Y-89157200D01*
X151449047Y-89157200D02*
X151353809Y-89204819D01*
X151353809Y-89204819D02*
X151163333Y-89204819D01*
X151163333Y-89204819D02*
X151068095Y-89157200D01*
X151068095Y-89157200D02*
X151020476Y-89109580D01*
X151020476Y-89109580D02*
X150972857Y-89014342D01*
X150972857Y-89014342D02*
X150972857Y-88204819D01*
X149972857Y-89204819D02*
X150544285Y-89204819D01*
X150258571Y-89204819D02*
X150258571Y-88204819D01*
X150258571Y-88204819D02*
X150353809Y-88347676D01*
X150353809Y-88347676D02*
X150449047Y-88442914D01*
X150449047Y-88442914D02*
X150544285Y-88490533D01*
X149353809Y-88204819D02*
X149258571Y-88204819D01*
X149258571Y-88204819D02*
X149163333Y-88252438D01*
X149163333Y-88252438D02*
X149115714Y-88300057D01*
X149115714Y-88300057D02*
X149068095Y-88395295D01*
X149068095Y-88395295D02*
X149020476Y-88585771D01*
X149020476Y-88585771D02*
X149020476Y-88823866D01*
X149020476Y-88823866D02*
X149068095Y-89014342D01*
X149068095Y-89014342D02*
X149115714Y-89109580D01*
X149115714Y-89109580D02*
X149163333Y-89157200D01*
X149163333Y-89157200D02*
X149258571Y-89204819D01*
X149258571Y-89204819D02*
X149353809Y-89204819D01*
X149353809Y-89204819D02*
X149449047Y-89157200D01*
X149449047Y-89157200D02*
X149496666Y-89109580D01*
X149496666Y-89109580D02*
X149544285Y-89014342D01*
X149544285Y-89014342D02*
X149591904Y-88823866D01*
X149591904Y-88823866D02*
X149591904Y-88585771D01*
X149591904Y-88585771D02*
X149544285Y-88395295D01*
X149544285Y-88395295D02*
X149496666Y-88300057D01*
X149496666Y-88300057D02*
X149449047Y-88252438D01*
X149449047Y-88252438D02*
X149353809Y-88204819D01*
X148544285Y-89204819D02*
X148353809Y-89204819D01*
X148353809Y-89204819D02*
X148258571Y-89157200D01*
X148258571Y-89157200D02*
X148210952Y-89109580D01*
X148210952Y-89109580D02*
X148115714Y-88966723D01*
X148115714Y-88966723D02*
X148068095Y-88776247D01*
X148068095Y-88776247D02*
X148068095Y-88395295D01*
X148068095Y-88395295D02*
X148115714Y-88300057D01*
X148115714Y-88300057D02*
X148163333Y-88252438D01*
X148163333Y-88252438D02*
X148258571Y-88204819D01*
X148258571Y-88204819D02*
X148449047Y-88204819D01*
X148449047Y-88204819D02*
X148544285Y-88252438D01*
X148544285Y-88252438D02*
X148591904Y-88300057D01*
X148591904Y-88300057D02*
X148639523Y-88395295D01*
X148639523Y-88395295D02*
X148639523Y-88633390D01*
X148639523Y-88633390D02*
X148591904Y-88728628D01*
X148591904Y-88728628D02*
X148544285Y-88776247D01*
X148544285Y-88776247D02*
X148449047Y-88823866D01*
X148449047Y-88823866D02*
X148258571Y-88823866D01*
X148258571Y-88823866D02*
X148163333Y-88776247D01*
X148163333Y-88776247D02*
X148115714Y-88728628D01*
X148115714Y-88728628D02*
X148068095Y-88633390D01*
%TO.C,U111*%
X132941904Y-90633866D02*
X132894285Y-90586247D01*
X132894285Y-90586247D02*
X132799047Y-90538628D01*
X132799047Y-90538628D02*
X132608571Y-90633866D01*
X132608571Y-90633866D02*
X132513333Y-90586247D01*
X132513333Y-90586247D02*
X132465714Y-90538628D01*
D11*
X135126115Y-83121466D02*
X134364211Y-83121466D01*
X134745163Y-83502419D02*
X134745163Y-82740514D01*
X131826115Y-87301466D02*
X131064211Y-87301466D01*
D10*
X134544285Y-88204819D02*
X134544285Y-89014342D01*
X134544285Y-89014342D02*
X134496666Y-89109580D01*
X134496666Y-89109580D02*
X134449047Y-89157200D01*
X134449047Y-89157200D02*
X134353809Y-89204819D01*
X134353809Y-89204819D02*
X134163333Y-89204819D01*
X134163333Y-89204819D02*
X134068095Y-89157200D01*
X134068095Y-89157200D02*
X134020476Y-89109580D01*
X134020476Y-89109580D02*
X133972857Y-89014342D01*
X133972857Y-89014342D02*
X133972857Y-88204819D01*
X132972857Y-89204819D02*
X133544285Y-89204819D01*
X133258571Y-89204819D02*
X133258571Y-88204819D01*
X133258571Y-88204819D02*
X133353809Y-88347676D01*
X133353809Y-88347676D02*
X133449047Y-88442914D01*
X133449047Y-88442914D02*
X133544285Y-88490533D01*
X132020476Y-89204819D02*
X132591904Y-89204819D01*
X132306190Y-89204819D02*
X132306190Y-88204819D01*
X132306190Y-88204819D02*
X132401428Y-88347676D01*
X132401428Y-88347676D02*
X132496666Y-88442914D01*
X132496666Y-88442914D02*
X132591904Y-88490533D01*
X131068095Y-89204819D02*
X131639523Y-89204819D01*
X131353809Y-89204819D02*
X131353809Y-88204819D01*
X131353809Y-88204819D02*
X131449047Y-88347676D01*
X131449047Y-88347676D02*
X131544285Y-88442914D01*
X131544285Y-88442914D02*
X131639523Y-88490533D01*
%TO.C,U127*%
X145640404Y-116133866D02*
X145592785Y-116086247D01*
X145592785Y-116086247D02*
X145497547Y-116038628D01*
X145497547Y-116038628D02*
X145307071Y-116133866D01*
X145307071Y-116133866D02*
X145211833Y-116086247D01*
X145211833Y-116086247D02*
X145164214Y-116038628D01*
X147242785Y-113704819D02*
X147242785Y-114514342D01*
X147242785Y-114514342D02*
X147195166Y-114609580D01*
X147195166Y-114609580D02*
X147147547Y-114657200D01*
X147147547Y-114657200D02*
X147052309Y-114704819D01*
X147052309Y-114704819D02*
X146861833Y-114704819D01*
X146861833Y-114704819D02*
X146766595Y-114657200D01*
X146766595Y-114657200D02*
X146718976Y-114609580D01*
X146718976Y-114609580D02*
X146671357Y-114514342D01*
X146671357Y-114514342D02*
X146671357Y-113704819D01*
X145671357Y-114704819D02*
X146242785Y-114704819D01*
X145957071Y-114704819D02*
X145957071Y-113704819D01*
X145957071Y-113704819D02*
X146052309Y-113847676D01*
X146052309Y-113847676D02*
X146147547Y-113942914D01*
X146147547Y-113942914D02*
X146242785Y-113990533D01*
X145290404Y-113800057D02*
X145242785Y-113752438D01*
X145242785Y-113752438D02*
X145147547Y-113704819D01*
X145147547Y-113704819D02*
X144909452Y-113704819D01*
X144909452Y-113704819D02*
X144814214Y-113752438D01*
X144814214Y-113752438D02*
X144766595Y-113800057D01*
X144766595Y-113800057D02*
X144718976Y-113895295D01*
X144718976Y-113895295D02*
X144718976Y-113990533D01*
X144718976Y-113990533D02*
X144766595Y-114133390D01*
X144766595Y-114133390D02*
X145338023Y-114704819D01*
X145338023Y-114704819D02*
X144718976Y-114704819D01*
X144385642Y-113704819D02*
X143718976Y-113704819D01*
X143718976Y-113704819D02*
X144147547Y-114704819D01*
D11*
X147824615Y-108621466D02*
X147062711Y-108621466D01*
X147443663Y-109002419D02*
X147443663Y-108240514D01*
X144524615Y-112801466D02*
X143762711Y-112801466D01*
D10*
%TO.C,U130*%
X166941904Y-124633866D02*
X166894285Y-124586247D01*
X166894285Y-124586247D02*
X166799047Y-124538628D01*
X166799047Y-124538628D02*
X166608571Y-124633866D01*
X166608571Y-124633866D02*
X166513333Y-124586247D01*
X166513333Y-124586247D02*
X166465714Y-124538628D01*
D11*
X165826115Y-121301466D02*
X165064211Y-121301466D01*
X169126115Y-117121466D02*
X168364211Y-117121466D01*
X168745163Y-117502419D02*
X168745163Y-116740514D01*
D10*
X168544285Y-122204819D02*
X168544285Y-123014342D01*
X168544285Y-123014342D02*
X168496666Y-123109580D01*
X168496666Y-123109580D02*
X168449047Y-123157200D01*
X168449047Y-123157200D02*
X168353809Y-123204819D01*
X168353809Y-123204819D02*
X168163333Y-123204819D01*
X168163333Y-123204819D02*
X168068095Y-123157200D01*
X168068095Y-123157200D02*
X168020476Y-123109580D01*
X168020476Y-123109580D02*
X167972857Y-123014342D01*
X167972857Y-123014342D02*
X167972857Y-122204819D01*
X166972857Y-123204819D02*
X167544285Y-123204819D01*
X167258571Y-123204819D02*
X167258571Y-122204819D01*
X167258571Y-122204819D02*
X167353809Y-122347676D01*
X167353809Y-122347676D02*
X167449047Y-122442914D01*
X167449047Y-122442914D02*
X167544285Y-122490533D01*
X166639523Y-122204819D02*
X166020476Y-122204819D01*
X166020476Y-122204819D02*
X166353809Y-122585771D01*
X166353809Y-122585771D02*
X166210952Y-122585771D01*
X166210952Y-122585771D02*
X166115714Y-122633390D01*
X166115714Y-122633390D02*
X166068095Y-122681009D01*
X166068095Y-122681009D02*
X166020476Y-122776247D01*
X166020476Y-122776247D02*
X166020476Y-123014342D01*
X166020476Y-123014342D02*
X166068095Y-123109580D01*
X166068095Y-123109580D02*
X166115714Y-123157200D01*
X166115714Y-123157200D02*
X166210952Y-123204819D01*
X166210952Y-123204819D02*
X166496666Y-123204819D01*
X166496666Y-123204819D02*
X166591904Y-123157200D01*
X166591904Y-123157200D02*
X166639523Y-123109580D01*
X165401428Y-122204819D02*
X165306190Y-122204819D01*
X165306190Y-122204819D02*
X165210952Y-122252438D01*
X165210952Y-122252438D02*
X165163333Y-122300057D01*
X165163333Y-122300057D02*
X165115714Y-122395295D01*
X165115714Y-122395295D02*
X165068095Y-122585771D01*
X165068095Y-122585771D02*
X165068095Y-122823866D01*
X165068095Y-122823866D02*
X165115714Y-123014342D01*
X165115714Y-123014342D02*
X165163333Y-123109580D01*
X165163333Y-123109580D02*
X165210952Y-123157200D01*
X165210952Y-123157200D02*
X165306190Y-123204819D01*
X165306190Y-123204819D02*
X165401428Y-123204819D01*
X165401428Y-123204819D02*
X165496666Y-123157200D01*
X165496666Y-123157200D02*
X165544285Y-123109580D01*
X165544285Y-123109580D02*
X165591904Y-123014342D01*
X165591904Y-123014342D02*
X165639523Y-122823866D01*
X165639523Y-122823866D02*
X165639523Y-122585771D01*
X165639523Y-122585771D02*
X165591904Y-122395295D01*
X165591904Y-122395295D02*
X165544285Y-122300057D01*
X165544285Y-122300057D02*
X165496666Y-122252438D01*
X165496666Y-122252438D02*
X165401428Y-122204819D01*
%TO.C,U120*%
X145640404Y-107633866D02*
X145592785Y-107586247D01*
X145592785Y-107586247D02*
X145497547Y-107538628D01*
X145497547Y-107538628D02*
X145307071Y-107633866D01*
X145307071Y-107633866D02*
X145211833Y-107586247D01*
X145211833Y-107586247D02*
X145164214Y-107538628D01*
D11*
X147824615Y-100121466D02*
X147062711Y-100121466D01*
X147443663Y-100502419D02*
X147443663Y-99740514D01*
X144524615Y-104301466D02*
X143762711Y-104301466D01*
D10*
X147242785Y-105204819D02*
X147242785Y-106014342D01*
X147242785Y-106014342D02*
X147195166Y-106109580D01*
X147195166Y-106109580D02*
X147147547Y-106157200D01*
X147147547Y-106157200D02*
X147052309Y-106204819D01*
X147052309Y-106204819D02*
X146861833Y-106204819D01*
X146861833Y-106204819D02*
X146766595Y-106157200D01*
X146766595Y-106157200D02*
X146718976Y-106109580D01*
X146718976Y-106109580D02*
X146671357Y-106014342D01*
X146671357Y-106014342D02*
X146671357Y-105204819D01*
X145671357Y-106204819D02*
X146242785Y-106204819D01*
X145957071Y-106204819D02*
X145957071Y-105204819D01*
X145957071Y-105204819D02*
X146052309Y-105347676D01*
X146052309Y-105347676D02*
X146147547Y-105442914D01*
X146147547Y-105442914D02*
X146242785Y-105490533D01*
X145290404Y-105300057D02*
X145242785Y-105252438D01*
X145242785Y-105252438D02*
X145147547Y-105204819D01*
X145147547Y-105204819D02*
X144909452Y-105204819D01*
X144909452Y-105204819D02*
X144814214Y-105252438D01*
X144814214Y-105252438D02*
X144766595Y-105300057D01*
X144766595Y-105300057D02*
X144718976Y-105395295D01*
X144718976Y-105395295D02*
X144718976Y-105490533D01*
X144718976Y-105490533D02*
X144766595Y-105633390D01*
X144766595Y-105633390D02*
X145338023Y-106204819D01*
X145338023Y-106204819D02*
X144718976Y-106204819D01*
X144099928Y-105204819D02*
X144004690Y-105204819D01*
X144004690Y-105204819D02*
X143909452Y-105252438D01*
X143909452Y-105252438D02*
X143861833Y-105300057D01*
X143861833Y-105300057D02*
X143814214Y-105395295D01*
X143814214Y-105395295D02*
X143766595Y-105585771D01*
X143766595Y-105585771D02*
X143766595Y-105823866D01*
X143766595Y-105823866D02*
X143814214Y-106014342D01*
X143814214Y-106014342D02*
X143861833Y-106109580D01*
X143861833Y-106109580D02*
X143909452Y-106157200D01*
X143909452Y-106157200D02*
X144004690Y-106204819D01*
X144004690Y-106204819D02*
X144099928Y-106204819D01*
X144099928Y-106204819D02*
X144195166Y-106157200D01*
X144195166Y-106157200D02*
X144242785Y-106109580D01*
X144242785Y-106109580D02*
X144290404Y-106014342D01*
X144290404Y-106014342D02*
X144338023Y-105823866D01*
X144338023Y-105823866D02*
X144338023Y-105585771D01*
X144338023Y-105585771D02*
X144290404Y-105395295D01*
X144290404Y-105395295D02*
X144242785Y-105300057D01*
X144242785Y-105300057D02*
X144195166Y-105252438D01*
X144195166Y-105252438D02*
X144099928Y-105204819D01*
%TO.C,U119*%
X154140404Y-107633866D02*
X154092785Y-107586247D01*
X154092785Y-107586247D02*
X153997547Y-107538628D01*
X153997547Y-107538628D02*
X153807071Y-107633866D01*
X153807071Y-107633866D02*
X153711833Y-107586247D01*
X153711833Y-107586247D02*
X153664214Y-107538628D01*
D11*
X153024615Y-104301466D02*
X152262711Y-104301466D01*
X156324615Y-100121466D02*
X155562711Y-100121466D01*
X155943663Y-100502419D02*
X155943663Y-99740514D01*
D10*
X155742785Y-105204819D02*
X155742785Y-106014342D01*
X155742785Y-106014342D02*
X155695166Y-106109580D01*
X155695166Y-106109580D02*
X155647547Y-106157200D01*
X155647547Y-106157200D02*
X155552309Y-106204819D01*
X155552309Y-106204819D02*
X155361833Y-106204819D01*
X155361833Y-106204819D02*
X155266595Y-106157200D01*
X155266595Y-106157200D02*
X155218976Y-106109580D01*
X155218976Y-106109580D02*
X155171357Y-106014342D01*
X155171357Y-106014342D02*
X155171357Y-105204819D01*
X154171357Y-106204819D02*
X154742785Y-106204819D01*
X154457071Y-106204819D02*
X154457071Y-105204819D01*
X154457071Y-105204819D02*
X154552309Y-105347676D01*
X154552309Y-105347676D02*
X154647547Y-105442914D01*
X154647547Y-105442914D02*
X154742785Y-105490533D01*
X153218976Y-106204819D02*
X153790404Y-106204819D01*
X153504690Y-106204819D02*
X153504690Y-105204819D01*
X153504690Y-105204819D02*
X153599928Y-105347676D01*
X153599928Y-105347676D02*
X153695166Y-105442914D01*
X153695166Y-105442914D02*
X153790404Y-105490533D01*
X152742785Y-106204819D02*
X152552309Y-106204819D01*
X152552309Y-106204819D02*
X152457071Y-106157200D01*
X152457071Y-106157200D02*
X152409452Y-106109580D01*
X152409452Y-106109580D02*
X152314214Y-105966723D01*
X152314214Y-105966723D02*
X152266595Y-105776247D01*
X152266595Y-105776247D02*
X152266595Y-105395295D01*
X152266595Y-105395295D02*
X152314214Y-105300057D01*
X152314214Y-105300057D02*
X152361833Y-105252438D01*
X152361833Y-105252438D02*
X152457071Y-105204819D01*
X152457071Y-105204819D02*
X152647547Y-105204819D01*
X152647547Y-105204819D02*
X152742785Y-105252438D01*
X152742785Y-105252438D02*
X152790404Y-105300057D01*
X152790404Y-105300057D02*
X152838023Y-105395295D01*
X152838023Y-105395295D02*
X152838023Y-105633390D01*
X152838023Y-105633390D02*
X152790404Y-105728628D01*
X152790404Y-105728628D02*
X152742785Y-105776247D01*
X152742785Y-105776247D02*
X152647547Y-105823866D01*
X152647547Y-105823866D02*
X152457071Y-105823866D01*
X152457071Y-105823866D02*
X152361833Y-105776247D01*
X152361833Y-105776247D02*
X152314214Y-105728628D01*
X152314214Y-105728628D02*
X152266595Y-105633390D01*
%TO.C,U101*%
X137126904Y-82133866D02*
X137079285Y-82086247D01*
X137079285Y-82086247D02*
X136984047Y-82038628D01*
X136984047Y-82038628D02*
X136793571Y-82133866D01*
X136793571Y-82133866D02*
X136698333Y-82086247D01*
X136698333Y-82086247D02*
X136650714Y-82038628D01*
X138729285Y-79704819D02*
X138729285Y-80514342D01*
X138729285Y-80514342D02*
X138681666Y-80609580D01*
X138681666Y-80609580D02*
X138634047Y-80657200D01*
X138634047Y-80657200D02*
X138538809Y-80704819D01*
X138538809Y-80704819D02*
X138348333Y-80704819D01*
X138348333Y-80704819D02*
X138253095Y-80657200D01*
X138253095Y-80657200D02*
X138205476Y-80609580D01*
X138205476Y-80609580D02*
X138157857Y-80514342D01*
X138157857Y-80514342D02*
X138157857Y-79704819D01*
X137157857Y-80704819D02*
X137729285Y-80704819D01*
X137443571Y-80704819D02*
X137443571Y-79704819D01*
X137443571Y-79704819D02*
X137538809Y-79847676D01*
X137538809Y-79847676D02*
X137634047Y-79942914D01*
X137634047Y-79942914D02*
X137729285Y-79990533D01*
X136538809Y-79704819D02*
X136443571Y-79704819D01*
X136443571Y-79704819D02*
X136348333Y-79752438D01*
X136348333Y-79752438D02*
X136300714Y-79800057D01*
X136300714Y-79800057D02*
X136253095Y-79895295D01*
X136253095Y-79895295D02*
X136205476Y-80085771D01*
X136205476Y-80085771D02*
X136205476Y-80323866D01*
X136205476Y-80323866D02*
X136253095Y-80514342D01*
X136253095Y-80514342D02*
X136300714Y-80609580D01*
X136300714Y-80609580D02*
X136348333Y-80657200D01*
X136348333Y-80657200D02*
X136443571Y-80704819D01*
X136443571Y-80704819D02*
X136538809Y-80704819D01*
X136538809Y-80704819D02*
X136634047Y-80657200D01*
X136634047Y-80657200D02*
X136681666Y-80609580D01*
X136681666Y-80609580D02*
X136729285Y-80514342D01*
X136729285Y-80514342D02*
X136776904Y-80323866D01*
X136776904Y-80323866D02*
X136776904Y-80085771D01*
X136776904Y-80085771D02*
X136729285Y-79895295D01*
X136729285Y-79895295D02*
X136681666Y-79800057D01*
X136681666Y-79800057D02*
X136634047Y-79752438D01*
X136634047Y-79752438D02*
X136538809Y-79704819D01*
X135253095Y-80704819D02*
X135824523Y-80704819D01*
X135538809Y-80704819D02*
X135538809Y-79704819D01*
X135538809Y-79704819D02*
X135634047Y-79847676D01*
X135634047Y-79847676D02*
X135729285Y-79942914D01*
X135729285Y-79942914D02*
X135824523Y-79990533D01*
D11*
X139311115Y-74621466D02*
X138549211Y-74621466D01*
X138930163Y-75002419D02*
X138930163Y-74240514D01*
X136011115Y-78801466D02*
X135249211Y-78801466D01*
D10*
%TO.C,U135*%
X171140404Y-116133866D02*
X171092785Y-116086247D01*
X171092785Y-116086247D02*
X170997547Y-116038628D01*
X170997547Y-116038628D02*
X170807071Y-116133866D01*
X170807071Y-116133866D02*
X170711833Y-116086247D01*
X170711833Y-116086247D02*
X170664214Y-116038628D01*
X172742785Y-113704819D02*
X172742785Y-114514342D01*
X172742785Y-114514342D02*
X172695166Y-114609580D01*
X172695166Y-114609580D02*
X172647547Y-114657200D01*
X172647547Y-114657200D02*
X172552309Y-114704819D01*
X172552309Y-114704819D02*
X172361833Y-114704819D01*
X172361833Y-114704819D02*
X172266595Y-114657200D01*
X172266595Y-114657200D02*
X172218976Y-114609580D01*
X172218976Y-114609580D02*
X172171357Y-114514342D01*
X172171357Y-114514342D02*
X172171357Y-113704819D01*
X171171357Y-114704819D02*
X171742785Y-114704819D01*
X171457071Y-114704819D02*
X171457071Y-113704819D01*
X171457071Y-113704819D02*
X171552309Y-113847676D01*
X171552309Y-113847676D02*
X171647547Y-113942914D01*
X171647547Y-113942914D02*
X171742785Y-113990533D01*
X170838023Y-113704819D02*
X170218976Y-113704819D01*
X170218976Y-113704819D02*
X170552309Y-114085771D01*
X170552309Y-114085771D02*
X170409452Y-114085771D01*
X170409452Y-114085771D02*
X170314214Y-114133390D01*
X170314214Y-114133390D02*
X170266595Y-114181009D01*
X170266595Y-114181009D02*
X170218976Y-114276247D01*
X170218976Y-114276247D02*
X170218976Y-114514342D01*
X170218976Y-114514342D02*
X170266595Y-114609580D01*
X170266595Y-114609580D02*
X170314214Y-114657200D01*
X170314214Y-114657200D02*
X170409452Y-114704819D01*
X170409452Y-114704819D02*
X170695166Y-114704819D01*
X170695166Y-114704819D02*
X170790404Y-114657200D01*
X170790404Y-114657200D02*
X170838023Y-114609580D01*
X169314214Y-113704819D02*
X169790404Y-113704819D01*
X169790404Y-113704819D02*
X169838023Y-114181009D01*
X169838023Y-114181009D02*
X169790404Y-114133390D01*
X169790404Y-114133390D02*
X169695166Y-114085771D01*
X169695166Y-114085771D02*
X169457071Y-114085771D01*
X169457071Y-114085771D02*
X169361833Y-114133390D01*
X169361833Y-114133390D02*
X169314214Y-114181009D01*
X169314214Y-114181009D02*
X169266595Y-114276247D01*
X169266595Y-114276247D02*
X169266595Y-114514342D01*
X169266595Y-114514342D02*
X169314214Y-114609580D01*
X169314214Y-114609580D02*
X169361833Y-114657200D01*
X169361833Y-114657200D02*
X169457071Y-114704819D01*
X169457071Y-114704819D02*
X169695166Y-114704819D01*
X169695166Y-114704819D02*
X169790404Y-114657200D01*
X169790404Y-114657200D02*
X169838023Y-114609580D01*
D11*
X170024615Y-112801466D02*
X169262711Y-112801466D01*
X173324615Y-108621466D02*
X172562711Y-108621466D01*
X172943663Y-109002419D02*
X172943663Y-108240514D01*
D10*
%TO.C,U112*%
X124441904Y-99133866D02*
X124394285Y-99086247D01*
X124394285Y-99086247D02*
X124299047Y-99038628D01*
X124299047Y-99038628D02*
X124108571Y-99133866D01*
X124108571Y-99133866D02*
X124013333Y-99086247D01*
X124013333Y-99086247D02*
X123965714Y-99038628D01*
D11*
X126626115Y-91621466D02*
X125864211Y-91621466D01*
X126245163Y-92002419D02*
X126245163Y-91240514D01*
D10*
X126044285Y-96704819D02*
X126044285Y-97514342D01*
X126044285Y-97514342D02*
X125996666Y-97609580D01*
X125996666Y-97609580D02*
X125949047Y-97657200D01*
X125949047Y-97657200D02*
X125853809Y-97704819D01*
X125853809Y-97704819D02*
X125663333Y-97704819D01*
X125663333Y-97704819D02*
X125568095Y-97657200D01*
X125568095Y-97657200D02*
X125520476Y-97609580D01*
X125520476Y-97609580D02*
X125472857Y-97514342D01*
X125472857Y-97514342D02*
X125472857Y-96704819D01*
X124472857Y-97704819D02*
X125044285Y-97704819D01*
X124758571Y-97704819D02*
X124758571Y-96704819D01*
X124758571Y-96704819D02*
X124853809Y-96847676D01*
X124853809Y-96847676D02*
X124949047Y-96942914D01*
X124949047Y-96942914D02*
X125044285Y-96990533D01*
X123520476Y-97704819D02*
X124091904Y-97704819D01*
X123806190Y-97704819D02*
X123806190Y-96704819D01*
X123806190Y-96704819D02*
X123901428Y-96847676D01*
X123901428Y-96847676D02*
X123996666Y-96942914D01*
X123996666Y-96942914D02*
X124091904Y-96990533D01*
X123139523Y-96800057D02*
X123091904Y-96752438D01*
X123091904Y-96752438D02*
X122996666Y-96704819D01*
X122996666Y-96704819D02*
X122758571Y-96704819D01*
X122758571Y-96704819D02*
X122663333Y-96752438D01*
X122663333Y-96752438D02*
X122615714Y-96800057D01*
X122615714Y-96800057D02*
X122568095Y-96895295D01*
X122568095Y-96895295D02*
X122568095Y-96990533D01*
X122568095Y-96990533D02*
X122615714Y-97133390D01*
X122615714Y-97133390D02*
X123187142Y-97704819D01*
X123187142Y-97704819D02*
X122568095Y-97704819D01*
D11*
X123326115Y-95801466D02*
X122564211Y-95801466D01*
D10*
%TO.C,U122*%
X128640404Y-107633866D02*
X128592785Y-107586247D01*
X128592785Y-107586247D02*
X128497547Y-107538628D01*
X128497547Y-107538628D02*
X128307071Y-107633866D01*
X128307071Y-107633866D02*
X128211833Y-107586247D01*
X128211833Y-107586247D02*
X128164214Y-107538628D01*
D11*
X130824615Y-100121466D02*
X130062711Y-100121466D01*
X130443663Y-100502419D02*
X130443663Y-99740514D01*
D10*
X130242785Y-105204819D02*
X130242785Y-106014342D01*
X130242785Y-106014342D02*
X130195166Y-106109580D01*
X130195166Y-106109580D02*
X130147547Y-106157200D01*
X130147547Y-106157200D02*
X130052309Y-106204819D01*
X130052309Y-106204819D02*
X129861833Y-106204819D01*
X129861833Y-106204819D02*
X129766595Y-106157200D01*
X129766595Y-106157200D02*
X129718976Y-106109580D01*
X129718976Y-106109580D02*
X129671357Y-106014342D01*
X129671357Y-106014342D02*
X129671357Y-105204819D01*
X128671357Y-106204819D02*
X129242785Y-106204819D01*
X128957071Y-106204819D02*
X128957071Y-105204819D01*
X128957071Y-105204819D02*
X129052309Y-105347676D01*
X129052309Y-105347676D02*
X129147547Y-105442914D01*
X129147547Y-105442914D02*
X129242785Y-105490533D01*
X128290404Y-105300057D02*
X128242785Y-105252438D01*
X128242785Y-105252438D02*
X128147547Y-105204819D01*
X128147547Y-105204819D02*
X127909452Y-105204819D01*
X127909452Y-105204819D02*
X127814214Y-105252438D01*
X127814214Y-105252438D02*
X127766595Y-105300057D01*
X127766595Y-105300057D02*
X127718976Y-105395295D01*
X127718976Y-105395295D02*
X127718976Y-105490533D01*
X127718976Y-105490533D02*
X127766595Y-105633390D01*
X127766595Y-105633390D02*
X128338023Y-106204819D01*
X128338023Y-106204819D02*
X127718976Y-106204819D01*
X127338023Y-105300057D02*
X127290404Y-105252438D01*
X127290404Y-105252438D02*
X127195166Y-105204819D01*
X127195166Y-105204819D02*
X126957071Y-105204819D01*
X126957071Y-105204819D02*
X126861833Y-105252438D01*
X126861833Y-105252438D02*
X126814214Y-105300057D01*
X126814214Y-105300057D02*
X126766595Y-105395295D01*
X126766595Y-105395295D02*
X126766595Y-105490533D01*
X126766595Y-105490533D02*
X126814214Y-105633390D01*
X126814214Y-105633390D02*
X127385642Y-106204819D01*
X127385642Y-106204819D02*
X126766595Y-106204819D01*
D11*
X127524615Y-104301466D02*
X126762711Y-104301466D01*
D10*
%TO.C,U117*%
X166941904Y-99133866D02*
X166894285Y-99086247D01*
X166894285Y-99086247D02*
X166799047Y-99038628D01*
X166799047Y-99038628D02*
X166608571Y-99133866D01*
X166608571Y-99133866D02*
X166513333Y-99086247D01*
X166513333Y-99086247D02*
X166465714Y-99038628D01*
D11*
X165826115Y-95801466D02*
X165064211Y-95801466D01*
X169126115Y-91621466D02*
X168364211Y-91621466D01*
X168745163Y-92002419D02*
X168745163Y-91240514D01*
D10*
X168544285Y-96704819D02*
X168544285Y-97514342D01*
X168544285Y-97514342D02*
X168496666Y-97609580D01*
X168496666Y-97609580D02*
X168449047Y-97657200D01*
X168449047Y-97657200D02*
X168353809Y-97704819D01*
X168353809Y-97704819D02*
X168163333Y-97704819D01*
X168163333Y-97704819D02*
X168068095Y-97657200D01*
X168068095Y-97657200D02*
X168020476Y-97609580D01*
X168020476Y-97609580D02*
X167972857Y-97514342D01*
X167972857Y-97514342D02*
X167972857Y-96704819D01*
X166972857Y-97704819D02*
X167544285Y-97704819D01*
X167258571Y-97704819D02*
X167258571Y-96704819D01*
X167258571Y-96704819D02*
X167353809Y-96847676D01*
X167353809Y-96847676D02*
X167449047Y-96942914D01*
X167449047Y-96942914D02*
X167544285Y-96990533D01*
X166020476Y-97704819D02*
X166591904Y-97704819D01*
X166306190Y-97704819D02*
X166306190Y-96704819D01*
X166306190Y-96704819D02*
X166401428Y-96847676D01*
X166401428Y-96847676D02*
X166496666Y-96942914D01*
X166496666Y-96942914D02*
X166591904Y-96990533D01*
X165687142Y-96704819D02*
X165020476Y-96704819D01*
X165020476Y-96704819D02*
X165449047Y-97704819D01*
%TO.C,U104*%
X162626904Y-82133866D02*
X162579285Y-82086247D01*
X162579285Y-82086247D02*
X162484047Y-82038628D01*
X162484047Y-82038628D02*
X162293571Y-82133866D01*
X162293571Y-82133866D02*
X162198333Y-82086247D01*
X162198333Y-82086247D02*
X162150714Y-82038628D01*
D11*
X161511115Y-78801466D02*
X160749211Y-78801466D01*
D10*
X164229285Y-79704819D02*
X164229285Y-80514342D01*
X164229285Y-80514342D02*
X164181666Y-80609580D01*
X164181666Y-80609580D02*
X164134047Y-80657200D01*
X164134047Y-80657200D02*
X164038809Y-80704819D01*
X164038809Y-80704819D02*
X163848333Y-80704819D01*
X163848333Y-80704819D02*
X163753095Y-80657200D01*
X163753095Y-80657200D02*
X163705476Y-80609580D01*
X163705476Y-80609580D02*
X163657857Y-80514342D01*
X163657857Y-80514342D02*
X163657857Y-79704819D01*
X162657857Y-80704819D02*
X163229285Y-80704819D01*
X162943571Y-80704819D02*
X162943571Y-79704819D01*
X162943571Y-79704819D02*
X163038809Y-79847676D01*
X163038809Y-79847676D02*
X163134047Y-79942914D01*
X163134047Y-79942914D02*
X163229285Y-79990533D01*
X162038809Y-79704819D02*
X161943571Y-79704819D01*
X161943571Y-79704819D02*
X161848333Y-79752438D01*
X161848333Y-79752438D02*
X161800714Y-79800057D01*
X161800714Y-79800057D02*
X161753095Y-79895295D01*
X161753095Y-79895295D02*
X161705476Y-80085771D01*
X161705476Y-80085771D02*
X161705476Y-80323866D01*
X161705476Y-80323866D02*
X161753095Y-80514342D01*
X161753095Y-80514342D02*
X161800714Y-80609580D01*
X161800714Y-80609580D02*
X161848333Y-80657200D01*
X161848333Y-80657200D02*
X161943571Y-80704819D01*
X161943571Y-80704819D02*
X162038809Y-80704819D01*
X162038809Y-80704819D02*
X162134047Y-80657200D01*
X162134047Y-80657200D02*
X162181666Y-80609580D01*
X162181666Y-80609580D02*
X162229285Y-80514342D01*
X162229285Y-80514342D02*
X162276904Y-80323866D01*
X162276904Y-80323866D02*
X162276904Y-80085771D01*
X162276904Y-80085771D02*
X162229285Y-79895295D01*
X162229285Y-79895295D02*
X162181666Y-79800057D01*
X162181666Y-79800057D02*
X162134047Y-79752438D01*
X162134047Y-79752438D02*
X162038809Y-79704819D01*
X160848333Y-80038152D02*
X160848333Y-80704819D01*
X161086428Y-79657200D02*
X161324523Y-80371485D01*
X161324523Y-80371485D02*
X160705476Y-80371485D01*
D11*
X164811115Y-74621466D02*
X164049211Y-74621466D01*
X164430163Y-75002419D02*
X164430163Y-74240514D01*
D10*
%TO.C,U110*%
X141441904Y-90633866D02*
X141394285Y-90586247D01*
X141394285Y-90586247D02*
X141299047Y-90538628D01*
X141299047Y-90538628D02*
X141108571Y-90633866D01*
X141108571Y-90633866D02*
X141013333Y-90586247D01*
X141013333Y-90586247D02*
X140965714Y-90538628D01*
X143044285Y-88204819D02*
X143044285Y-89014342D01*
X143044285Y-89014342D02*
X142996666Y-89109580D01*
X142996666Y-89109580D02*
X142949047Y-89157200D01*
X142949047Y-89157200D02*
X142853809Y-89204819D01*
X142853809Y-89204819D02*
X142663333Y-89204819D01*
X142663333Y-89204819D02*
X142568095Y-89157200D01*
X142568095Y-89157200D02*
X142520476Y-89109580D01*
X142520476Y-89109580D02*
X142472857Y-89014342D01*
X142472857Y-89014342D02*
X142472857Y-88204819D01*
X141472857Y-89204819D02*
X142044285Y-89204819D01*
X141758571Y-89204819D02*
X141758571Y-88204819D01*
X141758571Y-88204819D02*
X141853809Y-88347676D01*
X141853809Y-88347676D02*
X141949047Y-88442914D01*
X141949047Y-88442914D02*
X142044285Y-88490533D01*
X140520476Y-89204819D02*
X141091904Y-89204819D01*
X140806190Y-89204819D02*
X140806190Y-88204819D01*
X140806190Y-88204819D02*
X140901428Y-88347676D01*
X140901428Y-88347676D02*
X140996666Y-88442914D01*
X140996666Y-88442914D02*
X141091904Y-88490533D01*
X139901428Y-88204819D02*
X139806190Y-88204819D01*
X139806190Y-88204819D02*
X139710952Y-88252438D01*
X139710952Y-88252438D02*
X139663333Y-88300057D01*
X139663333Y-88300057D02*
X139615714Y-88395295D01*
X139615714Y-88395295D02*
X139568095Y-88585771D01*
X139568095Y-88585771D02*
X139568095Y-88823866D01*
X139568095Y-88823866D02*
X139615714Y-89014342D01*
X139615714Y-89014342D02*
X139663333Y-89109580D01*
X139663333Y-89109580D02*
X139710952Y-89157200D01*
X139710952Y-89157200D02*
X139806190Y-89204819D01*
X139806190Y-89204819D02*
X139901428Y-89204819D01*
X139901428Y-89204819D02*
X139996666Y-89157200D01*
X139996666Y-89157200D02*
X140044285Y-89109580D01*
X140044285Y-89109580D02*
X140091904Y-89014342D01*
X140091904Y-89014342D02*
X140139523Y-88823866D01*
X140139523Y-88823866D02*
X140139523Y-88585771D01*
X140139523Y-88585771D02*
X140091904Y-88395295D01*
X140091904Y-88395295D02*
X140044285Y-88300057D01*
X140044285Y-88300057D02*
X139996666Y-88252438D01*
X139996666Y-88252438D02*
X139901428Y-88204819D01*
D11*
X143626115Y-83121466D02*
X142864211Y-83121466D01*
X143245163Y-83502419D02*
X143245163Y-82740514D01*
X140326115Y-87301466D02*
X139564211Y-87301466D01*
D10*
%TO.C,U102*%
X145626904Y-82133866D02*
X145579285Y-82086247D01*
X145579285Y-82086247D02*
X145484047Y-82038628D01*
X145484047Y-82038628D02*
X145293571Y-82133866D01*
X145293571Y-82133866D02*
X145198333Y-82086247D01*
X145198333Y-82086247D02*
X145150714Y-82038628D01*
D11*
X147811115Y-74621466D02*
X147049211Y-74621466D01*
X147430163Y-75002419D02*
X147430163Y-74240514D01*
X144511115Y-78801466D02*
X143749211Y-78801466D01*
D10*
X147229285Y-79704819D02*
X147229285Y-80514342D01*
X147229285Y-80514342D02*
X147181666Y-80609580D01*
X147181666Y-80609580D02*
X147134047Y-80657200D01*
X147134047Y-80657200D02*
X147038809Y-80704819D01*
X147038809Y-80704819D02*
X146848333Y-80704819D01*
X146848333Y-80704819D02*
X146753095Y-80657200D01*
X146753095Y-80657200D02*
X146705476Y-80609580D01*
X146705476Y-80609580D02*
X146657857Y-80514342D01*
X146657857Y-80514342D02*
X146657857Y-79704819D01*
X145657857Y-80704819D02*
X146229285Y-80704819D01*
X145943571Y-80704819D02*
X145943571Y-79704819D01*
X145943571Y-79704819D02*
X146038809Y-79847676D01*
X146038809Y-79847676D02*
X146134047Y-79942914D01*
X146134047Y-79942914D02*
X146229285Y-79990533D01*
X145038809Y-79704819D02*
X144943571Y-79704819D01*
X144943571Y-79704819D02*
X144848333Y-79752438D01*
X144848333Y-79752438D02*
X144800714Y-79800057D01*
X144800714Y-79800057D02*
X144753095Y-79895295D01*
X144753095Y-79895295D02*
X144705476Y-80085771D01*
X144705476Y-80085771D02*
X144705476Y-80323866D01*
X144705476Y-80323866D02*
X144753095Y-80514342D01*
X144753095Y-80514342D02*
X144800714Y-80609580D01*
X144800714Y-80609580D02*
X144848333Y-80657200D01*
X144848333Y-80657200D02*
X144943571Y-80704819D01*
X144943571Y-80704819D02*
X145038809Y-80704819D01*
X145038809Y-80704819D02*
X145134047Y-80657200D01*
X145134047Y-80657200D02*
X145181666Y-80609580D01*
X145181666Y-80609580D02*
X145229285Y-80514342D01*
X145229285Y-80514342D02*
X145276904Y-80323866D01*
X145276904Y-80323866D02*
X145276904Y-80085771D01*
X145276904Y-80085771D02*
X145229285Y-79895295D01*
X145229285Y-79895295D02*
X145181666Y-79800057D01*
X145181666Y-79800057D02*
X145134047Y-79752438D01*
X145134047Y-79752438D02*
X145038809Y-79704819D01*
X144324523Y-79800057D02*
X144276904Y-79752438D01*
X144276904Y-79752438D02*
X144181666Y-79704819D01*
X144181666Y-79704819D02*
X143943571Y-79704819D01*
X143943571Y-79704819D02*
X143848333Y-79752438D01*
X143848333Y-79752438D02*
X143800714Y-79800057D01*
X143800714Y-79800057D02*
X143753095Y-79895295D01*
X143753095Y-79895295D02*
X143753095Y-79990533D01*
X143753095Y-79990533D02*
X143800714Y-80133390D01*
X143800714Y-80133390D02*
X144372142Y-80704819D01*
X144372142Y-80704819D02*
X143753095Y-80704819D01*
%TO.C,U106*%
X175441904Y-90633866D02*
X175394285Y-90586247D01*
X175394285Y-90586247D02*
X175299047Y-90538628D01*
X175299047Y-90538628D02*
X175108571Y-90633866D01*
X175108571Y-90633866D02*
X175013333Y-90586247D01*
X175013333Y-90586247D02*
X174965714Y-90538628D01*
D11*
X177626115Y-83121466D02*
X176864211Y-83121466D01*
X177245163Y-83502419D02*
X177245163Y-82740514D01*
D10*
X177044285Y-88204819D02*
X177044285Y-89014342D01*
X177044285Y-89014342D02*
X176996666Y-89109580D01*
X176996666Y-89109580D02*
X176949047Y-89157200D01*
X176949047Y-89157200D02*
X176853809Y-89204819D01*
X176853809Y-89204819D02*
X176663333Y-89204819D01*
X176663333Y-89204819D02*
X176568095Y-89157200D01*
X176568095Y-89157200D02*
X176520476Y-89109580D01*
X176520476Y-89109580D02*
X176472857Y-89014342D01*
X176472857Y-89014342D02*
X176472857Y-88204819D01*
X175472857Y-89204819D02*
X176044285Y-89204819D01*
X175758571Y-89204819D02*
X175758571Y-88204819D01*
X175758571Y-88204819D02*
X175853809Y-88347676D01*
X175853809Y-88347676D02*
X175949047Y-88442914D01*
X175949047Y-88442914D02*
X176044285Y-88490533D01*
X174853809Y-88204819D02*
X174758571Y-88204819D01*
X174758571Y-88204819D02*
X174663333Y-88252438D01*
X174663333Y-88252438D02*
X174615714Y-88300057D01*
X174615714Y-88300057D02*
X174568095Y-88395295D01*
X174568095Y-88395295D02*
X174520476Y-88585771D01*
X174520476Y-88585771D02*
X174520476Y-88823866D01*
X174520476Y-88823866D02*
X174568095Y-89014342D01*
X174568095Y-89014342D02*
X174615714Y-89109580D01*
X174615714Y-89109580D02*
X174663333Y-89157200D01*
X174663333Y-89157200D02*
X174758571Y-89204819D01*
X174758571Y-89204819D02*
X174853809Y-89204819D01*
X174853809Y-89204819D02*
X174949047Y-89157200D01*
X174949047Y-89157200D02*
X174996666Y-89109580D01*
X174996666Y-89109580D02*
X175044285Y-89014342D01*
X175044285Y-89014342D02*
X175091904Y-88823866D01*
X175091904Y-88823866D02*
X175091904Y-88585771D01*
X175091904Y-88585771D02*
X175044285Y-88395295D01*
X175044285Y-88395295D02*
X174996666Y-88300057D01*
X174996666Y-88300057D02*
X174949047Y-88252438D01*
X174949047Y-88252438D02*
X174853809Y-88204819D01*
X173663333Y-88204819D02*
X173853809Y-88204819D01*
X173853809Y-88204819D02*
X173949047Y-88252438D01*
X173949047Y-88252438D02*
X173996666Y-88300057D01*
X173996666Y-88300057D02*
X174091904Y-88442914D01*
X174091904Y-88442914D02*
X174139523Y-88633390D01*
X174139523Y-88633390D02*
X174139523Y-89014342D01*
X174139523Y-89014342D02*
X174091904Y-89109580D01*
X174091904Y-89109580D02*
X174044285Y-89157200D01*
X174044285Y-89157200D02*
X173949047Y-89204819D01*
X173949047Y-89204819D02*
X173758571Y-89204819D01*
X173758571Y-89204819D02*
X173663333Y-89157200D01*
X173663333Y-89157200D02*
X173615714Y-89109580D01*
X173615714Y-89109580D02*
X173568095Y-89014342D01*
X173568095Y-89014342D02*
X173568095Y-88776247D01*
X173568095Y-88776247D02*
X173615714Y-88681009D01*
X173615714Y-88681009D02*
X173663333Y-88633390D01*
X173663333Y-88633390D02*
X173758571Y-88585771D01*
X173758571Y-88585771D02*
X173949047Y-88585771D01*
X173949047Y-88585771D02*
X174044285Y-88633390D01*
X174044285Y-88633390D02*
X174091904Y-88681009D01*
X174091904Y-88681009D02*
X174139523Y-88776247D01*
D11*
X174326115Y-87301466D02*
X173564211Y-87301466D01*
D10*
%TO.C,U124*%
X171140404Y-107633866D02*
X171092785Y-107586247D01*
X171092785Y-107586247D02*
X170997547Y-107538628D01*
X170997547Y-107538628D02*
X170807071Y-107633866D01*
X170807071Y-107633866D02*
X170711833Y-107586247D01*
X170711833Y-107586247D02*
X170664214Y-107538628D01*
D11*
X170024615Y-104301466D02*
X169262711Y-104301466D01*
D10*
X172742785Y-105204819D02*
X172742785Y-106014342D01*
X172742785Y-106014342D02*
X172695166Y-106109580D01*
X172695166Y-106109580D02*
X172647547Y-106157200D01*
X172647547Y-106157200D02*
X172552309Y-106204819D01*
X172552309Y-106204819D02*
X172361833Y-106204819D01*
X172361833Y-106204819D02*
X172266595Y-106157200D01*
X172266595Y-106157200D02*
X172218976Y-106109580D01*
X172218976Y-106109580D02*
X172171357Y-106014342D01*
X172171357Y-106014342D02*
X172171357Y-105204819D01*
X171171357Y-106204819D02*
X171742785Y-106204819D01*
X171457071Y-106204819D02*
X171457071Y-105204819D01*
X171457071Y-105204819D02*
X171552309Y-105347676D01*
X171552309Y-105347676D02*
X171647547Y-105442914D01*
X171647547Y-105442914D02*
X171742785Y-105490533D01*
X170790404Y-105300057D02*
X170742785Y-105252438D01*
X170742785Y-105252438D02*
X170647547Y-105204819D01*
X170647547Y-105204819D02*
X170409452Y-105204819D01*
X170409452Y-105204819D02*
X170314214Y-105252438D01*
X170314214Y-105252438D02*
X170266595Y-105300057D01*
X170266595Y-105300057D02*
X170218976Y-105395295D01*
X170218976Y-105395295D02*
X170218976Y-105490533D01*
X170218976Y-105490533D02*
X170266595Y-105633390D01*
X170266595Y-105633390D02*
X170838023Y-106204819D01*
X170838023Y-106204819D02*
X170218976Y-106204819D01*
X169361833Y-105538152D02*
X169361833Y-106204819D01*
X169599928Y-105157200D02*
X169838023Y-105871485D01*
X169838023Y-105871485D02*
X169218976Y-105871485D01*
D11*
X173324615Y-100121466D02*
X172562711Y-100121466D01*
X172943663Y-100502419D02*
X172943663Y-99740514D01*
D10*
%TO.C,U133*%
X141441904Y-124633866D02*
X141394285Y-124586247D01*
X141394285Y-124586247D02*
X141299047Y-124538628D01*
X141299047Y-124538628D02*
X141108571Y-124633866D01*
X141108571Y-124633866D02*
X141013333Y-124586247D01*
X141013333Y-124586247D02*
X140965714Y-124538628D01*
X143044285Y-122204819D02*
X143044285Y-123014342D01*
X143044285Y-123014342D02*
X142996666Y-123109580D01*
X142996666Y-123109580D02*
X142949047Y-123157200D01*
X142949047Y-123157200D02*
X142853809Y-123204819D01*
X142853809Y-123204819D02*
X142663333Y-123204819D01*
X142663333Y-123204819D02*
X142568095Y-123157200D01*
X142568095Y-123157200D02*
X142520476Y-123109580D01*
X142520476Y-123109580D02*
X142472857Y-123014342D01*
X142472857Y-123014342D02*
X142472857Y-122204819D01*
X141472857Y-123204819D02*
X142044285Y-123204819D01*
X141758571Y-123204819D02*
X141758571Y-122204819D01*
X141758571Y-122204819D02*
X141853809Y-122347676D01*
X141853809Y-122347676D02*
X141949047Y-122442914D01*
X141949047Y-122442914D02*
X142044285Y-122490533D01*
X141139523Y-122204819D02*
X140520476Y-122204819D01*
X140520476Y-122204819D02*
X140853809Y-122585771D01*
X140853809Y-122585771D02*
X140710952Y-122585771D01*
X140710952Y-122585771D02*
X140615714Y-122633390D01*
X140615714Y-122633390D02*
X140568095Y-122681009D01*
X140568095Y-122681009D02*
X140520476Y-122776247D01*
X140520476Y-122776247D02*
X140520476Y-123014342D01*
X140520476Y-123014342D02*
X140568095Y-123109580D01*
X140568095Y-123109580D02*
X140615714Y-123157200D01*
X140615714Y-123157200D02*
X140710952Y-123204819D01*
X140710952Y-123204819D02*
X140996666Y-123204819D01*
X140996666Y-123204819D02*
X141091904Y-123157200D01*
X141091904Y-123157200D02*
X141139523Y-123109580D01*
X140187142Y-122204819D02*
X139568095Y-122204819D01*
X139568095Y-122204819D02*
X139901428Y-122585771D01*
X139901428Y-122585771D02*
X139758571Y-122585771D01*
X139758571Y-122585771D02*
X139663333Y-122633390D01*
X139663333Y-122633390D02*
X139615714Y-122681009D01*
X139615714Y-122681009D02*
X139568095Y-122776247D01*
X139568095Y-122776247D02*
X139568095Y-123014342D01*
X139568095Y-123014342D02*
X139615714Y-123109580D01*
X139615714Y-123109580D02*
X139663333Y-123157200D01*
X139663333Y-123157200D02*
X139758571Y-123204819D01*
X139758571Y-123204819D02*
X140044285Y-123204819D01*
X140044285Y-123204819D02*
X140139523Y-123157200D01*
X140139523Y-123157200D02*
X140187142Y-123109580D01*
D11*
X140326115Y-121301466D02*
X139564211Y-121301466D01*
X143626115Y-117121466D02*
X142864211Y-117121466D01*
X143245163Y-117502419D02*
X143245163Y-116740514D01*
D10*
%TO.C,U123*%
X175441904Y-99133866D02*
X175394285Y-99086247D01*
X175394285Y-99086247D02*
X175299047Y-99038628D01*
X175299047Y-99038628D02*
X175108571Y-99133866D01*
X175108571Y-99133866D02*
X175013333Y-99086247D01*
X175013333Y-99086247D02*
X174965714Y-99038628D01*
D11*
X177626115Y-91621466D02*
X176864211Y-91621466D01*
X177245163Y-92002419D02*
X177245163Y-91240514D01*
X174326115Y-95801466D02*
X173564211Y-95801466D01*
D10*
X177044285Y-96704819D02*
X177044285Y-97514342D01*
X177044285Y-97514342D02*
X176996666Y-97609580D01*
X176996666Y-97609580D02*
X176949047Y-97657200D01*
X176949047Y-97657200D02*
X176853809Y-97704819D01*
X176853809Y-97704819D02*
X176663333Y-97704819D01*
X176663333Y-97704819D02*
X176568095Y-97657200D01*
X176568095Y-97657200D02*
X176520476Y-97609580D01*
X176520476Y-97609580D02*
X176472857Y-97514342D01*
X176472857Y-97514342D02*
X176472857Y-96704819D01*
X175472857Y-97704819D02*
X176044285Y-97704819D01*
X175758571Y-97704819D02*
X175758571Y-96704819D01*
X175758571Y-96704819D02*
X175853809Y-96847676D01*
X175853809Y-96847676D02*
X175949047Y-96942914D01*
X175949047Y-96942914D02*
X176044285Y-96990533D01*
X175091904Y-96800057D02*
X175044285Y-96752438D01*
X175044285Y-96752438D02*
X174949047Y-96704819D01*
X174949047Y-96704819D02*
X174710952Y-96704819D01*
X174710952Y-96704819D02*
X174615714Y-96752438D01*
X174615714Y-96752438D02*
X174568095Y-96800057D01*
X174568095Y-96800057D02*
X174520476Y-96895295D01*
X174520476Y-96895295D02*
X174520476Y-96990533D01*
X174520476Y-96990533D02*
X174568095Y-97133390D01*
X174568095Y-97133390D02*
X175139523Y-97704819D01*
X175139523Y-97704819D02*
X174520476Y-97704819D01*
X174187142Y-96704819D02*
X173568095Y-96704819D01*
X173568095Y-96704819D02*
X173901428Y-97085771D01*
X173901428Y-97085771D02*
X173758571Y-97085771D01*
X173758571Y-97085771D02*
X173663333Y-97133390D01*
X173663333Y-97133390D02*
X173615714Y-97181009D01*
X173615714Y-97181009D02*
X173568095Y-97276247D01*
X173568095Y-97276247D02*
X173568095Y-97514342D01*
X173568095Y-97514342D02*
X173615714Y-97609580D01*
X173615714Y-97609580D02*
X173663333Y-97657200D01*
X173663333Y-97657200D02*
X173758571Y-97704819D01*
X173758571Y-97704819D02*
X174044285Y-97704819D01*
X174044285Y-97704819D02*
X174139523Y-97657200D01*
X174139523Y-97657200D02*
X174187142Y-97609580D01*
%TO.C,U128*%
X154140404Y-116133866D02*
X154092785Y-116086247D01*
X154092785Y-116086247D02*
X153997547Y-116038628D01*
X153997547Y-116038628D02*
X153807071Y-116133866D01*
X153807071Y-116133866D02*
X153711833Y-116086247D01*
X153711833Y-116086247D02*
X153664214Y-116038628D01*
D11*
X153024615Y-112801466D02*
X152262711Y-112801466D01*
X156324615Y-108621466D02*
X155562711Y-108621466D01*
X155943663Y-109002419D02*
X155943663Y-108240514D01*
D10*
X155742785Y-113704819D02*
X155742785Y-114514342D01*
X155742785Y-114514342D02*
X155695166Y-114609580D01*
X155695166Y-114609580D02*
X155647547Y-114657200D01*
X155647547Y-114657200D02*
X155552309Y-114704819D01*
X155552309Y-114704819D02*
X155361833Y-114704819D01*
X155361833Y-114704819D02*
X155266595Y-114657200D01*
X155266595Y-114657200D02*
X155218976Y-114609580D01*
X155218976Y-114609580D02*
X155171357Y-114514342D01*
X155171357Y-114514342D02*
X155171357Y-113704819D01*
X154171357Y-114704819D02*
X154742785Y-114704819D01*
X154457071Y-114704819D02*
X154457071Y-113704819D01*
X154457071Y-113704819D02*
X154552309Y-113847676D01*
X154552309Y-113847676D02*
X154647547Y-113942914D01*
X154647547Y-113942914D02*
X154742785Y-113990533D01*
X153790404Y-113800057D02*
X153742785Y-113752438D01*
X153742785Y-113752438D02*
X153647547Y-113704819D01*
X153647547Y-113704819D02*
X153409452Y-113704819D01*
X153409452Y-113704819D02*
X153314214Y-113752438D01*
X153314214Y-113752438D02*
X153266595Y-113800057D01*
X153266595Y-113800057D02*
X153218976Y-113895295D01*
X153218976Y-113895295D02*
X153218976Y-113990533D01*
X153218976Y-113990533D02*
X153266595Y-114133390D01*
X153266595Y-114133390D02*
X153838023Y-114704819D01*
X153838023Y-114704819D02*
X153218976Y-114704819D01*
X152647547Y-114133390D02*
X152742785Y-114085771D01*
X152742785Y-114085771D02*
X152790404Y-114038152D01*
X152790404Y-114038152D02*
X152838023Y-113942914D01*
X152838023Y-113942914D02*
X152838023Y-113895295D01*
X152838023Y-113895295D02*
X152790404Y-113800057D01*
X152790404Y-113800057D02*
X152742785Y-113752438D01*
X152742785Y-113752438D02*
X152647547Y-113704819D01*
X152647547Y-113704819D02*
X152457071Y-113704819D01*
X152457071Y-113704819D02*
X152361833Y-113752438D01*
X152361833Y-113752438D02*
X152314214Y-113800057D01*
X152314214Y-113800057D02*
X152266595Y-113895295D01*
X152266595Y-113895295D02*
X152266595Y-113942914D01*
X152266595Y-113942914D02*
X152314214Y-114038152D01*
X152314214Y-114038152D02*
X152361833Y-114085771D01*
X152361833Y-114085771D02*
X152457071Y-114133390D01*
X152457071Y-114133390D02*
X152647547Y-114133390D01*
X152647547Y-114133390D02*
X152742785Y-114181009D01*
X152742785Y-114181009D02*
X152790404Y-114228628D01*
X152790404Y-114228628D02*
X152838023Y-114323866D01*
X152838023Y-114323866D02*
X152838023Y-114514342D01*
X152838023Y-114514342D02*
X152790404Y-114609580D01*
X152790404Y-114609580D02*
X152742785Y-114657200D01*
X152742785Y-114657200D02*
X152647547Y-114704819D01*
X152647547Y-114704819D02*
X152457071Y-114704819D01*
X152457071Y-114704819D02*
X152361833Y-114657200D01*
X152361833Y-114657200D02*
X152314214Y-114609580D01*
X152314214Y-114609580D02*
X152266595Y-114514342D01*
X152266595Y-114514342D02*
X152266595Y-114323866D01*
X152266595Y-114323866D02*
X152314214Y-114228628D01*
X152314214Y-114228628D02*
X152361833Y-114181009D01*
X152361833Y-114181009D02*
X152457071Y-114133390D01*
%TO.C,U118*%
X162640404Y-107633866D02*
X162592785Y-107586247D01*
X162592785Y-107586247D02*
X162497547Y-107538628D01*
X162497547Y-107538628D02*
X162307071Y-107633866D01*
X162307071Y-107633866D02*
X162211833Y-107586247D01*
X162211833Y-107586247D02*
X162164214Y-107538628D01*
X164242785Y-105204819D02*
X164242785Y-106014342D01*
X164242785Y-106014342D02*
X164195166Y-106109580D01*
X164195166Y-106109580D02*
X164147547Y-106157200D01*
X164147547Y-106157200D02*
X164052309Y-106204819D01*
X164052309Y-106204819D02*
X163861833Y-106204819D01*
X163861833Y-106204819D02*
X163766595Y-106157200D01*
X163766595Y-106157200D02*
X163718976Y-106109580D01*
X163718976Y-106109580D02*
X163671357Y-106014342D01*
X163671357Y-106014342D02*
X163671357Y-105204819D01*
X162671357Y-106204819D02*
X163242785Y-106204819D01*
X162957071Y-106204819D02*
X162957071Y-105204819D01*
X162957071Y-105204819D02*
X163052309Y-105347676D01*
X163052309Y-105347676D02*
X163147547Y-105442914D01*
X163147547Y-105442914D02*
X163242785Y-105490533D01*
X161718976Y-106204819D02*
X162290404Y-106204819D01*
X162004690Y-106204819D02*
X162004690Y-105204819D01*
X162004690Y-105204819D02*
X162099928Y-105347676D01*
X162099928Y-105347676D02*
X162195166Y-105442914D01*
X162195166Y-105442914D02*
X162290404Y-105490533D01*
X161147547Y-105633390D02*
X161242785Y-105585771D01*
X161242785Y-105585771D02*
X161290404Y-105538152D01*
X161290404Y-105538152D02*
X161338023Y-105442914D01*
X161338023Y-105442914D02*
X161338023Y-105395295D01*
X161338023Y-105395295D02*
X161290404Y-105300057D01*
X161290404Y-105300057D02*
X161242785Y-105252438D01*
X161242785Y-105252438D02*
X161147547Y-105204819D01*
X161147547Y-105204819D02*
X160957071Y-105204819D01*
X160957071Y-105204819D02*
X160861833Y-105252438D01*
X160861833Y-105252438D02*
X160814214Y-105300057D01*
X160814214Y-105300057D02*
X160766595Y-105395295D01*
X160766595Y-105395295D02*
X160766595Y-105442914D01*
X160766595Y-105442914D02*
X160814214Y-105538152D01*
X160814214Y-105538152D02*
X160861833Y-105585771D01*
X160861833Y-105585771D02*
X160957071Y-105633390D01*
X160957071Y-105633390D02*
X161147547Y-105633390D01*
X161147547Y-105633390D02*
X161242785Y-105681009D01*
X161242785Y-105681009D02*
X161290404Y-105728628D01*
X161290404Y-105728628D02*
X161338023Y-105823866D01*
X161338023Y-105823866D02*
X161338023Y-106014342D01*
X161338023Y-106014342D02*
X161290404Y-106109580D01*
X161290404Y-106109580D02*
X161242785Y-106157200D01*
X161242785Y-106157200D02*
X161147547Y-106204819D01*
X161147547Y-106204819D02*
X160957071Y-106204819D01*
X160957071Y-106204819D02*
X160861833Y-106157200D01*
X160861833Y-106157200D02*
X160814214Y-106109580D01*
X160814214Y-106109580D02*
X160766595Y-106014342D01*
X160766595Y-106014342D02*
X160766595Y-105823866D01*
X160766595Y-105823866D02*
X160814214Y-105728628D01*
X160814214Y-105728628D02*
X160861833Y-105681009D01*
X160861833Y-105681009D02*
X160957071Y-105633390D01*
D11*
X161524615Y-104301466D02*
X160762711Y-104301466D01*
X164824615Y-100121466D02*
X164062711Y-100121466D01*
X164443663Y-100502419D02*
X164443663Y-99740514D01*
D10*
%TO.C,U121*%
X137140404Y-107633866D02*
X137092785Y-107586247D01*
X137092785Y-107586247D02*
X136997547Y-107538628D01*
X136997547Y-107538628D02*
X136807071Y-107633866D01*
X136807071Y-107633866D02*
X136711833Y-107586247D01*
X136711833Y-107586247D02*
X136664214Y-107538628D01*
D11*
X139324615Y-100121466D02*
X138562711Y-100121466D01*
X138943663Y-100502419D02*
X138943663Y-99740514D01*
X136024615Y-104301466D02*
X135262711Y-104301466D01*
D10*
X138742785Y-105204819D02*
X138742785Y-106014342D01*
X138742785Y-106014342D02*
X138695166Y-106109580D01*
X138695166Y-106109580D02*
X138647547Y-106157200D01*
X138647547Y-106157200D02*
X138552309Y-106204819D01*
X138552309Y-106204819D02*
X138361833Y-106204819D01*
X138361833Y-106204819D02*
X138266595Y-106157200D01*
X138266595Y-106157200D02*
X138218976Y-106109580D01*
X138218976Y-106109580D02*
X138171357Y-106014342D01*
X138171357Y-106014342D02*
X138171357Y-105204819D01*
X137171357Y-106204819D02*
X137742785Y-106204819D01*
X137457071Y-106204819D02*
X137457071Y-105204819D01*
X137457071Y-105204819D02*
X137552309Y-105347676D01*
X137552309Y-105347676D02*
X137647547Y-105442914D01*
X137647547Y-105442914D02*
X137742785Y-105490533D01*
X136790404Y-105300057D02*
X136742785Y-105252438D01*
X136742785Y-105252438D02*
X136647547Y-105204819D01*
X136647547Y-105204819D02*
X136409452Y-105204819D01*
X136409452Y-105204819D02*
X136314214Y-105252438D01*
X136314214Y-105252438D02*
X136266595Y-105300057D01*
X136266595Y-105300057D02*
X136218976Y-105395295D01*
X136218976Y-105395295D02*
X136218976Y-105490533D01*
X136218976Y-105490533D02*
X136266595Y-105633390D01*
X136266595Y-105633390D02*
X136838023Y-106204819D01*
X136838023Y-106204819D02*
X136218976Y-106204819D01*
X135266595Y-106204819D02*
X135838023Y-106204819D01*
X135552309Y-106204819D02*
X135552309Y-105204819D01*
X135552309Y-105204819D02*
X135647547Y-105347676D01*
X135647547Y-105347676D02*
X135742785Y-105442914D01*
X135742785Y-105442914D02*
X135838023Y-105490533D01*
%TO.C,U100*%
X149961904Y-73633866D02*
X149914285Y-73586247D01*
X149914285Y-73586247D02*
X149819047Y-73538628D01*
X149819047Y-73538628D02*
X149628571Y-73633866D01*
X149628571Y-73633866D02*
X149533333Y-73586247D01*
X149533333Y-73586247D02*
X149485714Y-73538628D01*
D11*
X152146115Y-66121466D02*
X151384211Y-66121466D01*
X151765163Y-66502419D02*
X151765163Y-65740514D01*
D10*
X151564285Y-71204819D02*
X151564285Y-72014342D01*
X151564285Y-72014342D02*
X151516666Y-72109580D01*
X151516666Y-72109580D02*
X151469047Y-72157200D01*
X151469047Y-72157200D02*
X151373809Y-72204819D01*
X151373809Y-72204819D02*
X151183333Y-72204819D01*
X151183333Y-72204819D02*
X151088095Y-72157200D01*
X151088095Y-72157200D02*
X151040476Y-72109580D01*
X151040476Y-72109580D02*
X150992857Y-72014342D01*
X150992857Y-72014342D02*
X150992857Y-71204819D01*
X149992857Y-72204819D02*
X150564285Y-72204819D01*
X150278571Y-72204819D02*
X150278571Y-71204819D01*
X150278571Y-71204819D02*
X150373809Y-71347676D01*
X150373809Y-71347676D02*
X150469047Y-71442914D01*
X150469047Y-71442914D02*
X150564285Y-71490533D01*
X149373809Y-71204819D02*
X149278571Y-71204819D01*
X149278571Y-71204819D02*
X149183333Y-71252438D01*
X149183333Y-71252438D02*
X149135714Y-71300057D01*
X149135714Y-71300057D02*
X149088095Y-71395295D01*
X149088095Y-71395295D02*
X149040476Y-71585771D01*
X149040476Y-71585771D02*
X149040476Y-71823866D01*
X149040476Y-71823866D02*
X149088095Y-72014342D01*
X149088095Y-72014342D02*
X149135714Y-72109580D01*
X149135714Y-72109580D02*
X149183333Y-72157200D01*
X149183333Y-72157200D02*
X149278571Y-72204819D01*
X149278571Y-72204819D02*
X149373809Y-72204819D01*
X149373809Y-72204819D02*
X149469047Y-72157200D01*
X149469047Y-72157200D02*
X149516666Y-72109580D01*
X149516666Y-72109580D02*
X149564285Y-72014342D01*
X149564285Y-72014342D02*
X149611904Y-71823866D01*
X149611904Y-71823866D02*
X149611904Y-71585771D01*
X149611904Y-71585771D02*
X149564285Y-71395295D01*
X149564285Y-71395295D02*
X149516666Y-71300057D01*
X149516666Y-71300057D02*
X149469047Y-71252438D01*
X149469047Y-71252438D02*
X149373809Y-71204819D01*
X148421428Y-71204819D02*
X148326190Y-71204819D01*
X148326190Y-71204819D02*
X148230952Y-71252438D01*
X148230952Y-71252438D02*
X148183333Y-71300057D01*
X148183333Y-71300057D02*
X148135714Y-71395295D01*
X148135714Y-71395295D02*
X148088095Y-71585771D01*
X148088095Y-71585771D02*
X148088095Y-71823866D01*
X148088095Y-71823866D02*
X148135714Y-72014342D01*
X148135714Y-72014342D02*
X148183333Y-72109580D01*
X148183333Y-72109580D02*
X148230952Y-72157200D01*
X148230952Y-72157200D02*
X148326190Y-72204819D01*
X148326190Y-72204819D02*
X148421428Y-72204819D01*
X148421428Y-72204819D02*
X148516666Y-72157200D01*
X148516666Y-72157200D02*
X148564285Y-72109580D01*
X148564285Y-72109580D02*
X148611904Y-72014342D01*
X148611904Y-72014342D02*
X148659523Y-71823866D01*
X148659523Y-71823866D02*
X148659523Y-71585771D01*
X148659523Y-71585771D02*
X148611904Y-71395295D01*
X148611904Y-71395295D02*
X148564285Y-71300057D01*
X148564285Y-71300057D02*
X148516666Y-71252438D01*
X148516666Y-71252438D02*
X148421428Y-71204819D01*
D11*
X148846115Y-70301466D02*
X148084211Y-70301466D01*
D10*
%TO.C,U115*%
X149941904Y-99133866D02*
X149894285Y-99086247D01*
X149894285Y-99086247D02*
X149799047Y-99038628D01*
X149799047Y-99038628D02*
X149608571Y-99133866D01*
X149608571Y-99133866D02*
X149513333Y-99086247D01*
X149513333Y-99086247D02*
X149465714Y-99038628D01*
D11*
X152126115Y-91621466D02*
X151364211Y-91621466D01*
X151745163Y-92002419D02*
X151745163Y-91240514D01*
X148826115Y-95801466D02*
X148064211Y-95801466D01*
D10*
X151544285Y-96704819D02*
X151544285Y-97514342D01*
X151544285Y-97514342D02*
X151496666Y-97609580D01*
X151496666Y-97609580D02*
X151449047Y-97657200D01*
X151449047Y-97657200D02*
X151353809Y-97704819D01*
X151353809Y-97704819D02*
X151163333Y-97704819D01*
X151163333Y-97704819D02*
X151068095Y-97657200D01*
X151068095Y-97657200D02*
X151020476Y-97609580D01*
X151020476Y-97609580D02*
X150972857Y-97514342D01*
X150972857Y-97514342D02*
X150972857Y-96704819D01*
X149972857Y-97704819D02*
X150544285Y-97704819D01*
X150258571Y-97704819D02*
X150258571Y-96704819D01*
X150258571Y-96704819D02*
X150353809Y-96847676D01*
X150353809Y-96847676D02*
X150449047Y-96942914D01*
X150449047Y-96942914D02*
X150544285Y-96990533D01*
X149020476Y-97704819D02*
X149591904Y-97704819D01*
X149306190Y-97704819D02*
X149306190Y-96704819D01*
X149306190Y-96704819D02*
X149401428Y-96847676D01*
X149401428Y-96847676D02*
X149496666Y-96942914D01*
X149496666Y-96942914D02*
X149591904Y-96990533D01*
X148115714Y-96704819D02*
X148591904Y-96704819D01*
X148591904Y-96704819D02*
X148639523Y-97181009D01*
X148639523Y-97181009D02*
X148591904Y-97133390D01*
X148591904Y-97133390D02*
X148496666Y-97085771D01*
X148496666Y-97085771D02*
X148258571Y-97085771D01*
X148258571Y-97085771D02*
X148163333Y-97133390D01*
X148163333Y-97133390D02*
X148115714Y-97181009D01*
X148115714Y-97181009D02*
X148068095Y-97276247D01*
X148068095Y-97276247D02*
X148068095Y-97514342D01*
X148068095Y-97514342D02*
X148115714Y-97609580D01*
X148115714Y-97609580D02*
X148163333Y-97657200D01*
X148163333Y-97657200D02*
X148258571Y-97704819D01*
X148258571Y-97704819D02*
X148496666Y-97704819D01*
X148496666Y-97704819D02*
X148591904Y-97657200D01*
X148591904Y-97657200D02*
X148639523Y-97609580D01*
%TO.C,U114*%
X141441904Y-99133866D02*
X141394285Y-99086247D01*
X141394285Y-99086247D02*
X141299047Y-99038628D01*
X141299047Y-99038628D02*
X141108571Y-99133866D01*
X141108571Y-99133866D02*
X141013333Y-99086247D01*
X141013333Y-99086247D02*
X140965714Y-99038628D01*
D11*
X143626115Y-91621466D02*
X142864211Y-91621466D01*
X143245163Y-92002419D02*
X143245163Y-91240514D01*
D10*
X143044285Y-96704819D02*
X143044285Y-97514342D01*
X143044285Y-97514342D02*
X142996666Y-97609580D01*
X142996666Y-97609580D02*
X142949047Y-97657200D01*
X142949047Y-97657200D02*
X142853809Y-97704819D01*
X142853809Y-97704819D02*
X142663333Y-97704819D01*
X142663333Y-97704819D02*
X142568095Y-97657200D01*
X142568095Y-97657200D02*
X142520476Y-97609580D01*
X142520476Y-97609580D02*
X142472857Y-97514342D01*
X142472857Y-97514342D02*
X142472857Y-96704819D01*
X141472857Y-97704819D02*
X142044285Y-97704819D01*
X141758571Y-97704819D02*
X141758571Y-96704819D01*
X141758571Y-96704819D02*
X141853809Y-96847676D01*
X141853809Y-96847676D02*
X141949047Y-96942914D01*
X141949047Y-96942914D02*
X142044285Y-96990533D01*
X140520476Y-97704819D02*
X141091904Y-97704819D01*
X140806190Y-97704819D02*
X140806190Y-96704819D01*
X140806190Y-96704819D02*
X140901428Y-96847676D01*
X140901428Y-96847676D02*
X140996666Y-96942914D01*
X140996666Y-96942914D02*
X141091904Y-96990533D01*
X139663333Y-97038152D02*
X139663333Y-97704819D01*
X139901428Y-96657200D02*
X140139523Y-97371485D01*
X140139523Y-97371485D02*
X139520476Y-97371485D01*
D11*
X140326115Y-95801466D02*
X139564211Y-95801466D01*
D10*
%TO.C,U126*%
X137140404Y-116133866D02*
X137092785Y-116086247D01*
X137092785Y-116086247D02*
X136997547Y-116038628D01*
X136997547Y-116038628D02*
X136807071Y-116133866D01*
X136807071Y-116133866D02*
X136711833Y-116086247D01*
X136711833Y-116086247D02*
X136664214Y-116038628D01*
D11*
X136024615Y-112801466D02*
X135262711Y-112801466D01*
X139324615Y-108621466D02*
X138562711Y-108621466D01*
X138943663Y-109002419D02*
X138943663Y-108240514D01*
D10*
X138742785Y-113704819D02*
X138742785Y-114514342D01*
X138742785Y-114514342D02*
X138695166Y-114609580D01*
X138695166Y-114609580D02*
X138647547Y-114657200D01*
X138647547Y-114657200D02*
X138552309Y-114704819D01*
X138552309Y-114704819D02*
X138361833Y-114704819D01*
X138361833Y-114704819D02*
X138266595Y-114657200D01*
X138266595Y-114657200D02*
X138218976Y-114609580D01*
X138218976Y-114609580D02*
X138171357Y-114514342D01*
X138171357Y-114514342D02*
X138171357Y-113704819D01*
X137171357Y-114704819D02*
X137742785Y-114704819D01*
X137457071Y-114704819D02*
X137457071Y-113704819D01*
X137457071Y-113704819D02*
X137552309Y-113847676D01*
X137552309Y-113847676D02*
X137647547Y-113942914D01*
X137647547Y-113942914D02*
X137742785Y-113990533D01*
X136790404Y-113800057D02*
X136742785Y-113752438D01*
X136742785Y-113752438D02*
X136647547Y-113704819D01*
X136647547Y-113704819D02*
X136409452Y-113704819D01*
X136409452Y-113704819D02*
X136314214Y-113752438D01*
X136314214Y-113752438D02*
X136266595Y-113800057D01*
X136266595Y-113800057D02*
X136218976Y-113895295D01*
X136218976Y-113895295D02*
X136218976Y-113990533D01*
X136218976Y-113990533D02*
X136266595Y-114133390D01*
X136266595Y-114133390D02*
X136838023Y-114704819D01*
X136838023Y-114704819D02*
X136218976Y-114704819D01*
X135361833Y-113704819D02*
X135552309Y-113704819D01*
X135552309Y-113704819D02*
X135647547Y-113752438D01*
X135647547Y-113752438D02*
X135695166Y-113800057D01*
X135695166Y-113800057D02*
X135790404Y-113942914D01*
X135790404Y-113942914D02*
X135838023Y-114133390D01*
X135838023Y-114133390D02*
X135838023Y-114514342D01*
X135838023Y-114514342D02*
X135790404Y-114609580D01*
X135790404Y-114609580D02*
X135742785Y-114657200D01*
X135742785Y-114657200D02*
X135647547Y-114704819D01*
X135647547Y-114704819D02*
X135457071Y-114704819D01*
X135457071Y-114704819D02*
X135361833Y-114657200D01*
X135361833Y-114657200D02*
X135314214Y-114609580D01*
X135314214Y-114609580D02*
X135266595Y-114514342D01*
X135266595Y-114514342D02*
X135266595Y-114276247D01*
X135266595Y-114276247D02*
X135314214Y-114181009D01*
X135314214Y-114181009D02*
X135361833Y-114133390D01*
X135361833Y-114133390D02*
X135457071Y-114085771D01*
X135457071Y-114085771D02*
X135647547Y-114085771D01*
X135647547Y-114085771D02*
X135742785Y-114133390D01*
X135742785Y-114133390D02*
X135790404Y-114181009D01*
X135790404Y-114181009D02*
X135838023Y-114276247D01*
%TO.C,U107*%
X166941904Y-90633866D02*
X166894285Y-90586247D01*
X166894285Y-90586247D02*
X166799047Y-90538628D01*
X166799047Y-90538628D02*
X166608571Y-90633866D01*
X166608571Y-90633866D02*
X166513333Y-90586247D01*
X166513333Y-90586247D02*
X166465714Y-90538628D01*
D11*
X165826115Y-87301466D02*
X165064211Y-87301466D01*
X169126115Y-83121466D02*
X168364211Y-83121466D01*
X168745163Y-83502419D02*
X168745163Y-82740514D01*
D10*
X168544285Y-88204819D02*
X168544285Y-89014342D01*
X168544285Y-89014342D02*
X168496666Y-89109580D01*
X168496666Y-89109580D02*
X168449047Y-89157200D01*
X168449047Y-89157200D02*
X168353809Y-89204819D01*
X168353809Y-89204819D02*
X168163333Y-89204819D01*
X168163333Y-89204819D02*
X168068095Y-89157200D01*
X168068095Y-89157200D02*
X168020476Y-89109580D01*
X168020476Y-89109580D02*
X167972857Y-89014342D01*
X167972857Y-89014342D02*
X167972857Y-88204819D01*
X166972857Y-89204819D02*
X167544285Y-89204819D01*
X167258571Y-89204819D02*
X167258571Y-88204819D01*
X167258571Y-88204819D02*
X167353809Y-88347676D01*
X167353809Y-88347676D02*
X167449047Y-88442914D01*
X167449047Y-88442914D02*
X167544285Y-88490533D01*
X166353809Y-88204819D02*
X166258571Y-88204819D01*
X166258571Y-88204819D02*
X166163333Y-88252438D01*
X166163333Y-88252438D02*
X166115714Y-88300057D01*
X166115714Y-88300057D02*
X166068095Y-88395295D01*
X166068095Y-88395295D02*
X166020476Y-88585771D01*
X166020476Y-88585771D02*
X166020476Y-88823866D01*
X166020476Y-88823866D02*
X166068095Y-89014342D01*
X166068095Y-89014342D02*
X166115714Y-89109580D01*
X166115714Y-89109580D02*
X166163333Y-89157200D01*
X166163333Y-89157200D02*
X166258571Y-89204819D01*
X166258571Y-89204819D02*
X166353809Y-89204819D01*
X166353809Y-89204819D02*
X166449047Y-89157200D01*
X166449047Y-89157200D02*
X166496666Y-89109580D01*
X166496666Y-89109580D02*
X166544285Y-89014342D01*
X166544285Y-89014342D02*
X166591904Y-88823866D01*
X166591904Y-88823866D02*
X166591904Y-88585771D01*
X166591904Y-88585771D02*
X166544285Y-88395295D01*
X166544285Y-88395295D02*
X166496666Y-88300057D01*
X166496666Y-88300057D02*
X166449047Y-88252438D01*
X166449047Y-88252438D02*
X166353809Y-88204819D01*
X165687142Y-88204819D02*
X165020476Y-88204819D01*
X165020476Y-88204819D02*
X165449047Y-89204819D01*
%TO.C,U131*%
D12*
X161890000Y-118380000D02*
G75*
G03*
X161890000Y-118380000I-150000J0D01*
G01*
%TO.C,U134*%
X136390000Y-118380000D02*
G75*
G03*
X136390000Y-118380000I-150000J0D01*
G01*
%TO.C,U116*%
X161890000Y-92880000D02*
G75*
G03*
X161890000Y-92880000I-150000J0D01*
G01*
%TO.C,U103*%
X157575000Y-75880000D02*
G75*
G03*
X157575000Y-75880000I-150000J0D01*
G01*
%TO.C,U129*%
X166088500Y-109880000D02*
G75*
G03*
X166088500Y-109880000I-150000J0D01*
G01*
%TO.C,U132*%
X153390000Y-118380000D02*
G75*
G03*
X153390000Y-118380000I-150000J0D01*
G01*
%TO.C,U125*%
X132088500Y-109880000D02*
G75*
G03*
X132088500Y-109880000I-150000J0D01*
G01*
%TO.C,U113*%
X136390000Y-92880000D02*
G75*
G03*
X136390000Y-92880000I-150000J0D01*
G01*
%TO.C,U105*%
X127890000Y-84380000D02*
G75*
G03*
X127890000Y-84380000I-150000J0D01*
G01*
%TO.C,U108*%
X161890000Y-84380000D02*
G75*
G03*
X161890000Y-84380000I-150000J0D01*
G01*
%TO.C,U109*%
X153390000Y-84380000D02*
G75*
G03*
X153390000Y-84380000I-150000J0D01*
G01*
%TO.C,U111*%
X136390000Y-84380000D02*
G75*
G03*
X136390000Y-84380000I-150000J0D01*
G01*
%TO.C,U127*%
X149088500Y-109880000D02*
G75*
G03*
X149088500Y-109880000I-150000J0D01*
G01*
%TO.C,U130*%
X170390000Y-118380000D02*
G75*
G03*
X170390000Y-118380000I-150000J0D01*
G01*
%TO.C,U120*%
X149088500Y-101380000D02*
G75*
G03*
X149088500Y-101380000I-150000J0D01*
G01*
%TO.C,U119*%
X157588500Y-101380000D02*
G75*
G03*
X157588500Y-101380000I-150000J0D01*
G01*
%TO.C,U101*%
X140575000Y-75880000D02*
G75*
G03*
X140575000Y-75880000I-150000J0D01*
G01*
%TO.C,U135*%
X174588500Y-109880000D02*
G75*
G03*
X174588500Y-109880000I-150000J0D01*
G01*
%TO.C,U112*%
X127890000Y-92880000D02*
G75*
G03*
X127890000Y-92880000I-150000J0D01*
G01*
%TO.C,U122*%
X132088500Y-101380000D02*
G75*
G03*
X132088500Y-101380000I-150000J0D01*
G01*
%TO.C,U117*%
X170390000Y-92880000D02*
G75*
G03*
X170390000Y-92880000I-150000J0D01*
G01*
%TO.C,U104*%
X166075000Y-75880000D02*
G75*
G03*
X166075000Y-75880000I-150000J0D01*
G01*
%TO.C,U110*%
X144890000Y-84380000D02*
G75*
G03*
X144890000Y-84380000I-150000J0D01*
G01*
%TO.C,U102*%
X149075000Y-75880000D02*
G75*
G03*
X149075000Y-75880000I-150000J0D01*
G01*
%TO.C,U106*%
X178890000Y-84380000D02*
G75*
G03*
X178890000Y-84380000I-150000J0D01*
G01*
%TO.C,U124*%
X174588500Y-101380000D02*
G75*
G03*
X174588500Y-101380000I-150000J0D01*
G01*
%TO.C,U133*%
X144890000Y-118380000D02*
G75*
G03*
X144890000Y-118380000I-150000J0D01*
G01*
%TO.C,U123*%
X178890000Y-92880000D02*
G75*
G03*
X178890000Y-92880000I-150000J0D01*
G01*
%TO.C,U128*%
X157588500Y-109880000D02*
G75*
G03*
X157588500Y-109880000I-150000J0D01*
G01*
%TO.C,U118*%
X166088500Y-101380000D02*
G75*
G03*
X166088500Y-101380000I-150000J0D01*
G01*
%TO.C,U121*%
X140588500Y-101380000D02*
G75*
G03*
X140588500Y-101380000I-150000J0D01*
G01*
%TO.C,U100*%
X153410000Y-67380000D02*
G75*
G03*
X153410000Y-67380000I-150000J0D01*
G01*
%TO.C,U115*%
X153390000Y-92880000D02*
G75*
G03*
X153390000Y-92880000I-150000J0D01*
G01*
%TO.C,U114*%
X144890000Y-92880000D02*
G75*
G03*
X144890000Y-92880000I-150000J0D01*
G01*
%TO.C,U126*%
X140588500Y-109880000D02*
G75*
G03*
X140588500Y-109880000I-150000J0D01*
G01*
%TO.C,U107*%
X170390000Y-84380000D02*
G75*
G03*
X170390000Y-84380000I-150000J0D01*
G01*
%TD*%
M02*
