%TF.GenerationSoftware,KiCad,Pcbnew,7.0.5*%
%TF.CreationDate,2024-03-28T22:27:53-05:00*%
%TF.ProjectId,LEDSphere,4c454453-7068-4657-9265-2e6b69636164,rev?*%
%TF.SameCoordinates,Original*%
%TF.FileFunction,Copper,L3,Inr*%
%TF.FilePolarity,Positive*%
%FSLAX46Y46*%
G04 Gerber Fmt 4.6, Leading zero omitted, Abs format (unit mm)*
G04 Created by KiCad (PCBNEW 7.0.5) date 2024-03-28 22:27:53*
%MOMM*%
%LPD*%
G01*
G04 APERTURE LIST*
%TA.AperFunction,ComponentPad*%
%ADD10C,1.600000*%
%TD*%
%TA.AperFunction,ViaPad*%
%ADD11C,0.450000*%
%TD*%
%TA.AperFunction,Conductor*%
%ADD12C,0.300000*%
%TD*%
%TA.AperFunction,Conductor*%
%ADD13C,0.150000*%
%TD*%
%TA.AperFunction,Conductor*%
%ADD14C,0.800000*%
%TD*%
G04 APERTURE END LIST*
D10*
%TO.N,unconnected-(J200-MH5-PadMH1)*%
%TO.C,J200*%
X145235000Y-104740000D03*
%TO.N,unconnected-(J200-MH6-PadMH2)*%
X145235000Y-96740000D03*
%TO.N,unconnected-(J200-PadMH3)*%
X148095000Y-104740000D03*
%TO.N,unconnected-(J200-PadMH4)*%
X148095000Y-96740000D03*
%TD*%
D11*
%TO.N,+3V3*%
X131890000Y-96790000D03*
X164650543Y-97534500D03*
X140670000Y-116784500D03*
X135560000Y-108760000D03*
X162693200Y-83936800D03*
X161541800Y-88478200D03*
X135050000Y-97230000D03*
X135790000Y-96920000D03*
X158516400Y-84040000D03*
X166950000Y-86190000D03*
X165540000Y-116794500D03*
X132490000Y-97320000D03*
X137490000Y-84320000D03*
X146340000Y-112500000D03*
X153620000Y-114494500D03*
X165689500Y-96774500D03*
X138620000Y-83200000D03*
X165950000Y-97670000D03*
%TO.N,+5V*%
X178070000Y-87470000D03*
X178290000Y-88380000D03*
X132500000Y-109170000D03*
X133000000Y-84780000D03*
X121880000Y-87470000D03*
X177000000Y-87480000D03*
X133350000Y-110600000D03*
X177110000Y-88280000D03*
X134160000Y-110960000D03*
X137770000Y-116370000D03*
X123100000Y-88580000D03*
X121730000Y-88480000D03*
X137750000Y-110530000D03*
X132350000Y-110940000D03*
X122960000Y-87570000D03*
X133900000Y-109180000D03*
%TO.N,VBUS*%
X144690000Y-95280000D03*
X146380000Y-98444500D03*
X157210000Y-100510000D03*
X149880000Y-100390000D03*
X142475000Y-98444500D03*
%TO.N,FAST_OFF*%
X155350000Y-114220000D03*
X155530000Y-89750000D03*
%TO.N,Net-(D203-K)*%
X163150000Y-120220000D03*
X157520244Y-97313143D03*
%TO.N,Net-(D202-K)*%
X154860000Y-100344500D03*
X154220497Y-107589503D03*
%TO.N,SDA*%
X168800000Y-113700000D03*
X152400000Y-124170000D03*
X172020000Y-113710000D03*
X149590000Y-117350000D03*
%TO.N,AMP_LRCLK*%
X170430000Y-92390000D03*
X146320000Y-86050000D03*
%TO.N,AMP_BCLK*%
X147140000Y-86160000D03*
X167510000Y-91910000D03*
%TO.N,AMP_DIN*%
X167100000Y-93330000D03*
X150100000Y-85870000D03*
%TO.N,FUEL_ALERT*%
X153330000Y-85900000D03*
X168430000Y-115890000D03*
%TO.N,POWER_ALERT*%
X153860000Y-112420000D03*
X154367950Y-86470972D03*
%TO.N,BOOST_PG*%
X137250000Y-111390000D03*
X137250000Y-109710000D03*
X152065000Y-89684500D03*
%TO.N,VBUS_SENSE*%
X144240000Y-91840000D03*
X145320000Y-89684500D03*
%TO.N,TXD*%
X142040000Y-103920000D03*
X153400000Y-83520000D03*
%TO.N,RXD*%
X154980000Y-81585500D03*
X142860000Y-103930000D03*
%TO.N,D-*%
X149130000Y-100990000D03*
X146146800Y-100476800D03*
%TO.N,RTS*%
X137400000Y-103610000D03*
X132980000Y-92520000D03*
%TO.N,DTR*%
X141980000Y-103100000D03*
X133861249Y-95532032D03*
%TO.N,SERIAL_OUT*%
X181020000Y-88960000D03*
X176370000Y-88970000D03*
%TO.N,DOUT_5V*%
X121610000Y-85850000D03*
%TO.N,GND*%
X133780000Y-101450000D03*
X138260000Y-114060000D03*
X142020000Y-93890000D03*
X156080000Y-104850000D03*
X157440000Y-105990000D03*
X164110000Y-122030000D03*
X121850000Y-91000000D03*
X172070000Y-88294500D03*
X134530000Y-100700000D03*
X149840000Y-113390000D03*
X137450000Y-95850000D03*
X133030000Y-100700000D03*
X155330000Y-104850000D03*
X156980000Y-104880000D03*
X159305500Y-83500000D03*
X161153500Y-104803500D03*
X162575500Y-116880000D03*
X152653500Y-112940000D03*
X123030000Y-90080000D03*
X167100000Y-100344500D03*
X150070000Y-104720000D03*
X154580000Y-105600000D03*
X148455000Y-122025000D03*
X139010000Y-114060000D03*
X142670000Y-88250000D03*
X177580000Y-89870000D03*
X124940000Y-95930000D03*
X138260000Y-113310000D03*
X135653500Y-104823500D03*
X153440000Y-105430000D03*
X139950000Y-113570000D03*
X147200000Y-69590000D03*
X139608756Y-88316660D03*
X157290000Y-103870000D03*
X140948200Y-96708200D03*
X121850000Y-90060000D03*
X139955000Y-121895000D03*
X137510000Y-113310000D03*
X176670000Y-89820000D03*
X143750000Y-104920000D03*
X161170000Y-105670000D03*
X133030000Y-101450000D03*
X170130000Y-95210000D03*
X157680000Y-95850000D03*
X146900000Y-87860000D03*
X133335000Y-122030000D03*
X155330000Y-105600000D03*
X141180000Y-112160000D03*
X154580000Y-104850000D03*
X140115000Y-100990000D03*
X137820000Y-79830000D03*
X128171750Y-104168250D03*
X139010000Y-113310000D03*
X177110000Y-90820000D03*
X145820500Y-84370000D03*
X130185000Y-95920000D03*
X133780000Y-100700000D03*
X145690000Y-79830000D03*
X136670000Y-113570000D03*
X131455000Y-87845000D03*
X157370000Y-88250000D03*
X168105000Y-112315000D03*
X154565247Y-84333756D03*
X156955000Y-122025000D03*
X159835000Y-78955000D03*
X150600000Y-96610000D03*
X140370000Y-112170000D03*
X153460000Y-104350000D03*
X163060000Y-86229500D03*
X137510000Y-114060000D03*
X153780000Y-103390000D03*
X167923500Y-104880000D03*
X158423051Y-86326949D03*
X123030000Y-91140000D03*
X156080000Y-105600000D03*
X167580000Y-88360000D03*
X129073500Y-113570000D03*
X152640000Y-78790500D03*
%TD*%
D12*
%TO.N,Net-(D203-K)*%
X163150000Y-102950000D02*
X163150000Y-120220000D01*
X157520244Y-97320244D02*
X163150000Y-102950000D01*
X157520244Y-97313143D02*
X157520244Y-97320244D01*
D13*
%TO.N,AMP_BCLK*%
X167510000Y-89610000D02*
X167510000Y-91910000D01*
X158000000Y-80100000D02*
X167510000Y-89610000D01*
X151330000Y-80100000D02*
X158000000Y-80100000D01*
X147140000Y-84290000D02*
X151330000Y-80100000D01*
X147140000Y-86160000D02*
X147140000Y-84290000D01*
%TO.N,AMP_LRCLK*%
X150395000Y-79455000D02*
X146320000Y-83530000D01*
X146320000Y-83530000D02*
X146320000Y-86050000D01*
X161145000Y-79455000D02*
X150395000Y-79455000D01*
X170430000Y-88740000D02*
X161145000Y-79455000D01*
X170430000Y-92390000D02*
X170430000Y-88740000D01*
D12*
%TO.N,+3V3*%
X137490000Y-84320000D02*
X137500000Y-84320000D01*
X137500000Y-84320000D02*
X138620000Y-83200000D01*
D14*
%TO.N,VBUS*%
X149880000Y-100390000D02*
X147934500Y-98444500D01*
D13*
X143810000Y-96160000D02*
X143810000Y-98244500D01*
D12*
X144010000Y-98444500D02*
X146380000Y-98444500D01*
X147934500Y-98444500D02*
X155144500Y-98444500D01*
D13*
X144690000Y-95280000D02*
X143810000Y-96160000D01*
D14*
X146380000Y-98444500D02*
X155144500Y-98444500D01*
D12*
X146380000Y-98444500D02*
X147934500Y-98444500D01*
D13*
X143810000Y-98244500D02*
X144010000Y-98444500D01*
D12*
X142475000Y-98444500D02*
X144010000Y-98444500D01*
D14*
X155144500Y-98444500D02*
X157210000Y-100510000D01*
D13*
%TO.N,FAST_OFF*%
X155350000Y-114220000D02*
X161850000Y-120720000D01*
X161850000Y-120720000D02*
X163357107Y-120720000D01*
X163650000Y-120427107D02*
X163650000Y-97870000D01*
X163650000Y-97870000D02*
X155530000Y-89750000D01*
X163357107Y-120720000D02*
X163650000Y-120427107D01*
%TO.N,Net-(D202-K)*%
X152290000Y-105659006D02*
X152290000Y-102914500D01*
X152290000Y-102914500D02*
X154860000Y-100344500D01*
X154220497Y-107589503D02*
X152290000Y-105659006D01*
%TO.N,SDA*%
X172020000Y-113710000D02*
X172010000Y-113700000D01*
X149590000Y-121360000D02*
X149590000Y-117350000D01*
X152400000Y-124170000D02*
X149590000Y-121360000D01*
X172010000Y-113700000D02*
X168800000Y-113700000D01*
%TO.N,AMP_DIN*%
X150100000Y-84930000D02*
X154180000Y-80850000D01*
X155580000Y-80850000D02*
X156710000Y-81980000D01*
X154180000Y-80850000D02*
X155580000Y-80850000D01*
X156710000Y-81980000D02*
X156710000Y-82940000D01*
X156710000Y-82940000D02*
X167100000Y-93330000D01*
X150100000Y-85870000D02*
X150100000Y-84930000D01*
%TO.N,FUEL_ALERT*%
X165190000Y-95320000D02*
X165190000Y-112650000D01*
X153330000Y-85900000D02*
X155770000Y-85900000D01*
X165190000Y-112650000D02*
X168430000Y-115890000D01*
X155770000Y-85900000D02*
X165190000Y-95320000D01*
%TO.N,POWER_ALERT*%
X154080000Y-94900000D02*
X160060000Y-100880000D01*
X154080000Y-86758922D02*
X154080000Y-94900000D01*
X160060000Y-100880000D02*
X160060000Y-106220000D01*
X160060000Y-106220000D02*
X153860000Y-112420000D01*
X154367950Y-86470972D02*
X154080000Y-86758922D01*
%TO.N,BOOST_PG*%
X152065000Y-89684500D02*
X151720000Y-90029500D01*
X151720000Y-90029500D02*
X151720000Y-93510000D01*
X151720000Y-93510000D02*
X158370000Y-100160000D01*
X158370000Y-100160000D02*
X158370000Y-104350000D01*
X137250000Y-111390000D02*
X137250000Y-109710000D01*
X158370000Y-104350000D02*
X153010000Y-109710000D01*
X153010000Y-109710000D02*
X137250000Y-109710000D01*
%TO.N,VBUS_SENSE*%
X144240000Y-90764500D02*
X144240000Y-91840000D01*
X145320000Y-89684500D02*
X144240000Y-90764500D01*
%TO.N,TXD*%
X153400000Y-83520000D02*
X153400000Y-83550000D01*
X140090000Y-96860000D02*
X140090000Y-99260000D01*
X142682107Y-103277893D02*
X142040000Y-103920000D01*
X142682107Y-101852107D02*
X142682107Y-103277893D01*
X140090000Y-99260000D02*
X142682107Y-101852107D01*
X153400000Y-83550000D02*
X140090000Y-96860000D01*
%TO.N,RXD*%
X143940000Y-102100000D02*
X143940000Y-102850000D01*
X154090000Y-82510000D02*
X154090000Y-84180000D01*
X154980000Y-81620000D02*
X154090000Y-82510000D01*
X154980000Y-81585500D02*
X154980000Y-81620000D01*
X141430000Y-96840000D02*
X141430000Y-99590000D01*
X141430000Y-99590000D02*
X143940000Y-102100000D01*
X154090000Y-84180000D02*
X141430000Y-96840000D01*
X143940000Y-102850000D02*
X142860000Y-103930000D01*
%TO.N,D-*%
X146670000Y-101000000D02*
X146146800Y-100476800D01*
X149130000Y-100990000D02*
X149120000Y-101000000D01*
X149120000Y-101000000D02*
X146670000Y-101000000D01*
%TO.N,RTS*%
X137400000Y-96940000D02*
X132980000Y-92520000D01*
X137400000Y-103610000D02*
X137400000Y-96940000D01*
%TO.N,DTR*%
X133861249Y-95532032D02*
X135497058Y-95532032D01*
X139800000Y-105280000D02*
X141980000Y-103100000D01*
X136370000Y-96404974D02*
X136370000Y-103950000D01*
X135497058Y-95532032D02*
X136370000Y-96404974D01*
X136370000Y-103950000D02*
X137700000Y-105280000D01*
X137700000Y-105280000D02*
X139800000Y-105280000D01*
%TO.N,SERIAL_OUT*%
X176370000Y-88970000D02*
X176380000Y-88960000D01*
X176380000Y-88960000D02*
X181020000Y-88960000D01*
%TD*%
%TA.AperFunction,Conductor*%
%TO.N,+3V3*%
G36*
X150245080Y-60096450D02*
G01*
X150270424Y-60101837D01*
X150384723Y-60138975D01*
X150408395Y-60149514D01*
X150520940Y-60214493D01*
X150526376Y-60218022D01*
X150562261Y-60244094D01*
X150562262Y-60244094D01*
X184609464Y-84980834D01*
X184612662Y-84983157D01*
X184617704Y-84987240D01*
X184689367Y-85051769D01*
X184714282Y-85074203D01*
X184731627Y-85093467D01*
X184802261Y-85190690D01*
X184815222Y-85213139D01*
X184864101Y-85322924D01*
X184872111Y-85347577D01*
X184897097Y-85465121D01*
X184899807Y-85490902D01*
X184899808Y-85611075D01*
X184897099Y-85636853D01*
X184870089Y-85763946D01*
X184868408Y-85770221D01*
X184246658Y-87683771D01*
X171862305Y-125798891D01*
X171851868Y-125831012D01*
X171848603Y-125841057D01*
X171846277Y-125847117D01*
X171793420Y-125965829D01*
X171780457Y-125988279D01*
X171709828Y-126085486D01*
X171692481Y-126104751D01*
X171603180Y-126185152D01*
X171582206Y-126200389D01*
X171478141Y-126260464D01*
X171454458Y-126271007D01*
X171340179Y-126308132D01*
X171314821Y-126313521D01*
X171185004Y-126327157D01*
X171178519Y-126327496D01*
X171124794Y-126327493D01*
X171124744Y-126327497D01*
X129046127Y-126327497D01*
X129039649Y-126327157D01*
X128982023Y-126321099D01*
X128910408Y-126313569D01*
X128885053Y-126308179D01*
X128770768Y-126271042D01*
X128747088Y-126260498D01*
X128643019Y-126200412D01*
X128622049Y-126185176D01*
X128532746Y-126104764D01*
X128515405Y-126085504D01*
X128444771Y-125988281D01*
X128431811Y-125965832D01*
X128378830Y-125846830D01*
X128376503Y-125840767D01*
X128362898Y-125798893D01*
X128362896Y-125798891D01*
X128358363Y-125784938D01*
X128358360Y-125784931D01*
X127138309Y-122030000D01*
X132854610Y-122030000D01*
X132854659Y-122030342D01*
X132874068Y-122165337D01*
X132874070Y-122165345D01*
X132930867Y-122289714D01*
X132930872Y-122289721D01*
X133020409Y-122393053D01*
X133020413Y-122393057D01*
X133080979Y-122431979D01*
X133135439Y-122466978D01*
X133201036Y-122486239D01*
X133266632Y-122505500D01*
X133266633Y-122505500D01*
X133403367Y-122505500D01*
X133534561Y-122466978D01*
X133649589Y-122393055D01*
X133739130Y-122289718D01*
X133741414Y-122284718D01*
X133753591Y-122258053D01*
X133795931Y-122165342D01*
X133815390Y-122030000D01*
X133795980Y-121894999D01*
X139474610Y-121894999D01*
X139494068Y-122030337D01*
X139494070Y-122030345D01*
X139550867Y-122154714D01*
X139550872Y-122154721D01*
X139640409Y-122258053D01*
X139640413Y-122258057D01*
X139689674Y-122289714D01*
X139755439Y-122331978D01*
X139821036Y-122351239D01*
X139886632Y-122370500D01*
X139886633Y-122370500D01*
X140023367Y-122370500D01*
X140154561Y-122331978D01*
X140269589Y-122258055D01*
X140359130Y-122154718D01*
X140415931Y-122030342D01*
X140416699Y-122025000D01*
X147974610Y-122025000D01*
X147994068Y-122160337D01*
X147994070Y-122160345D01*
X148050867Y-122284714D01*
X148050872Y-122284721D01*
X148140409Y-122388053D01*
X148140413Y-122388057D01*
X148200979Y-122426979D01*
X148255439Y-122461978D01*
X148321035Y-122481239D01*
X148386632Y-122500500D01*
X148386633Y-122500500D01*
X148523367Y-122500500D01*
X148654561Y-122461978D01*
X148769589Y-122388055D01*
X148859130Y-122284718D01*
X148915931Y-122160342D01*
X148935390Y-122025000D01*
X148915931Y-121889658D01*
X148861415Y-121770285D01*
X148859132Y-121765285D01*
X148859127Y-121765278D01*
X148769590Y-121661946D01*
X148769586Y-121661942D01*
X148662341Y-121593022D01*
X148654561Y-121588022D01*
X148654560Y-121588021D01*
X148654559Y-121588021D01*
X148523368Y-121549500D01*
X148523367Y-121549500D01*
X148386633Y-121549500D01*
X148386632Y-121549500D01*
X148255440Y-121588021D01*
X148140413Y-121661942D01*
X148140409Y-121661946D01*
X148050872Y-121765278D01*
X148050867Y-121765285D01*
X147994070Y-121889654D01*
X147994068Y-121889662D01*
X147974610Y-122025000D01*
X140416699Y-122025000D01*
X140435390Y-121895000D01*
X140415931Y-121759658D01*
X140373591Y-121666946D01*
X140359132Y-121635285D01*
X140359127Y-121635278D01*
X140269590Y-121531946D01*
X140269586Y-121531942D01*
X140154559Y-121458021D01*
X140023368Y-121419500D01*
X140023367Y-121419500D01*
X139886633Y-121419500D01*
X139886632Y-121419500D01*
X139755440Y-121458021D01*
X139640413Y-121531942D01*
X139640409Y-121531946D01*
X139550872Y-121635278D01*
X139550867Y-121635285D01*
X139494070Y-121759654D01*
X139494068Y-121759662D01*
X139474610Y-121894999D01*
X133795980Y-121894999D01*
X133795931Y-121894658D01*
X133783677Y-121867827D01*
X133739132Y-121770285D01*
X133739127Y-121770278D01*
X133649590Y-121666946D01*
X133649586Y-121666942D01*
X133548735Y-121602131D01*
X133534561Y-121593022D01*
X133534560Y-121593021D01*
X133534559Y-121593021D01*
X133403368Y-121554500D01*
X133403367Y-121554500D01*
X133266633Y-121554500D01*
X133266632Y-121554500D01*
X133135440Y-121593021D01*
X133020413Y-121666942D01*
X133020409Y-121666946D01*
X132930872Y-121770278D01*
X132930867Y-121770285D01*
X132874070Y-121894654D01*
X132874068Y-121894662D01*
X132855329Y-122024999D01*
X132854610Y-122030000D01*
X127138309Y-122030000D01*
X125617685Y-117349999D01*
X149109610Y-117349999D01*
X149129068Y-117485337D01*
X149129070Y-117485345D01*
X149185867Y-117609714D01*
X149185869Y-117609716D01*
X149185870Y-117609718D01*
X149234213Y-117665509D01*
X149263238Y-117729063D01*
X149264500Y-117746711D01*
X149264500Y-121343078D01*
X149264264Y-121348485D01*
X149260735Y-121388808D01*
X149271212Y-121427910D01*
X149272383Y-121433190D01*
X149279411Y-121473043D01*
X149281235Y-121478055D01*
X149288197Y-121494861D01*
X149290445Y-121499681D01*
X149290446Y-121499684D01*
X149304452Y-121519687D01*
X149313655Y-121532831D01*
X149316561Y-121537392D01*
X149336806Y-121572455D01*
X149367815Y-121598475D01*
X149371805Y-121602131D01*
X151887057Y-124117383D01*
X151920542Y-124178706D01*
X151922114Y-124187417D01*
X151939068Y-124305337D01*
X151939070Y-124305345D01*
X151995867Y-124429714D01*
X151995872Y-124429721D01*
X152085409Y-124533053D01*
X152085413Y-124533057D01*
X152145979Y-124571979D01*
X152200439Y-124606978D01*
X152266035Y-124626238D01*
X152331632Y-124645500D01*
X152331633Y-124645500D01*
X152468367Y-124645500D01*
X152599561Y-124606978D01*
X152714589Y-124533055D01*
X152804130Y-124429718D01*
X152860931Y-124305342D01*
X152880390Y-124170000D01*
X152860931Y-124034658D01*
X152848677Y-124007827D01*
X152804132Y-123910285D01*
X152804127Y-123910278D01*
X152714590Y-123806946D01*
X152714586Y-123806942D01*
X152599559Y-123733021D01*
X152468368Y-123694500D01*
X152468367Y-123694500D01*
X152436188Y-123694500D01*
X152369149Y-123674815D01*
X152348507Y-123658181D01*
X150715327Y-122025000D01*
X156474610Y-122025000D01*
X156494068Y-122160337D01*
X156494070Y-122160345D01*
X156550867Y-122284714D01*
X156550872Y-122284721D01*
X156640409Y-122388053D01*
X156640413Y-122388057D01*
X156700979Y-122426979D01*
X156755439Y-122461978D01*
X156821036Y-122481239D01*
X156886632Y-122500500D01*
X156886633Y-122500500D01*
X157023367Y-122500500D01*
X157154561Y-122461978D01*
X157269589Y-122388055D01*
X157359130Y-122284718D01*
X157415931Y-122160342D01*
X157434671Y-122030000D01*
X163629610Y-122030000D01*
X163649068Y-122165337D01*
X163649070Y-122165345D01*
X163705867Y-122289714D01*
X163705872Y-122289721D01*
X163795409Y-122393053D01*
X163795413Y-122393057D01*
X163855979Y-122431979D01*
X163910439Y-122466978D01*
X163976035Y-122486238D01*
X164041632Y-122505500D01*
X164041633Y-122505500D01*
X164178367Y-122505500D01*
X164309561Y-122466978D01*
X164424589Y-122393055D01*
X164514130Y-122289718D01*
X164516414Y-122284718D01*
X164528591Y-122258053D01*
X164570931Y-122165342D01*
X164590390Y-122030000D01*
X164570931Y-121894658D01*
X164558677Y-121867827D01*
X164514132Y-121770285D01*
X164514127Y-121770278D01*
X164424590Y-121666946D01*
X164424586Y-121666942D01*
X164323735Y-121602131D01*
X164309561Y-121593022D01*
X164309560Y-121593021D01*
X164309559Y-121593021D01*
X164178368Y-121554500D01*
X164178367Y-121554500D01*
X164041633Y-121554500D01*
X164041632Y-121554500D01*
X163910440Y-121593021D01*
X163795413Y-121666942D01*
X163795409Y-121666946D01*
X163705872Y-121770278D01*
X163705867Y-121770285D01*
X163649070Y-121894654D01*
X163649068Y-121894662D01*
X163629610Y-122030000D01*
X157434671Y-122030000D01*
X157435390Y-122025000D01*
X157415931Y-121889658D01*
X157361415Y-121770285D01*
X157359132Y-121765285D01*
X157359127Y-121765278D01*
X157269590Y-121661946D01*
X157269586Y-121661942D01*
X157162341Y-121593022D01*
X157154561Y-121588022D01*
X157154560Y-121588021D01*
X157154559Y-121588021D01*
X157023368Y-121549500D01*
X157023367Y-121549500D01*
X156886633Y-121549500D01*
X156886632Y-121549500D01*
X156755440Y-121588021D01*
X156640413Y-121661942D01*
X156640409Y-121661946D01*
X156550872Y-121765278D01*
X156550867Y-121765285D01*
X156494070Y-121889654D01*
X156494068Y-121889662D01*
X156474610Y-122025000D01*
X150715327Y-122025000D01*
X149951819Y-121261492D01*
X149918334Y-121200169D01*
X149915500Y-121173811D01*
X149915500Y-117746711D01*
X149935185Y-117679672D01*
X149945782Y-117665514D01*
X149994130Y-117609718D01*
X150050931Y-117485342D01*
X150070390Y-117350000D01*
X150050931Y-117214658D01*
X150016705Y-117139714D01*
X149994132Y-117090285D01*
X149994127Y-117090278D01*
X149904590Y-116986946D01*
X149904586Y-116986942D01*
X149789559Y-116913021D01*
X149658368Y-116874500D01*
X149658367Y-116874500D01*
X149521633Y-116874500D01*
X149521632Y-116874500D01*
X149390440Y-116913021D01*
X149275413Y-116986942D01*
X149275409Y-116986946D01*
X149185872Y-117090278D01*
X149185867Y-117090285D01*
X149129070Y-117214654D01*
X149129068Y-117214662D01*
X149109610Y-117349999D01*
X125617685Y-117349999D01*
X125299264Y-116369999D01*
X137289610Y-116369999D01*
X137309068Y-116505337D01*
X137309070Y-116505345D01*
X137365867Y-116629714D01*
X137365872Y-116629721D01*
X137455409Y-116733053D01*
X137455413Y-116733057D01*
X137515979Y-116771979D01*
X137570439Y-116806978D01*
X137636036Y-116826238D01*
X137701632Y-116845500D01*
X137701633Y-116845500D01*
X137838367Y-116845500D01*
X137969561Y-116806978D01*
X138084589Y-116733055D01*
X138174130Y-116629718D01*
X138230931Y-116505342D01*
X138250390Y-116370000D01*
X138230931Y-116234658D01*
X138218677Y-116207827D01*
X138174132Y-116110285D01*
X138174127Y-116110278D01*
X138084590Y-116006946D01*
X138084586Y-116006942D01*
X137969559Y-115933021D01*
X137838368Y-115894500D01*
X137838367Y-115894500D01*
X137701633Y-115894500D01*
X137701632Y-115894500D01*
X137570440Y-115933021D01*
X137455413Y-116006942D01*
X137455409Y-116006946D01*
X137365872Y-116110278D01*
X137365867Y-116110285D01*
X137309070Y-116234654D01*
X137309068Y-116234662D01*
X137289610Y-116369999D01*
X125299264Y-116369999D01*
X124389489Y-113569999D01*
X128593110Y-113569999D01*
X128612568Y-113705337D01*
X128612570Y-113705345D01*
X128669367Y-113829714D01*
X128669372Y-113829721D01*
X128758909Y-113933053D01*
X128758913Y-113933057D01*
X128815965Y-113969721D01*
X128873939Y-114006978D01*
X128937019Y-114025500D01*
X129005132Y-114045500D01*
X129005133Y-114045500D01*
X129141867Y-114045500D01*
X129273061Y-114006978D01*
X129388089Y-113933055D01*
X129477630Y-113829718D01*
X129534431Y-113705342D01*
X129553890Y-113570000D01*
X136189610Y-113570000D01*
X136209068Y-113705337D01*
X136209070Y-113705345D01*
X136265867Y-113829714D01*
X136265872Y-113829721D01*
X136355409Y-113933053D01*
X136355413Y-113933057D01*
X136412465Y-113969721D01*
X136470439Y-114006978D01*
X136533519Y-114025500D01*
X136601632Y-114045500D01*
X136601633Y-114045500D01*
X136738367Y-114045500D01*
X136878070Y-114004480D01*
X136879111Y-114008026D01*
X136930860Y-114000493D01*
X136994467Y-114029406D01*
X137032345Y-114088117D01*
X137036168Y-114105615D01*
X137049068Y-114195337D01*
X137049070Y-114195345D01*
X137105867Y-114319714D01*
X137105872Y-114319721D01*
X137195409Y-114423053D01*
X137195413Y-114423057D01*
X137255979Y-114461979D01*
X137310439Y-114496978D01*
X137376035Y-114516238D01*
X137441632Y-114535500D01*
X137441633Y-114535500D01*
X137578367Y-114535500D01*
X137709561Y-114496978D01*
X137817962Y-114427313D01*
X137885001Y-114407630D01*
X137952037Y-114427313D01*
X138060439Y-114496978D01*
X138060441Y-114496978D01*
X138060442Y-114496979D01*
X138191632Y-114535500D01*
X138191633Y-114535500D01*
X138328367Y-114535500D01*
X138459561Y-114496978D01*
X138567962Y-114427313D01*
X138635001Y-114407630D01*
X138702037Y-114427313D01*
X138810439Y-114496978D01*
X138810441Y-114496978D01*
X138810442Y-114496979D01*
X138941632Y-114535500D01*
X138941633Y-114535500D01*
X139078367Y-114535500D01*
X139209561Y-114496978D01*
X139324589Y-114423055D01*
X139414130Y-114319718D01*
X139470931Y-114195342D01*
X139490390Y-114060000D01*
X139490389Y-114059999D01*
X139491652Y-114051222D01*
X139494870Y-114051684D01*
X139510075Y-113999905D01*
X139562879Y-113954150D01*
X139632037Y-113944206D01*
X139681426Y-113962627D01*
X139750439Y-114006978D01*
X139750441Y-114006978D01*
X139750442Y-114006979D01*
X139881632Y-114045500D01*
X139881633Y-114045500D01*
X140018367Y-114045500D01*
X140149561Y-114006978D01*
X140264589Y-113933055D01*
X140354130Y-113829718D01*
X140410931Y-113705342D01*
X140430390Y-113570000D01*
X140410931Y-113434658D01*
X140390536Y-113390000D01*
X149359610Y-113390000D01*
X149379068Y-113525337D01*
X149379070Y-113525345D01*
X149435867Y-113649714D01*
X149435872Y-113649721D01*
X149525409Y-113753053D01*
X149525413Y-113753057D01*
X149572041Y-113783022D01*
X149640439Y-113826978D01*
X149702964Y-113845337D01*
X149771632Y-113865500D01*
X149771633Y-113865500D01*
X149908367Y-113865500D01*
X150039561Y-113826978D01*
X150154589Y-113753055D01*
X150244130Y-113649718D01*
X150300931Y-113525342D01*
X150320390Y-113390000D01*
X150300931Y-113254658D01*
X150277783Y-113203972D01*
X150244132Y-113130285D01*
X150244127Y-113130278D01*
X150154590Y-113026946D01*
X150154586Y-113026942D01*
X150039559Y-112953021D01*
X149995210Y-112939999D01*
X152173110Y-112939999D01*
X152192568Y-113075337D01*
X152192570Y-113075345D01*
X152249367Y-113199714D01*
X152249372Y-113199721D01*
X152338909Y-113303053D01*
X152338913Y-113303057D01*
X152391647Y-113336946D01*
X152453939Y-113376978D01*
X152498288Y-113390000D01*
X152585132Y-113415500D01*
X152585133Y-113415500D01*
X152721867Y-113415500D01*
X152853061Y-113376978D01*
X152968089Y-113303055D01*
X153057630Y-113199718D01*
X153114431Y-113075342D01*
X153133890Y-112940000D01*
X153114431Y-112804658D01*
X153077226Y-112723190D01*
X153057632Y-112680285D01*
X153057627Y-112680278D01*
X152968090Y-112576946D01*
X152968086Y-112576942D01*
X152853059Y-112503021D01*
X152721868Y-112464500D01*
X152721867Y-112464500D01*
X152585133Y-112464500D01*
X152585132Y-112464500D01*
X152453940Y-112503021D01*
X152338913Y-112576942D01*
X152338909Y-112576946D01*
X152249372Y-112680278D01*
X152249367Y-112680285D01*
X152192570Y-112804654D01*
X152192568Y-112804662D01*
X152173110Y-112939999D01*
X149995210Y-112939999D01*
X149908368Y-112914500D01*
X149908367Y-112914500D01*
X149771633Y-112914500D01*
X149771632Y-112914500D01*
X149640440Y-112953021D01*
X149525413Y-113026942D01*
X149525409Y-113026946D01*
X149435872Y-113130278D01*
X149435867Y-113130285D01*
X149379070Y-113254654D01*
X149379068Y-113254662D01*
X149359610Y-113390000D01*
X140390536Y-113390000D01*
X140374468Y-113354815D01*
X140354132Y-113310285D01*
X140354127Y-113310278D01*
X140264590Y-113206946D01*
X140264586Y-113206942D01*
X140149559Y-113133021D01*
X140018368Y-113094500D01*
X140018367Y-113094500D01*
X139881633Y-113094500D01*
X139881632Y-113094500D01*
X139750440Y-113133021D01*
X139640035Y-113203972D01*
X139572995Y-113223656D01*
X139505956Y-113203970D01*
X139460203Y-113151167D01*
X139414132Y-113050285D01*
X139414127Y-113050278D01*
X139324590Y-112946946D01*
X139324586Y-112946942D01*
X139209559Y-112873021D01*
X139078368Y-112834500D01*
X139078367Y-112834500D01*
X138941633Y-112834500D01*
X138941632Y-112834500D01*
X138810440Y-112873021D01*
X138702038Y-112942685D01*
X138634998Y-112962369D01*
X138567962Y-112942685D01*
X138459559Y-112873021D01*
X138328368Y-112834500D01*
X138328367Y-112834500D01*
X138191633Y-112834500D01*
X138191632Y-112834500D01*
X138060440Y-112873021D01*
X137952038Y-112942685D01*
X137884998Y-112962369D01*
X137817962Y-112942685D01*
X137709559Y-112873021D01*
X137578368Y-112834500D01*
X137578367Y-112834500D01*
X137441633Y-112834500D01*
X137441632Y-112834500D01*
X137310440Y-112873021D01*
X137195413Y-112946942D01*
X137195409Y-112946946D01*
X137105872Y-113050278D01*
X137105869Y-113050283D01*
X137082486Y-113101485D01*
X137036731Y-113154289D01*
X136969691Y-113173973D01*
X136902654Y-113154289D01*
X136869559Y-113133021D01*
X136738368Y-113094500D01*
X136738367Y-113094500D01*
X136601633Y-113094500D01*
X136601632Y-113094500D01*
X136470440Y-113133021D01*
X136355413Y-113206942D01*
X136355409Y-113206946D01*
X136265872Y-113310278D01*
X136265867Y-113310285D01*
X136209070Y-113434654D01*
X136209068Y-113434662D01*
X136189610Y-113570000D01*
X129553890Y-113570000D01*
X129534431Y-113434658D01*
X129497968Y-113354815D01*
X129477632Y-113310285D01*
X129477627Y-113310278D01*
X129388090Y-113206946D01*
X129388086Y-113206942D01*
X129273059Y-113133021D01*
X129141868Y-113094500D01*
X129141867Y-113094500D01*
X129005133Y-113094500D01*
X129005132Y-113094500D01*
X128873940Y-113133021D01*
X128758913Y-113206942D01*
X128758909Y-113206946D01*
X128669372Y-113310278D01*
X128669367Y-113310285D01*
X128612570Y-113434654D01*
X128612568Y-113434662D01*
X128593110Y-113569999D01*
X124389489Y-113569999D01*
X123934602Y-112170000D01*
X139889610Y-112170000D01*
X139909068Y-112305337D01*
X139909070Y-112305345D01*
X139965867Y-112429714D01*
X139965872Y-112429721D01*
X140055409Y-112533053D01*
X140055413Y-112533057D01*
X140090095Y-112555345D01*
X140170439Y-112606978D01*
X140236036Y-112626238D01*
X140301632Y-112645500D01*
X140301633Y-112645500D01*
X140438367Y-112645500D01*
X140569561Y-112606978D01*
X140684589Y-112533055D01*
X140685878Y-112531567D01*
X140687533Y-112530503D01*
X140691289Y-112527249D01*
X140691756Y-112527788D01*
X140744654Y-112493792D01*
X140814523Y-112493790D01*
X140860795Y-112519055D01*
X140865413Y-112523057D01*
X140909662Y-112551493D01*
X140980439Y-112596978D01*
X141014496Y-112606978D01*
X141111632Y-112635500D01*
X141111633Y-112635500D01*
X141248367Y-112635500D01*
X141379561Y-112596978D01*
X141494589Y-112523055D01*
X141584130Y-112419718D01*
X141640931Y-112295342D01*
X141660390Y-112160000D01*
X141640931Y-112024658D01*
X141621916Y-111983021D01*
X141584132Y-111900285D01*
X141584127Y-111900278D01*
X141494590Y-111796946D01*
X141494586Y-111796942D01*
X141403736Y-111738558D01*
X141379561Y-111723022D01*
X141379560Y-111723021D01*
X141379559Y-111723021D01*
X141248368Y-111684500D01*
X141248367Y-111684500D01*
X141111633Y-111684500D01*
X141111632Y-111684500D01*
X140980440Y-111723021D01*
X140865413Y-111796942D01*
X140865407Y-111796948D01*
X140864112Y-111798443D01*
X140862450Y-111799510D01*
X140858711Y-111802751D01*
X140858244Y-111802212D01*
X140805330Y-111836212D01*
X140735460Y-111836205D01*
X140689205Y-111810944D01*
X140684590Y-111806945D01*
X140569559Y-111733021D01*
X140438368Y-111694500D01*
X140438367Y-111694500D01*
X140301633Y-111694500D01*
X140301632Y-111694500D01*
X140170440Y-111733021D01*
X140055413Y-111806942D01*
X140055409Y-111806946D01*
X139965872Y-111910278D01*
X139965867Y-111910285D01*
X139909070Y-112034654D01*
X139909068Y-112034662D01*
X139889610Y-112170000D01*
X123934602Y-112170000D01*
X123534951Y-110940000D01*
X131869610Y-110940000D01*
X131872925Y-110963055D01*
X131889068Y-111075337D01*
X131889070Y-111075345D01*
X131945867Y-111199714D01*
X131945872Y-111199721D01*
X132035409Y-111303053D01*
X132035413Y-111303057D01*
X132066535Y-111323057D01*
X132150439Y-111376978D01*
X132194788Y-111390000D01*
X132281632Y-111415500D01*
X132281633Y-111415500D01*
X132418367Y-111415500D01*
X132549561Y-111376978D01*
X132664589Y-111303055D01*
X132754130Y-111199718D01*
X132810931Y-111075342D01*
X132818083Y-111025597D01*
X132847108Y-110962043D01*
X132905886Y-110924268D01*
X132975755Y-110924268D01*
X133028126Y-110957923D01*
X133028711Y-110957249D01*
X133033404Y-110961316D01*
X133034532Y-110962040D01*
X133034534Y-110962042D01*
X133034534Y-110962043D01*
X133035409Y-110963053D01*
X133035413Y-110963057D01*
X133082455Y-110993288D01*
X133150439Y-111036978D01*
X133188988Y-111048297D01*
X133281632Y-111075500D01*
X133281633Y-111075500D01*
X133418367Y-111075500D01*
X133549561Y-111036978D01*
X133549561Y-111036977D01*
X133554795Y-111035441D01*
X133624665Y-111035441D01*
X133683443Y-111073215D01*
X133702524Y-111102907D01*
X133755867Y-111219714D01*
X133755872Y-111219721D01*
X133845409Y-111323053D01*
X133845413Y-111323057D01*
X133905979Y-111361979D01*
X133960439Y-111396978D01*
X134023519Y-111415500D01*
X134091632Y-111435500D01*
X134091633Y-111435500D01*
X134228367Y-111435500D01*
X134359561Y-111396978D01*
X134474589Y-111323055D01*
X134564130Y-111219718D01*
X134620931Y-111095342D01*
X134640390Y-110960000D01*
X134620931Y-110824658D01*
X134604973Y-110789714D01*
X134564132Y-110700285D01*
X134564127Y-110700278D01*
X134474590Y-110596946D01*
X134474586Y-110596942D01*
X134359559Y-110523021D01*
X134228368Y-110484500D01*
X134228367Y-110484500D01*
X134091633Y-110484500D01*
X134091630Y-110484500D01*
X133955203Y-110524558D01*
X133885333Y-110524558D01*
X133826556Y-110486783D01*
X133807479Y-110457101D01*
X133754130Y-110340282D01*
X133693475Y-110270282D01*
X133664590Y-110236946D01*
X133664586Y-110236942D01*
X133549559Y-110163021D01*
X133418368Y-110124500D01*
X133418367Y-110124500D01*
X133281633Y-110124500D01*
X133281632Y-110124500D01*
X133150440Y-110163021D01*
X133035413Y-110236942D01*
X133035409Y-110236946D01*
X132945872Y-110340278D01*
X132945867Y-110340285D01*
X132889070Y-110464654D01*
X132889068Y-110464661D01*
X132881916Y-110514403D01*
X132852890Y-110577958D01*
X132794111Y-110615732D01*
X132724241Y-110615731D01*
X132671874Y-110582075D01*
X132671289Y-110582751D01*
X132666588Y-110578677D01*
X132665464Y-110577955D01*
X132664589Y-110576945D01*
X132664586Y-110576942D01*
X132549559Y-110503021D01*
X132418368Y-110464500D01*
X132418367Y-110464500D01*
X132281633Y-110464500D01*
X132281632Y-110464500D01*
X132150440Y-110503021D01*
X132035413Y-110576942D01*
X132035409Y-110576946D01*
X131945872Y-110680278D01*
X131945867Y-110680285D01*
X131889070Y-110804654D01*
X131889068Y-110804662D01*
X131876359Y-110893057D01*
X131869610Y-110940000D01*
X123534951Y-110940000D01*
X122959843Y-109169999D01*
X132019610Y-109169999D01*
X132039068Y-109305337D01*
X132039070Y-109305345D01*
X132095867Y-109429714D01*
X132095872Y-109429721D01*
X132185409Y-109533053D01*
X132185413Y-109533057D01*
X132245979Y-109571979D01*
X132300439Y-109606978D01*
X132334496Y-109616978D01*
X132431632Y-109645500D01*
X132431633Y-109645500D01*
X132568367Y-109645500D01*
X132699561Y-109606978D01*
X132814589Y-109533055D01*
X132904130Y-109429718D01*
X132960931Y-109305342D01*
X132978952Y-109180000D01*
X133419610Y-109180000D01*
X133439068Y-109315337D01*
X133439070Y-109315345D01*
X133495867Y-109439714D01*
X133495872Y-109439721D01*
X133585409Y-109543053D01*
X133585413Y-109543057D01*
X133634587Y-109574658D01*
X133700439Y-109616978D01*
X133766035Y-109636238D01*
X133831632Y-109655500D01*
X133831633Y-109655500D01*
X133968367Y-109655500D01*
X134099561Y-109616978D01*
X134214589Y-109543055D01*
X134304130Y-109439718D01*
X134360931Y-109315342D01*
X134380390Y-109180000D01*
X134360931Y-109044658D01*
X134348677Y-109017827D01*
X134304132Y-108920285D01*
X134304127Y-108920278D01*
X134214590Y-108816946D01*
X134214586Y-108816942D01*
X134099559Y-108743021D01*
X133968368Y-108704500D01*
X133968367Y-108704500D01*
X133831633Y-108704500D01*
X133831632Y-108704500D01*
X133700440Y-108743021D01*
X133585413Y-108816942D01*
X133585409Y-108816946D01*
X133495872Y-108920278D01*
X133495867Y-108920285D01*
X133439070Y-109044654D01*
X133439068Y-109044662D01*
X133419610Y-109180000D01*
X132978952Y-109180000D01*
X132980390Y-109170000D01*
X132960931Y-109034658D01*
X132948677Y-109007827D01*
X132904132Y-108910285D01*
X132904127Y-108910278D01*
X132814590Y-108806946D01*
X132814586Y-108806942D01*
X132723736Y-108748558D01*
X132699561Y-108733022D01*
X132699560Y-108733021D01*
X132699559Y-108733021D01*
X132568368Y-108694500D01*
X132568367Y-108694500D01*
X132431633Y-108694500D01*
X132431632Y-108694500D01*
X132300440Y-108733021D01*
X132185413Y-108806942D01*
X132185409Y-108806946D01*
X132095872Y-108910278D01*
X132095867Y-108910285D01*
X132039070Y-109034654D01*
X132039068Y-109034662D01*
X132019610Y-109169999D01*
X122959843Y-109169999D01*
X121547579Y-104823499D01*
X135173110Y-104823499D01*
X135192568Y-104958837D01*
X135192570Y-104958845D01*
X135249367Y-105083214D01*
X135249372Y-105083221D01*
X135338909Y-105186553D01*
X135338913Y-105186557D01*
X135371272Y-105207352D01*
X135453939Y-105260478D01*
X135508539Y-105276510D01*
X135585132Y-105299000D01*
X135585133Y-105299000D01*
X135721867Y-105299000D01*
X135853061Y-105260478D01*
X135968089Y-105186555D01*
X136057630Y-105083218D01*
X136057705Y-105083055D01*
X136070363Y-105055337D01*
X136114431Y-104958842D01*
X136133890Y-104823500D01*
X136114431Y-104688158D01*
X136099681Y-104655860D01*
X136057632Y-104563785D01*
X136057627Y-104563778D01*
X135968090Y-104460446D01*
X135968086Y-104460442D01*
X135853059Y-104386521D01*
X135721868Y-104348000D01*
X135721867Y-104348000D01*
X135585133Y-104348000D01*
X135585132Y-104348000D01*
X135453940Y-104386521D01*
X135338913Y-104460442D01*
X135338909Y-104460446D01*
X135249372Y-104563778D01*
X135249367Y-104563785D01*
X135192570Y-104688154D01*
X135192568Y-104688162D01*
X135173110Y-104823499D01*
X121547579Y-104823499D01*
X121334676Y-104168250D01*
X127691360Y-104168250D01*
X127691439Y-104168797D01*
X127710818Y-104303587D01*
X127710820Y-104303595D01*
X127767617Y-104427964D01*
X127767622Y-104427971D01*
X127857159Y-104531303D01*
X127857163Y-104531307D01*
X127917729Y-104570229D01*
X127972189Y-104605228D01*
X128037786Y-104624488D01*
X128103382Y-104643750D01*
X128103383Y-104643750D01*
X128240117Y-104643750D01*
X128371311Y-104605228D01*
X128486339Y-104531305D01*
X128575880Y-104427968D01*
X128632681Y-104303592D01*
X128652140Y-104168250D01*
X128632681Y-104032908D01*
X128614725Y-103993590D01*
X128575882Y-103908535D01*
X128575877Y-103908528D01*
X128486340Y-103805196D01*
X128486336Y-103805192D01*
X128376586Y-103734662D01*
X128371311Y-103731272D01*
X128371310Y-103731271D01*
X128371309Y-103731271D01*
X128240118Y-103692750D01*
X128240117Y-103692750D01*
X128103383Y-103692750D01*
X128103382Y-103692750D01*
X127972190Y-103731271D01*
X127857163Y-103805192D01*
X127857159Y-103805196D01*
X127767622Y-103908528D01*
X127767617Y-103908535D01*
X127710820Y-104032904D01*
X127710818Y-104032912D01*
X127693473Y-104153551D01*
X127691360Y-104168250D01*
X121334676Y-104168250D01*
X120451463Y-101450000D01*
X132549610Y-101450000D01*
X132569068Y-101585337D01*
X132569070Y-101585345D01*
X132625867Y-101709714D01*
X132625872Y-101709721D01*
X132715409Y-101813053D01*
X132715413Y-101813057D01*
X132747352Y-101833582D01*
X132830439Y-101886978D01*
X132896035Y-101906238D01*
X132961632Y-101925500D01*
X132961633Y-101925500D01*
X133098367Y-101925500D01*
X133229561Y-101886978D01*
X133337962Y-101817313D01*
X133405001Y-101797630D01*
X133472037Y-101817313D01*
X133580439Y-101886978D01*
X133580441Y-101886978D01*
X133580442Y-101886979D01*
X133711632Y-101925500D01*
X133711633Y-101925500D01*
X133848367Y-101925500D01*
X133979561Y-101886978D01*
X134094589Y-101813055D01*
X134184130Y-101709718D01*
X134240931Y-101585342D01*
X134260390Y-101450000D01*
X134240931Y-101314658D01*
X134240928Y-101314652D01*
X134239372Y-101309352D01*
X134239366Y-101239483D01*
X134277135Y-101180701D01*
X134340688Y-101151671D01*
X134393281Y-101155430D01*
X134461632Y-101175500D01*
X134461633Y-101175500D01*
X134598367Y-101175500D01*
X134729561Y-101136978D01*
X134844589Y-101063055D01*
X134934130Y-100959718D01*
X134990931Y-100835342D01*
X135010390Y-100700000D01*
X134990931Y-100564658D01*
X134974836Y-100529416D01*
X134934132Y-100440285D01*
X134934127Y-100440278D01*
X134844590Y-100336946D01*
X134844586Y-100336942D01*
X134729559Y-100263021D01*
X134598368Y-100224500D01*
X134598367Y-100224500D01*
X134461633Y-100224500D01*
X134461632Y-100224500D01*
X134330443Y-100263020D01*
X134330440Y-100263021D01*
X134330439Y-100263022D01*
X134311510Y-100275187D01*
X134222037Y-100332686D01*
X134154997Y-100352369D01*
X134087961Y-100332685D01*
X133979559Y-100263021D01*
X133848368Y-100224500D01*
X133848367Y-100224500D01*
X133711633Y-100224500D01*
X133711632Y-100224500D01*
X133580440Y-100263021D01*
X133472038Y-100332685D01*
X133404998Y-100352369D01*
X133337962Y-100332685D01*
X133229559Y-100263021D01*
X133098368Y-100224500D01*
X133098367Y-100224500D01*
X132961633Y-100224500D01*
X132961632Y-100224500D01*
X132830440Y-100263021D01*
X132715413Y-100336942D01*
X132715409Y-100336946D01*
X132625872Y-100440278D01*
X132625867Y-100440285D01*
X132569070Y-100564654D01*
X132569068Y-100564662D01*
X132549610Y-100699999D01*
X132549610Y-100700000D01*
X132556194Y-100745794D01*
X132569068Y-100835337D01*
X132569070Y-100835345D01*
X132625867Y-100959714D01*
X132625869Y-100959716D01*
X132625870Y-100959718D01*
X132655399Y-100993797D01*
X132684424Y-101057352D01*
X132674480Y-101126510D01*
X132655401Y-101156200D01*
X132625870Y-101190281D01*
X132625867Y-101190285D01*
X132569070Y-101314654D01*
X132569068Y-101314662D01*
X132549610Y-101450000D01*
X120451463Y-101450000D01*
X118657906Y-95929999D01*
X124459610Y-95929999D01*
X124479068Y-96065337D01*
X124479070Y-96065345D01*
X124535867Y-96189714D01*
X124535872Y-96189721D01*
X124625409Y-96293053D01*
X124625413Y-96293057D01*
X124675897Y-96325500D01*
X124740439Y-96366978D01*
X124806035Y-96386238D01*
X124871632Y-96405500D01*
X124871633Y-96405500D01*
X125008367Y-96405500D01*
X125139561Y-96366978D01*
X125254589Y-96293055D01*
X125344130Y-96189718D01*
X125400931Y-96065342D01*
X125420390Y-95930000D01*
X125418952Y-95920000D01*
X129704610Y-95920000D01*
X129724068Y-96055337D01*
X129724070Y-96055345D01*
X129780867Y-96179714D01*
X129780872Y-96179721D01*
X129870409Y-96283053D01*
X129870413Y-96283057D01*
X129888727Y-96294826D01*
X129985439Y-96356978D01*
X130019496Y-96366978D01*
X130116632Y-96395500D01*
X130116633Y-96395500D01*
X130253367Y-96395500D01*
X130384561Y-96356978D01*
X130499589Y-96283055D01*
X130589130Y-96179718D01*
X130592189Y-96173021D01*
X130605005Y-96144957D01*
X130645931Y-96055342D01*
X130665390Y-95920000D01*
X130645931Y-95784658D01*
X130632615Y-95755500D01*
X130589132Y-95660285D01*
X130589127Y-95660278D01*
X130499590Y-95556946D01*
X130499586Y-95556942D01*
X130408736Y-95498558D01*
X130384561Y-95483022D01*
X130384560Y-95483021D01*
X130384559Y-95483021D01*
X130253368Y-95444500D01*
X130253367Y-95444500D01*
X130116633Y-95444500D01*
X130116632Y-95444500D01*
X129985440Y-95483021D01*
X129870413Y-95556942D01*
X129870409Y-95556946D01*
X129780872Y-95660278D01*
X129780867Y-95660285D01*
X129724070Y-95784654D01*
X129724068Y-95784662D01*
X129704610Y-95920000D01*
X125418952Y-95920000D01*
X125400931Y-95794658D01*
X125383048Y-95755500D01*
X125344132Y-95670285D01*
X125344127Y-95670278D01*
X125254590Y-95566946D01*
X125254586Y-95566942D01*
X125139559Y-95493021D01*
X125008368Y-95454500D01*
X125008367Y-95454500D01*
X124871633Y-95454500D01*
X124871632Y-95454500D01*
X124740440Y-95493021D01*
X124625413Y-95566942D01*
X124625409Y-95566946D01*
X124535872Y-95670278D01*
X124535867Y-95670285D01*
X124479070Y-95794654D01*
X124479068Y-95794662D01*
X124459610Y-95929999D01*
X118657906Y-95929999D01*
X117549930Y-92520000D01*
X132499610Y-92520000D01*
X132502132Y-92537541D01*
X132519068Y-92655337D01*
X132519070Y-92655345D01*
X132575867Y-92779714D01*
X132575872Y-92779721D01*
X132665409Y-92883053D01*
X132665413Y-92883057D01*
X132725979Y-92921979D01*
X132780439Y-92956978D01*
X132814384Y-92966945D01*
X132911632Y-92995500D01*
X132911633Y-92995500D01*
X132943812Y-92995500D01*
X133010851Y-93015185D01*
X133031493Y-93031819D01*
X134994525Y-94994851D01*
X135028010Y-95056174D01*
X135023026Y-95125866D01*
X134981154Y-95181799D01*
X134915690Y-95206216D01*
X134906844Y-95206532D01*
X134265009Y-95206532D01*
X134197970Y-95186847D01*
X134183189Y-95174039D01*
X134182543Y-95174786D01*
X134175839Y-95168977D01*
X134080251Y-95107548D01*
X134060810Y-95095054D01*
X134060809Y-95095053D01*
X134060808Y-95095053D01*
X133929617Y-95056532D01*
X133929616Y-95056532D01*
X133792882Y-95056532D01*
X133792881Y-95056532D01*
X133661689Y-95095053D01*
X133546662Y-95168974D01*
X133546658Y-95168978D01*
X133457121Y-95272310D01*
X133457116Y-95272317D01*
X133400319Y-95396686D01*
X133400317Y-95396694D01*
X133380859Y-95532032D01*
X133400317Y-95667369D01*
X133400319Y-95667377D01*
X133457116Y-95791746D01*
X133457121Y-95791753D01*
X133546658Y-95895085D01*
X133546662Y-95895089D01*
X133585093Y-95919786D01*
X133661688Y-95969010D01*
X133707992Y-95982606D01*
X133792881Y-96007532D01*
X133792882Y-96007532D01*
X133929616Y-96007532D01*
X134060810Y-95969010D01*
X134175838Y-95895087D01*
X134175840Y-95895085D01*
X134182543Y-95889278D01*
X134184671Y-95891734D01*
X134230070Y-95862556D01*
X134265009Y-95857532D01*
X135310870Y-95857532D01*
X135377909Y-95877217D01*
X135398551Y-95893851D01*
X136008181Y-96503481D01*
X136041666Y-96564804D01*
X136044500Y-96591162D01*
X136044500Y-103933078D01*
X136044264Y-103938485D01*
X136040735Y-103978808D01*
X136051212Y-104017910D01*
X136052383Y-104023190D01*
X136059411Y-104063043D01*
X136061235Y-104068055D01*
X136068197Y-104084861D01*
X136070445Y-104089681D01*
X136070446Y-104089684D01*
X136070865Y-104090282D01*
X136093655Y-104122831D01*
X136096561Y-104127392D01*
X136116806Y-104162455D01*
X136147815Y-104188475D01*
X136151805Y-104192131D01*
X137457863Y-105498189D01*
X137461518Y-105502178D01*
X137487541Y-105533190D01*
X137487543Y-105533191D01*
X137487545Y-105533194D01*
X137487547Y-105533195D01*
X137487548Y-105533196D01*
X137522599Y-105553433D01*
X137527162Y-105556339D01*
X137560316Y-105579554D01*
X137560319Y-105579554D01*
X137565176Y-105581820D01*
X137581933Y-105588760D01*
X137586950Y-105590586D01*
X137586952Y-105590586D01*
X137586955Y-105590588D01*
X137626818Y-105597616D01*
X137632076Y-105598782D01*
X137671193Y-105609264D01*
X137711518Y-105605735D01*
X137716922Y-105605500D01*
X139783078Y-105605500D01*
X139788481Y-105605735D01*
X139828807Y-105609264D01*
X139867940Y-105598777D01*
X139873162Y-105597619D01*
X139913045Y-105590588D01*
X139913050Y-105590584D01*
X139918099Y-105588747D01*
X139934824Y-105581819D01*
X139939681Y-105579554D01*
X139939684Y-105579554D01*
X139972841Y-105556335D01*
X139977390Y-105553438D01*
X140012455Y-105533194D01*
X140012459Y-105533190D01*
X140038476Y-105502182D01*
X140042122Y-105498202D01*
X140620324Y-104920000D01*
X143269610Y-104920000D01*
X143273338Y-104945932D01*
X143289068Y-105055337D01*
X143289070Y-105055345D01*
X143345867Y-105179714D01*
X143345872Y-105179721D01*
X143435409Y-105283053D01*
X143435413Y-105283057D01*
X143479212Y-105311204D01*
X143550439Y-105356978D01*
X143592159Y-105369228D01*
X143681632Y-105395500D01*
X143681633Y-105395500D01*
X143818367Y-105395500D01*
X143949561Y-105356978D01*
X144064589Y-105283055D01*
X144113214Y-105226937D01*
X144171990Y-105189164D01*
X144241860Y-105189164D01*
X144300638Y-105226937D01*
X144316283Y-105249686D01*
X144357315Y-105326450D01*
X144376231Y-105349499D01*
X144488589Y-105486410D01*
X144566366Y-105550239D01*
X144648550Y-105617685D01*
X144831046Y-105715232D01*
X145029066Y-105775300D01*
X145029065Y-105775300D01*
X145046945Y-105777061D01*
X145235000Y-105795583D01*
X145440934Y-105775300D01*
X145638954Y-105715232D01*
X145821450Y-105617685D01*
X145981410Y-105486410D01*
X146112685Y-105326450D01*
X146133913Y-105286734D01*
X146182874Y-105236891D01*
X146251012Y-105221430D01*
X146303008Y-105236526D01*
X146433801Y-105308430D01*
X146438845Y-105311203D01*
X146588002Y-105349500D01*
X146588006Y-105349500D01*
X146703342Y-105349500D01*
X146703344Y-105349500D01*
X146703349Y-105349499D01*
X146703353Y-105349499D01*
X146714632Y-105348073D01*
X146817781Y-105335043D01*
X146960962Y-105278354D01*
X147011941Y-105241315D01*
X147077748Y-105217834D01*
X147145802Y-105233659D01*
X147194184Y-105283176D01*
X147217315Y-105326450D01*
X147236231Y-105349499D01*
X147348589Y-105486410D01*
X147426366Y-105550239D01*
X147508550Y-105617685D01*
X147691046Y-105715232D01*
X147889066Y-105775300D01*
X147889065Y-105775300D01*
X147906945Y-105777061D01*
X148095000Y-105795583D01*
X148300934Y-105775300D01*
X148498954Y-105715232D01*
X148681450Y-105617685D01*
X148841410Y-105486410D01*
X148972685Y-105326450D01*
X149070232Y-105143954D01*
X149130300Y-104945934D01*
X149150583Y-104740000D01*
X149148613Y-104720000D01*
X149589610Y-104720000D01*
X149609068Y-104855337D01*
X149609070Y-104855345D01*
X149665867Y-104979714D01*
X149665872Y-104979721D01*
X149755409Y-105083053D01*
X149755413Y-105083057D01*
X149796898Y-105109717D01*
X149870439Y-105156978D01*
X149915759Y-105170285D01*
X150001632Y-105195500D01*
X150001633Y-105195500D01*
X150138367Y-105195500D01*
X150269561Y-105156978D01*
X150384589Y-105083055D01*
X150474130Y-104979718D01*
X150530931Y-104855342D01*
X150550390Y-104720000D01*
X150530931Y-104584658D01*
X150512265Y-104543785D01*
X150474132Y-104460285D01*
X150474127Y-104460278D01*
X150384590Y-104356946D01*
X150384586Y-104356942D01*
X150269559Y-104283021D01*
X150138368Y-104244500D01*
X150138367Y-104244500D01*
X150001633Y-104244500D01*
X150001632Y-104244500D01*
X149870440Y-104283021D01*
X149755413Y-104356942D01*
X149755409Y-104356946D01*
X149665872Y-104460278D01*
X149665867Y-104460285D01*
X149609070Y-104584654D01*
X149609068Y-104584662D01*
X149589610Y-104720000D01*
X149148613Y-104720000D01*
X149130300Y-104534066D01*
X149070232Y-104336046D01*
X148972685Y-104153550D01*
X148916314Y-104084861D01*
X148841410Y-103993589D01*
X148723677Y-103896969D01*
X148681450Y-103862315D01*
X148498954Y-103764768D01*
X148300934Y-103704700D01*
X148300932Y-103704699D01*
X148300934Y-103704699D01*
X148095000Y-103684417D01*
X147889067Y-103704699D01*
X147691043Y-103764769D01*
X147615413Y-103805195D01*
X147508550Y-103862315D01*
X147508548Y-103862316D01*
X147508547Y-103862317D01*
X147348589Y-103993589D01*
X147217316Y-104153547D01*
X147196085Y-104193267D01*
X147147121Y-104243110D01*
X147078983Y-104258569D01*
X147026991Y-104243473D01*
X146891158Y-104168798D01*
X146891148Y-104168795D01*
X146742001Y-104130500D01*
X146741998Y-104130500D01*
X146626656Y-104130500D01*
X146626646Y-104130500D01*
X146522622Y-104143642D01*
X146512219Y-104144957D01*
X146490513Y-104153551D01*
X146369036Y-104201646D01*
X146318056Y-104238685D01*
X146252249Y-104262164D01*
X146184196Y-104246338D01*
X146135814Y-104196820D01*
X146112686Y-104153551D01*
X146112684Y-104153549D01*
X146112682Y-104153547D01*
X146060763Y-104090282D01*
X145981410Y-103993589D01*
X145863677Y-103896969D01*
X145821450Y-103862315D01*
X145638954Y-103764768D01*
X145440934Y-103704700D01*
X145440932Y-103704699D01*
X145440934Y-103704699D01*
X145235000Y-103684417D01*
X145029067Y-103704699D01*
X144831043Y-103764769D01*
X144755413Y-103805195D01*
X144648550Y-103862315D01*
X144648548Y-103862316D01*
X144648547Y-103862317D01*
X144488589Y-103993589D01*
X144364367Y-104144957D01*
X144357315Y-104153550D01*
X144349165Y-104168798D01*
X144259767Y-104336046D01*
X144219487Y-104468831D01*
X144181190Y-104527269D01*
X144117377Y-104555726D01*
X144048310Y-104545165D01*
X144033789Y-104537151D01*
X143955665Y-104486945D01*
X143949561Y-104483022D01*
X143949560Y-104483021D01*
X143949559Y-104483021D01*
X143818368Y-104444500D01*
X143818367Y-104444500D01*
X143681633Y-104444500D01*
X143681632Y-104444500D01*
X143550440Y-104483021D01*
X143435413Y-104556942D01*
X143435409Y-104556946D01*
X143345872Y-104660278D01*
X143345867Y-104660285D01*
X143289070Y-104784654D01*
X143289068Y-104784662D01*
X143269610Y-104919999D01*
X143269610Y-104920000D01*
X140620324Y-104920000D01*
X141423289Y-104117035D01*
X141484610Y-104083552D01*
X141554302Y-104088536D01*
X141610235Y-104130408D01*
X141623762Y-104153206D01*
X141635869Y-104179716D01*
X141635872Y-104179721D01*
X141725409Y-104283053D01*
X141725413Y-104283057D01*
X141757372Y-104303595D01*
X141840439Y-104356978D01*
X141872940Y-104366521D01*
X141971632Y-104395500D01*
X141971633Y-104395500D01*
X142108367Y-104395500D01*
X142239561Y-104356978D01*
X142354589Y-104283055D01*
X142354591Y-104283052D01*
X142361289Y-104277249D01*
X142362875Y-104279079D01*
X142410713Y-104248325D01*
X142480583Y-104248314D01*
X142539367Y-104286080D01*
X142545411Y-104293055D01*
X142545413Y-104293056D01*
X142545413Y-104293057D01*
X142567077Y-104306979D01*
X142660439Y-104366978D01*
X142700715Y-104378804D01*
X142791632Y-104405500D01*
X142791633Y-104405500D01*
X142928367Y-104405500D01*
X143059561Y-104366978D01*
X143174589Y-104293055D01*
X143264130Y-104189718D01*
X143320931Y-104065342D01*
X143337886Y-103947414D01*
X143366909Y-103883861D01*
X143372928Y-103877396D01*
X144158204Y-103092120D01*
X144162166Y-103088489D01*
X144193194Y-103062455D01*
X144213438Y-103027390D01*
X144216335Y-103022841D01*
X144239554Y-102989684D01*
X144239554Y-102989681D01*
X144241819Y-102984824D01*
X144248747Y-102968099D01*
X144250584Y-102963050D01*
X144250588Y-102963045D01*
X144257619Y-102923162D01*
X144258777Y-102917940D01*
X144269264Y-102878807D01*
X144265735Y-102838478D01*
X144265500Y-102833075D01*
X144265500Y-102116920D01*
X144265736Y-102111513D01*
X144269264Y-102071193D01*
X144260448Y-102038294D01*
X144258782Y-102032076D01*
X144257616Y-102026818D01*
X144250588Y-101986955D01*
X144250586Y-101986952D01*
X144250586Y-101986950D01*
X144248760Y-101981933D01*
X144241820Y-101965176D01*
X144239554Y-101960319D01*
X144239554Y-101960316D01*
X144216339Y-101927162D01*
X144213433Y-101922599D01*
X144193196Y-101887548D01*
X144193195Y-101887547D01*
X144193194Y-101887545D01*
X144162177Y-101861518D01*
X144158193Y-101857867D01*
X141791819Y-99491492D01*
X141758334Y-99430169D01*
X141755500Y-99403811D01*
X141755500Y-98515201D01*
X141775185Y-98448162D01*
X141780543Y-98443518D01*
X141756762Y-98391445D01*
X141755500Y-98373798D01*
X141755500Y-97026187D01*
X141775185Y-96959148D01*
X141791814Y-96938511D01*
X152688208Y-86042116D01*
X152749529Y-86008633D01*
X152819221Y-86013617D01*
X152875154Y-86055489D01*
X152888681Y-86078287D01*
X152925869Y-86159716D01*
X152925872Y-86159721D01*
X153015409Y-86263053D01*
X153015413Y-86263057D01*
X153052636Y-86286978D01*
X153130439Y-86336978D01*
X153174577Y-86349938D01*
X153261632Y-86375500D01*
X153261633Y-86375500D01*
X153398367Y-86375500D01*
X153529561Y-86336978D01*
X153644589Y-86263055D01*
X153644591Y-86263053D01*
X153651294Y-86257246D01*
X153653422Y-86259702D01*
X153698821Y-86230524D01*
X153733760Y-86225500D01*
X153779750Y-86225500D01*
X153846789Y-86245185D01*
X153892544Y-86297989D01*
X153902487Y-86367145D01*
X153901287Y-86375500D01*
X153890293Y-86451961D01*
X153861267Y-86515517D01*
X153847263Y-86529300D01*
X153826807Y-86546464D01*
X153826806Y-86546466D01*
X153806562Y-86581528D01*
X153803656Y-86586088D01*
X153780446Y-86619235D01*
X153778206Y-86624039D01*
X153771229Y-86640883D01*
X153769410Y-86645881D01*
X153762383Y-86685733D01*
X153761212Y-86691013D01*
X153750735Y-86730113D01*
X153754264Y-86770435D01*
X153754500Y-86775842D01*
X153754500Y-94784811D01*
X153734815Y-94851850D01*
X153682011Y-94897605D01*
X153612853Y-94907549D01*
X153549297Y-94878524D01*
X153542819Y-94872492D01*
X152081819Y-93411492D01*
X152048334Y-93350169D01*
X152045500Y-93323811D01*
X152045500Y-90278625D01*
X152065185Y-90211586D01*
X152117989Y-90165831D01*
X152134566Y-90159648D01*
X152166931Y-90150144D01*
X152264558Y-90121479D01*
X152264559Y-90121479D01*
X152277665Y-90113057D01*
X152379589Y-90047555D01*
X152469130Y-89944218D01*
X152525931Y-89819842D01*
X152545390Y-89684500D01*
X152525931Y-89549158D01*
X152499797Y-89491933D01*
X152469132Y-89424785D01*
X152469127Y-89424778D01*
X152379590Y-89321446D01*
X152379586Y-89321442D01*
X152264559Y-89247521D01*
X152133368Y-89209000D01*
X152133367Y-89209000D01*
X151996633Y-89209000D01*
X151996632Y-89209000D01*
X151865440Y-89247521D01*
X151750413Y-89321442D01*
X151750409Y-89321446D01*
X151660872Y-89424778D01*
X151660867Y-89424785D01*
X151604070Y-89549154D01*
X151604068Y-89549162D01*
X151587114Y-89667081D01*
X151558089Y-89730637D01*
X151552057Y-89737115D01*
X151501803Y-89787370D01*
X151497814Y-89791025D01*
X151466805Y-89817045D01*
X151446562Y-89852106D01*
X151443656Y-89856666D01*
X151420446Y-89889813D01*
X151418206Y-89894617D01*
X151411229Y-89911461D01*
X151409410Y-89916459D01*
X151402383Y-89956311D01*
X151401212Y-89961591D01*
X151390735Y-90000691D01*
X151394264Y-90041013D01*
X151394500Y-90046420D01*
X151394500Y-93493078D01*
X151394264Y-93498485D01*
X151390735Y-93538808D01*
X151401212Y-93577910D01*
X151402383Y-93583190D01*
X151409411Y-93623043D01*
X151411235Y-93628055D01*
X151418197Y-93644861D01*
X151420445Y-93649681D01*
X151420446Y-93649684D01*
X151434452Y-93669687D01*
X151443655Y-93682831D01*
X151446561Y-93687392D01*
X151466806Y-93722455D01*
X151497815Y-93748475D01*
X151501805Y-93752131D01*
X155333415Y-97583741D01*
X155366900Y-97645064D01*
X155361916Y-97714756D01*
X155320044Y-97770689D01*
X155254580Y-97795106D01*
X155230192Y-97794444D01*
X155226677Y-97794000D01*
X155205455Y-97794000D01*
X155186055Y-97792473D01*
X155165096Y-97789153D01*
X155165095Y-97789153D01*
X155141286Y-97791403D01*
X155116730Y-97793725D01*
X155110892Y-97794000D01*
X148813167Y-97794000D01*
X148746128Y-97774315D01*
X148700373Y-97721511D01*
X148690429Y-97652353D01*
X148719454Y-97588797D01*
X148734503Y-97574146D01*
X148841410Y-97486410D01*
X148972685Y-97326450D01*
X149070232Y-97143954D01*
X149130300Y-96945934D01*
X149150583Y-96740000D01*
X149137779Y-96609999D01*
X150119610Y-96609999D01*
X150139068Y-96745337D01*
X150139070Y-96745345D01*
X150195867Y-96869714D01*
X150195872Y-96869721D01*
X150285409Y-96973053D01*
X150285413Y-96973057D01*
X150319851Y-96995188D01*
X150400439Y-97046978D01*
X150438944Y-97058284D01*
X150531632Y-97085500D01*
X150531633Y-97085500D01*
X150668367Y-97085500D01*
X150799561Y-97046978D01*
X150914589Y-96973055D01*
X151004130Y-96869718D01*
X151004242Y-96869474D01*
X151029410Y-96814362D01*
X151060931Y-96745342D01*
X151080390Y-96610000D01*
X151060931Y-96474658D01*
X151048677Y-96447827D01*
X151004132Y-96350285D01*
X151004127Y-96350278D01*
X150914590Y-96246946D01*
X150914586Y-96246942D01*
X150799559Y-96173021D01*
X150668368Y-96134500D01*
X150668367Y-96134500D01*
X150531633Y-96134500D01*
X150531632Y-96134500D01*
X150400440Y-96173021D01*
X150285413Y-96246942D01*
X150285409Y-96246946D01*
X150195872Y-96350278D01*
X150195867Y-96350285D01*
X150139070Y-96474654D01*
X150139068Y-96474662D01*
X150119610Y-96609999D01*
X149137779Y-96609999D01*
X149130300Y-96534066D01*
X149070232Y-96336046D01*
X148972685Y-96153550D01*
X148920702Y-96090209D01*
X148841410Y-95993589D01*
X148699608Y-95877217D01*
X148681450Y-95862315D01*
X148498954Y-95764768D01*
X148300934Y-95704700D01*
X148300932Y-95704699D01*
X148300934Y-95704699D01*
X148113463Y-95686235D01*
X148095000Y-95684417D01*
X148094999Y-95684417D01*
X147889067Y-95704699D01*
X147691043Y-95764769D01*
X147580898Y-95823643D01*
X147508550Y-95862315D01*
X147508548Y-95862316D01*
X147508547Y-95862317D01*
X147348589Y-95993589D01*
X147217316Y-96153547D01*
X147196085Y-96193267D01*
X147147121Y-96243110D01*
X147078983Y-96258569D01*
X147026991Y-96243473D01*
X146891158Y-96168798D01*
X146891148Y-96168795D01*
X146742001Y-96130500D01*
X146741998Y-96130500D01*
X146626656Y-96130500D01*
X146626646Y-96130500D01*
X146522622Y-96143642D01*
X146512219Y-96144957D01*
X146464492Y-96163853D01*
X146369036Y-96201646D01*
X146318056Y-96238685D01*
X146252249Y-96262164D01*
X146184196Y-96246338D01*
X146135814Y-96196820D01*
X146112686Y-96153551D01*
X146112684Y-96153549D01*
X146112682Y-96153547D01*
X146062247Y-96092091D01*
X145981410Y-95993589D01*
X145839608Y-95877217D01*
X145821450Y-95862315D01*
X145638954Y-95764768D01*
X145440934Y-95704700D01*
X145440932Y-95704699D01*
X145440934Y-95704699D01*
X145253463Y-95686235D01*
X145235000Y-95684417D01*
X145234999Y-95684417D01*
X145234988Y-95684417D01*
X145232762Y-95684636D01*
X145231608Y-95684417D01*
X145228908Y-95684417D01*
X145228908Y-95683904D01*
X145164118Y-95671609D01*
X145113413Y-95623538D01*
X145096747Y-95555686D01*
X145107828Y-95509723D01*
X145150931Y-95415342D01*
X145170390Y-95280000D01*
X145150931Y-95144658D01*
X145133981Y-95107543D01*
X145094132Y-95020285D01*
X145094127Y-95020278D01*
X145004590Y-94916946D01*
X145004586Y-94916942D01*
X144895665Y-94846945D01*
X144889561Y-94843022D01*
X144889560Y-94843021D01*
X144889559Y-94843021D01*
X144758368Y-94804500D01*
X144758367Y-94804500D01*
X144621633Y-94804500D01*
X144621632Y-94804500D01*
X144490440Y-94843021D01*
X144375413Y-94916942D01*
X144375409Y-94916946D01*
X144285872Y-95020278D01*
X144285867Y-95020285D01*
X144229070Y-95144654D01*
X144229068Y-95144662D01*
X144212114Y-95262581D01*
X144183089Y-95326137D01*
X144177057Y-95332615D01*
X143591803Y-95917870D01*
X143587814Y-95921525D01*
X143556805Y-95947545D01*
X143536562Y-95982606D01*
X143533656Y-95987166D01*
X143510446Y-96020313D01*
X143508206Y-96025117D01*
X143501229Y-96041961D01*
X143499410Y-96046959D01*
X143492383Y-96086811D01*
X143491212Y-96092091D01*
X143480735Y-96131191D01*
X143484264Y-96171513D01*
X143484500Y-96176920D01*
X143484500Y-97920000D01*
X143464815Y-97987039D01*
X143412011Y-98032794D01*
X143360500Y-98044000D01*
X142767733Y-98044000D01*
X142700695Y-98024316D01*
X142674565Y-98007524D01*
X142674558Y-98007520D01*
X142543368Y-97969000D01*
X142543367Y-97969000D01*
X142406633Y-97969000D01*
X142406632Y-97969000D01*
X142275440Y-98007521D01*
X142160413Y-98081442D01*
X142160409Y-98081446D01*
X142070872Y-98184778D01*
X142070867Y-98184785D01*
X142014070Y-98309154D01*
X142014068Y-98309162D01*
X142002238Y-98391445D01*
X141976963Y-98446789D01*
X141998477Y-98480266D01*
X142002238Y-98497554D01*
X142014068Y-98579837D01*
X142014070Y-98579845D01*
X142070867Y-98704214D01*
X142070872Y-98704221D01*
X142160409Y-98807553D01*
X142160413Y-98807557D01*
X142218677Y-98845000D01*
X142275439Y-98881478D01*
X142341036Y-98900738D01*
X142406632Y-98920000D01*
X142406633Y-98920000D01*
X142543367Y-98920000D01*
X142674558Y-98881479D01*
X142674558Y-98881478D01*
X142674561Y-98881478D01*
X142682586Y-98876320D01*
X142700695Y-98864684D01*
X142767733Y-98845000D01*
X143978481Y-98845000D01*
X145807131Y-98845000D01*
X145874170Y-98864685D01*
X145892015Y-98878608D01*
X145994603Y-98974945D01*
X145994611Y-98974951D01*
X146138628Y-99054125D01*
X146138632Y-99054127D01*
X146297823Y-99095000D01*
X147613692Y-99095000D01*
X147680731Y-99114685D01*
X147701373Y-99131319D01*
X148938904Y-100368850D01*
X148972389Y-100430173D01*
X148967405Y-100499865D01*
X148925533Y-100555798D01*
X148918262Y-100560847D01*
X148815410Y-100626945D01*
X148811289Y-100631702D01*
X148752511Y-100669477D01*
X148717575Y-100674500D01*
X146856188Y-100674500D01*
X146789149Y-100654815D01*
X146768507Y-100638181D01*
X146659742Y-100529416D01*
X146626257Y-100468093D01*
X146624687Y-100459396D01*
X146607731Y-100341458D01*
X146577466Y-100275187D01*
X146550932Y-100217085D01*
X146550927Y-100217078D01*
X146461390Y-100113746D01*
X146461386Y-100113742D01*
X146346359Y-100039821D01*
X146215168Y-100001300D01*
X146215167Y-100001300D01*
X146078433Y-100001300D01*
X146078432Y-100001300D01*
X145947240Y-100039821D01*
X145832213Y-100113742D01*
X145832209Y-100113746D01*
X145742672Y-100217078D01*
X145742667Y-100217085D01*
X145685870Y-100341454D01*
X145685868Y-100341462D01*
X145666410Y-100476800D01*
X145685868Y-100612137D01*
X145685870Y-100612145D01*
X145742667Y-100736514D01*
X145742672Y-100736521D01*
X145832209Y-100839853D01*
X145832213Y-100839857D01*
X145892408Y-100878541D01*
X145947239Y-100913778D01*
X145997432Y-100928516D01*
X146078432Y-100952300D01*
X146078433Y-100952300D01*
X146110612Y-100952300D01*
X146177651Y-100971985D01*
X146198293Y-100988619D01*
X146427863Y-101218189D01*
X146431518Y-101222178D01*
X146457541Y-101253190D01*
X146457543Y-101253191D01*
X146457545Y-101253194D01*
X146457547Y-101253195D01*
X146457548Y-101253196D01*
X146492599Y-101273433D01*
X146497162Y-101276339D01*
X146530316Y-101299554D01*
X146530319Y-101299554D01*
X146535176Y-101301820D01*
X146551942Y-101308764D01*
X146556951Y-101310587D01*
X146556954Y-101310587D01*
X146556955Y-101310588D01*
X146596833Y-101317619D01*
X146602065Y-101318778D01*
X146641194Y-101329264D01*
X146681523Y-101325735D01*
X146686925Y-101325500D01*
X148737361Y-101325500D01*
X148804400Y-101345185D01*
X148811899Y-101350798D01*
X148815410Y-101353054D01*
X148815411Y-101353055D01*
X148930439Y-101426978D01*
X148996036Y-101446238D01*
X149061632Y-101465500D01*
X149061633Y-101465500D01*
X149198367Y-101465500D01*
X149329561Y-101426978D01*
X149444589Y-101353055D01*
X149534130Y-101249718D01*
X149590931Y-101125342D01*
X149590932Y-101125334D01*
X149593431Y-101116827D01*
X149595957Y-101117569D01*
X149619269Y-101066510D01*
X149678043Y-101028729D01*
X149732389Y-101025229D01*
X149818036Y-101038793D01*
X149859401Y-101045345D01*
X149859403Y-101045346D01*
X149859403Y-101045345D01*
X149859404Y-101045346D01*
X150023029Y-101029879D01*
X150177665Y-100974207D01*
X150177666Y-100974207D01*
X150177666Y-100974206D01*
X150177668Y-100974206D01*
X150313602Y-100881825D01*
X150422291Y-100758541D01*
X150496907Y-100612100D01*
X150532760Y-100451703D01*
X150527597Y-100287430D01*
X150481744Y-100129601D01*
X150398081Y-99988135D01*
X150398079Y-99988133D01*
X150398076Y-99988129D01*
X149716627Y-99306681D01*
X149683142Y-99245358D01*
X149688126Y-99175667D01*
X149729997Y-99119733D01*
X149795462Y-99095316D01*
X149804308Y-99095000D01*
X154823692Y-99095000D01*
X154890731Y-99114685D01*
X154911373Y-99131319D01*
X156778965Y-100998912D01*
X156876230Y-101074358D01*
X156876233Y-101074360D01*
X156876236Y-101074362D01*
X157027074Y-101139635D01*
X157189402Y-101165345D01*
X157189404Y-101165346D01*
X157189404Y-101165345D01*
X157189405Y-101165346D01*
X157353029Y-101149879D01*
X157507665Y-101094207D01*
X157507666Y-101094207D01*
X157507666Y-101094206D01*
X157507668Y-101094206D01*
X157643602Y-101001825D01*
X157752291Y-100878541D01*
X157810017Y-100765247D01*
X157857989Y-100714454D01*
X157925810Y-100697659D01*
X157991945Y-100720196D01*
X158035397Y-100774911D01*
X158044500Y-100821545D01*
X158044500Y-104163811D01*
X158024815Y-104230850D01*
X158008181Y-104251492D01*
X157590441Y-104669231D01*
X157529118Y-104702716D01*
X157459426Y-104697732D01*
X157403493Y-104655860D01*
X157389965Y-104633059D01*
X157384131Y-104620284D01*
X157384129Y-104620281D01*
X157315450Y-104541020D01*
X157286426Y-104477466D01*
X157296370Y-104408307D01*
X157342125Y-104355503D01*
X157374228Y-104340842D01*
X157489558Y-104306979D01*
X157489559Y-104306979D01*
X157494830Y-104303592D01*
X157604589Y-104233055D01*
X157694130Y-104129718D01*
X157750931Y-104005342D01*
X157770390Y-103870000D01*
X157750931Y-103734658D01*
X157727987Y-103684417D01*
X157694132Y-103610285D01*
X157694127Y-103610278D01*
X157604590Y-103506946D01*
X157604586Y-103506942D01*
X157489559Y-103433021D01*
X157358368Y-103394500D01*
X157358367Y-103394500D01*
X157221633Y-103394500D01*
X157221632Y-103394500D01*
X157090440Y-103433021D01*
X156975413Y-103506942D01*
X156975409Y-103506946D01*
X156885872Y-103610278D01*
X156885867Y-103610285D01*
X156829070Y-103734654D01*
X156829068Y-103734662D01*
X156809610Y-103869999D01*
X156829068Y-104005337D01*
X156829070Y-104005345D01*
X156885867Y-104129714D01*
X156885872Y-104129722D01*
X156954548Y-104208978D01*
X156983573Y-104272533D01*
X156973629Y-104341692D01*
X156927874Y-104394496D01*
X156895770Y-104409157D01*
X156780440Y-104443020D01*
X156665413Y-104516942D01*
X156665408Y-104516947D01*
X156636709Y-104550068D01*
X156577931Y-104587842D01*
X156508061Y-104587842D01*
X156449284Y-104550067D01*
X156394590Y-104486946D01*
X156394586Y-104486942D01*
X156279559Y-104413021D01*
X156148368Y-104374500D01*
X156148367Y-104374500D01*
X156011633Y-104374500D01*
X156011632Y-104374500D01*
X155880440Y-104413021D01*
X155772038Y-104482685D01*
X155704998Y-104502369D01*
X155637962Y-104482685D01*
X155529559Y-104413021D01*
X155398368Y-104374500D01*
X155398367Y-104374500D01*
X155261633Y-104374500D01*
X155261632Y-104374500D01*
X155130440Y-104413021D01*
X155022038Y-104482685D01*
X154954998Y-104502369D01*
X154887962Y-104482685D01*
X154779559Y-104413021D01*
X154648368Y-104374500D01*
X154648367Y-104374500D01*
X154511633Y-104374500D01*
X154511632Y-104374500D01*
X154380440Y-104413021D01*
X154265413Y-104486942D01*
X154265409Y-104486946D01*
X154175872Y-104590278D01*
X154175867Y-104590285D01*
X154119070Y-104714654D01*
X154119068Y-104714662D01*
X154102181Y-104832117D01*
X154099610Y-104850000D01*
X154103740Y-104878723D01*
X154119068Y-104985337D01*
X154119070Y-104985345D01*
X154175867Y-105109714D01*
X154175869Y-105109716D01*
X154175870Y-105109718D01*
X154205399Y-105143797D01*
X154234424Y-105207352D01*
X154224480Y-105276510D01*
X154205401Y-105306200D01*
X154175870Y-105340281D01*
X154175869Y-105340283D01*
X154147184Y-105403094D01*
X154101429Y-105455898D01*
X154034389Y-105475582D01*
X153967350Y-105455897D01*
X153921595Y-105403093D01*
X153911652Y-105369228D01*
X153909891Y-105356978D01*
X153900931Y-105294658D01*
X153878196Y-105244875D01*
X153844132Y-105170285D01*
X153844127Y-105170278D01*
X153754590Y-105066946D01*
X153754586Y-105066942D01*
X153651485Y-105000685D01*
X153605729Y-104947882D01*
X153595785Y-104878723D01*
X153624809Y-104815167D01*
X153653391Y-104793780D01*
X153652101Y-104791772D01*
X153671487Y-104779314D01*
X153763827Y-104719971D01*
X153774586Y-104713057D01*
X153774586Y-104713056D01*
X153774589Y-104713055D01*
X153864130Y-104609718D01*
X153920931Y-104485342D01*
X153940390Y-104350000D01*
X153920931Y-104214658D01*
X153893023Y-104153549D01*
X153864132Y-104090285D01*
X153864130Y-104090283D01*
X153864130Y-104090282D01*
X153832016Y-104053220D01*
X153802992Y-103989666D01*
X153812936Y-103920508D01*
X153858690Y-103867704D01*
X153890796Y-103853042D01*
X153944508Y-103837270D01*
X153979558Y-103826979D01*
X153979559Y-103826979D01*
X153997929Y-103815174D01*
X154094589Y-103753055D01*
X154184130Y-103649718D01*
X154240931Y-103525342D01*
X154260390Y-103390000D01*
X154240931Y-103254658D01*
X154201015Y-103167254D01*
X154184132Y-103130285D01*
X154184127Y-103130278D01*
X154094590Y-103026946D01*
X154094586Y-103026942D01*
X153979559Y-102953021D01*
X153848368Y-102914500D01*
X153848367Y-102914500D01*
X153711633Y-102914500D01*
X153711632Y-102914500D01*
X153580440Y-102953021D01*
X153465413Y-103026942D01*
X153465409Y-103026946D01*
X153375872Y-103130278D01*
X153375867Y-103130285D01*
X153319070Y-103254654D01*
X153319068Y-103254662D01*
X153299610Y-103389999D01*
X153319068Y-103525337D01*
X153319070Y-103525345D01*
X153375867Y-103649714D01*
X153375869Y-103649716D01*
X153375870Y-103649718D01*
X153407982Y-103686778D01*
X153437007Y-103750333D01*
X153427063Y-103819491D01*
X153381308Y-103872295D01*
X153349205Y-103886957D01*
X153260440Y-103913021D01*
X153145413Y-103986942D01*
X153145409Y-103986946D01*
X153055872Y-104090278D01*
X153055867Y-104090285D01*
X152999070Y-104214654D01*
X152999068Y-104214662D01*
X152979610Y-104349999D01*
X152979610Y-104350000D01*
X152982051Y-104366978D01*
X152999068Y-104485337D01*
X152999070Y-104485345D01*
X153055867Y-104609714D01*
X153055872Y-104609721D01*
X153145409Y-104713053D01*
X153145413Y-104713057D01*
X153194587Y-104744658D01*
X153248514Y-104779314D01*
X153294270Y-104832117D01*
X153304214Y-104901276D01*
X153275190Y-104964832D01*
X153246626Y-104986248D01*
X153247899Y-104988228D01*
X153125413Y-105066942D01*
X153125409Y-105066946D01*
X153035872Y-105170278D01*
X153035867Y-105170285D01*
X152979070Y-105294654D01*
X152979068Y-105294662D01*
X152959610Y-105430000D01*
X152980187Y-105573120D01*
X152970243Y-105642279D01*
X152924488Y-105695083D01*
X152857448Y-105714767D01*
X152790409Y-105695082D01*
X152769768Y-105678448D01*
X152651819Y-105560499D01*
X152618334Y-105499176D01*
X152615500Y-105472818D01*
X152615500Y-103100688D01*
X152635185Y-103033649D01*
X152651819Y-103013007D01*
X154808507Y-100856319D01*
X154869830Y-100822834D01*
X154896188Y-100820000D01*
X154928367Y-100820000D01*
X155059561Y-100781478D01*
X155174589Y-100707555D01*
X155264130Y-100604218D01*
X155320931Y-100479842D01*
X155340390Y-100344500D01*
X155320931Y-100209158D01*
X155295033Y-100152449D01*
X155264132Y-100084785D01*
X155264127Y-100084778D01*
X155174590Y-99981446D01*
X155174586Y-99981442D01*
X155059559Y-99907521D01*
X154928368Y-99869000D01*
X154928367Y-99869000D01*
X154791633Y-99869000D01*
X154791632Y-99869000D01*
X154660440Y-99907521D01*
X154545413Y-99981442D01*
X154545409Y-99981446D01*
X154455872Y-100084778D01*
X154455867Y-100084785D01*
X154399070Y-100209154D01*
X154399068Y-100209162D01*
X154382114Y-100327081D01*
X154353089Y-100390637D01*
X154347057Y-100397115D01*
X152071803Y-102672370D01*
X152067814Y-102676025D01*
X152036805Y-102702045D01*
X152016562Y-102737106D01*
X152013656Y-102741666D01*
X151990446Y-102774813D01*
X151988206Y-102779617D01*
X151981229Y-102796461D01*
X151979410Y-102801459D01*
X151972383Y-102841311D01*
X151971212Y-102846591D01*
X151960735Y-102885691D01*
X151964264Y-102926013D01*
X151964500Y-102931420D01*
X151964500Y-105642084D01*
X151964264Y-105647491D01*
X151960735Y-105687814D01*
X151971212Y-105726916D01*
X151972383Y-105732196D01*
X151979411Y-105772049D01*
X151981235Y-105777061D01*
X151988197Y-105793867D01*
X151990445Y-105798687D01*
X151990446Y-105798690D01*
X151995104Y-105805342D01*
X152013655Y-105831837D01*
X152016561Y-105836398D01*
X152036806Y-105871461D01*
X152067815Y-105897481D01*
X152071805Y-105901137D01*
X153707554Y-107536886D01*
X153741039Y-107598209D01*
X153742611Y-107606920D01*
X153759565Y-107724840D01*
X153759567Y-107724848D01*
X153816364Y-107849217D01*
X153816369Y-107849224D01*
X153905906Y-107952556D01*
X153905908Y-107952558D01*
X154020703Y-108026331D01*
X154066458Y-108079135D01*
X154076402Y-108148293D01*
X154047377Y-108211849D01*
X154041345Y-108218328D01*
X152911493Y-109348181D01*
X152850170Y-109381666D01*
X152823812Y-109384500D01*
X137653760Y-109384500D01*
X137586721Y-109364815D01*
X137571940Y-109352007D01*
X137571294Y-109352754D01*
X137564590Y-109346945D01*
X137449559Y-109273021D01*
X137318368Y-109234500D01*
X137318367Y-109234500D01*
X137181633Y-109234500D01*
X137181632Y-109234500D01*
X137050440Y-109273021D01*
X136935413Y-109346942D01*
X136935409Y-109346946D01*
X136845872Y-109450278D01*
X136845867Y-109450285D01*
X136789070Y-109574654D01*
X136789068Y-109574662D01*
X136769610Y-109709999D01*
X136789068Y-109845337D01*
X136789070Y-109845345D01*
X136845867Y-109969714D01*
X136845869Y-109969716D01*
X136845870Y-109969718D01*
X136894213Y-110025509D01*
X136923238Y-110089063D01*
X136924500Y-110106711D01*
X136924500Y-110993288D01*
X136904815Y-111060327D01*
X136894213Y-111074490D01*
X136845872Y-111130277D01*
X136845867Y-111130285D01*
X136789070Y-111254654D01*
X136789068Y-111254662D01*
X136769610Y-111390000D01*
X136789068Y-111525337D01*
X136789070Y-111525345D01*
X136845867Y-111649714D01*
X136845872Y-111649721D01*
X136935409Y-111753053D01*
X136935413Y-111753057D01*
X136995979Y-111791979D01*
X137050439Y-111826978D01*
X137093085Y-111839500D01*
X137181632Y-111865500D01*
X137181633Y-111865500D01*
X137318367Y-111865500D01*
X137449561Y-111826978D01*
X137564589Y-111753055D01*
X137654130Y-111649718D01*
X137710931Y-111525342D01*
X137730390Y-111390000D01*
X137710931Y-111254658D01*
X137677296Y-111181009D01*
X137667354Y-111111852D01*
X137696379Y-111048297D01*
X137755158Y-111010523D01*
X137790092Y-111005500D01*
X137818367Y-111005500D01*
X137949561Y-110966978D01*
X138064589Y-110893055D01*
X138154130Y-110789718D01*
X138210931Y-110665342D01*
X138230390Y-110530000D01*
X138210931Y-110394658D01*
X138186096Y-110340278D01*
X138154132Y-110270285D01*
X138154130Y-110270283D01*
X138154130Y-110270282D01*
X138128498Y-110240701D01*
X138099475Y-110177146D01*
X138109419Y-110107988D01*
X138155174Y-110055184D01*
X138222213Y-110035500D01*
X152993078Y-110035500D01*
X152998481Y-110035735D01*
X153038807Y-110039264D01*
X153077940Y-110028777D01*
X153083162Y-110027619D01*
X153123045Y-110020588D01*
X153123050Y-110020584D01*
X153128099Y-110018747D01*
X153144824Y-110011819D01*
X153149681Y-110009554D01*
X153149684Y-110009554D01*
X153182841Y-109986335D01*
X153187390Y-109983438D01*
X153222455Y-109963194D01*
X153248481Y-109932176D01*
X153252122Y-109928202D01*
X156892828Y-106287496D01*
X156954149Y-106254013D01*
X157023841Y-106258997D01*
X157074220Y-106293977D01*
X157125409Y-106353053D01*
X157125413Y-106353057D01*
X157185979Y-106391979D01*
X157240439Y-106426978D01*
X157306035Y-106446238D01*
X157371632Y-106465500D01*
X157371633Y-106465500D01*
X157508367Y-106465500D01*
X157639561Y-106426978D01*
X157754589Y-106353055D01*
X157844130Y-106249718D01*
X157844548Y-106248804D01*
X157891725Y-106145500D01*
X157900931Y-106125342D01*
X157920390Y-105990000D01*
X157900931Y-105854658D01*
X157888677Y-105827827D01*
X157844132Y-105730285D01*
X157844127Y-105730278D01*
X157754590Y-105626946D01*
X157747884Y-105621135D01*
X157750249Y-105618405D01*
X157715738Y-105578494D01*
X157705867Y-105509325D01*
X157734958Y-105445800D01*
X157740891Y-105439433D01*
X158588204Y-104592120D01*
X158592166Y-104588489D01*
X158623194Y-104562455D01*
X158643438Y-104527390D01*
X158646335Y-104522841D01*
X158669554Y-104489684D01*
X158669554Y-104489681D01*
X158671819Y-104484824D01*
X158678747Y-104468099D01*
X158680584Y-104463050D01*
X158680588Y-104463045D01*
X158687619Y-104423162D01*
X158688777Y-104417940D01*
X158699264Y-104378807D01*
X158695735Y-104338478D01*
X158695500Y-104333075D01*
X158695500Y-100275187D01*
X158715185Y-100208148D01*
X158767989Y-100162393D01*
X158837147Y-100152449D01*
X158900703Y-100181474D01*
X158907181Y-100187506D01*
X159698181Y-100978506D01*
X159731666Y-101039829D01*
X159734500Y-101066187D01*
X159734500Y-106033812D01*
X159714815Y-106100851D01*
X159698181Y-106121493D01*
X153911493Y-111908181D01*
X153850170Y-111941666D01*
X153823812Y-111944500D01*
X153791632Y-111944500D01*
X153660440Y-111983021D01*
X153545413Y-112056942D01*
X153545409Y-112056946D01*
X153455872Y-112160278D01*
X153455867Y-112160285D01*
X153399070Y-112284654D01*
X153399068Y-112284662D01*
X153379610Y-112420000D01*
X153399068Y-112555337D01*
X153399070Y-112555345D01*
X153455867Y-112679714D01*
X153455872Y-112679721D01*
X153545409Y-112783053D01*
X153545413Y-112783057D01*
X153605979Y-112821979D01*
X153660439Y-112856978D01*
X153715080Y-112873022D01*
X153791632Y-112895500D01*
X153791633Y-112895500D01*
X153928367Y-112895500D01*
X154059561Y-112856978D01*
X154174589Y-112783055D01*
X154264130Y-112679718D01*
X154264890Y-112678055D01*
X154301916Y-112596978D01*
X154320931Y-112555342D01*
X154337886Y-112437414D01*
X154366909Y-112373861D01*
X154372928Y-112367396D01*
X160278204Y-106462120D01*
X160282166Y-106458489D01*
X160313194Y-106432455D01*
X160333438Y-106397390D01*
X160336335Y-106392841D01*
X160359554Y-106359684D01*
X160359554Y-106359681D01*
X160361819Y-106354824D01*
X160368747Y-106338099D01*
X160370584Y-106333050D01*
X160370588Y-106333045D01*
X160377619Y-106293162D01*
X160378777Y-106287940D01*
X160389264Y-106248807D01*
X160385735Y-106208481D01*
X160385500Y-106203078D01*
X160385500Y-104803500D01*
X160673110Y-104803500D01*
X160679694Y-104849294D01*
X160692568Y-104938837D01*
X160692570Y-104938845D01*
X160749367Y-105063214D01*
X160749372Y-105063222D01*
X160837622Y-105165068D01*
X160866647Y-105228624D01*
X160856703Y-105297782D01*
X160837623Y-105327471D01*
X160765872Y-105410277D01*
X160765867Y-105410285D01*
X160709070Y-105534654D01*
X160709068Y-105534662D01*
X160689610Y-105669999D01*
X160709068Y-105805337D01*
X160709070Y-105805345D01*
X160765867Y-105929714D01*
X160765872Y-105929721D01*
X160855409Y-106033053D01*
X160855413Y-106033057D01*
X160915979Y-106071979D01*
X160970439Y-106106978D01*
X161019873Y-106121493D01*
X161101632Y-106145500D01*
X161101633Y-106145500D01*
X161238367Y-106145500D01*
X161369561Y-106106978D01*
X161484589Y-106033055D01*
X161574130Y-105929718D01*
X161630931Y-105805342D01*
X161650390Y-105670000D01*
X161630931Y-105534658D01*
X161603952Y-105475582D01*
X161574132Y-105410285D01*
X161574127Y-105410277D01*
X161485876Y-105308430D01*
X161456851Y-105244875D01*
X161466795Y-105175716D01*
X161485873Y-105146030D01*
X161536854Y-105087194D01*
X161557627Y-105063222D01*
X161557628Y-105063220D01*
X161557630Y-105063218D01*
X161614431Y-104938842D01*
X161633890Y-104803500D01*
X161614431Y-104668158D01*
X161587742Y-104609718D01*
X161557632Y-104543785D01*
X161557627Y-104543778D01*
X161468090Y-104440446D01*
X161468086Y-104440442D01*
X161365475Y-104374500D01*
X161353061Y-104366522D01*
X161353060Y-104366521D01*
X161353059Y-104366521D01*
X161221868Y-104328000D01*
X161221867Y-104328000D01*
X161085133Y-104328000D01*
X161085132Y-104328000D01*
X160953940Y-104366521D01*
X160838913Y-104440442D01*
X160838909Y-104440446D01*
X160749372Y-104543778D01*
X160749367Y-104543785D01*
X160692570Y-104668154D01*
X160692568Y-104668162D01*
X160673110Y-104803499D01*
X160673110Y-104803500D01*
X160385500Y-104803500D01*
X160385500Y-101051254D01*
X160405185Y-100984215D01*
X160457989Y-100938460D01*
X160527147Y-100928516D01*
X160590703Y-100957541D01*
X160597168Y-100963560D01*
X161556207Y-101922599D01*
X162713181Y-103079573D01*
X162746666Y-103140896D01*
X162749500Y-103167254D01*
X162749500Y-116280500D01*
X162729815Y-116347539D01*
X162677011Y-116393294D01*
X162625500Y-116404500D01*
X162507132Y-116404500D01*
X162375940Y-116443021D01*
X162260913Y-116516942D01*
X162260909Y-116516946D01*
X162171372Y-116620278D01*
X162171367Y-116620285D01*
X162114570Y-116744654D01*
X162114568Y-116744662D01*
X162095110Y-116880000D01*
X162114568Y-117015337D01*
X162114570Y-117015345D01*
X162171367Y-117139714D01*
X162171372Y-117139721D01*
X162260909Y-117243053D01*
X162260913Y-117243057D01*
X162321479Y-117281979D01*
X162375939Y-117316978D01*
X162401499Y-117324483D01*
X162507132Y-117355500D01*
X162625500Y-117355500D01*
X162692539Y-117375185D01*
X162738294Y-117427989D01*
X162749500Y-117479500D01*
X162749500Y-119925359D01*
X162738294Y-119976870D01*
X162689070Y-120084654D01*
X162689069Y-120084658D01*
X162669610Y-120220000D01*
X162674333Y-120252854D01*
X162664391Y-120322010D01*
X162618636Y-120374815D01*
X162551597Y-120394500D01*
X162036189Y-120394500D01*
X161969150Y-120374815D01*
X161948508Y-120358181D01*
X155862942Y-114272616D01*
X155829457Y-114211293D01*
X155827887Y-114202596D01*
X155810931Y-114084658D01*
X155775456Y-114006979D01*
X155754132Y-113960285D01*
X155754127Y-113960278D01*
X155664590Y-113856946D01*
X155664586Y-113856942D01*
X155549559Y-113783021D01*
X155418368Y-113744500D01*
X155418367Y-113744500D01*
X155281633Y-113744500D01*
X155281632Y-113744500D01*
X155150440Y-113783021D01*
X155035413Y-113856942D01*
X155035409Y-113856946D01*
X154945872Y-113960278D01*
X154945867Y-113960285D01*
X154889070Y-114084654D01*
X154889068Y-114084662D01*
X154869610Y-114219999D01*
X154889068Y-114355337D01*
X154889070Y-114355345D01*
X154945867Y-114479714D01*
X154945872Y-114479721D01*
X155035409Y-114583053D01*
X155035413Y-114583057D01*
X155095979Y-114621979D01*
X155150439Y-114656978D01*
X155216035Y-114676238D01*
X155281632Y-114695500D01*
X155281633Y-114695500D01*
X155313812Y-114695500D01*
X155380851Y-114715185D01*
X155401493Y-114731819D01*
X161607868Y-120938195D01*
X161611523Y-120942184D01*
X161637541Y-120973190D01*
X161637543Y-120973191D01*
X161637545Y-120973194D01*
X161672599Y-120993432D01*
X161677159Y-120996337D01*
X161710316Y-121019554D01*
X161710319Y-121019554D01*
X161715176Y-121021820D01*
X161731933Y-121028760D01*
X161736953Y-121030587D01*
X161736955Y-121030588D01*
X161776830Y-121037618D01*
X161782087Y-121038784D01*
X161821193Y-121049263D01*
X161861510Y-121045735D01*
X161866912Y-121045500D01*
X163340185Y-121045500D01*
X163345588Y-121045735D01*
X163385914Y-121049264D01*
X163425047Y-121038777D01*
X163430269Y-121037619D01*
X163470152Y-121030588D01*
X163470157Y-121030584D01*
X163475206Y-121028747D01*
X163491931Y-121021819D01*
X163496788Y-121019554D01*
X163496791Y-121019554D01*
X163529948Y-120996335D01*
X163534497Y-120993438D01*
X163569562Y-120973194D01*
X163569566Y-120973190D01*
X163580644Y-120959986D01*
X163595588Y-120942176D01*
X163599229Y-120938202D01*
X163868225Y-120669206D01*
X163872177Y-120665586D01*
X163903194Y-120639562D01*
X163923444Y-120604486D01*
X163926328Y-120599959D01*
X163949554Y-120566791D01*
X163949554Y-120566788D01*
X163951819Y-120561931D01*
X163958747Y-120545206D01*
X163960587Y-120540153D01*
X163960588Y-120540152D01*
X163967621Y-120500257D01*
X163968777Y-120495044D01*
X163979263Y-120455914D01*
X163975735Y-120415596D01*
X163975500Y-120410193D01*
X163975500Y-97886912D01*
X163975736Y-97881506D01*
X163979263Y-97841191D01*
X163968785Y-97802090D01*
X163967618Y-97796830D01*
X163960588Y-97756955D01*
X163960587Y-97756953D01*
X163958760Y-97751933D01*
X163951820Y-97735176D01*
X163949554Y-97730319D01*
X163949554Y-97730316D01*
X163926339Y-97697162D01*
X163923433Y-97692599D01*
X163903196Y-97657548D01*
X163903195Y-97657547D01*
X163903194Y-97657545D01*
X163872177Y-97631518D01*
X163868193Y-97627867D01*
X156042942Y-89802616D01*
X156009457Y-89741293D01*
X156007887Y-89732596D01*
X155990931Y-89614658D01*
X155961016Y-89549154D01*
X155934132Y-89490285D01*
X155934127Y-89490278D01*
X155844590Y-89386946D01*
X155844586Y-89386942D01*
X155742669Y-89321446D01*
X155729561Y-89313022D01*
X155729560Y-89313021D01*
X155729559Y-89313021D01*
X155598368Y-89274500D01*
X155598367Y-89274500D01*
X155461633Y-89274500D01*
X155461632Y-89274500D01*
X155330440Y-89313021D01*
X155215413Y-89386942D01*
X155215409Y-89386946D01*
X155125872Y-89490278D01*
X155125867Y-89490285D01*
X155069070Y-89614654D01*
X155069068Y-89614662D01*
X155049610Y-89749999D01*
X155069068Y-89885337D01*
X155069070Y-89885345D01*
X155125867Y-90009714D01*
X155125872Y-90009721D01*
X155215409Y-90113053D01*
X155215413Y-90113057D01*
X155241333Y-90129714D01*
X155330439Y-90186978D01*
X155362252Y-90196319D01*
X155461632Y-90225500D01*
X155461633Y-90225500D01*
X155493812Y-90225500D01*
X155560851Y-90245185D01*
X155581493Y-90261819D01*
X163288181Y-97968506D01*
X163321666Y-98029829D01*
X163324500Y-98056187D01*
X163324500Y-102258745D01*
X163304815Y-102325784D01*
X163252011Y-102371539D01*
X163182853Y-102381483D01*
X163119297Y-102352458D01*
X163112819Y-102346426D01*
X158016568Y-97250175D01*
X157983083Y-97188852D01*
X157981511Y-97180137D01*
X157981175Y-97177800D01*
X157952774Y-97115613D01*
X157924374Y-97053425D01*
X157903434Y-97029259D01*
X157834834Y-96950089D01*
X157834830Y-96950085D01*
X157743980Y-96891701D01*
X157719805Y-96876165D01*
X157719804Y-96876164D01*
X157719803Y-96876164D01*
X157588612Y-96837643D01*
X157588611Y-96837643D01*
X157451877Y-96837643D01*
X157451876Y-96837643D01*
X157320684Y-96876164D01*
X157205657Y-96950085D01*
X157205653Y-96950089D01*
X157116116Y-97053421D01*
X157116113Y-97053426D01*
X157057889Y-97180919D01*
X157012134Y-97233723D01*
X156945095Y-97253407D01*
X156878055Y-97233722D01*
X156857414Y-97217088D01*
X155490326Y-95850000D01*
X157199610Y-95850000D01*
X157219068Y-95985337D01*
X157219070Y-95985345D01*
X157275867Y-96109714D01*
X157275872Y-96109721D01*
X157365409Y-96213053D01*
X157365413Y-96213057D01*
X157418147Y-96246946D01*
X157480439Y-96286978D01*
X157507167Y-96294826D01*
X157611632Y-96325500D01*
X157611633Y-96325500D01*
X157748367Y-96325500D01*
X157879561Y-96286978D01*
X157994589Y-96213055D01*
X158084130Y-96109718D01*
X158140931Y-95985342D01*
X158160390Y-95850000D01*
X158140931Y-95714658D01*
X158121271Y-95671609D01*
X158084132Y-95590285D01*
X158084127Y-95590278D01*
X157994590Y-95486946D01*
X157994586Y-95486942D01*
X157879559Y-95413021D01*
X157748368Y-95374500D01*
X157748367Y-95374500D01*
X157611633Y-95374500D01*
X157611632Y-95374500D01*
X157480440Y-95413021D01*
X157365413Y-95486942D01*
X157365409Y-95486946D01*
X157275872Y-95590278D01*
X157275867Y-95590285D01*
X157219070Y-95714654D01*
X157219068Y-95714662D01*
X157199610Y-95850000D01*
X155490326Y-95850000D01*
X154441819Y-94801493D01*
X154408334Y-94740170D01*
X154405500Y-94713812D01*
X154405500Y-87048346D01*
X154425185Y-86981307D01*
X154477989Y-86935552D01*
X154494566Y-86929369D01*
X154546604Y-86914088D01*
X154567508Y-86907951D01*
X154567509Y-86907951D01*
X154682536Y-86834029D01*
X154682536Y-86834028D01*
X154682539Y-86834027D01*
X154772080Y-86730690D01*
X154828881Y-86606314D01*
X154848340Y-86470972D01*
X154833412Y-86367145D01*
X154843356Y-86297989D01*
X154889110Y-86245185D01*
X154956150Y-86225500D01*
X155583812Y-86225500D01*
X155650851Y-86245185D01*
X155671493Y-86261819D01*
X157093445Y-87683771D01*
X157126930Y-87745094D01*
X157121946Y-87814786D01*
X157080074Y-87870719D01*
X157072803Y-87875768D01*
X157055411Y-87886944D01*
X157055409Y-87886946D01*
X156965872Y-87990278D01*
X156965867Y-87990285D01*
X156909070Y-88114654D01*
X156909068Y-88114662D01*
X156889610Y-88250000D01*
X156909068Y-88385337D01*
X156909070Y-88385345D01*
X156965867Y-88509714D01*
X156965872Y-88509721D01*
X157055409Y-88613053D01*
X157055413Y-88613057D01*
X157115979Y-88651979D01*
X157170439Y-88686978D01*
X157215759Y-88700285D01*
X157301632Y-88725500D01*
X157301633Y-88725500D01*
X157438367Y-88725500D01*
X157569561Y-88686978D01*
X157684589Y-88613055D01*
X157754351Y-88532544D01*
X157813125Y-88494772D01*
X157882994Y-88494771D01*
X157935742Y-88526068D01*
X164828181Y-95418507D01*
X164861666Y-95479830D01*
X164864500Y-95506188D01*
X164864500Y-112633078D01*
X164864264Y-112638485D01*
X164860735Y-112678808D01*
X164871212Y-112717910D01*
X164872383Y-112723190D01*
X164879411Y-112763043D01*
X164881235Y-112768055D01*
X164888197Y-112784861D01*
X164890445Y-112789681D01*
X164890446Y-112789684D01*
X164900928Y-112804654D01*
X164913655Y-112822831D01*
X164916561Y-112827392D01*
X164936806Y-112862455D01*
X164967815Y-112888475D01*
X164971805Y-112892131D01*
X167917057Y-115837383D01*
X167950542Y-115898706D01*
X167952114Y-115907417D01*
X167969068Y-116025337D01*
X167969070Y-116025345D01*
X168025867Y-116149714D01*
X168025872Y-116149721D01*
X168115409Y-116253053D01*
X168115413Y-116253057D01*
X168158117Y-116280500D01*
X168230439Y-116326978D01*
X168296035Y-116346238D01*
X168361632Y-116365500D01*
X168361633Y-116365500D01*
X168498367Y-116365500D01*
X168629561Y-116326978D01*
X168744589Y-116253055D01*
X168834130Y-116149718D01*
X168890931Y-116025342D01*
X168910390Y-115890000D01*
X168890931Y-115754658D01*
X168878677Y-115727827D01*
X168834132Y-115630285D01*
X168834127Y-115630278D01*
X168744590Y-115526946D01*
X168744586Y-115526942D01*
X168629559Y-115453021D01*
X168498368Y-115414500D01*
X168498367Y-115414500D01*
X168466188Y-115414500D01*
X168399149Y-115394815D01*
X168378507Y-115378181D01*
X166700326Y-113700000D01*
X168319610Y-113700000D01*
X168339068Y-113835337D01*
X168339070Y-113835345D01*
X168395867Y-113959714D01*
X168395872Y-113959721D01*
X168485409Y-114063053D01*
X168485413Y-114063057D01*
X168545979Y-114101979D01*
X168600439Y-114136978D01*
X168634496Y-114146978D01*
X168731632Y-114175500D01*
X168731633Y-114175500D01*
X168868367Y-114175500D01*
X168999561Y-114136978D01*
X169114589Y-114063055D01*
X169114591Y-114063053D01*
X169121294Y-114057246D01*
X169123422Y-114059702D01*
X169168821Y-114030524D01*
X169203760Y-114025500D01*
X171607575Y-114025500D01*
X171674614Y-114045185D01*
X171701289Y-114068298D01*
X171705411Y-114073055D01*
X171820439Y-114146978D01*
X171886035Y-114166238D01*
X171951632Y-114185500D01*
X171951633Y-114185500D01*
X172088367Y-114185500D01*
X172219561Y-114146978D01*
X172334589Y-114073055D01*
X172424130Y-113969718D01*
X172480931Y-113845342D01*
X172500390Y-113710000D01*
X172480931Y-113574658D01*
X172468677Y-113547827D01*
X172424132Y-113450285D01*
X172424127Y-113450278D01*
X172334590Y-113346946D01*
X172334586Y-113346942D01*
X172219559Y-113273021D01*
X172088368Y-113234500D01*
X172088367Y-113234500D01*
X171951633Y-113234500D01*
X171951632Y-113234500D01*
X171820440Y-113273021D01*
X171697949Y-113351740D01*
X171696617Y-113349668D01*
X171645006Y-113373238D01*
X171627361Y-113374500D01*
X169203760Y-113374500D01*
X169136721Y-113354815D01*
X169121940Y-113342007D01*
X169121294Y-113342754D01*
X169114590Y-113336945D01*
X169034925Y-113285749D01*
X168999561Y-113263022D01*
X168999560Y-113263021D01*
X168999559Y-113263021D01*
X168868368Y-113224500D01*
X168868367Y-113224500D01*
X168731633Y-113224500D01*
X168731632Y-113224500D01*
X168600440Y-113263021D01*
X168485413Y-113336942D01*
X168485409Y-113336946D01*
X168395872Y-113440278D01*
X168395867Y-113440285D01*
X168339070Y-113564654D01*
X168339068Y-113564662D01*
X168319610Y-113700000D01*
X166700326Y-113700000D01*
X165551819Y-112551493D01*
X165518334Y-112490170D01*
X165515500Y-112463812D01*
X165515500Y-112315000D01*
X167624610Y-112315000D01*
X167644068Y-112450337D01*
X167644070Y-112450345D01*
X167700867Y-112574714D01*
X167700872Y-112574721D01*
X167790409Y-112678053D01*
X167790413Y-112678057D01*
X167850979Y-112716979D01*
X167905439Y-112751978D01*
X167943123Y-112763043D01*
X168036632Y-112790500D01*
X168036633Y-112790500D01*
X168173367Y-112790500D01*
X168304561Y-112751978D01*
X168419589Y-112678055D01*
X168509130Y-112574718D01*
X168565931Y-112450342D01*
X168585390Y-112315000D01*
X168565931Y-112179658D01*
X168553677Y-112152827D01*
X168509132Y-112055285D01*
X168509127Y-112055278D01*
X168419590Y-111951946D01*
X168419586Y-111951942D01*
X168304559Y-111878021D01*
X168173368Y-111839500D01*
X168173367Y-111839500D01*
X168036633Y-111839500D01*
X168036632Y-111839500D01*
X167905440Y-111878021D01*
X167790413Y-111951942D01*
X167790409Y-111951946D01*
X167700872Y-112055278D01*
X167700867Y-112055285D01*
X167644070Y-112179654D01*
X167644068Y-112179662D01*
X167624610Y-112315000D01*
X165515500Y-112315000D01*
X165515500Y-104880000D01*
X167443110Y-104880000D01*
X167462568Y-105015337D01*
X167462570Y-105015345D01*
X167519367Y-105139714D01*
X167519372Y-105139721D01*
X167608909Y-105243053D01*
X167608913Y-105243057D01*
X167660969Y-105276510D01*
X167723939Y-105316978D01*
X167756205Y-105326452D01*
X167855132Y-105355500D01*
X167855133Y-105355500D01*
X167991867Y-105355500D01*
X168123061Y-105316978D01*
X168238089Y-105243055D01*
X168327630Y-105139718D01*
X168384431Y-105015342D01*
X168403890Y-104880000D01*
X168384431Y-104744658D01*
X168365277Y-104702716D01*
X168327632Y-104620285D01*
X168327627Y-104620278D01*
X168238090Y-104516946D01*
X168238086Y-104516942D01*
X168147236Y-104458558D01*
X168123061Y-104443022D01*
X168123060Y-104443021D01*
X168123059Y-104443021D01*
X167991868Y-104404500D01*
X167991867Y-104404500D01*
X167855133Y-104404500D01*
X167855132Y-104404500D01*
X167723940Y-104443021D01*
X167608913Y-104516942D01*
X167608909Y-104516946D01*
X167519372Y-104620278D01*
X167519367Y-104620285D01*
X167462570Y-104744654D01*
X167462568Y-104744662D01*
X167443110Y-104880000D01*
X165515500Y-104880000D01*
X165515500Y-100344499D01*
X166619610Y-100344499D01*
X166639068Y-100479837D01*
X166639070Y-100479845D01*
X166695867Y-100604214D01*
X166695872Y-100604221D01*
X166785409Y-100707553D01*
X166785413Y-100707557D01*
X166836389Y-100740316D01*
X166900439Y-100781478D01*
X166966035Y-100800739D01*
X167031632Y-100820000D01*
X167031633Y-100820000D01*
X167168367Y-100820000D01*
X167299561Y-100781478D01*
X167414589Y-100707555D01*
X167504130Y-100604218D01*
X167560931Y-100479842D01*
X167580390Y-100344500D01*
X167560931Y-100209158D01*
X167535033Y-100152449D01*
X167504132Y-100084785D01*
X167504127Y-100084778D01*
X167414590Y-99981446D01*
X167414586Y-99981442D01*
X167299559Y-99907521D01*
X167168368Y-99869000D01*
X167168367Y-99869000D01*
X167031633Y-99869000D01*
X167031632Y-99869000D01*
X166900440Y-99907521D01*
X166785413Y-99981442D01*
X166785409Y-99981446D01*
X166695872Y-100084778D01*
X166695867Y-100084785D01*
X166639070Y-100209154D01*
X166639068Y-100209162D01*
X166619610Y-100344499D01*
X165515500Y-100344499D01*
X165515500Y-95336920D01*
X165515736Y-95331513D01*
X165516207Y-95326137D01*
X165519264Y-95291193D01*
X165508782Y-95252076D01*
X165507616Y-95246818D01*
X165501125Y-95210000D01*
X169649610Y-95210000D01*
X169669068Y-95345337D01*
X169669070Y-95345345D01*
X169725867Y-95469714D01*
X169725872Y-95469721D01*
X169815409Y-95573053D01*
X169815413Y-95573057D01*
X169875979Y-95611979D01*
X169930439Y-95646978D01*
X169975759Y-95660285D01*
X170061632Y-95685500D01*
X170061633Y-95685500D01*
X170198367Y-95685500D01*
X170329561Y-95646978D01*
X170444589Y-95573055D01*
X170534130Y-95469718D01*
X170590931Y-95345342D01*
X170610390Y-95210000D01*
X170590931Y-95074658D01*
X170543375Y-94970525D01*
X170534132Y-94950285D01*
X170534127Y-94950278D01*
X170444590Y-94846946D01*
X170444586Y-94846942D01*
X170329559Y-94773021D01*
X170198368Y-94734500D01*
X170198367Y-94734500D01*
X170061633Y-94734500D01*
X170061632Y-94734500D01*
X169930440Y-94773021D01*
X169815413Y-94846942D01*
X169815409Y-94846946D01*
X169725872Y-94950278D01*
X169725867Y-94950285D01*
X169669070Y-95074654D01*
X169669068Y-95074662D01*
X169649610Y-95210000D01*
X165501125Y-95210000D01*
X165500588Y-95206955D01*
X165500586Y-95206952D01*
X165500586Y-95206950D01*
X165498760Y-95201933D01*
X165491820Y-95185176D01*
X165489554Y-95180319D01*
X165489554Y-95180316D01*
X165466339Y-95147162D01*
X165463433Y-95142599D01*
X165443196Y-95107548D01*
X165443195Y-95107547D01*
X165443194Y-95107545D01*
X165412177Y-95081518D01*
X165408193Y-95077867D01*
X160713348Y-90383022D01*
X156657275Y-86326949D01*
X157942661Y-86326949D01*
X157945328Y-86345500D01*
X157962119Y-86462286D01*
X157962121Y-86462294D01*
X158018918Y-86586663D01*
X158018923Y-86586670D01*
X158108460Y-86690002D01*
X158108464Y-86690006D01*
X158169030Y-86728928D01*
X158223490Y-86763927D01*
X158254850Y-86773135D01*
X158354683Y-86802449D01*
X158354684Y-86802449D01*
X158491418Y-86802449D01*
X158622612Y-86763927D01*
X158737640Y-86690004D01*
X158827181Y-86586667D01*
X158827446Y-86586088D01*
X158856232Y-86523055D01*
X158883982Y-86462291D01*
X158903441Y-86326949D01*
X158883982Y-86191607D01*
X158871728Y-86164776D01*
X158827183Y-86067234D01*
X158827178Y-86067227D01*
X158737641Y-85963895D01*
X158737637Y-85963891D01*
X158638649Y-85900277D01*
X158622612Y-85889971D01*
X158622611Y-85889970D01*
X158622610Y-85889970D01*
X158491419Y-85851449D01*
X158491418Y-85851449D01*
X158354684Y-85851449D01*
X158354683Y-85851449D01*
X158223491Y-85889970D01*
X158108464Y-85963891D01*
X158108460Y-85963895D01*
X158018923Y-86067227D01*
X158018918Y-86067234D01*
X157962121Y-86191603D01*
X157962119Y-86191611D01*
X157945532Y-86306978D01*
X157942661Y-86326949D01*
X156657275Y-86326949D01*
X156012119Y-85681793D01*
X156008474Y-85677814D01*
X155982456Y-85646807D01*
X155982455Y-85646806D01*
X155965218Y-85636854D01*
X155947392Y-85626561D01*
X155942831Y-85623655D01*
X155924864Y-85611075D01*
X155909684Y-85600446D01*
X155909681Y-85600445D01*
X155904861Y-85598197D01*
X155888055Y-85591235D01*
X155883043Y-85589411D01*
X155843190Y-85582383D01*
X155837910Y-85581212D01*
X155798808Y-85570735D01*
X155763892Y-85573790D01*
X155758481Y-85574264D01*
X155753078Y-85574500D01*
X153733760Y-85574500D01*
X153666721Y-85554815D01*
X153651940Y-85542007D01*
X153651294Y-85542754D01*
X153644590Y-85536945D01*
X153572945Y-85490903D01*
X153529561Y-85463022D01*
X153527356Y-85462374D01*
X153525421Y-85461131D01*
X153521489Y-85459335D01*
X153521747Y-85458769D01*
X153468579Y-85424601D01*
X153439552Y-85361046D01*
X153449495Y-85291888D01*
X153474607Y-85255718D01*
X154055677Y-84674647D01*
X154116998Y-84641164D01*
X154186689Y-84646148D01*
X154237070Y-84681129D01*
X154250657Y-84696810D01*
X154250660Y-84696813D01*
X154307059Y-84733057D01*
X154365686Y-84770734D01*
X154431282Y-84789995D01*
X154496879Y-84809256D01*
X154496880Y-84809256D01*
X154633614Y-84809256D01*
X154764808Y-84770734D01*
X154879836Y-84696811D01*
X154969377Y-84593474D01*
X155026178Y-84469098D01*
X155045637Y-84333756D01*
X155026178Y-84198414D01*
X155000844Y-84142941D01*
X154969379Y-84074041D01*
X154969374Y-84074034D01*
X154879837Y-83970702D01*
X154879833Y-83970698D01*
X154764806Y-83896777D01*
X154633615Y-83858256D01*
X154633614Y-83858256D01*
X154539500Y-83858256D01*
X154472461Y-83838571D01*
X154426706Y-83785767D01*
X154415500Y-83734256D01*
X154415500Y-82696187D01*
X154435185Y-82629148D01*
X154451814Y-82608511D01*
X154963006Y-82097319D01*
X155024330Y-82063834D01*
X155041486Y-82061989D01*
X155048367Y-82061000D01*
X155179561Y-82022478D01*
X155294589Y-81948555D01*
X155384130Y-81845218D01*
X155440931Y-81720842D01*
X155460390Y-81585500D01*
X155447118Y-81493190D01*
X155457062Y-81424032D01*
X155502817Y-81371228D01*
X155569856Y-81351544D01*
X155636896Y-81371229D01*
X155657537Y-81387863D01*
X156348181Y-82078507D01*
X156381666Y-82139830D01*
X156384500Y-82166188D01*
X156384500Y-82923078D01*
X156384264Y-82928485D01*
X156380735Y-82968808D01*
X156391212Y-83007910D01*
X156392383Y-83013190D01*
X156399411Y-83053043D01*
X156401235Y-83058055D01*
X156408197Y-83074861D01*
X156410445Y-83079681D01*
X156410446Y-83079684D01*
X156424452Y-83099687D01*
X156433655Y-83112831D01*
X156436561Y-83117392D01*
X156456806Y-83152455D01*
X156487815Y-83178475D01*
X156491805Y-83182131D01*
X166587057Y-93277383D01*
X166620542Y-93338706D01*
X166622114Y-93347417D01*
X166639068Y-93465337D01*
X166639070Y-93465345D01*
X166695867Y-93589714D01*
X166695872Y-93589721D01*
X166785409Y-93693053D01*
X166785413Y-93693057D01*
X166831159Y-93722455D01*
X166900439Y-93766978D01*
X166966035Y-93786238D01*
X167031632Y-93805500D01*
X167031633Y-93805500D01*
X167168367Y-93805500D01*
X167299561Y-93766978D01*
X167414589Y-93693055D01*
X167504130Y-93589718D01*
X167560931Y-93465342D01*
X167580390Y-93330000D01*
X167560931Y-93194658D01*
X167548677Y-93167827D01*
X167504132Y-93070285D01*
X167504127Y-93070278D01*
X167414590Y-92966946D01*
X167414586Y-92966942D01*
X167299559Y-92893021D01*
X167168368Y-92854500D01*
X167168367Y-92854500D01*
X167136188Y-92854500D01*
X167069149Y-92834815D01*
X167048507Y-92818181D01*
X157730326Y-83500000D01*
X158825110Y-83500000D01*
X158844568Y-83635337D01*
X158844570Y-83635345D01*
X158901367Y-83759714D01*
X158901372Y-83759721D01*
X158990909Y-83863053D01*
X158990913Y-83863057D01*
X159039841Y-83894500D01*
X159105939Y-83936978D01*
X159171536Y-83956239D01*
X159237132Y-83975500D01*
X159237133Y-83975500D01*
X159373867Y-83975500D01*
X159505061Y-83936978D01*
X159620089Y-83863055D01*
X159709630Y-83759718D01*
X159766431Y-83635342D01*
X159785890Y-83500000D01*
X159766431Y-83364658D01*
X159731363Y-83287870D01*
X159709632Y-83240285D01*
X159709627Y-83240278D01*
X159620090Y-83136946D01*
X159620086Y-83136942D01*
X159505059Y-83063021D01*
X159373868Y-83024500D01*
X159373867Y-83024500D01*
X159237133Y-83024500D01*
X159237132Y-83024500D01*
X159105940Y-83063021D01*
X158990913Y-83136942D01*
X158990909Y-83136946D01*
X158901372Y-83240278D01*
X158901367Y-83240285D01*
X158844570Y-83364654D01*
X158844568Y-83364662D01*
X158825110Y-83500000D01*
X157730326Y-83500000D01*
X157071819Y-82841493D01*
X157038334Y-82780170D01*
X157035500Y-82753812D01*
X157035500Y-81996909D01*
X157035736Y-81991502D01*
X157039263Y-81951191D01*
X157028785Y-81912090D01*
X157027618Y-81906830D01*
X157020588Y-81866955D01*
X157020587Y-81866953D01*
X157018760Y-81861933D01*
X157011820Y-81845176D01*
X157009554Y-81840319D01*
X157009554Y-81840316D01*
X156986337Y-81807159D01*
X156983435Y-81802605D01*
X156963194Y-81767545D01*
X156932182Y-81741522D01*
X156928210Y-81737883D01*
X155827506Y-80637180D01*
X155794022Y-80575858D01*
X155799006Y-80506166D01*
X155840878Y-80450233D01*
X155906342Y-80425816D01*
X155915188Y-80425500D01*
X157813812Y-80425500D01*
X157880851Y-80445185D01*
X157901493Y-80461819D01*
X163000035Y-85560361D01*
X163033520Y-85621684D01*
X163028536Y-85691376D01*
X162986664Y-85747309D01*
X162947290Y-85767019D01*
X162860440Y-85792521D01*
X162745413Y-85866442D01*
X162745409Y-85866446D01*
X162655872Y-85969778D01*
X162655867Y-85969785D01*
X162599070Y-86094154D01*
X162599068Y-86094162D01*
X162579610Y-86229500D01*
X162599068Y-86364837D01*
X162599070Y-86364845D01*
X162655867Y-86489214D01*
X162655872Y-86489221D01*
X162745409Y-86592553D01*
X162745413Y-86592557D01*
X162766825Y-86606317D01*
X162860439Y-86666478D01*
X162926016Y-86685733D01*
X162991632Y-86705000D01*
X162991633Y-86705000D01*
X163128367Y-86705000D01*
X163259561Y-86666478D01*
X163374589Y-86592555D01*
X163464130Y-86489218D01*
X163520931Y-86364842D01*
X163521323Y-86362110D01*
X163522469Y-86359600D01*
X163523431Y-86356327D01*
X163523901Y-86356465D01*
X163550343Y-86298554D01*
X163609118Y-86260776D01*
X163678988Y-86260770D01*
X163731743Y-86292069D01*
X167148181Y-89708507D01*
X167181666Y-89769830D01*
X167184500Y-89796188D01*
X167184500Y-91513288D01*
X167164815Y-91580327D01*
X167154213Y-91594490D01*
X167105872Y-91650277D01*
X167105867Y-91650285D01*
X167049070Y-91774654D01*
X167049068Y-91774662D01*
X167029610Y-91909999D01*
X167049068Y-92045337D01*
X167049070Y-92045345D01*
X167105867Y-92169714D01*
X167105872Y-92169721D01*
X167195409Y-92273053D01*
X167195413Y-92273057D01*
X167255979Y-92311979D01*
X167310439Y-92346978D01*
X167376035Y-92366238D01*
X167441632Y-92385500D01*
X167441633Y-92385500D01*
X167578367Y-92385500D01*
X167709561Y-92346978D01*
X167824589Y-92273055D01*
X167914130Y-92169718D01*
X167970931Y-92045342D01*
X167990390Y-91910000D01*
X167970931Y-91774658D01*
X167922944Y-91669581D01*
X167914132Y-91650285D01*
X167914127Y-91650277D01*
X167865787Y-91594490D01*
X167836762Y-91530935D01*
X167835500Y-91513288D01*
X167835500Y-89626920D01*
X167835736Y-89621513D01*
X167836336Y-89614663D01*
X167839264Y-89581193D01*
X167828782Y-89542076D01*
X167827616Y-89536818D01*
X167820588Y-89496955D01*
X167820586Y-89496952D01*
X167820586Y-89496950D01*
X167818760Y-89491933D01*
X167811820Y-89475176D01*
X167809554Y-89470319D01*
X167809554Y-89470316D01*
X167786339Y-89437162D01*
X167783433Y-89432599D01*
X167763196Y-89397548D01*
X167763195Y-89397547D01*
X167763194Y-89397545D01*
X167732177Y-89371518D01*
X167728193Y-89367867D01*
X167406234Y-89045908D01*
X167372749Y-88984585D01*
X167377733Y-88914893D01*
X167419605Y-88858960D01*
X167485069Y-88834543D01*
X167511572Y-88835491D01*
X167511631Y-88835499D01*
X167511633Y-88835500D01*
X167511635Y-88835500D01*
X167648367Y-88835500D01*
X167779561Y-88796978D01*
X167894589Y-88723055D01*
X167984130Y-88619718D01*
X167986129Y-88615342D01*
X168003925Y-88576374D01*
X168040931Y-88495342D01*
X168060390Y-88360000D01*
X168040931Y-88224658D01*
X168011016Y-88159154D01*
X167984132Y-88100285D01*
X167984127Y-88100278D01*
X167894590Y-87996946D01*
X167894586Y-87996942D01*
X167795170Y-87933053D01*
X167779561Y-87923022D01*
X167779560Y-87923021D01*
X167779559Y-87923021D01*
X167648368Y-87884500D01*
X167648367Y-87884500D01*
X167511633Y-87884500D01*
X167511632Y-87884500D01*
X167380440Y-87923021D01*
X167265413Y-87996942D01*
X167265409Y-87996946D01*
X167175872Y-88100278D01*
X167175867Y-88100285D01*
X167119070Y-88224654D01*
X167119068Y-88224662D01*
X167099610Y-88360000D01*
X167110279Y-88434206D01*
X167100335Y-88503365D01*
X167054580Y-88556169D01*
X166987541Y-88575853D01*
X166920501Y-88556168D01*
X166899860Y-88539534D01*
X158352507Y-79992181D01*
X158319022Y-79930858D01*
X158324006Y-79861166D01*
X158365878Y-79805233D01*
X158431342Y-79780816D01*
X158440188Y-79780500D01*
X160958812Y-79780500D01*
X161025851Y-79800185D01*
X161046493Y-79816819D01*
X170068180Y-88838506D01*
X170101665Y-88899829D01*
X170104499Y-88926187D01*
X170104500Y-91993288D01*
X170084815Y-92060327D01*
X170074213Y-92074490D01*
X170025872Y-92130277D01*
X170025867Y-92130285D01*
X169969070Y-92254654D01*
X169969068Y-92254662D01*
X169949610Y-92389999D01*
X169969068Y-92525337D01*
X169969070Y-92525345D01*
X170025867Y-92649714D01*
X170025872Y-92649721D01*
X170115409Y-92753053D01*
X170115413Y-92753057D01*
X170175979Y-92791979D01*
X170230439Y-92826978D01*
X170296035Y-92846238D01*
X170361632Y-92865500D01*
X170361633Y-92865500D01*
X170498367Y-92865500D01*
X170629561Y-92826978D01*
X170744589Y-92753055D01*
X170834130Y-92649718D01*
X170890931Y-92525342D01*
X170910390Y-92390000D01*
X170890931Y-92254658D01*
X170878677Y-92227827D01*
X170834132Y-92130285D01*
X170834127Y-92130277D01*
X170785787Y-92074490D01*
X170756762Y-92010935D01*
X170755500Y-91993288D01*
X170755500Y-88970000D01*
X175889610Y-88970000D01*
X175909068Y-89105337D01*
X175909070Y-89105345D01*
X175965867Y-89229714D01*
X175965872Y-89229721D01*
X176055409Y-89333053D01*
X176055413Y-89333057D01*
X176109580Y-89367867D01*
X176155765Y-89397548D01*
X176170441Y-89406979D01*
X176179007Y-89409494D01*
X176237787Y-89447266D01*
X176266814Y-89510820D01*
X176256873Y-89579979D01*
X176256872Y-89579982D01*
X176209069Y-89684657D01*
X176209068Y-89684662D01*
X176189610Y-89819999D01*
X176209068Y-89955337D01*
X176209070Y-89955345D01*
X176265867Y-90079714D01*
X176265872Y-90079721D01*
X176355409Y-90183053D01*
X176355413Y-90183057D01*
X176405643Y-90215337D01*
X176470439Y-90256978D01*
X176536035Y-90276238D01*
X176601632Y-90295500D01*
X176663782Y-90295500D01*
X176730821Y-90315185D01*
X176776576Y-90367989D01*
X176786520Y-90437147D01*
X176757495Y-90500702D01*
X176705872Y-90560277D01*
X176705867Y-90560285D01*
X176649070Y-90684654D01*
X176649068Y-90684662D01*
X176629610Y-90820000D01*
X176649068Y-90955337D01*
X176649070Y-90955345D01*
X176705867Y-91079714D01*
X176705872Y-91079721D01*
X176795409Y-91183053D01*
X176795413Y-91183057D01*
X176855979Y-91221979D01*
X176910439Y-91256978D01*
X176972964Y-91275337D01*
X177041632Y-91295500D01*
X177041633Y-91295500D01*
X177178367Y-91295500D01*
X177309561Y-91256978D01*
X177424589Y-91183055D01*
X177514130Y-91079718D01*
X177570931Y-90955342D01*
X177590390Y-90820000D01*
X177570931Y-90684658D01*
X177547941Y-90634318D01*
X177514132Y-90560285D01*
X177514127Y-90560277D01*
X177505829Y-90550701D01*
X177476805Y-90487145D01*
X177486749Y-90417987D01*
X177532505Y-90365184D01*
X177599543Y-90345500D01*
X177648367Y-90345500D01*
X177779561Y-90306978D01*
X177894589Y-90233055D01*
X177984130Y-90129718D01*
X178040931Y-90005342D01*
X178060390Y-89870000D01*
X178040931Y-89734658D01*
X178023707Y-89696942D01*
X177984132Y-89610285D01*
X177984127Y-89610278D01*
X177894589Y-89506945D01*
X177890279Y-89503210D01*
X177852507Y-89444431D01*
X177852509Y-89374561D01*
X177890285Y-89315784D01*
X177953842Y-89286762D01*
X177971485Y-89285500D01*
X180616240Y-89285500D01*
X180683279Y-89305185D01*
X180698059Y-89317992D01*
X180698706Y-89317246D01*
X180705409Y-89323054D01*
X180738781Y-89344500D01*
X180820439Y-89396978D01*
X180863065Y-89409494D01*
X180951632Y-89435500D01*
X180951633Y-89435500D01*
X181088367Y-89435500D01*
X181219561Y-89396978D01*
X181334589Y-89323055D01*
X181424130Y-89219718D01*
X181480931Y-89095342D01*
X181500390Y-88960000D01*
X181480931Y-88824658D01*
X181466090Y-88792160D01*
X181424132Y-88700285D01*
X181424127Y-88700278D01*
X181334590Y-88596946D01*
X181334586Y-88596942D01*
X181243736Y-88538558D01*
X181219561Y-88523022D01*
X181219560Y-88523021D01*
X181219559Y-88523021D01*
X181088368Y-88484500D01*
X181088367Y-88484500D01*
X180951633Y-88484500D01*
X180951632Y-88484500D01*
X180820440Y-88523021D01*
X180705409Y-88596945D01*
X180698706Y-88602754D01*
X180696577Y-88600297D01*
X180651179Y-88629476D01*
X180616240Y-88634500D01*
X178876902Y-88634500D01*
X178809863Y-88614815D01*
X178764108Y-88562011D01*
X178754164Y-88492853D01*
X178760037Y-88452005D01*
X178770390Y-88380000D01*
X178750931Y-88244658D01*
X178722006Y-88181322D01*
X178694132Y-88120285D01*
X178694127Y-88120278D01*
X178604590Y-88016946D01*
X178604586Y-88016942D01*
X178482101Y-87938228D01*
X178484004Y-87935266D01*
X178443931Y-87900521D01*
X178424266Y-87833476D01*
X178443971Y-87766442D01*
X178454547Y-87752317D01*
X178474130Y-87729718D01*
X178530931Y-87605342D01*
X178550390Y-87470000D01*
X178530931Y-87334658D01*
X178494489Y-87254861D01*
X178474132Y-87210285D01*
X178474127Y-87210278D01*
X178384590Y-87106946D01*
X178384586Y-87106942D01*
X178293406Y-87048346D01*
X178269561Y-87033022D01*
X178269560Y-87033021D01*
X178269559Y-87033021D01*
X178138368Y-86994500D01*
X178138367Y-86994500D01*
X178001633Y-86994500D01*
X178001632Y-86994500D01*
X177870440Y-87033021D01*
X177755413Y-87106942D01*
X177755409Y-87106946D01*
X177665872Y-87210278D01*
X177665870Y-87210281D01*
X177645510Y-87254863D01*
X177599754Y-87307666D01*
X177532714Y-87327350D01*
X177465675Y-87307664D01*
X177419922Y-87254862D01*
X177404130Y-87220282D01*
X177395464Y-87210281D01*
X177314590Y-87116946D01*
X177314586Y-87116942D01*
X177199559Y-87043021D01*
X177068368Y-87004500D01*
X177068367Y-87004500D01*
X176931633Y-87004500D01*
X176931632Y-87004500D01*
X176800440Y-87043021D01*
X176685413Y-87116942D01*
X176685409Y-87116946D01*
X176595872Y-87220278D01*
X176595867Y-87220285D01*
X176539070Y-87344654D01*
X176539068Y-87344662D01*
X176521048Y-87470000D01*
X176519610Y-87480000D01*
X176526194Y-87525794D01*
X176539068Y-87615337D01*
X176539070Y-87615345D01*
X176595867Y-87739714D01*
X176595872Y-87739721D01*
X176685409Y-87843053D01*
X176691097Y-87847982D01*
X176728870Y-87906761D01*
X176728868Y-87976630D01*
X176709511Y-88012079D01*
X176710665Y-88012821D01*
X176705867Y-88020285D01*
X176649070Y-88144654D01*
X176649068Y-88144662D01*
X176629610Y-88280000D01*
X176629610Y-88280001D01*
X176642779Y-88371600D01*
X176632835Y-88440759D01*
X176587079Y-88493562D01*
X176520040Y-88513246D01*
X176485107Y-88508223D01*
X176438370Y-88494500D01*
X176438367Y-88494500D01*
X176301633Y-88494500D01*
X176301632Y-88494500D01*
X176170440Y-88533021D01*
X176055413Y-88606942D01*
X176055409Y-88606946D01*
X175965872Y-88710278D01*
X175965867Y-88710285D01*
X175909070Y-88834654D01*
X175909068Y-88834662D01*
X175889610Y-88970000D01*
X170755500Y-88970000D01*
X170755500Y-88756920D01*
X170755736Y-88751513D01*
X170756769Y-88739714D01*
X170759264Y-88711193D01*
X170748782Y-88672076D01*
X170747616Y-88666818D01*
X170740588Y-88626955D01*
X170740586Y-88626952D01*
X170740586Y-88626950D01*
X170738760Y-88621933D01*
X170731820Y-88605176D01*
X170729554Y-88600319D01*
X170729554Y-88600316D01*
X170706339Y-88567162D01*
X170703433Y-88562599D01*
X170683196Y-88527548D01*
X170683195Y-88527547D01*
X170683194Y-88527545D01*
X170652177Y-88501518D01*
X170648193Y-88497867D01*
X170444825Y-88294499D01*
X171589610Y-88294499D01*
X171609068Y-88429837D01*
X171609070Y-88429845D01*
X171665867Y-88554214D01*
X171665872Y-88554221D01*
X171755409Y-88657553D01*
X171755413Y-88657557D01*
X171815979Y-88696479D01*
X171870439Y-88731478D01*
X171936036Y-88750739D01*
X172001632Y-88770000D01*
X172001633Y-88770000D01*
X172138367Y-88770000D01*
X172269561Y-88731478D01*
X172384589Y-88657555D01*
X172474130Y-88554218D01*
X172530931Y-88429842D01*
X172550390Y-88294500D01*
X172530931Y-88159158D01*
X172511653Y-88116945D01*
X172474132Y-88034785D01*
X172474127Y-88034778D01*
X172384590Y-87931446D01*
X172384586Y-87931442D01*
X172269559Y-87857521D01*
X172138368Y-87819000D01*
X172138367Y-87819000D01*
X172001633Y-87819000D01*
X172001632Y-87819000D01*
X171870440Y-87857521D01*
X171755413Y-87931442D01*
X171755409Y-87931446D01*
X171665872Y-88034778D01*
X171665867Y-88034785D01*
X171609070Y-88159154D01*
X171609068Y-88159162D01*
X171589610Y-88294499D01*
X170444825Y-88294499D01*
X166032477Y-83882151D01*
X161387119Y-79236793D01*
X161383474Y-79232814D01*
X161357456Y-79201807D01*
X161357455Y-79201806D01*
X161346058Y-79195226D01*
X161322392Y-79181561D01*
X161317831Y-79178655D01*
X161304687Y-79169452D01*
X161284684Y-79155446D01*
X161284681Y-79155445D01*
X161279861Y-79153197D01*
X161263055Y-79146235D01*
X161258043Y-79144411D01*
X161218190Y-79137383D01*
X161212910Y-79136212D01*
X161173808Y-79125735D01*
X161138892Y-79128790D01*
X161133481Y-79129264D01*
X161128078Y-79129500D01*
X160433404Y-79129500D01*
X160366365Y-79109815D01*
X160320610Y-79057011D01*
X160310666Y-78987854D01*
X160315390Y-78955000D01*
X160295931Y-78819658D01*
X160282614Y-78790499D01*
X160239132Y-78695285D01*
X160239127Y-78695278D01*
X160149590Y-78591946D01*
X160149586Y-78591942D01*
X160034559Y-78518021D01*
X159903368Y-78479500D01*
X159903367Y-78479500D01*
X159766633Y-78479500D01*
X159766632Y-78479500D01*
X159635440Y-78518021D01*
X159520413Y-78591942D01*
X159520409Y-78591946D01*
X159430872Y-78695278D01*
X159430867Y-78695285D01*
X159374070Y-78819654D01*
X159374069Y-78819658D01*
X159354610Y-78955000D01*
X159359333Y-78987854D01*
X159349391Y-79057010D01*
X159303636Y-79109815D01*
X159236597Y-79129500D01*
X153200871Y-79129500D01*
X153133832Y-79109815D01*
X153088077Y-79057011D01*
X153078133Y-78987853D01*
X153088076Y-78953990D01*
X153100931Y-78925842D01*
X153120390Y-78790500D01*
X153100931Y-78655158D01*
X153072063Y-78591946D01*
X153044132Y-78530785D01*
X153044127Y-78530778D01*
X152954590Y-78427446D01*
X152954586Y-78427442D01*
X152839559Y-78353521D01*
X152708368Y-78315000D01*
X152708367Y-78315000D01*
X152571633Y-78315000D01*
X152571632Y-78315000D01*
X152440440Y-78353521D01*
X152325413Y-78427442D01*
X152325409Y-78427446D01*
X152235872Y-78530778D01*
X152235867Y-78530785D01*
X152179070Y-78655154D01*
X152179068Y-78655162D01*
X152159610Y-78790499D01*
X152179068Y-78925837D01*
X152179069Y-78925842D01*
X152191924Y-78953990D01*
X152201867Y-79023148D01*
X152172841Y-79086704D01*
X152114063Y-79124477D01*
X152079129Y-79129500D01*
X150411913Y-79129500D01*
X150406511Y-79129264D01*
X150399126Y-79128618D01*
X150366192Y-79125736D01*
X150366191Y-79125736D01*
X150327099Y-79136211D01*
X150321819Y-79137382D01*
X150281954Y-79144412D01*
X150276962Y-79146229D01*
X150260117Y-79153206D01*
X150255313Y-79155446D01*
X150222163Y-79178658D01*
X150217602Y-79181564D01*
X150182548Y-79201804D01*
X150182545Y-79201806D01*
X150182543Y-79201807D01*
X150182542Y-79201809D01*
X150156523Y-79232815D01*
X150152869Y-79236803D01*
X146101803Y-83287870D01*
X146097814Y-83291525D01*
X146066805Y-83317545D01*
X146046562Y-83352606D01*
X146043656Y-83357166D01*
X146020446Y-83390313D01*
X146018206Y-83395117D01*
X146011229Y-83411961D01*
X146009410Y-83416959D01*
X146002383Y-83456811D01*
X146001212Y-83462091D01*
X145990735Y-83501191D01*
X145994264Y-83541513D01*
X145994500Y-83546920D01*
X145994500Y-83770500D01*
X145974815Y-83837539D01*
X145922011Y-83883294D01*
X145870500Y-83894500D01*
X145752132Y-83894500D01*
X145620940Y-83933021D01*
X145505913Y-84006942D01*
X145505909Y-84006946D01*
X145416372Y-84110278D01*
X145416367Y-84110285D01*
X145359570Y-84234654D01*
X145359568Y-84234662D01*
X145340110Y-84370000D01*
X145359568Y-84505337D01*
X145359570Y-84505345D01*
X145416367Y-84629714D01*
X145416372Y-84629721D01*
X145505909Y-84733053D01*
X145505913Y-84733057D01*
X145543429Y-84757166D01*
X145620939Y-84806978D01*
X145686536Y-84826238D01*
X145752132Y-84845500D01*
X145870500Y-84845500D01*
X145937539Y-84865185D01*
X145983294Y-84917989D01*
X145994500Y-84969500D01*
X145994500Y-85653288D01*
X145974815Y-85720327D01*
X145964213Y-85734490D01*
X145915872Y-85790277D01*
X145915867Y-85790285D01*
X145859070Y-85914654D01*
X145859068Y-85914662D01*
X145843253Y-86024662D01*
X145839610Y-86050000D01*
X145842088Y-86067234D01*
X145859068Y-86185337D01*
X145859070Y-86185345D01*
X145915867Y-86309714D01*
X145915872Y-86309721D01*
X146005409Y-86413053D01*
X146005413Y-86413057D01*
X146065951Y-86451961D01*
X146120439Y-86486978D01*
X146186035Y-86506238D01*
X146251632Y-86525500D01*
X146251633Y-86525500D01*
X146388367Y-86525500D01*
X146519561Y-86486978D01*
X146605548Y-86431717D01*
X146672584Y-86412035D01*
X146739624Y-86431720D01*
X146766296Y-86454832D01*
X146825411Y-86523055D01*
X146825413Y-86523057D01*
X146861841Y-86546467D01*
X146940439Y-86596978D01*
X146972235Y-86606314D01*
X147071632Y-86635500D01*
X147071633Y-86635500D01*
X147208367Y-86635500D01*
X147339561Y-86596978D01*
X147454589Y-86523055D01*
X147544130Y-86419718D01*
X147600931Y-86295342D01*
X147620390Y-86160000D01*
X147600931Y-86024658D01*
X147573181Y-85963894D01*
X147544132Y-85900285D01*
X147544127Y-85900277D01*
X147495787Y-85844490D01*
X147466762Y-85780935D01*
X147465500Y-85763288D01*
X147465500Y-84476187D01*
X147485185Y-84409148D01*
X147501814Y-84388511D01*
X151428507Y-80461819D01*
X151489830Y-80428334D01*
X151516188Y-80425500D01*
X153844810Y-80425500D01*
X153911849Y-80445185D01*
X153957604Y-80497989D01*
X153967548Y-80567147D01*
X153938523Y-80630703D01*
X153932491Y-80637181D01*
X149881803Y-84687870D01*
X149877814Y-84691525D01*
X149846805Y-84717545D01*
X149826562Y-84752606D01*
X149823656Y-84757166D01*
X149800446Y-84790313D01*
X149798206Y-84795117D01*
X149791229Y-84811961D01*
X149789410Y-84816959D01*
X149782383Y-84856811D01*
X149781212Y-84862091D01*
X149770735Y-84901191D01*
X149774264Y-84941513D01*
X149774500Y-84946920D01*
X149774500Y-85473288D01*
X149754815Y-85540327D01*
X149744213Y-85554490D01*
X149695872Y-85610277D01*
X149695867Y-85610285D01*
X149639070Y-85734654D01*
X149639068Y-85734662D01*
X149619610Y-85870000D01*
X149639068Y-86005337D01*
X149639070Y-86005345D01*
X149695867Y-86129714D01*
X149695872Y-86129721D01*
X149785409Y-86233053D01*
X149785413Y-86233057D01*
X149823053Y-86257246D01*
X149900439Y-86306978D01*
X149918102Y-86312164D01*
X149976881Y-86349938D01*
X150005907Y-86413493D01*
X149995964Y-86482652D01*
X149970850Y-86518823D01*
X144853576Y-91636096D01*
X144792253Y-91669581D01*
X144722561Y-91664597D01*
X144666628Y-91622725D01*
X144653100Y-91599924D01*
X144650618Y-91594490D01*
X144644130Y-91580282D01*
X144644129Y-91580281D01*
X144644127Y-91580277D01*
X144595787Y-91524490D01*
X144566762Y-91460935D01*
X144565500Y-91443288D01*
X144565500Y-90950687D01*
X144585185Y-90883648D01*
X144601819Y-90863006D01*
X145268507Y-90196319D01*
X145329830Y-90162834D01*
X145356188Y-90160000D01*
X145388367Y-90160000D01*
X145519561Y-90121478D01*
X145634589Y-90047555D01*
X145724130Y-89944218D01*
X145780931Y-89819842D01*
X145800390Y-89684500D01*
X145780931Y-89549158D01*
X145754797Y-89491933D01*
X145724132Y-89424785D01*
X145724127Y-89424778D01*
X145634590Y-89321446D01*
X145634586Y-89321442D01*
X145519559Y-89247521D01*
X145388368Y-89209000D01*
X145388367Y-89209000D01*
X145251633Y-89209000D01*
X145251632Y-89209000D01*
X145120440Y-89247521D01*
X145005413Y-89321442D01*
X145005409Y-89321446D01*
X144915872Y-89424778D01*
X144915867Y-89424785D01*
X144859070Y-89549154D01*
X144859068Y-89549162D01*
X144842114Y-89667081D01*
X144813089Y-89730637D01*
X144807057Y-89737115D01*
X144021803Y-90522370D01*
X144017814Y-90526025D01*
X143986805Y-90552045D01*
X143966562Y-90587106D01*
X143963656Y-90591666D01*
X143940446Y-90624813D01*
X143938206Y-90629617D01*
X143931229Y-90646461D01*
X143929410Y-90651459D01*
X143922383Y-90691311D01*
X143921212Y-90696591D01*
X143910735Y-90735691D01*
X143914264Y-90776013D01*
X143914500Y-90781420D01*
X143914500Y-91443288D01*
X143894815Y-91510327D01*
X143884213Y-91524490D01*
X143835872Y-91580277D01*
X143835867Y-91580285D01*
X143779070Y-91704654D01*
X143779068Y-91704662D01*
X143759610Y-91840000D01*
X143779068Y-91975337D01*
X143779070Y-91975345D01*
X143835867Y-92099714D01*
X143835872Y-92099721D01*
X143925409Y-92203053D01*
X143925413Y-92203057D01*
X143983657Y-92240487D01*
X144015854Y-92261178D01*
X144061610Y-92313981D01*
X144071554Y-92383140D01*
X144042530Y-92446696D01*
X144036497Y-92453175D01*
X142686381Y-93803291D01*
X142625058Y-93836776D01*
X142555366Y-93831792D01*
X142499433Y-93789920D01*
X142485594Y-93762277D01*
X142484615Y-93762725D01*
X142424132Y-93630285D01*
X142424127Y-93630278D01*
X142334590Y-93526946D01*
X142334586Y-93526942D01*
X142238736Y-93465345D01*
X142219561Y-93453022D01*
X142219560Y-93453021D01*
X142219559Y-93453021D01*
X142088368Y-93414500D01*
X142088367Y-93414500D01*
X141951633Y-93414500D01*
X141951632Y-93414500D01*
X141820440Y-93453021D01*
X141705413Y-93526942D01*
X141705409Y-93526946D01*
X141615872Y-93630278D01*
X141615867Y-93630285D01*
X141559070Y-93754654D01*
X141559068Y-93754662D01*
X141539610Y-93890000D01*
X141559068Y-94025337D01*
X141559070Y-94025345D01*
X141615867Y-94149714D01*
X141615872Y-94149721D01*
X141705409Y-94253053D01*
X141705413Y-94253057D01*
X141753356Y-94283867D01*
X141820439Y-94326978D01*
X141884485Y-94345783D01*
X141943262Y-94383556D01*
X141972288Y-94447111D01*
X141962345Y-94516270D01*
X141937231Y-94552441D01*
X139871803Y-96617870D01*
X139867814Y-96621525D01*
X139836805Y-96647545D01*
X139816562Y-96682606D01*
X139813656Y-96687166D01*
X139790446Y-96720313D01*
X139788206Y-96725117D01*
X139781229Y-96741961D01*
X139779410Y-96746959D01*
X139772383Y-96786811D01*
X139771212Y-96792091D01*
X139760735Y-96831191D01*
X139761300Y-96837643D01*
X139764106Y-96869714D01*
X139764264Y-96871513D01*
X139764500Y-96876920D01*
X139764500Y-99243078D01*
X139764264Y-99248485D01*
X139760735Y-99288808D01*
X139771212Y-99327910D01*
X139772383Y-99333190D01*
X139779411Y-99373043D01*
X139781235Y-99378055D01*
X139788197Y-99394861D01*
X139790445Y-99399681D01*
X139790446Y-99399684D01*
X139793336Y-99403811D01*
X139813655Y-99432831D01*
X139816561Y-99437392D01*
X139836806Y-99472455D01*
X139867815Y-99498475D01*
X139871804Y-99502131D01*
X142320289Y-101950615D01*
X142353773Y-102011936D01*
X142356607Y-102038294D01*
X142356607Y-102550928D01*
X142336922Y-102617967D01*
X142284118Y-102663722D01*
X142214960Y-102673666D01*
X142181096Y-102663723D01*
X142179558Y-102663020D01*
X142048368Y-102624500D01*
X142048367Y-102624500D01*
X141911633Y-102624500D01*
X141911632Y-102624500D01*
X141780440Y-102663021D01*
X141665413Y-102736942D01*
X141665409Y-102736946D01*
X141575872Y-102840278D01*
X141575867Y-102840285D01*
X141519070Y-102964654D01*
X141519068Y-102964662D01*
X141502114Y-103082581D01*
X141473089Y-103146137D01*
X141467057Y-103152615D01*
X139701493Y-104918181D01*
X139640170Y-104951666D01*
X139613812Y-104954500D01*
X137886188Y-104954500D01*
X137819149Y-104934815D01*
X137798507Y-104918181D01*
X137157298Y-104276972D01*
X137123813Y-104215649D01*
X137128797Y-104145957D01*
X137170669Y-104090024D01*
X137236133Y-104065607D01*
X137279914Y-104070314D01*
X137331632Y-104085500D01*
X137331633Y-104085500D01*
X137468367Y-104085500D01*
X137599561Y-104046978D01*
X137708480Y-103976980D01*
X137714586Y-103973057D01*
X137714586Y-103973056D01*
X137714589Y-103973055D01*
X137804130Y-103869718D01*
X137860931Y-103745342D01*
X137880390Y-103610000D01*
X137860931Y-103474658D01*
X137822269Y-103390000D01*
X137804132Y-103350285D01*
X137804127Y-103350277D01*
X137755787Y-103294490D01*
X137726762Y-103230935D01*
X137725500Y-103213288D01*
X137725500Y-100990000D01*
X139634610Y-100990000D01*
X139654068Y-101125337D01*
X139654070Y-101125345D01*
X139710867Y-101249714D01*
X139710872Y-101249721D01*
X139800409Y-101353053D01*
X139800413Y-101353057D01*
X139860979Y-101391979D01*
X139915439Y-101426978D01*
X139981036Y-101446239D01*
X140046632Y-101465500D01*
X140046633Y-101465500D01*
X140183367Y-101465500D01*
X140314561Y-101426978D01*
X140429589Y-101353055D01*
X140519130Y-101249718D01*
X140575931Y-101125342D01*
X140595390Y-100990000D01*
X140575931Y-100854658D01*
X140539512Y-100774911D01*
X140519132Y-100730285D01*
X140519127Y-100730278D01*
X140429590Y-100626946D01*
X140429586Y-100626942D01*
X140326737Y-100560847D01*
X140314561Y-100553022D01*
X140314560Y-100553021D01*
X140314559Y-100553021D01*
X140183368Y-100514500D01*
X140183367Y-100514500D01*
X140046633Y-100514500D01*
X140046632Y-100514500D01*
X139915440Y-100553021D01*
X139800413Y-100626942D01*
X139800409Y-100626946D01*
X139710872Y-100730278D01*
X139710867Y-100730285D01*
X139654070Y-100854654D01*
X139654068Y-100854662D01*
X139634610Y-100990000D01*
X137725500Y-100990000D01*
X137725500Y-96956920D01*
X137725736Y-96951513D01*
X137726225Y-96945932D01*
X137729264Y-96911193D01*
X137718782Y-96872076D01*
X137717616Y-96866818D01*
X137710588Y-96826955D01*
X137710586Y-96826952D01*
X137710586Y-96826950D01*
X137708760Y-96821933D01*
X137701820Y-96805176D01*
X137699554Y-96800319D01*
X137699554Y-96800316D01*
X137676339Y-96767162D01*
X137673433Y-96762599D01*
X137653196Y-96727548D01*
X137653195Y-96727547D01*
X137653194Y-96727545D01*
X137622177Y-96701518D01*
X137618193Y-96697867D01*
X137455250Y-96534924D01*
X137421765Y-96473601D01*
X137426749Y-96403909D01*
X137468621Y-96347976D01*
X137510617Y-96330587D01*
X137509857Y-96327999D01*
X137550477Y-96316071D01*
X137649561Y-96286978D01*
X137764589Y-96213055D01*
X137854130Y-96109718D01*
X137910931Y-95985342D01*
X137930390Y-95850000D01*
X137910931Y-95714658D01*
X137891271Y-95671609D01*
X137854132Y-95590285D01*
X137854127Y-95590278D01*
X137764590Y-95486946D01*
X137764586Y-95486942D01*
X137649559Y-95413021D01*
X137518368Y-95374500D01*
X137518367Y-95374500D01*
X137381633Y-95374500D01*
X137381632Y-95374500D01*
X137250440Y-95413021D01*
X137135413Y-95486942D01*
X137135409Y-95486946D01*
X137045872Y-95590278D01*
X137045867Y-95590285D01*
X136989070Y-95714654D01*
X136989068Y-95714662D01*
X136979813Y-95779034D01*
X136950788Y-95842590D01*
X136892010Y-95880364D01*
X136822140Y-95880364D01*
X136769394Y-95849068D01*
X133492942Y-92572616D01*
X133459457Y-92511293D01*
X133457887Y-92502596D01*
X133440931Y-92384658D01*
X133423723Y-92346978D01*
X133384132Y-92260285D01*
X133384127Y-92260278D01*
X133294590Y-92156946D01*
X133294586Y-92156942D01*
X133179559Y-92083021D01*
X133048368Y-92044500D01*
X133048367Y-92044500D01*
X132911633Y-92044500D01*
X132911632Y-92044500D01*
X132780440Y-92083021D01*
X132665413Y-92156942D01*
X132665409Y-92156946D01*
X132575872Y-92260278D01*
X132575867Y-92260285D01*
X132519070Y-92384654D01*
X132519069Y-92384658D01*
X132499610Y-92520000D01*
X117549930Y-92520000D01*
X117056052Y-91000000D01*
X121369610Y-91000000D01*
X121389068Y-91135337D01*
X121389070Y-91135345D01*
X121445867Y-91259714D01*
X121445872Y-91259721D01*
X121535409Y-91363053D01*
X121535413Y-91363057D01*
X121592465Y-91399721D01*
X121650439Y-91436978D01*
X121716036Y-91456238D01*
X121781632Y-91475500D01*
X121781633Y-91475500D01*
X121918367Y-91475500D01*
X122049561Y-91436978D01*
X122164589Y-91363055D01*
X122254130Y-91259718D01*
X122310931Y-91135342D01*
X122310931Y-91135341D01*
X122314615Y-91127275D01*
X122316528Y-91128149D01*
X122347873Y-91079363D01*
X122381334Y-91064076D01*
X122346591Y-91033966D01*
X122328173Y-90984581D01*
X122310931Y-90864658D01*
X122290536Y-90820000D01*
X122254132Y-90740285D01*
X122254127Y-90740278D01*
X122164590Y-90636946D01*
X122164588Y-90636944D01*
X122160501Y-90634318D01*
X122114744Y-90581516D01*
X122104797Y-90512358D01*
X122133820Y-90448801D01*
X122160501Y-90425682D01*
X122164589Y-90423055D01*
X122254130Y-90319718D01*
X122310931Y-90195342D01*
X122315824Y-90161308D01*
X122344848Y-90097753D01*
X122386594Y-90070923D01*
X122490528Y-90070923D01*
X122532274Y-90097751D01*
X122561300Y-90161307D01*
X122561300Y-90161308D01*
X122569068Y-90215337D01*
X122569070Y-90215345D01*
X122625867Y-90339714D01*
X122625872Y-90339721D01*
X122715409Y-90443053D01*
X122715413Y-90443057D01*
X122812865Y-90505684D01*
X122858621Y-90558487D01*
X122868565Y-90627646D01*
X122839541Y-90691202D01*
X122812865Y-90714316D01*
X122715413Y-90776942D01*
X122715409Y-90776946D01*
X122625872Y-90880278D01*
X122625867Y-90880285D01*
X122565385Y-91012725D01*
X122563474Y-91011852D01*
X122532107Y-91060653D01*
X122498661Y-91075923D01*
X122533394Y-91106011D01*
X122551826Y-91155418D01*
X122569068Y-91275337D01*
X122569070Y-91275345D01*
X122625867Y-91399714D01*
X122625872Y-91399721D01*
X122715409Y-91503053D01*
X122715413Y-91503057D01*
X122775979Y-91541979D01*
X122830439Y-91576978D01*
X122896035Y-91596238D01*
X122961632Y-91615500D01*
X122961633Y-91615500D01*
X123098367Y-91615500D01*
X123229561Y-91576978D01*
X123344589Y-91503055D01*
X123434130Y-91399718D01*
X123490931Y-91275342D01*
X123510390Y-91140000D01*
X123490931Y-91004658D01*
X123478677Y-90977827D01*
X123434132Y-90880285D01*
X123434127Y-90880278D01*
X123344590Y-90776946D01*
X123344586Y-90776943D01*
X123287533Y-90740278D01*
X123247132Y-90714314D01*
X123201378Y-90661513D01*
X123191434Y-90592355D01*
X123220458Y-90528799D01*
X123247130Y-90505686D01*
X123344589Y-90443055D01*
X123434130Y-90339718D01*
X123490931Y-90215342D01*
X123510390Y-90080000D01*
X123490931Y-89944658D01*
X123468078Y-89894617D01*
X123434132Y-89820285D01*
X123434127Y-89820278D01*
X123344590Y-89716946D01*
X123344586Y-89716942D01*
X123229559Y-89643021D01*
X123098368Y-89604500D01*
X123098367Y-89604500D01*
X122961633Y-89604500D01*
X122961632Y-89604500D01*
X122830440Y-89643021D01*
X122715413Y-89716942D01*
X122715409Y-89716946D01*
X122625872Y-89820278D01*
X122625867Y-89820285D01*
X122569070Y-89944654D01*
X122569068Y-89944661D01*
X122564175Y-89978693D01*
X122535149Y-90042248D01*
X122490528Y-90070923D01*
X122386594Y-90070923D01*
X122389469Y-90069075D01*
X122347723Y-90042245D01*
X122318699Y-89978689D01*
X122310932Y-89924663D01*
X122310931Y-89924661D01*
X122310931Y-89924658D01*
X122292974Y-89885337D01*
X122254132Y-89800285D01*
X122254127Y-89800278D01*
X122164590Y-89696946D01*
X122164586Y-89696942D01*
X122049559Y-89623021D01*
X121918368Y-89584500D01*
X121918367Y-89584500D01*
X121781633Y-89584500D01*
X121781632Y-89584500D01*
X121650440Y-89623021D01*
X121535413Y-89696942D01*
X121535409Y-89696946D01*
X121445872Y-89800278D01*
X121445867Y-89800285D01*
X121389070Y-89924654D01*
X121389068Y-89924662D01*
X121369610Y-90060000D01*
X121389068Y-90195337D01*
X121389070Y-90195345D01*
X121445867Y-90319714D01*
X121445872Y-90319721D01*
X121535409Y-90423053D01*
X121535411Y-90423055D01*
X121539502Y-90425684D01*
X121585257Y-90478488D01*
X121595201Y-90547647D01*
X121566176Y-90611203D01*
X121539502Y-90634316D01*
X121535411Y-90636944D01*
X121535409Y-90636946D01*
X121445872Y-90740278D01*
X121445867Y-90740285D01*
X121389070Y-90864654D01*
X121389068Y-90864662D01*
X121369610Y-91000000D01*
X117056052Y-91000000D01*
X116237254Y-88480000D01*
X121249610Y-88480000D01*
X121269068Y-88615337D01*
X121269070Y-88615345D01*
X121325867Y-88739714D01*
X121325872Y-88739721D01*
X121415409Y-88843053D01*
X121415413Y-88843057D01*
X121464847Y-88874825D01*
X121530439Y-88916978D01*
X121596036Y-88936238D01*
X121661632Y-88955500D01*
X121661633Y-88955500D01*
X121798367Y-88955500D01*
X121929561Y-88916978D01*
X122044589Y-88843055D01*
X122134130Y-88739718D01*
X122190931Y-88615342D01*
X122210390Y-88480000D01*
X122190931Y-88344658D01*
X122169156Y-88296978D01*
X122134132Y-88220285D01*
X122134127Y-88220278D01*
X122081163Y-88159154D01*
X122044589Y-88116945D01*
X122044583Y-88116941D01*
X122043792Y-88116255D01*
X122043220Y-88115365D01*
X122038781Y-88110242D01*
X122039517Y-88109603D01*
X122006020Y-88057475D01*
X122006023Y-87987605D01*
X122043800Y-87928829D01*
X122073491Y-87909749D01*
X122079551Y-87906980D01*
X122079561Y-87906978D01*
X122194589Y-87833055D01*
X122264555Y-87752309D01*
X122284127Y-87729722D01*
X122284127Y-87729720D01*
X122284130Y-87729718D01*
X122284367Y-87729198D01*
X122284740Y-87728766D01*
X122288924Y-87722258D01*
X122289859Y-87722858D01*
X122330114Y-87676392D01*
X122397152Y-87656700D01*
X122464193Y-87676377D01*
X122509954Y-87729176D01*
X122509959Y-87729188D01*
X122555869Y-87829716D01*
X122555872Y-87829721D01*
X122645409Y-87933053D01*
X122645413Y-87933057D01*
X122767899Y-88011772D01*
X122767130Y-88012968D01*
X122812772Y-88052524D01*
X122832451Y-88119565D01*
X122812761Y-88186603D01*
X122789659Y-88213263D01*
X122785412Y-88216942D01*
X122695872Y-88320278D01*
X122695867Y-88320285D01*
X122639070Y-88444654D01*
X122639068Y-88444662D01*
X122620206Y-88575853D01*
X122619610Y-88580000D01*
X122623230Y-88605176D01*
X122639068Y-88715337D01*
X122639070Y-88715345D01*
X122695867Y-88839714D01*
X122695872Y-88839721D01*
X122785409Y-88943053D01*
X122785413Y-88943057D01*
X122845979Y-88981979D01*
X122900439Y-89016978D01*
X122966035Y-89036238D01*
X123031632Y-89055500D01*
X123031633Y-89055500D01*
X123168367Y-89055500D01*
X123299561Y-89016978D01*
X123414589Y-88943055D01*
X123504130Y-88839718D01*
X123506061Y-88835491D01*
X123535969Y-88770000D01*
X123560931Y-88715342D01*
X123580390Y-88580000D01*
X123560931Y-88444658D01*
X123545102Y-88409997D01*
X123504132Y-88320285D01*
X123504127Y-88320278D01*
X123414590Y-88216946D01*
X123414586Y-88216942D01*
X123292101Y-88138228D01*
X123292869Y-88137032D01*
X123247223Y-88097469D01*
X123227548Y-88030426D01*
X123247242Y-87963390D01*
X123270349Y-87936728D01*
X123274578Y-87933061D01*
X123274589Y-87933055D01*
X123350888Y-87845000D01*
X130974610Y-87845000D01*
X130994068Y-87980337D01*
X130994070Y-87980345D01*
X131050867Y-88104714D01*
X131050872Y-88104721D01*
X131140409Y-88208053D01*
X131140413Y-88208057D01*
X131197361Y-88244654D01*
X131255439Y-88281978D01*
X131321036Y-88301238D01*
X131386632Y-88320500D01*
X131386633Y-88320500D01*
X131523367Y-88320500D01*
X131536445Y-88316660D01*
X139128366Y-88316660D01*
X139147824Y-88451997D01*
X139147826Y-88452005D01*
X139204623Y-88576374D01*
X139204628Y-88576381D01*
X139294165Y-88679713D01*
X139294169Y-88679717D01*
X139341731Y-88710282D01*
X139409195Y-88753638D01*
X139464919Y-88770000D01*
X139540388Y-88792160D01*
X139540389Y-88792160D01*
X139677123Y-88792160D01*
X139808317Y-88753638D01*
X139923345Y-88679715D01*
X140012886Y-88576378D01*
X140069687Y-88452002D01*
X140089146Y-88316660D01*
X140079562Y-88250000D01*
X142189610Y-88250000D01*
X142209068Y-88385337D01*
X142209070Y-88385345D01*
X142265867Y-88509714D01*
X142265872Y-88509721D01*
X142355409Y-88613053D01*
X142355413Y-88613057D01*
X142415979Y-88651979D01*
X142470439Y-88686978D01*
X142515759Y-88700285D01*
X142601632Y-88725500D01*
X142601633Y-88725500D01*
X142738367Y-88725500D01*
X142869561Y-88686978D01*
X142984589Y-88613055D01*
X143074130Y-88509718D01*
X143130931Y-88385342D01*
X143150390Y-88250000D01*
X143130931Y-88114658D01*
X143102555Y-88052524D01*
X143074132Y-87990285D01*
X143074127Y-87990278D01*
X142984590Y-87886946D01*
X142984586Y-87886942D01*
X142942661Y-87859999D01*
X146419610Y-87859999D01*
X146439068Y-87995337D01*
X146439070Y-87995345D01*
X146495867Y-88119714D01*
X146495872Y-88119721D01*
X146585409Y-88223053D01*
X146585413Y-88223057D01*
X146630966Y-88252331D01*
X146700439Y-88296978D01*
X146718476Y-88302274D01*
X146831632Y-88335500D01*
X146831633Y-88335500D01*
X146968367Y-88335500D01*
X147099561Y-88296978D01*
X147214589Y-88223055D01*
X147304130Y-88119718D01*
X147305397Y-88116945D01*
X147320669Y-88083503D01*
X147360931Y-87995342D01*
X147380390Y-87860000D01*
X147360931Y-87724658D01*
X147338882Y-87676377D01*
X147304132Y-87600285D01*
X147304127Y-87600278D01*
X147214590Y-87496946D01*
X147214586Y-87496942D01*
X147099559Y-87423021D01*
X146968368Y-87384500D01*
X146968367Y-87384500D01*
X146831633Y-87384500D01*
X146831632Y-87384500D01*
X146700440Y-87423021D01*
X146585413Y-87496942D01*
X146585409Y-87496946D01*
X146495872Y-87600278D01*
X146495867Y-87600285D01*
X146439070Y-87724654D01*
X146439068Y-87724662D01*
X146419610Y-87859999D01*
X142942661Y-87859999D01*
X142878863Y-87819000D01*
X142869561Y-87813022D01*
X142869560Y-87813021D01*
X142869559Y-87813021D01*
X142738368Y-87774500D01*
X142738367Y-87774500D01*
X142601633Y-87774500D01*
X142601632Y-87774500D01*
X142470440Y-87813021D01*
X142355413Y-87886942D01*
X142355409Y-87886946D01*
X142265872Y-87990278D01*
X142265867Y-87990285D01*
X142209070Y-88114654D01*
X142209068Y-88114662D01*
X142189610Y-88250000D01*
X140079562Y-88250000D01*
X140069687Y-88181318D01*
X140041811Y-88120278D01*
X140012888Y-88056945D01*
X140012883Y-88056938D01*
X139923346Y-87953606D01*
X139923342Y-87953602D01*
X139819620Y-87886946D01*
X139808317Y-87879682D01*
X139808316Y-87879681D01*
X139808315Y-87879681D01*
X139677124Y-87841160D01*
X139677123Y-87841160D01*
X139540389Y-87841160D01*
X139540388Y-87841160D01*
X139409196Y-87879681D01*
X139294169Y-87953602D01*
X139294165Y-87953606D01*
X139204628Y-88056938D01*
X139204623Y-88056945D01*
X139147826Y-88181314D01*
X139147824Y-88181322D01*
X139128366Y-88316660D01*
X131536445Y-88316660D01*
X131654561Y-88281978D01*
X131769589Y-88208055D01*
X131859130Y-88104718D01*
X131861155Y-88100285D01*
X131880949Y-88056942D01*
X131915931Y-87980342D01*
X131935390Y-87845000D01*
X131915931Y-87709658D01*
X131885185Y-87642334D01*
X131859132Y-87585285D01*
X131859127Y-87585278D01*
X131769590Y-87481946D01*
X131769586Y-87481942D01*
X131654559Y-87408021D01*
X131523368Y-87369500D01*
X131523367Y-87369500D01*
X131386633Y-87369500D01*
X131386632Y-87369500D01*
X131255440Y-87408021D01*
X131140413Y-87481942D01*
X131140409Y-87481946D01*
X131050872Y-87585278D01*
X131050867Y-87585285D01*
X130994070Y-87709654D01*
X130994068Y-87709662D01*
X130974610Y-87845000D01*
X123350888Y-87845000D01*
X123364130Y-87829718D01*
X123420931Y-87705342D01*
X123440390Y-87570000D01*
X123420931Y-87434658D01*
X123408677Y-87407827D01*
X123364132Y-87310285D01*
X123364127Y-87310278D01*
X123274590Y-87206946D01*
X123274586Y-87206942D01*
X123159559Y-87133021D01*
X123028368Y-87094500D01*
X123028367Y-87094500D01*
X122891633Y-87094500D01*
X122891632Y-87094500D01*
X122760440Y-87133021D01*
X122645413Y-87206942D01*
X122645409Y-87206946D01*
X122555872Y-87310278D01*
X122555869Y-87310283D01*
X122555627Y-87310814D01*
X122555244Y-87311254D01*
X122551076Y-87317742D01*
X122550143Y-87317142D01*
X122509870Y-87363617D01*
X122442830Y-87383299D01*
X122375791Y-87363612D01*
X122330040Y-87310810D01*
X122284132Y-87210285D01*
X122284127Y-87210278D01*
X122194590Y-87106946D01*
X122194586Y-87106942D01*
X122103406Y-87048346D01*
X122079561Y-87033022D01*
X122079560Y-87033021D01*
X122079559Y-87033021D01*
X121948368Y-86994500D01*
X121948367Y-86994500D01*
X121811633Y-86994500D01*
X121811632Y-86994500D01*
X121680440Y-87033021D01*
X121565413Y-87106942D01*
X121565409Y-87106946D01*
X121475872Y-87210278D01*
X121475867Y-87210285D01*
X121419070Y-87334654D01*
X121419068Y-87334662D01*
X121399610Y-87470000D01*
X121419068Y-87605337D01*
X121419070Y-87605345D01*
X121475867Y-87729714D01*
X121475872Y-87729721D01*
X121565410Y-87833054D01*
X121566206Y-87833744D01*
X121566774Y-87834628D01*
X121571219Y-87839758D01*
X121570481Y-87840397D01*
X121603978Y-87892523D01*
X121603976Y-87962393D01*
X121566200Y-88021169D01*
X121536518Y-88040246D01*
X121530436Y-88043023D01*
X121415413Y-88116942D01*
X121415409Y-88116946D01*
X121325872Y-88220278D01*
X121325867Y-88220285D01*
X121269070Y-88344654D01*
X121269068Y-88344662D01*
X121249610Y-88480000D01*
X116237254Y-88480000D01*
X115382715Y-85850000D01*
X121129610Y-85850000D01*
X121149068Y-85985337D01*
X121149070Y-85985345D01*
X121205867Y-86109714D01*
X121205872Y-86109721D01*
X121295409Y-86213053D01*
X121295413Y-86213057D01*
X121326535Y-86233057D01*
X121410439Y-86286978D01*
X121476036Y-86306238D01*
X121541632Y-86325500D01*
X121541633Y-86325500D01*
X121678367Y-86325500D01*
X121809561Y-86286978D01*
X121924589Y-86213055D01*
X122014130Y-86109718D01*
X122070931Y-85985342D01*
X122090390Y-85850000D01*
X122070931Y-85714658D01*
X122042904Y-85653288D01*
X122014132Y-85590285D01*
X122014127Y-85590278D01*
X121924590Y-85486946D01*
X121924586Y-85486942D01*
X121833736Y-85428558D01*
X121809561Y-85413022D01*
X121809560Y-85413021D01*
X121809559Y-85413021D01*
X121678368Y-85374500D01*
X121678367Y-85374500D01*
X121541633Y-85374500D01*
X121541632Y-85374500D01*
X121410440Y-85413021D01*
X121295413Y-85486942D01*
X121295409Y-85486946D01*
X121205872Y-85590278D01*
X121205867Y-85590285D01*
X121149070Y-85714654D01*
X121149068Y-85714662D01*
X121129610Y-85850000D01*
X115382715Y-85850000D01*
X115356793Y-85770221D01*
X115355119Y-85763973D01*
X115328103Y-85636853D01*
X115325395Y-85611076D01*
X115325395Y-85589411D01*
X115325396Y-85490895D01*
X115328105Y-85465130D01*
X115353092Y-85347575D01*
X115361102Y-85322925D01*
X115409985Y-85213132D01*
X115422937Y-85190698D01*
X115493578Y-85093467D01*
X115510919Y-85074208D01*
X115510925Y-85074203D01*
X115607528Y-84987217D01*
X115612559Y-84983144D01*
X115613476Y-84982478D01*
X115892163Y-84780000D01*
X132519610Y-84780000D01*
X132523113Y-84804362D01*
X132539068Y-84915337D01*
X132539070Y-84915345D01*
X132595867Y-85039714D01*
X132595872Y-85039721D01*
X132685409Y-85143053D01*
X132685413Y-85143057D01*
X132745979Y-85181979D01*
X132800439Y-85216978D01*
X132866035Y-85236238D01*
X132931632Y-85255500D01*
X132931633Y-85255500D01*
X133068367Y-85255500D01*
X133199561Y-85216978D01*
X133314589Y-85143055D01*
X133404130Y-85039718D01*
X133460931Y-84915342D01*
X133480390Y-84780000D01*
X133460931Y-84644658D01*
X133437554Y-84593470D01*
X133404132Y-84520285D01*
X133404127Y-84520278D01*
X133314590Y-84416946D01*
X133314586Y-84416942D01*
X133199559Y-84343021D01*
X133068368Y-84304500D01*
X133068367Y-84304500D01*
X132931633Y-84304500D01*
X132931632Y-84304500D01*
X132800440Y-84343021D01*
X132685413Y-84416942D01*
X132685409Y-84416946D01*
X132595872Y-84520278D01*
X132595867Y-84520285D01*
X132539070Y-84644654D01*
X132539068Y-84644662D01*
X132523212Y-84754945D01*
X132519610Y-84780000D01*
X115892163Y-84780000D01*
X122705255Y-79829999D01*
X137339610Y-79829999D01*
X137359068Y-79965337D01*
X137359070Y-79965345D01*
X137415867Y-80089714D01*
X137415872Y-80089721D01*
X137505409Y-80193053D01*
X137505413Y-80193057D01*
X137565979Y-80231979D01*
X137620439Y-80266978D01*
X137686035Y-80286238D01*
X137751632Y-80305500D01*
X137751633Y-80305500D01*
X137888367Y-80305500D01*
X138019561Y-80266978D01*
X138134589Y-80193055D01*
X138224130Y-80089718D01*
X138280931Y-79965342D01*
X138300390Y-79830000D01*
X138300390Y-79829999D01*
X145209610Y-79829999D01*
X145229068Y-79965337D01*
X145229070Y-79965345D01*
X145285867Y-80089714D01*
X145285872Y-80089721D01*
X145375409Y-80193053D01*
X145375413Y-80193057D01*
X145435979Y-80231979D01*
X145490439Y-80266978D01*
X145556036Y-80286238D01*
X145621632Y-80305500D01*
X145621633Y-80305500D01*
X145758367Y-80305500D01*
X145889561Y-80266978D01*
X146004589Y-80193055D01*
X146094130Y-80089718D01*
X146150931Y-79965342D01*
X146170390Y-79830000D01*
X146150931Y-79694658D01*
X146138677Y-79667827D01*
X146094132Y-79570285D01*
X146094127Y-79570278D01*
X146004590Y-79466946D01*
X146004586Y-79466942D01*
X145889559Y-79393021D01*
X145758368Y-79354500D01*
X145758367Y-79354500D01*
X145621633Y-79354500D01*
X145621632Y-79354500D01*
X145490440Y-79393021D01*
X145375413Y-79466942D01*
X145375409Y-79466946D01*
X145285872Y-79570278D01*
X145285867Y-79570285D01*
X145229070Y-79694654D01*
X145229068Y-79694662D01*
X145209610Y-79829999D01*
X138300390Y-79829999D01*
X138280931Y-79694658D01*
X138268677Y-79667827D01*
X138224132Y-79570285D01*
X138224127Y-79570278D01*
X138134590Y-79466946D01*
X138134586Y-79466942D01*
X138019559Y-79393021D01*
X137888368Y-79354500D01*
X137888367Y-79354500D01*
X137751633Y-79354500D01*
X137751632Y-79354500D01*
X137620440Y-79393021D01*
X137505413Y-79466942D01*
X137505409Y-79466946D01*
X137415872Y-79570278D01*
X137415867Y-79570285D01*
X137359070Y-79694654D01*
X137359068Y-79694662D01*
X137339610Y-79829999D01*
X122705255Y-79829999D01*
X136799406Y-69589999D01*
X146719610Y-69589999D01*
X146739068Y-69725337D01*
X146739070Y-69725345D01*
X146795867Y-69849714D01*
X146795872Y-69849721D01*
X146885409Y-69953053D01*
X146885413Y-69953057D01*
X146945979Y-69991979D01*
X147000439Y-70026978D01*
X147066035Y-70046239D01*
X147131632Y-70065500D01*
X147131633Y-70065500D01*
X147268367Y-70065500D01*
X147399561Y-70026978D01*
X147514589Y-69953055D01*
X147604130Y-69849718D01*
X147660931Y-69725342D01*
X147680390Y-69590000D01*
X147660931Y-69454658D01*
X147648677Y-69427827D01*
X147604132Y-69330285D01*
X147604127Y-69330278D01*
X147514590Y-69226946D01*
X147514586Y-69226942D01*
X147399559Y-69153021D01*
X147268368Y-69114500D01*
X147268367Y-69114500D01*
X147131633Y-69114500D01*
X147131632Y-69114500D01*
X147000440Y-69153021D01*
X146885413Y-69226942D01*
X146885409Y-69226946D01*
X146795872Y-69330278D01*
X146795867Y-69330285D01*
X146739070Y-69454654D01*
X146739068Y-69454662D01*
X146719610Y-69589999D01*
X136799406Y-69589999D01*
X149662940Y-60244094D01*
X149662941Y-60244094D01*
X149698829Y-60218019D01*
X149704241Y-60214504D01*
X149816809Y-60149513D01*
X149840475Y-60138976D01*
X149954779Y-60101837D01*
X149980119Y-60096450D01*
X150099643Y-60083888D01*
X150125559Y-60083888D01*
X150245080Y-60096450D01*
G37*
%TD.AperFunction*%
%TD*%
M02*
